<svg xmlns="http://www.w3.org/2000/svg" viewBox="0 0 604.23 177.5">
  <path fill="#e7157c" d="m459.1 41.58a41.79 41.79 0 1 1 -41.79-41.58 41.68 41.68 0 0 1 41.79 41.58"/>
  <g fill="#888">
    <path d="m110 123c-11.31 0-16.44.84-18.13.84 0-1.18-1.3-4.15 1.18-4.7a34.61 34.61 0 0 0 7.08-2 4 4 0 0 0 2.7-3.86c-.51-44.43 1.24-49.15-1.77-52.86-1.18-1.45-3.74-2.35-7.67-2.68-2.46-.38-2.45-2.17-1.86-4.54 19.34 0 26.48-6.39 26.48-.5 0 4.66-1 5.45-1 14.27v46.31a4 4 0 0 0 2.62 3.86c7.09 3.2 9 .17 8.6 5.53-.21 2.42 1.17.34-18.21.34"/>
    <path d="m167.77 91.81c11.86 0 15.39-10.53 12.9-22.4-1.62-7.68-6.74-13.17-15.43-13.17-11.49 0-14.4 10.44-12.06 22.06 1.59 8 6.36 13.51 14.59 13.51m-19.06 29.7c-3.53 3.37-4.72 7.54-4.72 12.42a19.42 19.42 0 0 0 1.86 9.9c7.06 14.8 32.49 15 40.72 7.13 5.72-5.51 6.48-13.53 4-18.54-2.28-4.55-8-6.61-13-7.64-9.71-2-19.66.1-28.84-3.27m-4.05-2q-7.24-4.2-7.25-12.08 0-8.4 11.13-13.77c-11.84-7.14-14.95-24.91-1.85-36.24 12.21-10.57 31-8.85 41.65-.17l16.64-7.25c4.53 2.87 4.56 10.4 1 10.4-4.41.07-6.54-.77-13.83.84 4.78 6.15 5.33 15.57 1.68 22.32-7.43 13.73-28 16.71-40.64 12.24a17.79 17.79 0 0 0 -6.07 4c-1.72 2.06-2.33 4.24-.84 6.46 5.73 8.59 41.81-2.23 54.39 16.36 6.89 10.19 3 31.74-19.57 38.51-10.23 3.07-28.86 3.54-40-3.6-11.47-7.33-13.79-28 3.54-38.09"/>
    <path d="m233.43 66.81c1.4-.93 12.81-16.62 28.5-16.62 12.36 0 20.41 7.53 20.41 22.32v40.95q0 2.51 3 3.77c7.21 3 9.21.27 7.93 6.63-12.89-1-19.36-1.25-35.58 0-1.14-5.55.6-4.21 4.3-5.37 2.58-.81 6.15-2.32 6.15-5-.15-34.44 2-45.91-6.29-50.76-7.66-4.48-28.45.75-28.45 20.21v30.55q0 2.51 2.87 3.77c6.87 3 8.84.4 7.59 6.63a188.08 188.08 0 0 0 -35.58 0c-1.29-6.36.72-3.64 7.92-6.63q3-1.26 3-3.94v-79c0-7-2-8.82-10.12-9.73-2.48-.38-2.47-2.25-1.86-4.7 26 0 28.78-9.76 26.65 6.13-.77 6.19-.3 10.26-.44 40.79z"/>
    <path d="m372.54 113.45c0 1.68 1 2.94 3 3.78 7.26 3 9.18.37 7.93 6.63a187.19 187.19 0 0 0 -35.59 0c-1.27-6.23.73-3.62 7.59-6.63q2.87-1.26 2.87-3.78c-.15-34.48 2-45.9-6.3-50.75-7.58-4.45-28.44.67-28.44 20.22v30.53q0 2.52 2.95 3.78c6.92 3 8.74.52 7.5 6.63a186.29 186.29 0 0 0 -35.58 0c-1.26-6.25.68-3.62 7.93-6.63q3-1.26 3-3.94c-.51-44.37 1.24-49.14-1.77-52.86-1.11-1.43-3.63-2.35-7.63-2.68-2.47-.38-2.45-2.18-1.85-4.54a78.8 78.8 0 0 0 19.68-2.21c10.42-2.57 5.81 1.44 5.81 16 7.91-8.83 16.6-16.78 28.4-16.78 13.8 0 20.5 8.55 20.5 22.48z"/>
    <path d="m504.4 113.12c1.77-1.77 3.61-1.65 5.05 1-9.29 10.31-17.91 12.31-26.64 10.15-4.5-1.12-7.18-4.41-8.68-8.9-2.13-6.32-.92-11.45-1.27-56.12h-10.12c.11-1.16-.63-5 2.19-5 14.15 0 13.86-19.46 19.06-19.46h3v17.42h19.73a14.1 14.1 0 0 1 -.76 5.28c-1.29 3-3.79 1.28-19 1.77.16 46.8-2.31 58.05 7.42 58.05 3.76 0 6.89-1.86 9.95-4.19"/>
    <path d="m545.71 56.23c-12.42 0-17.79 11.24-17.79 23.67 31.63-2.07 34.24-.15 34.24-3.7 0-9.66-6.19-20-16.45-20m27.29 51.21c2.29-2.28 5.18-.85 6.52 1.68-1.46 2-4 4-5.87 5.87-17.6 17.49-61.21 14.57-61.21-25.84 0-22.88 19.45-38.92 35.58-38.92q15.68 0 22.85 9.06a37.33 37.33 0 0 1 8 23.66c0 .67-1.14 1-1.82 1l-48.79 2.18c0 30.52 29.71 38.56 44.71 21.31"/>
    <path d="m26.48 66.74c1.62-1.07 16.52-21.69 36.26-15.44 6.92 2.2 12.65 8.82 12.65 21.14v41q0 2.51 3 3.77c7.17 3 9.2.29 7.93 6.63-13.18-1-19.38-1.24-35.58 0-.44-2.17-.81-4.25 1.18-4.7 3-.33 9.27-2.27 9.27-5.7-.15-33.73 2-45.88-6.29-50.76-7.66-4.48-28.45.75-28.45 20.22v30.54q0 2.51 2.87 3.77c6.88 3 8.85.4 7.59 6.63a187.36 187.36 0 0 0 -35.58 0c-1.29-6.35.72-3.64 7.92-6.63q3-1.26 3-3.94v-79c0-7-2-8.83-10.12-9.74-2.41-.45-2.4-2.33-1.79-4.77 3.37 0 9.73-.48 13.16-.84 8.32-1.07 14-4.49 14 .33 0 5.19-1 7.28-1 15.44z"/>
    <path d="m235.53 167.48-7.45-15h3.39c0 .11 5.51 12.16 5.57 12.28h.15c.35-.79 5.23-11.38 5.64-12.28h3.24l-7.42 15v9.52h-3.12z"/>
    <path d="m254.61 174.89c7.09 0 7-14 0-14s-7.09 14 0 14m0-16.54c11.27 0 11.34 19.09 0 19.09s-11.25-19.09 0-19.09"/>
    <path d="m267.63 158.8h3.12c.6 9.37-1.74 16 3.43 16 1.88 0 3.19-.93 4.93-3.07v-12.93h3.08v18.2h-2.56l-.26-2.84h-.11c-1.7 2-3.5 3.29-6 3.29-8.17-.01-4.86-10.38-5.63-18.65z"/>
    <path d="m288.36 158.8h2.56l.27 3.29h.11c1.91-3.52 4.85-4.36 7.15-3.37l-.61 2.7c-3.17-1-5.15.83-6.39 3.89v11.69h-3.09z"/>
    <path d="m323.36 169.65c0-5.81-8.58-4.11-11-4.41v9.28c2.27-.32 11 1.48 11-4.87zm-1.4-11c0-5-7-3.48-9.59-3.78v8c2.05-.28 9.63 1.43 9.63-4.19zm-12.75-6.25c4.3.46 15.84-2.05 15.84 6a5.32 5.32 0 0 1 -4.33 5.35v.15c3.62.57 5.72 2.51 5.72 5.88 0 9.6-13.47 6.68-17.23 7.19z"/>
    <path d="m331 158.8h2.56l.26 3.29h.11c1.92-3.52 4.86-4.36 7.15-3.37l-.6 2.7c-3.18-1-5.16.84-6.4 3.89v11.69h-3.08z"/>
    <path d="m348.42 175c1.76 0 3.23-.86 5-2.43v-5.06c-6.13.75-8.2 2.25-8.2 4.57 0 2.06 1.39 2.92 3.2 2.92m5-9.51c0-5.71-5-5.49-9.22-2.62l-1.2-2.17a13.68 13.68 0 0 1 7.19-2.35c9.1 0 5.59 11 6.36 18.64h-2.55l-.27-2.17h-.07c-6.12 4.92-11.44 2.23-11.44-2.55 0-4 3.46-6 11.25-6.81"/>
    <path d="m362.34 158.8h2.56l.26 2.62h.11c1.74-1.73 3.62-3.07 6.14-3.07 8.1 0 4.8 10.44 5.57 18.64h-3.09c-.61-9.25 1.77-16-3.46-16-1.88 0-3.16 1-5 2.8v13.21h-3.08z"/>
    <path d="m389.85 174.86c1.69 0 3.16-.83 4.66-2.51v-9.51c-4.64-4.17-9.71-1.11-9.71 5 0 4.35 1.85 7 5.05 7m-.3-16.51a7.55 7.55 0 0 1 5.11 2.09l-.15-3.1v-7h3.12v26.68h-2.56l-.26-2.13h-.11c-5.05 4.89-13.09 2.94-13.09-6.93 0-5.91 3.76-9.58 7.94-9.58"/>
    <path d="m405.43 172.72c2.91 0 3 4.72 0 4.72s-3-4.72 0-4.72"/>
    <path d="m420.96 152.43v24.56h14.6v-2.66h-11.43v-8.91h9.33v-2.66h-9.33v-7.71h11.06v-2.62z"/>
    <path d="m440.42 150.34h3.08c.41 23.85-1.06 25.06 1.55 24.48l.41 2.32a4.12 4.12 0 0 1 -1.77.3c-2.33 0-3.27-1.46-3.27-4.12z"/>
    <path d="m461.45 166.54c0-8-9-7.44-9.78 0zm-4.59-8.19c5.72 0 8 5.24 7.19 10.22h-12.34c.35 6.17 5.87 8 10.65 5l1.09 2c-6.75 4.32-14.79.94-14.79-7.64 0-6 4-9.58 8.2-9.58"/>
    <path d="m466.23 158.8h3.2c1.11 3.36-1.75-5.45 5.15 15.68h.15c2.53-8.25 3-9.35 5.12-15.68h3l-6.42 18.2h-3.61z"/>
    <path d="m491 175c1.77 0 3.23-.86 5-2.43v-5.06c-6.13.75-8.2 2.25-8.2 4.57 0 2.06 1.39 2.92 3.2 2.92m5-9.51c0-5.67-5-5.51-9.22-2.62l-1.24-2.14c6.16-3.94 13.55-3.54 13.55 5.14v11.13h-2.56l-.26-2.17h-.08c-6.12 4.92-11.44 2.23-11.44-2.55 0-4 3.46-6 11.25-6.81"/>
    <path d="m505.48 161.31h-2.71v-2.31l2.86-.18.38-5.1h2.59v5.1h4.93v2.51h-4.93c.45 8.48-2 15.71 4.89 13.14l.6 2.32c-11.52 3.81-8.02-8.27-8.61-15.48z"/>
    <path d="m528.73 166.54c0-8-9-7.44-9.78 0zm-4.59-8.19c5.71 0 8 5.2 7.19 10.22h-12.33c.35 6.17 5.87 8 10.65 5l1.09 2c-6.75 4.32-14.79.94-14.79-7.64 0-6 4-9.58 8.2-9.58"/>
    <path d="m542.88 174.86c1.69 0 3.16-.83 4.67-2.51v-9.51c-4.64-4.16-9.71-1.12-9.71 5 0 4.35 1.84 7 5 7m-.3-16.51a7.55 7.55 0 0 1 5.12 2.09l-.15-3.1v-7h3.12v26.68h-2.56l-.26-2.13h-.12c-5 4.89-13.09 2.94-13.09-6.93 0-5.91 3.76-9.58 7.94-9.58"/>
    <path d="m558.46 172.72c2.92 0 3 4.72 0 4.72s-3-4.72 0-4.72"/>
    <path d="m595.69 50.94c11.32 0 11.46 17.8 0 17.8s-11.33-17.8 0-17.8zm0 1.32c-9.35 0-9.5 15.15 0 15.15s9.31-15.15 0-15.15zm-3.18 2.74c1.93.19 6.83-1 6.83 3a2.69 2.69 0 0 1 -1.86 2.55l2.3 4h-1.78l-1.78-3.55h-2.22v3.48h-1.48zm5.23 3c0-2.37-2.94-1.59-3.75-1.75v3.45c.71-.09 3.75.49 3.75-1.7z"/>
  </g>
</svg>
