<svg xmlns="http://www.w3.org/2000/svg" viewBox="0 0 432 247.98">
  <g fill="#888">
    <path d="m186.92 105.3a117.67 117.67 0 0 1 5.79-47.23h-21.09l-46.62-58.07-23.81 58.11h9.38l19.43-46.81 33.08 40.7v53.3z"/>
    <path d="m124.67 62.47v33.2l3.11-.41v-29.52l16.44-2.47-.1-3.82z"/>
    <path d="m135.38 80.69v12.74l6.18-.24-.13-12.99z"/>
    <path d="m141.42 79.11-.14-13.57-5.9.92v13.14z"/>
    <path d="m134.05 79.71v-13.04l-4.63.59-.03 12.83z"/>
    <path d="m129.48 81.15-.02 12.59 4.59-.25v-12.7z"/>
    <path d="m277.19 86.53-10.3-55.11a36.88 36.88 0 0 0 -13.19 7.74z"/>
    <path d="m279.83 85.23 6.76-53.33a29.72 29.72 0 0 0 -16.59-1.29z"/>
    <path d="m285.16 87.7 27.44-28.27a65.4 65.4 0 0 0 -8.69-14.43z"/>
    <path d="m238.08 62.91a90 90 0 0 0 -5 20.31l40.71 9z"/>
    <path d="m255.83 105.34h12.2l6.14-6.31z"/>
    <path d="m232.73 86.47a94.89 94.89 0 0 0 .13 18.87h13l28.23-9.72z"/>
    <path d="m251.24 41.52a61 61 0 0 0 -11.87 18.24l35.81 29.39z"/>
    <path d="m301.56 42.25a40.84 40.84 0 0 0 -11.86-9l-7 52.64z"/>
    <path d="m213.39 90.39h-23.09l4.13 14.92h19.41a118 118 0 0 1 -.45-14.92z"/>
    <path d="m215.16 73.49h-23l3.44 14.22h18a116.4 116.4 0 0 1 1.56-14.22z"/>
    <path d="m219.12 58.07h-22.46l3.53 12.4h15.57a108.3 108.3 0 0 1 3.36-12.4z"/>
    <path d="m225.84 42.78h-22.37l3.25 11.71h13.69a92.39 92.39 0 0 1 5.43-11.71z"/>
    <path d="m227.62 39.71a75.31 75.31 0 0 1 6.77-9.5l-.07-.41h-21.32l2.72 9.91z"/>
    <path d="m236.24 28.11a58.93 58.93 0 0 1 11.58-9.91h-20.06l1.86 9.91z"/>
    <path d="m259.47 12.7h-12l1 5.12a47.24 47.24 0 0 1 11-5.12z"/>
    <path d="m292.92 99.78a11 11 0 0 1 -1 3.12l3 2.44h23.08z"/>
    <path d="m319.07 83.56-27 9.29a11.38 11.38 0 0 1 .92 3.64l26.5 5.86a96.79 96.79 0 0 0 -.42-18.79z"/>
    <path d="m290.09 90.11 28.52-9.83a85.16 85.16 0 0 0 -4.67-17.58l-25.68 26.47a4.57 4.57 0 0 1 1.83.94z"/>
    <path d="m281.52 97.68c0-4.77 2.59-8.64 5.79-8.64h-5.79c-3.19 0-5.78 3.87-5.78 8.64s2.59 8.64 5.78 8.64h5.79c-3.2 0-5.79-3.87-5.79-8.64z"/>
    <path d="m48 184-.83-39.18-19.72 33.54h-.83l-19.82-33.59-.68 39.23h-6.12l2.11-56.35 1.14-.15 24.06 41.76 23.44-41.76 1.22.15 2.11 56.35z"/>
    <path d="m71.12 184v-55.41h6v55.41z"/>
    <path d="m95 184v-55.41h6v50h26.4v5.41z"/>
    <path d="m140.11 184v-55.41h6.06v50h26.4v5.41z"/>
    <path d="m208.28 184.94c-39.46 0-38.95-57.26 0-57.26a35.6 35.6 0 0 1 18.31 5.3l-2.5 5.14c-4.68-2.72-11-4.77-16.34-4.77-29.88 0-30.07 45.92.53 45.92a35.22 35.22 0 0 0 16.34-4.76l2 5.14a35.7 35.7 0 0 1 -18.34 5.29z"/>
    <path d="m328.88 184-6.58-15.35h-24.82l-7.62 17.88-5.09-3 24.74-56h1l24.87 56.47zm-19-44.25-10.21 23.83h20.43z"/>
    <path d="m353.17 134v20.2h23.75v5.45h-23.75v24.35h-6.05v-55.41h32.45v5.41z"/>
    <path d="m413.54 134v50h-6.05v-50h-18.49v-5.44h43v5.44z"/>
    <path d="m248.29 156.62s6.11 14.22 17.2 22.67c11.36 8.66 18.13 11.11 22.37 12.1l.91-2.17c-16.14-8.38-30.93-24.93-30.47-28 .28-1.82 2.67-4.22-.71-4.11a86.12 86.12 0 0 1 -9.3-.49z"/>
    <path d="m254.37 127.53a96.81 96.81 0 0 0 -13 .93v56h6.17v-50.76a40 40 0 0 1 7.79-.62c9.25 0 14.18 5.17 14.18 11.8 0 7.33-5.09 12.16-15.66 12.16-.34 0-.1 5.27.09 5.27 14.65 0 22.21-8.34 22.21-17.82-.03-9.71-7.15-16.96-21.78-16.96z"/>
    <path d="m163.51 221.56h.72v19.08c0 4.3-1.88 7.34-7.08 7.34-8.06 0-6.72-8-6.86-8.6h.71c.18.67-1.28 7.88 6.14 7.88 4.12 0 6.36-1.74 6.36-7.16z"/>
    <path d="m182.44 247.36h-.72v-4.59h-.07c-1.67 6.95-13.3 7-13.3-1.66v-12.32h.73v12.21c0 8.44 12.64 8.38 12.64-1.7v-10.51h.72z"/>
    <path d="m198.52 234.28c0-3.72-2.45-5.2-6-5.2-5.2 0-5.57 3.29-5.57 3.94 0 6.41 12.79 2.48 12.79 9.61 0 3.72-3.5 5.17-6.72 5.17-4.88 0-7.51-2.13-7.51-6.79h.72c0 4.11 2.49 6.07 6.79 6.07 2.68 0 6-1.2 6-4.37 0-4.52-6.11-3.87-10.55-5.86-3.55-1.52-3.45-8.49 4.05-8.49 4.12 0 6.72 1.8 6.72 5.92z"/>
    <path d="m205.14 229.52v14.23c0 2.78 1.37 2.89 2.49 2.89a7 7 0 0 0 1.59-.11v.73a13.94 13.94 0 0 1 -1.77.1c-1.7 0-3-.83-3-3.46v-14.38h-3.45v-.73h3.44v-5.85h.72v5.85h4.19v.73z"/>
    <path d="m221.87 234.54c.18-3.51 2.49-6.18 7.08-6.18 3.29 0 6 1.27 6.14 5.31.33 12.78-1.17 13.35 2.35 13v.72c-1.41.11-3.07.11-3.07-1.8v-2.42h-.07c-1.81 6-13.59 6.6-13.59-.37 0-9.45 13.66-2.59 13.66-8.56 0-2.24-.47-5.13-5.42-5.13-3.87 0-6.11 2-6.36 5.46zm12.5 1.91h-.07c-2.18 3.16-12.87-1.34-12.87 6.32 0 6.53 12.94 5.81 12.94-2.88z"/>
    <path d="m251.39 234.28c0-3.72-2.46-5.2-6-5.2-5.2 0-5.56 3.29-5.56 3.94 0 6.4 12.79 2.48 12.79 9.61 0 3.72-3.51 5.17-6.72 5.17-4.88 0-7.52-2.13-7.52-6.79h.72c0 4.11 2.5 6.07 6.8 6.07 2.67 0 6-1.2 6-4.37 0-4.53-6.11-3.87-10.55-5.86-3.55-1.52-3.46-8.49 4-8.49 4.12 0 6.72 1.8 6.72 5.92z"/>
    <path d="m256.74 240.35v7h-.74v-25.8h.72v17.89l12.82-10.66h1.05l-8.52 7.09 9.14 11.48h-1l-8.71-11z"/>
    <path d="m275.46 247.36h-.73v-3.54h.73z"/>
  </g>
</svg>
