<svg xmlns="http://www.w3.org/2000/svg" id="Layer_1" data-name="Layer 1" viewBox="0 0 543.7 145.03">
  <title>
    logo-stewart
  </title>
  <g>
    <path fill="#888888" d="M173.37,75.2c-1-.45-1-.42-.55-7.21.05-.56.16-.81.44-.81.68,0,.15.74.54,2.41,1.62,7.3,15.92,6.85,15.92-1.55,0-9.09-15.86-11-15.86-21.76,0-7.86,8.67-10.22,16.41-8.52,3.54.69,2.24-1.18,2.24,5.92,0,.8-.11,1.15-.38,1.15-.68,0-.31-1.74-1.15-3.16-2.28-3.79-13.57-4.23-13.57,3.16,0,7.83,16.19,10.2,16.19,21.3,0,5.41-4.31,10.43-12.9,10.43A17.78,17.78,0,0,1,173.37,75.2Z"/>
    <path fill="#888888" d="M236.37,72.2c.24,2.15.71,3,4.6,3,.6,0,.71.71-.44.71-3,0-6.45-.16-6.73-.16s-3.72.16-5.36.16c-1.18,0-1-.71-.43-.71,4.28,0,3.5.24,3.5-35-10.79.34-12.7-.82-14.61,3.26-.25.62-.82.7-.82,0,0-.11,1.12-6.17,1.75-6.17.36,0,1.09.85,6.73.85h20.51c7.41,0,5.52-3,5.52,5.62,0,.45-.16.65-.38.65s-.38-.15-.44-.85c-.35-.74.78-3.16-6.78-3.31l-6.89-.1C236.1,63.73,236,69.4,236.37,72.2Z"/>
    <path fill="#888888" d="M278.54,41.67c-.28-4.36-4.64-2.3-4.64-3.3,0-.76,1.68-.26,7.05-.26,10.94,0,13.41,0,14.88-.3.41-.07,1-.63,1,.2,0,.36-.27,1-.43,2.36-.06.5-.17,2.71-.28,3.31-.19.86-.82.66-.82-.1,0-3.76-2.48-3.66-11.71-3.66-.21,0-.32.15-.32.5,0,15.11-.18,14.33.32,14.33,7.82,0,10.41.08,11.27-.8,2.07-2.18.44,1.1.44,5.76,0,.41,0,1-.38,1s-.38-.2-.38-.45c0-3.75-1.84-3.66-10.89-3.66-.27,0-.38.15-.38.35,0,16.7-1.35,17.09,6.34,17.09a17.05,17.05,0,0,0,5.25-.55c2.93-1.13,2-4.36,3-4.36.33,0,.33.4.33.75a43.47,43.47,0,0,1-.71,4.86c-.38,1.3-.82,1.3-3,1.3-8.26,0-11.92-.3-13.51-.3-4.64,0-6.24.49-6.24-.25,0-.44.47-.17,2.09-.5,2.07-.38,1.85-5,1.85-13.63C278.65,61.32,278.67,43.49,278.54,41.67Z"/>
    <path fill="#888888" d="M364.23,68.94h.22c4.13-12.88,9-25.79,9-28.77,0-2.14-3.61-1-3.61-1.85,0-.66,1.92-.2,6.51-.2,2.5,0,5.2-.46,5.2.15s-1,.2-2.36.65c-3.16,1.06-3.8,7.55-13.62,33.32-1.73,4.53-2.19,6.17-3.93,1.71L350.94,46.08h-.11c-12.89,31.38-12.26,30.48-13.24,30.48s-.48.18-11.65-33.68c-.88-2.66-1.59-3.41-3-3.91-1.6-.57-2.95,0-2.95-.65s2.23-.2,7.33-.2c4.17,0,6.62-.48,6.62.2s-1.46.09-2.68.65c-1.38.62-1.45.64,7.65,30.07H339c13.92-33.87,12.46-33.37,14.34-28.52Z"/>
    <path fill="#888888" d="M413.39,39.07C427.3,71.35,426.82,75.15,433,75.15c.76,0,.88.71-.56.71-3,0-10.23.12-10.23-.46,0-.2.17-.3.39-.35s.66-.55.33-1.35c-5.48-13.31-5-12.63-5.58-12.63-12.71,0-12.06-.18-12.31.4l-3.28,8.87A9.85,9.85,0,0,0,401,73.7c0,1.64,2.52,1.43,2.62,1.45.78,0,.8.71-.28.71-1.3,0-3.66-.16-4.25-.16-5.28,0-7.23.5-7.23-.25,0-.42.63-.23,2.08-.4,2.52-.3,3.61-2.2,4.6-4.71C412.57,35.48,411.6,34.86,413.39,39.07Zm3.5,19.85c-5.19-12.89-5.34-15.45-6-13.54-5.07,14.35-5.12,13.88-4.65,13.88C417,59.11,417.07,59.59,416.89,58.92Z"/>
    <path fill="#888888" d="M457.69,41.67c-.12-1.85-.58-3-4.22-3-.55,0-.79-.7.45-.69,2.46,0,5.9.15,6.18.15.6,0,4.75-.15,6.45-.16,3.45,0,7.11.31,10,2.21,4.79,3.16,6.19,10.77-2.85,18.39,10,11.7,12.94,15.69,18.05,16.44,1.84.27,2.63,0,2.63.45,0,.61-1.34.33-5.2.41-6.56,0-7.54-1.46-13.23-8.33-6-7.18-5.76-7.71-6.67-7.71-8.48,0-7-.8-7.12,1.5,0,11.13-.09,13.32,2.41,13.63s2.9,0,2.9.5c0,.77-2.31.25-7.61.25-4.45,0-6,.49-6-.25,0-.44.45-.17,2.08-.5,2.21-.41,1.86-6.19,1.86-13.63C457.8,61.32,457.82,43.49,457.69,41.67Zm4.86,15.79c1.1.6,7.19,1.55,9.85-.15,1.92-1.2,3.34-3.91,3.34-7.72,0-6.26-3.61-10-9.46-10a18,18,0,0,0-3.67.3.61.61,0,0,0-.44.6C462.29,57.65,461.87,57.08,462.55,57.46Z"/>
    <path fill="#888888" d="M531.39,75c2.42.32,2.9,0,2.9.5,0,.77-2.29.25-7.6.25-.27,0-3.72.16-5.36.16-1.18,0-1-.71-.43-.71,4.23,0,3.48.3,3.49-35-11.09.32-12.7-.75-14.6,3.26-.25.62-.82.7-.82,0s1.1-4.81,1.2-5.22c.69-1.81.35-.52,3-.35,4.62.44,5.61.17,24.82.25,7.44,0,5.53-3,5.53,5.62,0,.45-.16.65-.37.65-1.42,0,2.06-4-7.23-4.16l-6.89-.1C529,73.17,528.45,74.59,531.39,75Z"/>
    <g>
      <path fill="#888888" d="M176.82,103.57c-3.46-4.46.41-8.24,4.63-8.24,1.06,0,3.75.21,3.75,1.28a27,27,0,0,1-.2,2.94c-.08.39-.17.44-.28.44-.45,0,.29-1.4-1-2.66-2.18-2.08-6.34-1.25-6.34,2.22,0,2,1.51,3.66,4.41,6.55,1,1,4.38,3.89,5.28,4.58a7.34,7.34,0,0,0,1.42-4.24c0-1-.61-1.67-1.9-1.67-.32,0-1.5-.66,3.47-.18,1.52.19-.55,4.62-2.27,6.55a24.73,24.73,0,0,0,3.86,2.54,8.25,8.25,0,0,0,3.32,1c.25,0,.39,0,.39.17s-.22.19-.47.19h-2.74c-2.07,0-2.74-.19-5.81-2.41a9.7,9.7,0,0,1-7,2.76C172.13,115.39,169.7,107.42,176.82,103.57Zm8.77,8.57a52.09,52.09,0,0,1-8.35-7.9c-4.6,2.75-2.54,9.8,3.07,9.8A7.54,7.54,0,0,0,185.59,112.14Z"/>
      <path fill="#888888" d="M219.15,95.33c.52,0,.89,2.1,7.12,16.35.83,1.89,1.59,3,3.52,3,.39,0,.45.36-.28.36-1.28,0-5.22.06-5.22-.24s.67-.1.36-.87c-2.81-6.91-2.61-6.45-2.85-6.45-6.53,0-6.15-.08-6.28.21-.05.1-2.06,5.15-2.06,6.24,0,.52.58.75,1,.75.18,0,.56-.07.56.15,0,.38-1,.13-2.59.13-2.79,0-3.69.24-3.69-.13,0-.22.35-.11,1.06-.21,1.29-.15,1.85-1.12,2.35-2.4C219,95.23,218.79,95.33,219.15,95.33Zm2.4,11c-2.65-6.59-2.72-7.87-3.07-6.9-2.76,7.57-2.56,7.08-2.37,7.08C216.11,106.56,221.64,106.73,221.55,106.38Z"/>
      <path fill="#888888" d="M249,114.7c-.39-.18-.42-.28-.42-1,0-.1,0-3.12.36-3.12s.08.35.28,1.23c.83,3.72,8.13,3.5,8.13-.8,0-2.77-2.55-3.93-4.47-5.55-6.21-4.68-3.77-10.16,2.15-10.16a29.29,29.29,0,0,1,3.58.39c.49,0,.16,0,.16,2.89,0,.8-.36.7-.42.25-.18-2-1.79-2.63-3.85-2.63s-3.44,1.1-3.44,3c0,3.94,8.27,5.26,8.27,10.87,0,2.75-2.19,5.32-6.59,5.32A9.15,9.15,0,0,1,249,114.7Z"/>
      <path fill="#888888" d="M281.7,114.7c-.39-.18-.42-.28-.42-1,0-.16,0-3.12.36-3.12s.09.39.28,1.23c.83,3.72,8.13,3.5,8.13-.8,0-2.78-2.56-3.93-4.47-5.55-6.22-4.68-3.77-10.16,2.15-10.16a28.26,28.26,0,0,1,3.57.39c.5,0,.17,0,.17,2.89,0,.41-.05.59-.19.59-.56,0,.44-3-4.08-3-1.92,0-3.43,1.1-3.43,3,0,3.91,8.26,5.29,8.26,10.87,0,2.75-2.19,5.32-6.59,5.32A9.19,9.19,0,0,1,281.7,114.7Z"/>
      <path fill="#888888" d="M324,95.33c15.4,0,13.94,20.06-.16,20.06C309.22,115.39,309.58,95.33,324,95.33Zm8.3,10.31c0-12.42-16.64-12.53-16.64-1C315.63,117,332.27,118.06,332.27,105.64Z"/>
      <path fill="#888888" d="M355.28,105.05c0-5.06,3.79-9.72,11.64-9.72,3.75,0,4.6.56,6.9.69.57,0,.31.25.22,1.72-.15,2.18.07,3.17-.33,3.17-.56,0,.28-1.85-1.4-3.15-2.3-1.81-9-2.24-12,.41-5.12,4.5-2.5,16,7.56,16,3,0,5.34-.48,5.89-3.43.11-.56.48-.48.48,0a24.54,24.54,0,0,1-.62,3.27c-.16.49-.22.54-.72.74a17.56,17.56,0,0,1-5,.59C359.09,115.39,355.28,110.66,355.28,105.05Z"/>
      <path fill="#888888" d="M402.53,114.68c.31,0,.36.36-.23.36-1.53,0-3.29-.08-3.43-.08s-1.9.08-2.74.08c-.6,0-.53-.36-.22-.36,2,0,1.78-.36,1.78-11.57,0-5.55.21-6.71-1-7-.68-.17-1.09,0-1.09-.25,0-.39.88-.13,3.27-.13s3.18-.25,3.18.13c0,.19-.21.12-.92.23-1.32.22-1.09,1.14-1.09,7C400.5,113.85,399,114.68,402.53,114.68Z"/>
      <path fill="#888888" d="M431.37,95.33c.51,0,.78,1.88,7.12,16.35.83,1.89,1.58,3,3.52,3,.39,0,.45.36-.28.36-1.28,0-5.22.06-5.22-.24s.67-.1.36-.87c-2.81-6.94-2.62-6.45-2.85-6.45-6.53,0-6.15-.08-6.28.21,0,.1-2.06,5.17-2.06,6.24,0,.52.58.75,1.05.75H427c.39,0,.41.36-.13.36S425,115,424.7,115s-1.84.08-3.16.08c-.7,0-.63-.36-.28-.36,1.79,0,2.43-.62,3.16-2.46C431.24,95.22,431,95.33,431.37,95.33Zm2.4,11c-2.63-6.53-2.72-7.88-3.07-6.9-2.72,7.51-2.57,7.08-2.37,7.08C433.81,106.49,433.87,106.73,433.77,106.38Z"/>
      <path fill="#888888" d="M471.47,114.68c.31,0,.36.36-.22.36-1.54,0-3.3-.08-3.44-.08s-1.9.08-2.74.08c-.6,0-.52-.36-.22-.36,2.19,0,1.79.11,1.79-17.89l-4.14,0c-2.36,0-2.7.36-3.32,1.61-.12.32-.42.37-.42,0,0-.1.6-3.15.9-3.15a8.22,8.22,0,0,0,3.43.44c17.07,0,11.8-.26,13.24-.26.29,0,.05.66.05,3.12,0,.41-.36.53-.41-.1-.19-.38.38-1.61-3.47-1.69l-3.52,0C469,115.21,468.37,114.68,471.47,114.68Z"/>
      <path fill="#888888" d="M496.88,96.05c-.29,0-.39-.36.22-.36.2,0,7,.15,9.55,0,2.21-.11,1.73-.94,1.48,1.18,0,.25-.08,1.38-.14,1.69s-.41.34-.41,0c0-2.19-2.31-1.87-6-1.87-.31,0-.11.08-.17,7.32,0,.18,0,.25.17.25,2.29,0,5.23.13,5.75-.41,1.06-1.11.23.55.23,2.94,0,.71-.4.53-.4.26,0-1.93-1-1.87-5.55-1.87-.35,0-.15.31-.2,2.43,0,6-.6,6.48,3.24,6.48a8.77,8.77,0,0,0,2.68-.28c1.5-.59,1-2.23,1.51-2.23s-.17,2.76-.2,2.87c-.32,1.1-.55.51-8.4.51-.14,0-1.9.08-2.73.08-.61,0-.53-.36-.23-.36,1.8,0,1.78-.41,1.78-7.07C499.08,99.67,499.67,96.05,496.88,96.05Z"/>
      <path fill="#888888" d="M531.09,114.7c-.4-.18-.42-.28-.42-1,0-.1,0-3.12.36-3.12s.08.37.28,1.23c.82,3.71,8.12,3.5,8.12-.8,0-2.78-2.54-3.92-4.47-5.55-6.2-4.67-3.77-10.16,2.16-10.16a30.11,30.11,0,0,1,3.57.39c.49,0,.17-.06.17,2.89,0,.41-.05.59-.2.59-.35,0-.12-.87-.58-1.62-1.14-1.93-6.93-2.18-6.93,1.62,0,4,8.27,5.21,8.27,10.87,0,2.75-2.2,5.32-6.6,5.32A9.14,9.14,0,0,1,531.09,114.7Z"/>
    </g>
  </g>
  <path fill="#888888" d="M70,.55,67.86.69c0-.29-11.55.94-11.84,1L54.08,2C42.84,4.19,51.91,2,42.13,5c-3.81,2.67-8.74,2.38-11.63,6.72-2.14.24-3.3,3.61-5.4,4.41-.12.12-3.45,5.06-3.54,5.2a4.64,4.64,0,0,1-2.62,2.34l-2.35,1.67c-2.18.49-3.25,2.66-3.51,4.51l-1.55,2.61L11,33.6c-.08.11-2.39,3.08-2.25,2.89a11.75,11.75,0,0,1-1.91,4.43c0,.06-1,2.19-1,2.19a6,6,0,0,0-1.11,3c0,2.91-2.18,5.37-2.34,8.34a1,1,0,0,0-.12-.24c-.1-.2-.24-.47-.68-.26a29.42,29.42,0,0,0-.75,3.59c0,.1-.09,2-.09,2A3.21,3.21,0,0,1,.44,62c-.79.3-.41-.42.25,12.44,0,0-.07.46-.07.46-.12.66-.26,1.4.73,1.72a4.52,4.52,0,0,0,0,3.08l.3,2.52c1.27.86-.33,2.38,1,3-.09-.18.15,4,.2,5.12a.42.42,0,0,0,.66-.09c.19.4,1.17.82.89,1.77.31.09,1,1.93,1.79,3.85,1.14.75.19,2.6,1.74,3.37-.06-.07.75,1.43.75,1.43.69,1,1.34,2,.46,3a3.78,3.78,0,0,1-1.5-1.87c-1.32-2.55-1.87-2-2.16-2.18-.16,1.38.82,2.48,2.25,4.34.1.12,1.36,3,1.41,3.09s.15.38.15.38l-.52.49c-.26.25-.77.36-.78,1,0,1.1,1.1.81,4.51,2.39,2.46,0,2.72,3,4.88,3.64,1.08.37,1.15-.62,1.72-.54-.1.29-.24.54-.09.77,1.31.62.62.09,3.6,3.47,1.6,1.43,1.7,2.71,3,3.09-.32.46.69.91.48,1.56,0-.08-3.37-.39-3.37-.39-.31.26-.44.38-.4.57s2,.58,2,.58a1.24,1.24,0,0,0-1.54,1.37.94.94,0,0,0,1.24.43l1,.06a26.81,26.81,0,0,1,6.68,2.51c1.25.33,1.71,1.25,2.62.85a1.09,1.09,0,0,0,.69-.73h0c.18.13.88,0,.88,0h.48c1.76,2.54,5.65,2.43,7.71,4.7,5.87,2.57,11.11,11,16.88,11.42.43.49.89.29,1.31.11l1-.12a1.42,1.42,0,0,0-.06-1.83L63,142c0-.1-1.55-2.2-4.73-6.61,0,.09.33-.52.33-.52.26-.35.39-.57.23-1,0,.1.59-.06.58-.06l3-.76c-.22,0,.55,4.28.57,4.38a4,4,0,0,0,1-.33l.12-1.52c-.11-.76-.22-1.55.44-2a2,2,0,0,1,.22,1.14c-.05.71.65.52.43,1.12a5.11,5.11,0,0,0,2.75,1.94,9.5,9.5,0,0,0-.45-2.05,5.07,5.07,0,0,1-.53-2.76c0-.73,1.05-.17,1.48-.8A3,3,0,0,1,69,134.3l.14,1.18c.62,1.27.59,2.58,1.92,2.28.87-1.58.44-2.62.91-6.13.85.26,1,.86.92,3.27v.44a4.35,4.35,0,0,0,.55,2.69c1.11-.43,1-1.41.83-2.28l.07-1.63.94.14s.45,1.41.45,1.41c.38,1.42.77,2.88,2.85,2.68.67-1.2.59-2.52.53-5.4,0,0,.75,1.38.75,1.38a4.94,4.94,0,0,1,.95,2.77,1.28,1.28,0,0,1,1,.52l.32.09a2.33,2.33,0,0,0-.19-2.33l-.37-1.87c1,.08,0,2.08,1.61,1.48l.37-.3.44.25c.22.2.49.45.85.34l.75-.68.24-.39c.06.53,1,1.13.69,2.17,0,.12,2,6.44,2.37,7.46,1.1.61,1-.72,1.78-.78.42-.82,0-1.38-.44-1.91l-.59-1-.76-2.26a5.8,5.8,0,0,1-.74-3c.14-.19.26-.14.5,0l.46.13c1.58-.8.41-2.54.28-4,0,0,3.85-2.71,3.85-2.71,3.71-3.68,8.72-4.87,11.84-9.22.42,0,3.31-2.77,3.62-3a23.06,23.06,0,0,0,4.19-4.38l3.3-3.66c1.17-2.29,3.92-2.79,4.64-5.48,0,.1,4.29-6,5.4-8.64,1.59-1.68,1.8-4.36,2.25-7.35,0,0,1.57-1.62,1.57-1.62l1.18-1.12c.68-1.5,1.3-3.22.4-5,0,.08,1.15-2.61,1.15-2.61,1.62-3.08,1-2.83,1.69-6,1.5-7.71-.66-5.92,0-10.3a5.45,5.45,0,0,0-.16-3.2c.24-2.33-.63-4.29-1.47-6.18-3.31-7.5.45-5.71-3.39-10.92-3.43-4.66-.1-3.09-4.74-9.2l-1.41-1.95c-1.53-.33-1-2.82-2.55-3.1a4.78,4.78,0,0,1-2-2.1l-1.35-1.78-1-.74A2.55,2.55,0,0,1,115,19a60.53,60.53,0,0,0-8.78-5.95c-1-1.75-3.83-.77-4.56-2.42a2,2,0,0,1-1.56-.88l-.85-.72a2.13,2.13,0,0,0-.2-.44c-.79.06.24,0-1.92-.81l.06-.22-.43-.09C95.54,8,95,7.3,94.44,6.61l-.76-.77c-.08,0-1.59-.63-1.59-.63l-.85-.49,0-.11L91,4.45l-1.28-.29L87.53,3.5C86.18,3,84,2,83.92,1.94l-.48,0,0-.12-.32-.14-2-.52-.6,0L79.6,1C79.52.58,77.73.4,77.16.27L75.5.08,74.18,0H74.1Zm7.93,3,3.7.6c.71,2.32,4.06-.08,4.9,2.13.6-.12,1.51-.11,1.66.42,0,.06,3.3,1.66,3.3,1.66l4,2.14a2.64,2.64,0,0,1,2.12,1c.1.07,4,3.27,6.46,3.31,0,0,2.52,1.72,2.52,1.72a6.35,6.35,0,0,1,2.64,1.88c2.2.77,3.68,2.44,5.24,4.2l2.85,2.88c.49,2.42,4.19,2.12,3.72,4.77a3.4,3.4,0,0,0,.36.44c.3.36.71.85,1.36.35,0,0,0,0,0,0a9.45,9.45,0,0,0,.9,1.14l.5.8s.39,1.44.39,1.44l.38,1.8a42.55,42.55,0,0,1,4.19,9.35c.33,3.28.42,4.91,1.7,6,1.17,2.73,1.19,5.73,1.21,8.9l.45,6.49s-.61,3.62-.61,3.62c-.45,3.15-.92,6.4-2.59,9.08-.07.66,0,1.31.63,1.42-.4,3.21-4.76,4.19-3.85,8.42-.12-.41-1.87,5.31-4.68,8.06-.34,1.77-1.5,2.66-3.19,4.2-.48.56-2.34,4.2-5.29,6.66-3.41,4.87-8,8.71-14.09,14.07l-3.1,1c-1.53,1.93-3.68,2.91-5.21,3.93a31.57,31.57,0,0,0-1.79-4.41c-.17,0-.27.69-.3,1,0-.36-.1-1.07-.1-1.07a6.4,6.4,0,0,0-.88-3.81l-1-3.15c-.54-4-.75-6.54-2.39-8.4.21.43-1-9.34-1-9.45l.29.94c0,.5.12,1.07.74,1.19a21.37,21.37,0,0,0,.28,2.2,6.34,6.34,0,0,1,.06,3.92c0,.48.53,2.73.56,2.87a2.17,2.17,0,0,0,.5-2.2c-1.13-.89.42-1.47.42-2.84,0-2.78-2.56-5.4-.58-7.74,0-.1-.53-5.11-.5-4.79A71.06,71.06,0,0,1,84,82.33a10.67,10.67,0,0,0,.73,1.76l.73,1.61c-.21,1.59.9,2.65,1.11,3.21,0,.32,1.75,7.65,1.77,7.75.15.43-.61-1.51,2.1,5.19,1.43-.19,1.31-1.56,1.2-2.76l0-1.58c0-.12-.45-1.59-.45-1.59,0-.79-.09-1.67-1-1.78l.11-.57c.12.15.41-.18.41-.18a26.16,26.16,0,0,1-1.11-5.24c-.39-1.44-1.6-3.44-1.39-6.12.24-.12.57-.33.38-.77-.91,0-1.11-.54-1.34-1.15L86.57,79c-.41-1.91-1-2.23-.51-3.2.06.29,3.11.38,4,.46l.7-.34c.1.07.3-.09.48-.24.69-.08,1.42-1.11,1.64-1.44l.75-.88.33-1.54s-.13-2.16-.13-2.16A14.94,14.94,0,0,0,93,64.24S92.42,62,92.42,62s-1-4.11-.9-3.86l-.77-1.69a19.45,19.45,0,0,0-.93-1.82s-.15-.36-.15-.36h-.12c-.12-.42-1.18-2.31-1.18-2.31l-2.05-4-1.23-2-1.67-2.47c.23,0-.37-.67-.56-.86-4.66-8.7-5-7.61-5.83-8.86-1.64-1.68-1.27-2.87-7.94-7.17h0c0-.15-2.44-2.15-2.54-2.24s-1.49-1-1.49-1L62.84,22.1a10.18,10.18,0,0,0-3.59-.92l-.58-.06c-1.34-.15-3-.34-4,1.17-2.11,3.88-2.41,7.23-.9,10,2.26,2.5.74,6.06,3.93,9.62l.53.82,2.26,4.2c-.5-.06-.68.48-.83,1l-.24.61c0,.07.11,1,.11,1a4.93,4.93,0,0,1-1.75-2.68c-1.25-2.24-1.73-4-2.87-3.85-.25-2-3-2.49-3.23-4.63-1.26-.47-.6-2.35-1.85-2.87C47.72,32.39,47.2,33,46.7,32.53a7.64,7.64,0,0,0,2,3.77l2.66,4.08c1.28,2.17,1.41,2.43,1.53,2.58l-.47,0c.83,1.91,1.41,3.72,3.28,3.65,1.34.42-.38,1.7,1.08,2.25.07.18-.4-.17-.4-.17l-1-.5c-1.07,1.29.17,2.28,1.19,3.66-.93-1.4-3.15-1.58-4-2,0,0-2-2.56-2-2.56a9.79,9.79,0,0,1-2.51-3.63c-.22-.44-2-1.8-2.33-3.54a16.91,16.91,0,0,0,2,1.74l.84.84a3,3,0,0,0,1.86,1.69c.58-.07.55-.58.53-.92A20.21,20.21,0,0,0,49.3,41.4a7.16,7.16,0,0,0-3.53-2.88A1.44,1.44,0,0,0,44.22,38c-1.43.88-.61,1.86-.2,3.1-.94-1.79-1.77-3.26-3.59-3.1-.52.92.12,1.62.91,2.78l1.13.89c-.46.54-2.42.48-1.54,1.91a.91.91,0,0,1,.41.83,12.89,12.89,0,0,0-1.57-1.57A6.65,6.65,0,0,1,37.23,40c-.06-.07-.69-.44-.69-.44-.52-.36-1.12-.77-1.59-.28a2.19,2.19,0,0,0,1.44,1.56L37,41.94l.62,1.38a17.71,17.71,0,0,0-2-1.83c-1.33.64-1.65-1.61-2.63-.71h0c0,.33,7.68,10.28,7.89,10.55-1-1.06.24.2-3.58-3.33A27.82,27.82,0,0,0,32,43.57c-.86.76-.38,1.59.05,2.31l.44,1.3-.6.54c-.06.1-.26.7-.26.7l-.9.13a1.62,1.62,0,0,0-1.54.45c.16,1.67,1.11,2.73,3.62,5.56-.28-.88-1.62-.94-2.16-.85-.2-1.31-.26-1.26-10-9.43a2.93,2.93,0,0,0-.42-2.09c-1.33-.56-.67,2-1,2.29s-.47,0-.57,0h-.35l-.56.63c0,.13.52.54.52.54l.53.6-.33.64c-.05.12-1.14,10.53-1.15,10.64a.62.62,0,0,0-.73.06c-.56.5.13,1.83-.59,2.2L16,61.73c-.13-.15-.42.18-.42.18.85,7,.29,8.47-.4,14.83.38.61.43.93-.27,3.78a4.36,4.36,0,0,1-1-2.25l-.63-1.73A23.94,23.94,0,0,0,12.46,74c3.18-3.9-3.39-16.7,3.89-26.53,0,0,.52-1.88.52-1.88,1.57-6,2.51-8.38,7.12-14.28,0,0,1.88-1,1.88-1a6,6,0,0,0,2.45-1.58l5.46-3.16c2.94-1.87,6-3.8,9.36-4.6,7.66-1.56,14.56-3.3,21.34-1.79l10.34,1.66c2.5.18,10.08.62,13.66-.24-.46.07,2.93-.32,3-.33,2.78-.8,5.6-.18,8.57.48l5.11.9c1.63.27,2.23,2.38,2.63,3.77a16.39,16.39,0,0,0,1,4.19,13.69,13.69,0,0,1,1.07,2.33c.06.26.2,1.23.2,1.23s.41.8.41.8c-.24,1,.85,3.53.91,3.76l.15,2.71-.08,1.1S107.7,49,107.71,49c-1,2.19,0-1.71-3.69,8.88a17.58,17.58,0,0,0-3,5.39l-.82,1.46A12.36,12.36,0,0,0,98,70.52c0-.16,0-.17-3,4.92l-1.13,1.82c-2,3.63-2.92,2.78-3.8,3.31-.59.26-.83.64-.69,1.15l0,.08.18.34h.35c3.87.07,6-5.57,6.82-6.79,1.29-1.13,2-3,2.62-4.77.05-.1,2.4-5.34,2.25-5l.41-1,1-2,1.2-2.12c4-11.23,6-10.73,8.39-18.23,1.18-1.53-.16-6.77-.11-6.5l-.94-2a12,12,0,0,0-.47-1.54l-.76-2.83L110,28.1a7.52,7.52,0,0,1-.8-1.85c.2,0-.42-3.13-.5-3.7-.84-1.32-1.85-2.68-3.62-2.64.1,0,.07-.1-.55-.13l-.55-.06c.06,0-.79-.23-.79-.23l-.63,0c.11,0,.11-.23-2.72-.35.06,0-.42-.13-.42-.13h0c0-.21-1.44-.55-1.56-.59l-.45-.24L94,18c-.56.07-.26-.84-4.4.92-.52,0-7.28.91-7.38.92-4.54.15-3,.29-6.7-.5-.3.64-1.26-.91-2.17-.43A15.34,15.34,0,0,1,71,18.75l-1.36-.32c.12-.1-1.64-.38-1.64-.38a3.67,3.67,0,0,0-2.59-.12,6.88,6.88,0,0,0-1.5-.28h-.66c.11-.11-4.61-.34-4.61-.34L57,17.11a6.85,6.85,0,0,1-2.69.28l-2.11.15-7.94,2.09a3.2,3.2,0,0,0-2.45.3l-2.08.4c-.07,0-12.81,7.61-13.66,8.12.46-.34.67-1,1.14-1.92-.06.1,1.21-1.33,1.21-1.33,6.1-8.07,10.66-9.95,9.74-12.08a11.49,11.49,0,0,0,.29-1.35c-.33-.82-1-.49-1.64,0l-.32.22c-.9.57-2.33,3.25-4.3,4l-.09-.08-.23-.18-2.82,3.17a18.45,18.45,0,0,1-4.53,4.47c-.1.07,1.17-1.27-10.61,11.42a.52.52,0,0,0,.25.65,4.11,4.11,0,0,0,1.06,0c-.15,0-2.36,5-2.4,5.12-.52-.21-.95.06-1.22.65.19-2.71.06-.81.3-3.81a.42.42,0,0,0-.51-.27s1.74-2.78,1.74-2.78c3.78-5.3,1-5,6.76-9,1.75-1.22,3.57-2.48,4.52-4.61l2.68-3A11.88,11.88,0,0,0,30,14.35l1.82-1.53c3.45-3.27,3.72-2.15,5.78-2.89,1.69-.54,5.78-1.76,7.67-3.31,1.64.69,2.78-1.49,4.61-1,1.66-1.3,4.12-.15,5.66-1.51,0,0,1.76.1,1.76.1l.44-.08c3,.58,5.41-1.15,8.12-.28C68.53,2.13,71.28,5,73.78,3l-.06,0A10.23,10.23,0,0,1,77.94,3.53ZM21.54,31.08a5.81,5.81,0,0,1-2,2.08C19.81,32.41,20.54,32,21.54,31.08Zm-11.77,12-.62-.19H8.77c.11-1.28.8-2,1.89-4a27.13,27.13,0,0,0-.81,4.7Zm4.05-.34-.43.77-.39,0C13.18,43.44,13.64,42.93,13.82,42.73Zm-8,6.89a6.18,6.18,0,0,1-.11,1,4.28,4.28,0,0,1-.06-.84C5.71,49.8,5.76,49.71,5.84,49.62Zm8.85-2.31c-.07.18-.63,1.32-1.3,2.72A5.05,5.05,0,0,1,14.69,47.31ZM5.14,52.26l.27-.73c.14,0,.12-.14.18-.21-.17,1-.4,2.22-.4,2.22C4.91,53.16,4.66,53.27,5.14,52.26Zm4,2.94c-.06.34-.07.42-.13.45a1.79,1.79,0,0,0-.31-.34l.1.07C8.93,55.25,9,55.17,9.13,55.2ZM2.33,56a2.37,2.37,0,0,1,0,2.11.92.92,0,0,0-.1-.36c-.15.17,0-1.6,0-1.61S2.28,56.08,2.33,56Zm4.8,5.3c.52,12.23,0,4.58,0,8.53,0-.35-.08-.53-.34-.5.3-.21.3-.43.06-.52,0,.21,0-.36,0-3.89l.13-3.33C7,61.66,7.06,61.46,7.13,61.27ZM2.89,70.4l.31-.26.15,1.18,0,2.25c-.39-.11-.45-.31-.63-2.08C2.74,71.54,2.89,70.4,2.89,70.4Zm6.17-3.07c.13-.61.25-1.25,1-1.25a4.14,4.14,0,0,1-.25,2.19l-.3,1.87C8.44,69.74,9,67.68,9.06,67.33ZM10.7,85.22c-.36-.18-1.13-.54-1.28-1.2a22.1,22.1,0,0,0-.85-7.52c0-.11.15-1.32.15-1.32,0-.55,0-1,.37-1.26a10.73,10.73,0,0,1,1.33,4.25c.9,1.59,1.21,3.25,2.09,7.79a1.32,1.32,0,0,1-1.29-.32c-.34-.25-.45-.23-.58-.16Zm1-16.45c-.19.48.64,4.06.69,4.42-.15,0-.18.12-.18.26s0,.17,0,.17L12,73.57l-.7.73c-.48-.38-.39-.46-.18-.63l.35-.51s-.14-1.63-.14-1.63v-2.7A.25.25,0,0,0,11.72,68.77ZM7.55,89.21s0,.23,0,.79c0-.11-.87-.32-1-.34l-.22-.29H6.27c.1,0,0-.84,0-.95V88C6.86,87.63,7.55,88.44,7.55,89.21Zm5,4.19c0-.1-.39-.94-.34-.84-1.35,0-1.54-.8-2.09-2.16v-.18a.83.83,0,0,1,.47-1c0,.06,1.46.86,1.46.86l2.73,1.75a7.17,7.17,0,0,0-.18,1.25c0-.09-.45-.09-.45-.09-.4,0-.85-.09-1.13.38.11.69.59.9,1.05,1.1l1,.8c1.27.1,1.47.88,1.69,1.78l.4,1.17c-.64-.91-2.09-1.24-3.36-1.53L11.9,96a1.9,1.9,0,0,1-2.09-.27l.29-.29.47-.14h0C10.57,95,9.08,93.7,9,93.6s0-.82,0-.84a25.4,25.4,0,0,0,3.45,1.15Zm-.63-4.75a4.61,4.61,0,0,1,2.18,1.21A4,4,0,0,1,11.92,88.65Zm7.34,3-.7-.63.05-.06.16-.77s-.92-1.67-.92-1.67L17,86.94s.06-.7.06-.7-1-1.34-1-1.34c.19-.79.32-1.44.92-1.5,1.6-.58,1,.8,1.55,1.77.09.48,0,.69-.81,1.69.12.28.39.39.89.46,0,0,0,0,0,0,0,.47,1,4.16,1.2,4.75A6.48,6.48,0,0,0,19.26,91.68Zm-1-32c.5-3.89.72-5.78,1.38-7.2-.15-1.28.15-2.35.86-5,.05.07.3.08.47.3a3.17,3.17,0,0,0-.44.51c.53,1.35,1,1.45.71,2A7.61,7.61,0,0,1,24,52.48c1.63-.19,2.83,1,4,2.19,1.39,1.32,4.23,3.78,5.59,6-.7-.55-1.5-.91-1.72-1.89a11.76,11.76,0,0,0-2.19-1.6c.17-1.42-1.95-1.44-2.13-2.83,0-.05-.91-.61-.91-.61-.43-.15-.7-.27-.75-.63-.35-.11-.56-.12-.64.07,0,.7.38.92.79,1.14l.76.62.66,1.12c.68.9.94,1.39-.07,1.93a20.76,20.76,0,0,0-2.85-2.19,47.17,47.17,0,0,1,2.24,6.9c0-.25-1.69-1.35-1.69-1.35a7.13,7.13,0,0,0-3.63-1.82c-1.09.64-.73,1.45-.11,2.5l.57,1.21c0,.06,4.89,5.39,4.89,5.39l1.67,1.64c1.62,2.32,1.6,5.54,3.28,8a18.4,18.4,0,0,0-1.93-1.62c-.16-.28-.29-.3-.29-.3.26-.13-2-1.92-2.46-2.34-.39-.15-2-1.15-2.17-2.13,0-.74-.58-.28-.69-.71l-.06-.27-.36.44-.62,1,.17.34c1.83,2,2.1,2,2.69,2.1.84,1.57,2.64,3.12,4.37,4.7l2.52,3.13a13.57,13.57,0,0,1,2.71,3.73,8.37,8.37,0,0,0-1.43-1.29l-.2-.34-.13,0c.16-.1-.3-.41-.38-.51a2.1,2.1,0,0,0-1.6-1.57s-1.15-.93-1.15-.93l-.62-.57c-.63-2-1.7-.19-1.84-.16.79,1.51.4,1.22,1.24,2.34-.14-.2-1.85-.9-2.21.24h0c0,.07.54,2.6.55,2.66,0-.14-1.12-.4-1.12-.4L26,85.53c.21-.14-1-1-1.35-1.36-.15.16-2.15-.7-2.15-.7-1.06-.27-2.06-.51-2.26-1.59-.79-3.1-1.61-5.84-1.27-8.3a2.14,2.14,0,0,1-.44-1.87l-.11-1.56C18.64,71,17.33,64.07,18.31,59.67ZM23.06,48c-.15,0-.16-.13-.25-.17a.92.92,0,0,1,.51.28Zm.08,1.94c1.75.93,2.1,1.12,2.06,1.65A16.92,16.92,0,0,0,23.14,49.92Zm-.65,11.63A10.11,10.11,0,0,0,24,62.72l1.43,1.13c-.05,0,.85.89.85.89.81.74,1.57,1.45,1.16,2.45-1.2.13-1-1.87-2.58-1.47a5.27,5.27,0,0,0-2-2.49c-.31-.2-.25-.4-.49-1.17C22.38,62,22.48,61.58,22.49,61.55Zm6.71.93H29c.44-.16.59.05.82.45C29.61,63,29.41,62.75,29.2,62.48Zm-.14-3.71c0,.23,1.34,1.23,3.43,2.84a3.82,3.82,0,0,1,1.32,3.11.57.57,0,0,1,.16.52c-.42-.09-.66-.16-2.33-2.58h0C31.35,62.22,28.93,60.52,29.06,58.77Zm4.88-11.58-.38-.66A42.11,42.11,0,0,1,38,51.42a5.32,5.32,0,0,1-1.63-1.72l-1.85-1.81v0C34.13,47.84,34,47.52,33.94,47.19Zm.6,3.35.16.07.25.16C34.77,50.69,34.56,50.6,34.54,50.54Zm8-4.4c.83-.35.63-.4,4.53,5.27-.42-.14-.68-.59-1-1.08l-.71-.89h0Zm-7.18,6.75A1.44,1.44,0,0,1,34,51.74c.63.15.84.6,1.31,1.16ZM50.06,49.7c.36.43,1.71,2.22,2.27,3C51.45,52.35,50.61,50.7,50.06,49.7ZM57.49,40l-.92-2.17c.17-.29,1.62,2.84,2.87,5.35-.44-.51-.58-1.56-1.26-1.7l.09.09Zm3.77,8.77a3.2,3.2,0,0,1,.8,2A3,3,0,0,1,61.26,48.79Zm1-2.49c0,.32,1.69,4.17,1.74,4.28a20,20,0,0,1-1.86-3.95C62.16,46.57,62.24,46.37,62.26,46.3ZM35.35,59c-1.07-.25-1.39-1.18-1.58-2.15,1.33.92,3,2.32,3.29,4.23C37,61,35.43,59.15,35.35,59Zm.47-5.68c2,.66,3.32,2.7,4.43,4.55C40.17,57.94,36.79,54.39,35.82,53.36Zm21-30.23c3.15-.59,6.15.83,8.66,2.3a6,6,0,0,0,3,2c-.1.07,3.5,3.08,5.44,4.7l-.32.18-.55.48c-2.41-.16-1.59,2.44-1.62,2.63-.3,3.4-.3,3.4-.14,3.42a3.35,3.35,0,0,0,.25,2.84c.49,1.63.49,1.63.6,1.62,0,3.45,1.65,6.68,3.43,9.63,2.55,2.66,4.8,8,5.51,11.59l.66,2.75c-2.3-2.18-2.18-5.86-4-8.11,0,.1-1.2-4-2.41-5.15a4,4,0,0,0-1-2.81l-1-2c0-2-2-3.19-2.07-5.24-.21-.62-4.27-6.73-4.9-7.72-.31-.21,1,.82-3.52-2.83a1.6,1.6,0,0,0-.39.3c1.53,1.87,3.85,4.46,4.57,7.22,0,0,.35,2,.41,2.26a7.31,7.31,0,0,0-.9-1.44c-.38-.74-.77-1.5-1.66-1.39,0,0,0,0,0,0A9.81,9.81,0,0,0,65.44,42a3.43,3.43,0,0,1,.77,2.14c0,.08,1.44,2.73,1.44,2.73l.82,1.79A7.09,7.09,0,0,0,68,52.87a3.64,3.64,0,0,0-.26-.58c-.15-.42-.32-.89-.86-1a3.21,3.21,0,0,0,.07,3.1l.48,2.44a2.07,2.07,0,0,0-.47-.21c-1-3.58-1.27-6.27-2.63-8.76,0-2.83-3-3.62-3-6.32,0-.27-1.92-3.87-1.92-3.87-2.24-3-4.54-6.18-4.78-10.11,0,0,.21-1.17.21-1.17s.09-.84.09-.84C55.52,24.1,55.71,23.31,56.83,23.13ZM70,55.13A2.79,2.79,0,0,1,70.08,53c.45.8.65,1.83,1.19,4.58-.5-.51-1,.38-.58,1.41.27.24,0,.61.3.83-.48-.58-.58-.87-.78-3v0Zm-34.77,7.5,0-.16c.32,0,.41.17.53.49l.37.56C35.87,63.27,35.35,62.92,35.25,62.63Zm-4.39,3.29a13.44,13.44,0,0,1,1.45,1.61C31.58,67.38,31.19,66.61,30.86,65.92Zm-1.47,1.8a20.58,20.58,0,0,0,1.42,2c.9.93,1.77,1.8,1.77,3,0,.51,1.25,1.15.72,1.67-.44,0-.48-.31-.78-1.39h0c-1.21-1.19-2.28-2.13-2.75-3.7-.21-.38-.89-.52-.69-1.33A2.85,2.85,0,0,0,29.39,67.72Zm7.34-.67c1.11,1.24,2.65,2.45,3.34,4.67a11.72,11.72,0,0,0-.89-1.2l.15-.16C39,68.88,37,69.49,37,67.91,37,67.94,36.82,67.36,36.73,67.05ZM40.38,64a8.17,8.17,0,0,1,2.21,2.56l1.58,2c-2.47-1.42-4.28-4.24-6.15-6.74C38.23,61.67,39.56,63.09,40.38,64Zm-19,22.9a7.79,7.79,0,0,1,2.45,1.7c-.55-.3-1.18-.59-1.18-.59l-1.38-.78C21.32,87.08,21.39,86.86,21.39,86.86Zm2.14,0-2.17-1.45C21.65,85.38,21.66,85.4,23.53,86.88ZM10.07,97.74c.18-.12-.2-.58-.24-.68,1.31,2.33,4.25.52,5.81,2.61.53-.08,1,0,1.06.66A2.14,2.14,0,0,1,15,99.76l-1.29-.66c-.28-.82-1-.56-2.22-.56Zm12.06-8c2.71,1.35,5.73,3,7.4,5.46a2.52,2.52,0,0,1,2.32,1.33l1.32,1.22h0a12.44,12.44,0,0,0,3.36,3c-.45.83,1,1,1,1.71,0,.08,1.23,2.22,1.23,2.22A7,7,0,0,0,40.25,107h-.31l.88.81A63.21,63.21,0,0,1,35.29,103c-.19-.4-.29-.71-.71-.59.34-.43-5.25-4.25-5.47-4.41,0-.24-.4-.55-.4-.55l-.8-.69a.56.56,0,0,1-.67,0l-.55-.16a3.71,3.71,0,0,0-2-1.66L22.9,93.6l-1-3.6C22.05,90,22.08,89.84,22.13,89.72Zm6.5-4.85-.12-.06a4,4,0,0,1,3.37,2.13c.05,0,1.28.62,1.29.62h0c0,.26,2.61,2.56,3.41,5.07,0,0-4.91-3.34-4.91-3.34l-2.55-1.87C28.8,85.73,28.61,84.77,28.63,84.87Zm10.26,1.45c0-.26-.37-.3-.37-.3l.08-.21a5.63,5.63,0,0,1-2.06-1.94c-1.62-1.26-2.62-3.76-4.6-8.5a6.45,6.45,0,0,1,.15-.67,46,46,0,0,1,9.64,12.56h0A11.4,11.4,0,0,1,41,88.54C41,88.41,38.89,86.32,38.89,86.32ZM75.16,62.41l-.09-1.23-.7-2.29-.68-2.66c0-.2.62,1.33,5.54,13.57,3.3,7.46,1.41,7.25,1.62,9.49l-.22-.18C79,76.62,80.08,73,77.56,70.73,77.63,70.85,75.2,62.56,75.16,62.41Zm-1.87-28.6c1.13-.16,1.66.44,2.49,1.52l1.76,1.78h0c0,.45,3.94,5.08,4.59,8.53,0,.1.64,4.38.6,4.11,0,.25,0,.79,0,1a6,6,0,0,0,.36,1.13c.13.19,1,3.37,1,3.37a15.81,15.81,0,0,1,.36,2.6,8.14,8.14,0,0,0,.09.84c0,.13-.12,10.53-.12,10.43s-.35,1.54-.39,1.73c-.9-.57-1.23-3.42-1.33-3.77,0,.11-.08-1.32-.08-1.32a.13.13,0,0,1,0,0c0-.12-.14-.65-1-3.83a13.77,13.77,0,0,0-1.92-5.09c-2.81-5.66-3.89-4-6.67-16.12,0,0-.51-2.19-.51-2.19C72.72,35.36,72.64,34.38,73.29,33.81ZM83.75,49c-.22-1.82-.34-2.89-.43-3.22a12,12,0,0,0,2,3.09l.21.62.7,1.28h0a14.16,14.16,0,0,0,.84,1.7l.13.43a18.66,18.66,0,0,1,2.49,4,4,4,0,0,0-.31.5c0,.11-.15.5.73,1.2l.75.82-.07,0-.23.27.5,1.4s.82,3.45.82,3.45,1.74,8.27-1,10l-.89.76h0a24.28,24.28,0,0,0-2.71-.64s-.76-.48-.76-.48c-.17,0-.8-.63-1.45-1.08a3.54,3.54,0,0,0,.37.17c1-3.4.81-5.88.16-15-.08,0,0-.94-.42-3a22.6,22.6,0,0,0-.84-3.68c-.16.12-.09-.47-.09-.61S83.71,48.86,83.75,49Zm.56,22.08.09,0Zm8.63,0v2.24s-.77.83-.77.83l-1,1A5.82,5.82,0,0,0,92.94,71.1Zm-11.88,10,.07-.13a.52.52,0,0,1,.45.1h0c0,.29.8,2.66.83,2.76a21.31,21.31,0,0,0,.07,3.1C82.35,86.05,81.64,83.32,81.06,81.1ZM85,78.47c.69.36,0,1.63,1.11,1.78-.1-.09.06.92.06.92-.48-.07-1-.93-1.17-1.75ZM43.16,89.22c.22.64,2.65,4.19,2.65,4.19-.14-.17-.37-.5-.61-.86l-1.1-1,.1.08A18.67,18.67,0,0,1,43.16,89.22Zm3.26,0,.13-.18a2.69,2.69,0,0,0,.21.75Zm1.87,3.19.24,0a.55.55,0,0,1,.34,0,4.12,4.12,0,0,0,.11.46A1,1,0,0,0,48.29,92.43Zm-27.1,6.83L21,99.19h.58l-.31.22Zm3.25-1.79c0,.1,2,1.73,3.77,3.2a1.7,1.7,0,0,0-1.09-.33,1.89,1.89,0,0,0-.39-.14l.2-.09-2.77-2.24C24.24,97.86,24.43,97.48,24.44,97.47Zm4.23,3.58c1.21,1,2.29,1.85,2.29,1.85C30,102.76,29.59,102,28.67,101.05Zm-13.75,3.54a3.64,3.64,0,0,0,.55.33l3.22,2c-1.3.33-2.56-.93-4-2A.43.43,0,0,1,14.92,104.59Zm-.67,2.56c.13.18.28.11.24.41C14.28,107.45,14.3,107.3,14.25,107.15ZM19,112.08c1.43.22,3,.51,3.83,1.82A7.38,7.38,0,0,1,19,112.08Zm4.45,1.81a17.84,17.84,0,0,1,3.92,1.78c-.64-.07-2.3.14-3.25-.68C24.13,114.94,23.48,113.89,23.48,113.89ZM47,113.63c0,.09.1.12.12.21l.11.56A2.66,2.66,0,0,1,47,113.63Zm7.43-.11a3.34,3.34,0,0,1,.7,1.25C54.88,114.35,54.76,114.22,54.39,113.52ZM23.08,117l-.27-.09,2.89.41c-.16.19-.4.26-1.83.48A7.4,7.4,0,0,0,23.08,117Zm6.77,6.13a1.91,1.91,0,0,0,.07-.36c1-.21.72,1,1.64,1-.06.43.5.88.92,1A5.22,5.22,0,0,1,29.85,123.08Zm4,1.91-.12.25-1.18-.48C33.16,124.76,33.68,124.45,33.82,125Zm2.92-.77c.4-.14.64,0,1.48.55C38,124.8,37.9,124.76,36.74,124.22Zm-.12,2.21.73.4C37.08,126.67,36.91,126.88,36.62,126.43ZM45,128.16l.42.33C45.32,128.6,45.07,128.3,45,128.16Zm6.9,5.66c-.14-.2.14-.59-2.1-2.43l-1.29-1.18a.45.45,0,0,1,.09.06l.49.16a6,6,0,0,0,2.6,1.57l2.24,1.18c3.55,3.38,6.91,6.41,9.13,10.52v.37c-1.87.08-4.41-.24-5.63-1.74-.13-.14-2.17-1.6-2.27-1.68-2.52-1.16-2.7-4.58-5.69-5.73,0,.05-1.17-.86-1.17-.86-.6-.28-1.23-.57-1.44-1.32.37.56,1.61.2,1.7-.2.55.05.93.18,2.71,1.72C51.37,134.26,51.76,133.91,51.86,133.82Zm34.62-3.69c0-.17-.08-.31-.17-.41l-.09-.2.87.89ZM69.79,133l.35-.26.27,3.21A4.75,4.75,0,0,1,69.79,133ZM86.65,84.51l-.92-1.79a.54.54,0,0,1,.32-.4c.32,0,.5.08,1.24,1.8a5.15,5.15,0,0,0,0,.59c-.05.5-.1,1.06.43,1.4,0,0,0,0,0,0s.13.92.13.92a2.34,2.34,0,0,0,.71,1.83c0,.1.08,1.05.07,1,.18.44.26.67-.18.94L86.9,85.38ZM85.8,20.23l.37.07.27.25c0-.14-.16-.18-.33-.25l-.42-.05Z"/>
</svg>
