<svg xmlns="http://www.w3.org/2000/svg" viewBox="0 0 401.57 470.47">
  <g fill="#888">
    <path d="m112.62 338.58c4.81-3.27 7.48-10 7.62-15.29a8.86 8.86 0 0 1 .06-1.15c.24-1.4 1-2.13 2-1.89 1.2.28 1.42 1.22 1.25 2.24-2 12.75-4.39 10-1.43 18.62a1 1 0 0 0 1.17.62c6.11-.64 8.37 1 15.8-3.16 1.22-.68 1.26-1.42.72-2.57-3.78-8-6.29-16.47-9.55-24.66-1.91-4.81-2.52-8 1.74-11.65 2.7-2.3 5.4-4.61 8.2-6.78s5-4.73 7.57-7c1.7-1.53-.1-2.67 2.36-12.26.37-1.44.66-2.85 2.09-2.53s1.24 1.63.67 3.09a28.67 28.67 0 0 0 -1.58 9.31c-.24 5.15 1.26 5.6 1.54 7.79a1.44 1.44 0 0 1 -2.4 1.19c-.91-.63-1.09-1.78-1.76-2.57-.2 0-.43-.08-.54 0-20.4 16-18.93 9.39-8.95 36.92 1.19-.32.94-.62.25-6.52-.15-1.32.26-2.39 1.72-2.43s1.53-.88 1.56-1.88a55.41 55.41 0 0 1 1.12-7.36c.63-4.09 2.76-7.13 6.85-8.44 1.17-.38 2.07-.75 2.34-2.14a1.5 1.5 0 0 1 1.84-1c1 .16 2.32.13 3 .72 2.84 2.36 7 2.11 9.33 5.11 1.9-1.24-1.48-4.43 3.91-7.47 19.56-11 21-13.45 37.46-23a21.26 21.26 0 0 0 1.93-1.25c.74-.53.91-1.81 2.14-1.68 4.08.46 3.26.73 44.43 25 4.07 2.4 4 4.28 3.35 8.14-1.06 5.9-1 5.87 4.86 5.07 17.08-2.29 35.53.15 44.15.93a57.94 57.94 0 0 1 16.36 4.35 4.84 4.84 0 0 1 2.94 2.59c2.1 5.22 5.76 9.47 8.9 14a62.48 62.48 0 0 0 3.66 5.45c2 2.35-.46 6.05-.17 8.63.34 3.19-3.5 1.09-1.54 8.42.94 3.52 1 3.47 4.64 3.75 6.78.53 13.54 1.27 20.3 2.05 7.92.91 9-1.07 10.9 2.07 15.54 25.51 15.29 22.62 22.51 22.81 3.35.08 4.53 1.89 2.91 4.88-7.46 13.78-25.15 5.57-61.68 4.63-12.77-.33-25.38-2.26-38.07-3.39-10.47-.94-11.84-.48-25.18-2.22-1.23-.16-1.77.36-1.74 1.6v8.62c-.23 1.88-1.27 2.47-3 1.62-9.34-4.59-5.27-4.76-12.53-.39-2.22 1.34-3.45.77-3.71-1.78-.77-7.71.17-9.3-2.23-9.13-4.23.31-8.41-.23-12.62-.49a43 43 0 0 0 -6.28.51c-1.69.15-2 4.22-8.39 5.51a100.52 100.52 0 0 1 -22.9 1.5c-4.34-.13-7.23-2.9-8.58-7-.41-1.23-.9-1.44-2-1.36-36.37 2.74-26.92-.24-52.15 3.48-16.94 2.49-34.24 1.84-45.89 2.13-30.41.74-38.38 5.33-57.3 2.1-3.81-.65-7-2.53-8.77-6.25-1.09-2.32-1.47-4.65 1-5.13 1.79-.35 2.65 1.76 7-3.12 20.17-22.71 20.76-33.09 25.87-27.54a11.53 11.53 0 0 0 8.21 3.62 166.3 166.3 0 0 0 18.68-.06c2.34-.15 2.53-.33 2.15-2.57a30.5 30.5 0 0 0 -2.4-7.63c-1.24 0-1.54 1.12-2.23 1.71-5.7 4.83-7.26 0-4.93-1.1 7-3.21 8.67-9.75 10.31-16.32.24-.92.27-1.9.5-2.82a1.45 1.45 0 0 1 2.87.37 39.91 39.91 0 0 1 -4.27 13.62 2.43 2.43 0 0 0 0 2.57c1.28 3.08 2.17 6.32 3.24 9.5.72 2.15.72 2.16 3 2.15a67.92 67.92 0 0 0 8.9-.52c2.34-.3.81-1.54-.21-4a2 2 0 1 1 3.58-1.62c1.7 3.44 1.38 4.79 2.81 4.54 2.8-.48 5.75 1.44 0-8.52-.25-.43-.59-.78-1.16-.6-3.15 1-10.69-1-14.83.16a1.58 1.58 0 0 1 -1.67-2.61 12.45 12.45 0 0 0 2.8-4.3 1.35 1.35 0 0 1 1.88-.82c1.75.62.8 2.28.15 4.28 2.52 1.16 7.69 1.17 10.57.05a2 2 0 0 0 -.29-1.35c-3.57-8.8-6.4-17.85-9.58-26.79s10.25-10.14 21.17-19.58c11.17-9.66 14.19-16.13 18.77-24.08 3.67-6.38 8.44-7.79 15.43-10.78 1.5-.64 3.36-1.49 4.06.18 2 4.62-10.8 1.55-17.21 12.71-1.91 3.32-9 18.13-25.2 28.55-7.28 4.66 3.74 17.38-1.89 29.12-3.49 7.26-5.44 3.34-2.27 10m-74.46 43.31c.82.84 1.62.5 2.33.49 11.53-.08 57.59-1.26 70.52-3.84 24.52-4.89 48.39-10.44 60.38-8.55 21.86 3.46 23 11.67 24.84 10.44 1.28-.88-.39-3.66-1.34-4.85-5.84-7.36-11.52-5.17-10.39-8.37.62-1.74 2.56-.84 4.22-.06a27.7 27.7 0 0 1 10.25 8.6c.44.57.77 1.42 1.78.73a1.62 1.62 0 0 0 .74-2.19c-1.93-4.55-4.12-8.93-8.58-11.56-3.47-2-7-4.06-11.32-3.13a1.8 1.8 0 1 1 -.53-3.56 7.84 7.84 0 0 1 2.85-.13c13 2.49 15.83 8.55 20.68 16.06.26.4.5.8 1.11.68 2.49-.48 3.36-2.38 2.07-4.61-4.87-8.46-12.28-13.47-21.59-15.87-8.66-2.23-30.24 1.68-51 2.49-30.94 1.21-34.41 4.42-64.5 3.68a19.11 19.11 0 0 1 -10.47-3.53c-1-.66-1.35-2.06-3 .43-1.84 2.68-3.43 4.85-1 7.07 4.88 4.52 11.85 2.69 43.93-1.55 1.17-.15 3.12-.72 3.39 1 .15.94-.53 1.41-1.31 1.62a24.09 24.09 0 0 1 -3.64.78c-27.66 2.95-38.23 7.57-46.25-1.46-1.21 1.7-2.27 3.15-3.28 4.63-1.48 2.16-.83 3.94 1.71 4.76 3.23 1 13.58.26 18-.43a14.32 14.32 0 0 1 4.28-.21 1.31 1.31 0 0 1 .22 2.52c-1.81.53-3.33-.12-8.27.84-3.69.72-12.72 1.09-16.75-.83-.94-.45-1.54-2-2.52-1.57s-1.55 1.63-2.29 2.49a38.76 38.76 0 0 0 -5.24 7m193.89-.93c1.41-2.05 2.76-6.1 10-6.21 3.25-.05 6.5-.56 9.76-.21 1.48.16 1.89-.5 1.74-1.82-.85-7.3-.23-7-3.25-6.95a5.61 5.61 0 0 1 -1.42 0 1.69 1.69 0 0 1 -1.49-1.53c-.21-2 1.79-2.11 3.65-2q12.07.47 24.13.95c2 .09 3.15.82 3 2-.42 3-4.26.46-4.22 2.63.13 7.71-.56 8.84 1.84 8.86 9.68.07 27.67 2.55 45.06 2.09 9.75-.26 46.8 3.37 65 3.37a46.8 46.8 0 0 0 -3.19-5.34 3.26 3.26 0 0 0 -2.82-1.58c-7.17-.46-14.32-1.27-21.52-1.29-3.54 0-8.41.31-8.15-2.1.28-2.63 5.21-1 7.87-.89 5.74.29 11.49.41 17.21 1.09a6.56 6.56 0 0 0 3.73-.23c-.65-4.13-7.89-3.13-14.44-4.11-23.74-3.56-42.84.87-42.23-3.89.34-2.74 4.61-.31 11.34-.35 25.67-.16 19.51.81 41.95 2.6-1.17-2.64-2.25-4.57-5.2-4-1.27.23-14.45-3.17-56.95-4.92-21.21-.87-53.2-5-56.65-5.16-20.31-.82-20.41.19-30.65 5a22.15 22.15 0 0 0 -10.73 11.18c-.26.58-.75 1.31 0 1.8a3.13 3.13 0 0 0 1.9.48c1.13-.12 6.92-13.65 25.95-14.69 1.74-.1 2.57.36 2.66 1.43.22 2.39-3.49 1.84-5.19 2.06-8.92 1.11-16 5-19.93 13.55a14 14 0 0 0 3.79 2.68c2-4.47 7.89-10.91 12.74-11.34a1.41 1.41 0 0 1 .94 2.63c-2.43 1.48-6.42 3.06-9.29 7.48-1.57 2.41-1.35 3.41.84 5.22a5.7 5.7 0 0 0 2.23 1.6m-20.11-13.95c7.41-11.27 9.35-11.71 18.2-15.56 3.27-1.42.2-3.42 1.4-46.68a7.16 7.16 0 0 0 -2.93-6.13 24.67 24.67 0 0 0 -26.18-3.25c-4.48 2.1-6.81 4.9-6.65 10.12.34 10.81-.25 36.37.62 45.36.4 4.07 4.71 3 10 9.56 1.73 2.15 3.16 4.56 5.52 6.58m-181.48 18.64c1.11 9 27.22 5.88 36.25 4.81 26.87-3.2 39.93-1.06 59.38-2.67 18.8-1.55 23.57-3.72 46.93-3.67 6.05 0 12-1.14 18.05-1.06a5.48 5.48 0 0 0 1.14-.15c.35-.08.77-.12.83-.62a1 1 0 0 0 -.54-.94c-3.56-2.75-7.33-4.66-12.07-4.47-8.8.36-17.58.79-26.35 1.69-12.38 1.26-24.82 1.94-37.23 3-43.3 3.67-66.51 3-86.39 4.08m144-89.22c.68 1 1.62.57 2.39.58 5.36.09 10.72-.18 16.06.37a1.73 1.73 0 0 0 1.49-.65c5.4-5.19 21.19-12.61 36.62-.33a6.24 6.24 0 0 0 4.67 1.59c3.62-.27 15.51-.86 18.06-1.64-.59-1.37.61-.06-28.51-17.86a83.44 83.44 0 0 0 -9.95-5.12c-.6-.26-1.11-.65-1.86-.22-4.13 2.42-8.53 4.3-12.58 6.9-30.29 19.42-22 13.19-26.39 16.38m224.21 89.44c-1.48-.72-54-2.79-64-4-7-.83-27.27.2-49.93-2.12-3-.3-5.94-.26-8.91-.37-.55 0-1.17-.13-1.57.43-.95 1.28 0 3.75 1.59 4 7.52 1-1.23-.25 37.76 3.51 36.38 3.51 19 1.27 40.09 3.09 29.64 2.54 39.69 6 45-4.53m-141-61.91c-1.87-24.77 1.48-23.37-2.8-23.59-6.14-.31-12.23.59-18.35.79-3 .1-1.89.13-2.25 12.62-.67 23.11-.15 27 .46 33.58.33 3.53.85.77 10.64.92 3.45.05 6.9 0 10.34.13 1.36 0 2-.37 1.9-1.76-.11-2.45.06 8.57.06-22.69m-64.89 27.08c1-3.62 0-21.37.13-48.86 0-.93-.13-1.55-1.38-1.66a150.7 150.7 0 0 0 -16-.77c-4.58.1-4.6 0-4.57 4.62.27 46.44-.24 44.43 2.42 44.19 6.53-.56 13-.33 19.44 2.48m-28.25-1.93c3.79-.1 3.64 0 3.77-3.4.26-7.56 0-15.12-.1-22.68 0-1.54-.66-2-2.08-2-2.93.09 3.55-.14-20.66-.44-2.25 0-2.22.13-2.4 3.78s.53 7.25 0 10.89a3 3 0 0 0 .3 1.38c3.92 10.5 3.58 10.35 5.16 10 1.88-.43 2.42.14 2.67 2 .07.53-.3 1.16.42 1.57a4.83 4.83 0 0 0 2.76-.47c-.12-1.69-.2-3.43 1.52-3.69 1.21-.17 1.92.58 2.2 2.37.08.53-.2 1.23.63 1.35 2.84.44 1.65-4.32 4.38-3.92 1.81.27 1.54 1.75 1.45 3.28m139.93-6.67c-6.32-.07-12.64.15-18.95-.41-1.2-.11-2 .05-2.12 1.54-.1 1.84-2.49 2.23-2.24 3.12 1.56 5.62 1.64 4.55 4 4.86 13 1.69 14.08 1.41 39.52 2.79a1.4 1.4 0 0 0 1.69-1.14c1.92-7.78 1-6.78-.84-10.3-.33-.62 1.3-.46-21.08-.46m-33.12 52.51c0-6.26-.14-9.07-.34-22.41a26.94 26.94 0 0 0 -.84-5.37 1.39 1.39 0 0 0 -1.32-1.27 106.85 106.85 0 0 0 -11.46-.38c-1.33 0-1.17 1.51-1.06 3.37 1.48 24.53.41 25.21 2 25.82.95-.58 2.05-1.16 3-1.89 1.85-1.36 3.6-1.49 5.48 0a11.44 11.44 0 0 0 4.5 2.14m28.73-59.44c-.8.15-37.35.67-37.45.67-.81 0-1.87-.19-2 1.08-.31 3.36 10.81 1.16 24 1.81 18.07.87 38 .58 52.89.57 1.23 0 1.69-.61 1.68-1.78 0-3.81-1.61-.36-39.16-2.35m-190.4-5.62c6.24-5.5 3.21-14 2.18-20.13-.38-2.29-.36-4.63-.56-7.19a39.74 39.74 0 0 0 -6.82 3.79 4 4 0 0 0 -1.78 4.72c.24.82.35 1.68.63 2.49 5.6 16.41 5.32 15.72 6.35 16.32m181.66-19.21c-.57-.77-.21-.8-12.09-.66-1.92 0-2 .08-2 2.19-.43 16.08-.36 16.12.39 17.49 5-6.38 9.87-12.4 13.75-19m-81.94 80.08c8.7-.32 17-.37 19.91-4 .3-.37.66-.76.51-1.27s-.74-.55-1.19-.56c-4.12 0-8.22-.6-12.35-.24-5 .44-9.88 1.32-14.89 1.23a7.87 7.87 0 0 0 -2 .27c-.82.18-1.11.66-.69 1.47 2 3.85 4.28 3.1 10.68 3.1m87.29-60a9.31 9.31 0 0 0 3.09-3.26c4.13-7.27 11.7-15.63 8.51-16-9.92-1.08-11.24-1.55-11.56.37-1.38 8.13.32 10.74 0 18.86m-71 50.34c-2.69-2.38-5.58-4.33-8.4-6.38-5-3.65-8.8.1-14 4.08a15.46 15.46 0 0 0 -4.28 4.04c3.74-.15 7.06.16 10.32-.44a66 66 0 0 1 14-1c.71 0 1.49.34 2.31-.38m36-68.84c3.59 6.12 6.38 12.54 11.87 17.93.43-20 .82-20.07-1.23-20a30.54 30.54 0 0 0 -10.64 2.07m17.42 20.75c4.26 0 7.88-.06 11.49 0 1.59 0 2.09-.53 2.27-2.1.54-4.7.58-4.23-.08-14.33 0-.59.31-1.36-.64-1.78-4.24 5.91-8.47 11.8-13 18.19m-137.19 7.93a39.89 39.89 0 0 1 -8.16 2.8 43.89 43.89 0 0 1 -8.22.95c-2.66.19-1.66.55 0 6 .51 1.61.23 1.18 11.5.89.17-1.23-.48-1.89-.79-2.67-.78-2-.65-3 .53-3.46s1.81.11 2.67 1.92a21 21 0 0 1 1.17 2.57 1.82 1.82 0 0 0 2.63 1.36c.62-.2 1.35-.09 1.92-.74a50.71 50.71 0 0 0 -3.25-9.62m24.49-31.36c-.17-7.79-9.87-9.32-16.72-5.66a5.19 5.19 0 0 0 -2.62 4.2c-.31 2.31 1 1.71 8.13 1.8a67 67 0 0 0 11.21-.34m147.6 20.68c.63-.13.37.48 7.63-10.61a19.71 19.71 0 0 0 1.3-2.55c.55-1.16.33-2-1-2.39-8.64-2.51-9-3.5-9 0a131.38 131.38 0 0 0 .41 13.16c.07.81-.1 1.75.73 2.35m-79 53.11c5.31-.37 9.93 1 15.1.89 4.87-.12 4 0 3.89-4.38 0-2.1-.28-2.34-2.32-2.43a56.06 56.06 0 0 0 -12 .62c-2.62.45-4.19 2.05-4.67 5.3m-78.63-65.39c11.14.14 11.58-.3 11.6-2.06 0-2.92.56-2.93-19.69-2.76-1.94 0-1.94.08-2 2.21-.06 3.19-.86 2.61 10.07 2.61m114.49 15.56c-.83-1.93-9.67-16.11-10.44-16.88v15.66c0 1.63 1.18 1.22 10.43 1.22m29.39-1c.69.37-.38.46 7.9.74 2.82.1 2.48 1.36 1.7-14.84 0-.1-.27-.19-.51-.35a110.35 110.35 0 0 0 -9.09 14.45m-166.33 44.9c3 .24 39.81-3 41.27-3.63a43.47 43.47 0 0 0 -13.21-1c-4.34.38-24.57 2.76-28.06 4.61m190.59-56.09c-2.72 2.55-6.76 9.29-7.23 12.17 7.5 0 8.38.29 8.3-.88-.27-3.75 0-7.55-1.07-11.29m-63.59 24c.26 3.47.26 3.47 3.6 3.94a18.89 18.89 0 0 0 2 .2c.8 0 2 .49 2.19-.65.25-1.43 2-2.44.67-4.42-1.84-2.77-3.06-1.95-7.32-1.93-1.63 0-1.28 1.2-1.13 2.86m76.13 9.87c-1.14-7.82-.85-8.09-2-8.31-3.68-.7-5.39-.07-5.62 4.64-.17 3.88-.21 3.06 2.78 3.43 1.49.18 3 .15 4.85.24m-219-16.82c-1.36.81-1.81 2.07-2.73 2.85-2.32 2 1.69 4.6 3.57 10.13.37 1.1 1.31 1 2.15.83 2.3-.45-1.79-9.4-3-13.81m209.54-17.32c.41 2.75.59 5.33 1.22 7.8.39 1.53-.38 3.84 1.45 4.49a7.72 7.72 0 0 0 5-.31c-.84-3.19-5.14-10-7.68-12m-55.54 28.94c1.3.72 2.77.55 4.15.75 2.75.39 2.76.36 1.9-2.3-.91-2.82-.92-2.68-3.12-2.64-1.07 0-1.82.23-2.07 1.44-.18.9-.87 1.66-.86 2.75m61.52-7.49c-3.66 0-4.44-.16-4.36.79.06.64.65.91 1.27.91 6.23 0 6.08 0 6.74-.48.28-.19.65-1.19-.22-1.21-1.14 0-2.28 0-3.43 0m-62.13.36a8.88 8.88 0 0 0 4.61.48c1.35-.08 2.95.63 4.18-.88a15.06 15.06 0 0 0 -8.79.4"/>
    <path d="m4.14 50.83a2.39 2.39 0 0 0 .79 2.06c14.57 18.86 33.24 12.11 95.97 11.11 32.15-.53 18-1 35.61.39 3.43.28 6.86.69 10.31.85 2.37.11 4.16 1.33 5.91 2.63 4 3-3.3 26.65 27.09 59 13.94 14.85 17 10.84 14 15.24a206.3 206.3 0 0 0 -12.72 22.79c-3.1 6.94-4.1 14.1-1.22 21.49a2.16 2.16 0 0 0 1.06 1.33c8.49-5.34 11.7-12.47 15.54-21.86a150.85 150.85 0 0 0 5.74-17.16c.74-2.69.67-2.71-1.76-3.87a13.89 13.89 0 0 1 -1.28-.64 1.45 1.45 0 1 1 1.4-2.53c5 2.5 15.79 9.74 32.48 4.12 4.16-1.4 8.38-2.74 12-5.42 1.69-1.25 3-1.21 3.6-.3s0 2.29-2 3.18c-13.72 6.12-23.74 9.76-37.94 5.11-2.19-.71-2.18-.74-3.11 1.34-4.55 10.31-7.61 30.11-22.54 40.38-3.85 2.65-4.23.94-6.29-2.56-.46-.78-2.65 1.81-3.46 2.64-3.65 3.71-8.3 5.79-12.85 8-1.08.54-2.47.64-3-.54-1.75-3.78 9.19-1.77 17.2-13.25.38-.54.91-1 .83-1.76-.34-3 0-6.11-.07-9.15-1-.28-1.24.51-1.64.95a33.25 33.25 0 0 1 -6.47 5.67c-1.72 1.14-3.26 2.72-5.7 2.09-1.4-.36-10.21 8.57-27.39 6.21-3.63-.51-7-2-10.4-3.26-1-.36-1.69-1-1.41-2.15 1-4.3 7.08 5.7 24.73 2.06a27.26 27.26 0 0 0 12.3-5.84c1.51-1.26.39-2.39.33-3.61-2.25.11-8.46 9.83-26.06 4.48-4-1.21-2.21-5.27.86-3.65a22.29 22.29 0 0 0 10.59 2.15c8 0 11.25-5.26 11.82-5.52 4-1.84 2.74-5.69 3.47-8.87-3.61 4.34-11.19 10-17.42 9.26-4.13-.48-1.9-3.9-2.26-6.16-4.45.74-5.82 5.08-16.45 1.51-4.32-1.45-1.27-5.23.1-7.54 3.26-5.5 0-1.45-2.73-1-4.11.68-10.91.37-13.93-2-4.08-3.14.56-6.22 9.62-13.68a3.73 3.73 0 0 0 -2.32.47c-19.26 8.12-31.93-.11-25.92-5.56 2.3-2.1 12.4-6.84 12.61-7.78-.68-1.09-.77 1.48-17.9.14-5-.39-10.94-2.57-12.61-3.67-3.41-2.26-3.21-6.93 4.94-9.55 2-.63 4-1.19 6.33-1.89-1.86-1-19.45-.29-26.88-4.23-3.15-1.67-3.34-4.89-.36-6.82 2.41-1.56 7.44-3 10.2-3.81-1.39-1.08-2.28 0-14.58-1.46a45 45 0 0 1 -10.46-3c-1.81-1-3.69-2-3.6-4.38.26-7 13.61-6.7 15.27-8.26-1-1.12-21.29-.6-28.54-5.84-4.31-3.1-.88-7.17 3.68-8.86a5.73 5.73 0 0 0 2.62-1.21c-11.21-2.6-18.34-3.38-26.47-13.55a19.64 19.64 0 0 1 -3.25-6c-.5-1.49.48-2.61 2-2.19 12.14 3.5 37 .42 45.81.49 113 .87 116.8-.15 120.47 6.67 4.09 7.58-.74 11 4.67 32.19 2.08 8.17 5.17 15.81 11.31 22 5.28 5.28 5.48 9.2 15.9 15.54.63.39 2.66.93 1.82 2.35s-2.5.09-4-.91c-8.57-5.78-10.56-9.77-17.44-17.36-10.24-11.31-13.92-31.56-13.35-46.49.17-4.57-2.07-7.2-5.07-7.95-7.7-1.92-15.56-2.25-23.4-2.34-94.23-1.08-93.24-.93-107.79 0-17.45 1.1-26-1.18-26.88-.44m99.62 16.39c-6.84-1-70.61 1-78 6.67-1.93 1.46-1.88 2.45.28 3.55 13.32 6.77 57.77 4.29 71.58 2.89.6-.06 1.34.18 1.9-.67-3.83-2.59-5.9-3.57-2.62-6.91a39.92 39.92 0 0 1 6.9-5.53m15.53 15.46c-6.48 0-12.85-.71-19.21.13-10.24 1.35-20.58 1-30.84 2.37-14.72 2-39.49 5.23-25.73 10.67 11.49 4.55 38.58 3.19 50.65.24 2.3-.57 4.65-1.06 6.2-3.22.77-1 9.06-6.29 17-8.87.65-.22 1.56-.12 2-1.32m-3.08 56.1c12.81 4.2 29.62-11.69 46.62-25.71a1.72 1.72 0 0 0 .45-2.67c-3.14-4.72-2.86-6.78-5.18-5.75-1.65.74-3.38 1.32-5 2.2-18 9.86-34.28 16.44-36.95 31.93m-10.7-21c2 1.52 11.88 3 22.4-1.15 10.12-4 19.1-10.13 28.78-14.94 1.28-.64 1.24-1.4.74-2.54-3-6.78-1.69-7.2-4.59-6.39-9 2.55-17.94 5.46-26.9 8.23-9.61 3-17.34 10.51-20.43 16.79m8.17-16.8c5.95-.55 7.23-.87 15-3.9 11.9-4.64 11.93-2.7 20.34-6 4.8-1.87 4.79-1.91 3.86-6.87-.83-4.54-.38-4.26-4.13-4-14.79.91-33.94 5.22-45.83 14-2.94 2.16-2.83 3 .51 4.65 3.18 1.52 6.59 1.91 10.28 2.13m16.81 55.41c5.14-1 10.06-2.68 14-6.19 9.06-8 18.11-18.55 25.76-27.77 1.27-1.52.22-2.27-1.08-3.89-3.29-4.07-3.33-4.12-7.47-.65-20.84 17.44-15.42 12.08-21.74 17.88a36.25 36.25 0 0 0 -10.74 19.26c-.2 1 .16 1.49 1.24 1.33m43.33-32c-2.23 1.09-10.71 11.73-16.65 17.56a45.79 45.79 0 0 0 -13.48 25.15c-.22 1.18-1.18 2.65-.25 3.54 1.14 1.1 2.77.17 4.06-.27a22.71 22.71 0 0 0 11.44-9.17c15.14-22.14 12.79-19 19-29.74a1.8 1.8 0 0 0 -.2-2.53c-1.4-1.42-2.64-3-4-4.54m-75.76-49c3.23 2.41 5.15 3.79 13.66 4.43 8.75.67 30.75-1.76 35.2-2.57 4.61-.85 4.58-.89 3.7-5.46a3.44 3.44 0 0 0 -2.94-3.06c-10.71-2.06-14.21-1.73-28.82-1.89a36.82 36.82 0 0 0 -11.55 2c-3.7 1.16-6.47 3.59-9.17 6.62m16.67 28.11c-5.11-.39-10-.49-14.2-3.45a6.92 6.92 0 0 0 -6.46-1c-11.48 3.32-25.93 3.77-35 7.64-1.26.54-3.28.75-3.14 2.43s2.15 1.62 3.46 2c16 4.85 34.29 1 43.8-.23a10 10 0 0 0 7.12-3.59 34.32 34.32 0 0 1 4.39-3.83m48.55 75.3c3.9-.82 11.78-9.16 15.63-17 1.7-3.47 10.55-20.26 10.61-20.37 1.22-2.27 0-2.32-6.27-7.78-.72-.64-1.31-.64-1.92.14a146.45 146.45 0 0 0 -15.17 23.31 31.81 31.81 0 0 0 -2.88 21.73m-59.24-64.38c-.93-.39.86-.68-25 6a20.21 20.21 0 0 0 -4.83 1.8c-1.08.6-2.48 1.13-2.4 2.57.17 3.14 21.92 9.9 46.89-1.28.83-.37 1.71-.66 1.83-2.09-5.45.91-13.15.38-16.09-.91-3.82-1.68-.6-4.52-.43-6.09m13 14.32a4.28 4.28 0 0 0 -1 0 136.35 136.35 0 0 0 -24.13 11.85c-2.15 1.34-1.82 2.34-.19 3.34 6 3.71 15.32 1.45 21.83-1.28.88-.37 1.51-.86.51-1.87-1.82-1.85 1.83-9.74 3-12.05m15.53 10.7c-1.18-1.3-13.07 5-22.57 14.7-1.39 1.42-1.29 2 .53 2.59 10.16 3.05 12-1.24 14.36-2 2.92-.93.52-2.88 6.08-12.3a10.09 10.09 0 0 0 1.6-3m11.4 14.82c-19.15 9-13.27 1.3-18.89 10.51a.91.91 0 0 0 .61 1.52c2.5.59 5 1.34 7.61.68 5.39-1.37 9.75-6.43 10.67-12.71"/>
    <path d="m285.94 81c1.31.51 2.17-.21 3.12-.16 2.9.12 3.47 4.45-2.77 4.52-9.75.1-17.6-4.14-24.15-10.93-8.31-8.6-11.48-7.43-15.42-9.43-3.3-1.62-3.64-4-.88-6.64 3.46-3.28 5.19-3.1 5.29-4.45-7.48 1.07-11.62.37-13.22 4.13a6.54 6.54 0 0 1 -5.87 4c-3.73.35-5.61-.73-6.7-4.33a2.09 2.09 0 0 0 -2.56-1.81c-5.83.29-9.8 2.89-11.46 8.63-4.07 14.1-9.76 15.68-13.35 24.26a34.51 34.51 0 0 1 -4.65 8.21c-2.78 3.54.78 9.52 3.84 8.33 3.53-1.39 7.38-2.15 9.9-5.45.87-1.14 2.55-1.49 3-.85.82 1.14.21 2.2-.43 3.17-1.09 1.64-2.38 2-9.39 5.29 1.67 2.25 2.42 2.53 4.6 1.45s4.26-2.2 6.33-3.41c8.61-5.06 12.54-.19 21.15-3.9 5.33-2.31 8.28-1.72 12.73-5.68 1-.86 2.16-2.16 3.45-1 1.76 1.57-.53 4-2.73 4.91-1.37.59-1.73 1.38-1.38 2.88.66 2.81.51 5.71.67 8.58.08 1.39-.21 2.89-1.59 2.9-3.06 0-.38-6.12-2.23-10.86-.19-.49-.36-1.15-1.19-.93-2.67.72 1 2.58-3.59 16.28-3.39 10.12-15.48 11.88-19.8 8.94a1.64 1.64 0 0 1 1.07-3 26.89 26.89 0 0 1 2.77.73 11.58 11.58 0 0 0 12.66-6.2c.69-1.59.56-2-1.21-2.23-7.35-.95-13.88-4.17-20.42-7.35-1.58-.76-2.06.54-5.9 2.25-6.51 2.89-7.8-2.91-9.51-3.2-3-.5-4.82-2.71-6.3-5-1.78-2.79-1.37-5.7.53-8.35 1.13-1.58 4.43-5.68 3.08-6.91-2.73-2.48-3.53-5.91-4.29-9.25-2-8.87-2.6-17.81-.59-26.78 4.23-18.9 29-38.14 47.94-36.34 5 .48 10.13.11 15.1 1.57 13.37 3.93 12.87 6.34 16.37 8.5 5.83 3.63 14.09 13 15.66 19 .34 1.3 1 2 2.49 1.53.63-.21 1.35-.1 2-.28 3.18-.89 4 3.72.83 7.91a6.9 6.9 0 0 0 -1.51 5.7c1.64 11-1 18.1-1.47 21.11m1.18-30.63c-4.73-1.09-4.79-.64-21.54 1.69-8.29 1.15-10.51 3.34-13.74 6 6.77-1.24 13.59-1.25 20.3-2.2a5.78 5.78 0 0 1 2.55-.06c1.85.56 2 2.52.2 3.31s-7.81-.56-22.78 2.29a5.09 5.09 0 0 0 -2.43.85c8.25 4.58 16.41 5.16 24.66 1.12 5.67-2.79 10.42-6.6 12.78-13m-58.48 4.23c0 2 .29 2.84 1.27 3.2 8.34 3.12 4.58-12.39 20.84-24.91.49-.38 1.39-.68 1-1.47s-1.08-.27-2.81.41c-7.4 2.9-12.69 8.37-17.3 14.54a14.32 14.32 0 0 0 -3 8.23m3.55-23.92c-.19-.13-.3-.23-.34-.21a33 33 0 0 0 -17 17.45 7.77 7.77 0 0 0 -.53 4.5c.08.45.08 1.06.61 1.18 1.27.28 2.42-.4 3.62-.64 1-.2.89-1 1.08-1.79 4-15.51 12.46-18.57 12.55-20.49"/>
    <path d="m362.23 146.52c-.67-1.54-1.83-1.67-2.65-2.24-1.33-.92-1.67-2-.49-3.07 2.67-2.37-2.51-4.37-2-17.64a26.64 26.64 0 0 1 2.91-11.31c2.92-5.67 5.6-2.16 9.77 2.39 1.09.17 4.56-4.34 6.9.47 4.07 8.38 5.79 16.74-1.11 24.71 1.88 1.51 7.26 1.94 8.71 6.61.76 2.42 0 4-2.36 5.1-4.07 1.89-7.23.71-10.12-.21-.72.1-.62.56-.74.89-.71 2-1.9 2.29-3.3.83-1-1-1-2-2-2.06-1.31 9.24-6.09 21.93-15.47 20.92s-18.67-1.87-27.92-3.43c-2.74-.46-4.58.33-5.92 2.75-4.69 8.49-6.35 8.14-3.24 9.59a16.6 16.6 0 0 1 1.81.85 1.57 1.57 0 0 1 -1.33 2.82 11.5 11.5 0 0 1 -1.83-.82c-4.79-2.52-5.94-1.65-6.82-1.85-3.91-.89-2.13-4.47.46-3.65 2.38.76 3.33-.77 4.34-2.3 4.8-7.27 5.93-11.21 11.73-10.58 11 1.18 12.51 3.2 14.94-.38a56.31 56.31 0 0 0 6.34-13.46c.68-1.93.49-2.06-1.66-2-7 .26-6.65 2.4-8.74 3-1.8.53-3-1.86-1.74-2.88 2.18-1.71 4.4-3.38 6.69-4.93a1.33 1.33 0 0 1 2.22.89c.33 2.91 1.31.76 22.58 1m-22.78 21.16c3.56.38 6.82.54 10 1.14 5.42 1 9.65-4.41 11.09-9.67-4.44-.52-7.62-.48-7.56-2.68 0-1.36 1.39-2.06 3.63-1.86 4.42.4 5.65.95 5.88-.78.68-5.24 2.13-5.18-14-4.62a1.89 1.89 0 0 0 -1.88 1.44c-2.12 5.64-4.61 11.12-7.21 17m34.29-51.34a3.11 3.11 0 0 0 -2.19 1.23c-6.65 6.82-8.1 15.09-6.76 24.15a3.52 3.52 0 0 0 1.83 2.44 72.89 72.89 0 0 0 8.54 4.68 6.18 6.18 0 0 0 5.28 0c2.28-.95.66-4.63-7.82-5.53-2.33-.24-2.95-2.09-1.44-3.9s2.47-1.56 4.32-4.92c3.58-6.53.76-12.31-1.76-18.12m-12.14 18.2c1-13.37 6.34-14.62 4.8-17.56-2.08-4-2.94-5.35-4.18-2.51-2.72 6.2-2.74 12.61-1.37 19.11a1.1 1.1 0 0 0 .75 1"/>
    <path d="m123.75 432.6c-1.11-14.26-1.7-18 3-18.25 4.25-.26 3.39 3.46 3.49 7.23.32 13.12-.1 12.42 2.57 12.53 2.19.09 4.4-.1 6.6-.15.75 0 1-.49 1-1.11 0-2.14-.92-13-1.11-14.9-.15-1.62-.12-3.26 1.35-4.1a6 6 0 0 1 4.74-.19c1.9.58 1.7 2.83 1.72 5.06.27 44.42 2.23 41.43-2.52 41.63-3.93.16-3.94.15-3.92-3.91.12-17.47.86-16.44-2.59-16.21-1.91.12-3.81.4-5.72.56-1 .09-1.24.66-1.14 1.56.53 4.68.22 9.38.23 14.07s-.66 4.52-3.56 4.7-2.88.15-3-2.68q-.56-12.93-1.12-25.84"/>
    <path d="m275.72 188.53c-4.35 8-7.81 12.79-3.8 11.82 12.36-3 21.72-14.44 36.87-8.09 3.47 1.45 5.57 2 6.94 3.85a1.84 1.84 0 0 1 -2.29 2.83c-2.16-1.11-9.15-8.18-21-3.89-5.57 2-10.65 5.16-16.19 7.62 2.09.41 4.17.86 6.27 1.22 8.22 1.4 11.87 7.3 12.24 14.15q.48 8.61.45 17.24c0 7.68 3.64 8.5 4.76 10.17s0 3.42-2.17 2.89c-2.27-.56-6.06-5-6.14-11.22-.07-5.75-.1-11.5-.2-17.25-.09-5.58-2.27-10.39-7.58-11.89-15.61-4.43-28.79 1.29-35.91-4.93-2.19-1.91.64-4.9 2.4-3.19 3.12 3 7.11 2.33 10.85 2.74a3.1 3.1 0 0 0 2.69-1.32c5.5-5.6 8.43-14.4 8.64-14.77 1.16-2-.87-1.31-4.76-9-1.24-2.44-1.55-6.61 1.17-6.38a1.63 1.63 0 0 1 1.52 2c-.49 3.28 1.21 5.75 3 8.1 5.07 6.57 6.22 5.38 7.58 6.36.74.54 1.32 1.19.89 2.17s-1.33 1-2.22.87c-1.46-.23-2.55-1.25-4-2.13"/>
    <path d="m287.89 437c0-5.52.22-13.87 3.61-18.91 4.79-7.13 14.21-4.63 17.73 3.81 3.67 8.82 4.93 17.75.64 31-1.65 5.11-5.1 7.25-10.46 6.88-5.63-.39-8.25-2.66-10.06-8.89-1.32-4.54-1.43-9.25-1.46-13.94m18.11 3.48a41.74 41.74 0 0 0 -3-16.83 4.63 4.63 0 0 0 -4.61-3.25c-7.86.07-4.66 20.44-3.32 28.22a10.61 10.61 0 0 0 1 3c1.12 2.28 2.5 2.74 5 1.94 5-1.64 4.72-8.11 4.89-13.05"/>
    <path d="m182.78 439.55c-.33 9.29-4.8 22.24-14.29 20.51a12.18 12.18 0 0 1 -9.91-8c-4-10-2.25-19.55 1.69-29 2.6-6.24 12.73-11.48 17.16-4.32 3.46 5.6 5.4 12.62 5.35 20.82m-20.18-2.56c0 7.07.83 12.23 5.26 16.14 4.11 3.63 7.68-3.12 8.7-8.49 1.31-6.93-.53-16.76-2.63-21.05-2-4.12-6.88-1.56-8.72 2.72-1.67 3.91-2.69 8-2.61 10.68"/>
    <path d="m72.39 445.06c-3.39 2.78-5 4.72-6.44 2.85s1.61-3.08 2.23-3.56c3.33-2.54 6.22-5.28 6.6-9.9.72-8.77 6.63-16.21 10.45-13.59 1.44 1 1.28 2.52.92 3.92-3.35 13.06-9.15 10.52-9.67 20.06 1.06.27 1.37-.61 1.86-1 6.75-6 11.59-1 9.69 5-.88 2.77-1.52 3.82-.66 4.58 1.19 1.05 2.45-.33 3.57-1a17.19 17.19 0 0 0 1.83-1.42 3.08 3.08 0 0 0 1.25-3 16.31 16.31 0 0 1 4.09-11.64c3.26-3.8 7.54-3.41 9.18-1.08 2.2 3.12-2.61 7.67-6.5 12.18-1.77 2.06-3.2 2.59-1.8 4.12a3.62 3.62 0 0 0 5.13.6c.76-.65 2.27-3 3-3.46a1.65 1.65 0 0 1 2.66 1.38c.24 3.52-6 8.15-11.4 5.19a5 5 0 0 1 -1.43-.94c-1.11-1.27-2.05-.84-3.17 0-2.72 2.09-6.19 3.88-8.88 1.77-4-3.17 2-9.71-.54-11.53-.87-.63-1.69 0-2.36.48a14.6 14.6 0 0 0 -6.56 10.34c-.06.47 0 1-.1 1.43a2 2 0 0 1 -4.06-.26c-.12-4.39 1.59-9.21 1.13-11.62m25.79-.27a19.48 19.48 0 0 0 5.58-7.18c-2.92.12-5 2.79-5.58 7.18m-15.75-20.02c-2.57 1.76-3.15 4.5-3.58 7.95a15.62 15.62 0 0 0 3.58-7.95"/>
    <path d="m343 459.85c-2.75 0-2.67 0-4.44-8.08-.56-2.57-1.57-1.5-9.58-1.91-2.3-.12-1.66 1.12-3.66 7.59a2.61 2.61 0 0 1 -3.23 2.11c-4.72-.5-2.68-3.07 7.41-42 .67-2.57 2.19-4.25 4.83-3.74 1.4.28 1.81 1.35 2 2.51.93 6.5 2.65 12.17 7.44 34.19.45 2.07 1.67 3.85 2 6 .37 2.67-.1 3.35-2.72 3.35m-9.64-32.77c-1.05.29-.53-1.31-4.29 15.76-.35 1.57-.18 1.74 1.56 1.78h4.28c2.64-.13 2.35 1.41-1.55-17.5"/>
    <path d="m277.49 443.4c-.81 10.31 2.79 14.73-4.61 15.78-7.84 1.11-12.28-1.47-15.16-8.91a22.49 22.49 0 0 1 -1.83-9.5c.47-8-1-14.24 5-21.57 2.78-3.37 9-4.66 12.89-2.78 2.49 1.2 2.74 3.45 1.64 4.62-1.45 1.53-2.63-.16-3.93-.31-3.49-.38-5.34-.67-7.57 3.53-3.81 7.19-3.83 14.71-1.53 22.3 1.3 4.3 5.19 6.89 7.66 6.95 2.66.08 1.87-.83 2-11.84 0-2.48-1.47-1.43-4.34-2.57-1.63-.65-2.12-1.65-2-3.39a2.71 2.71 0 0 1 2.55-2.65 23 23 0 0 1 6.3-.22c1.85.18 2.81 1.43 2.88 3.66s0 4.6 0 6.9"/>
    <path d="m225.07 432.83c4.23-12.63 4.65-14 5.39-15.69 1.38-3.14 7.95-3.45 7.14.39-.92 4.35-5.35 13.08-8.31 24.72-1.1 4.32-.24 5.42-.68 15.7-.1 2.48-2.09 3.53-4.21 2.52-1.26-.59-1.43-1.7-1.45-2.88-.3-11.8.06-14.54-1.89-19.23-2.6-6.26-5-12.6-7.69-18.83-.68-1.58-.4-2.16 1.24-2.85 2.2-.92 3.36-.66 4 1 6.87 16.82 5.08 15.31 6.41 15.11"/>
    <path d="m91 159.58c-3.72 8.4-3 19.68 4.89 24.18 1.56.89 3 1.88 2.11 3.42-1.07 1.79-3.82.22-5.43-1.32-8.44-8.08-8.51-18.76-3.72-29.47 1.29-2.9 3.9-3.45 5-.85 1.36 3.46 2.15 23.46 21.48 37.63 3.07 2.25 6.68 2.4 10.37.67-.86-.94-2.11-1-3.08-1.47-1.72-.92-4-1.46-3-3.37.87-1.67 2.39-.51 2.94-.24 16.94 8.43 24.56-.46 25.7 3.71s-11.5 3.33-15.81 2.69a3.23 3.23 0 0 0 -2.62.59c-4.75 3.3-12.13 3.22-16.72-.37-10.46-8.17-17.61-18.54-20.55-31.63-.31-1.38-.67-2.75-1-4.12h-.59"/>
    <path d="m185.38 19c-1.49 4.79-4.18 2.56-4.3 5.06-.28 5.53-4.29 8.78-7.68 12.38-3.61 3.82-6.91-12.15.26-15.83a5.45 5.45 0 0 0 1.84-1.28c-6.85-.69-9.94-.63-13.48-2.51-2.3-1.23-4-2.92-3.23-5.38 1-3.22 7.63-2.35 10.74-.92.74.34 1.48.71 2.33 1.12.17-1.27-.62-2-1-2.83a15 15 0 0 1 -1.44-5.52c0-4.57 7-5 8.75 2.78 2.32 10.13 1.59 9.42 5.36 9.68.58-.17.47-.74.65-1.15a3.3 3.3 0 0 1 5-1.57c2.58 1.6 2.73 8.75-1.2 7.24-.8-.31-1.54-.75-2.6-1.27m-12.79-3.07c-2.55-2.55-5.05-3.81-8-4-1-.06-2.51-.61-2.83.56-.38 1.38 1.3 1.63 2.25 2.09 2.54 1.23 5.27 1.48 8.62 1.33m3.67-3.69c.21-2.56-1.3-9.9-3.48-9.26-.74.22-.56.92-.45 1.46a15.13 15.13 0 0 0 3.93 7.8m1.4 13.84c.64-1.27.13-3.82-1.72-3.48a1.79 1.79 0 0 0 -1.42.81c-.39.83.39 1.16.86 1.54a3.47 3.47 0 0 0 2.28 1.13m-5.18 6.94a3.14 3.14 0 0 0 1.83-1.3c1.07-1.17-1.47-1.72-1.72-1.67-.93.21-.35 1.92-.11 3"/>
    <path d="m57.25 434c-4.13 1.87-14.35 4.73-14.62 9.61-.07 1.36-.06 2.68 1.66 3.23 1.22.39 2 1.28 1.42 2.66-.85 2.2-5.1.7-5.88-1.7-3.2-9.89 6.59-13.49 16.55-17.16 4.55-1.68 2.24-4 5.79-7.34 4.19-3.95 9.17-.53 6.63 3.44-3 4.75-6.33 2-7.68 9.24-1.62 8.62-.95 18.14-4.33 25.67-5.68 12.68-19.33 10.71-19.15.48 0-2.53 4.13-4.27 4.15-.93 0 3-.1 5.85 3.74 5.64 4.76-.26 7.63-4.76 8.94-9.31 2.41-8.41 1-9.78 3-21.28a2.49 2.49 0 0 0 -.23-2.25"/>
    <path d="m362.14 437.6c0 12.35-.22 12 .84 18 .46 2.65 0 3.27-2.32 3.51-2.8.3-3.65-.24-3.62-3 .09-6.22-.63-12.42-.54-18.64a109.65 109.65 0 0 0 -.47-13.19c-.25-2.34.27-2.15-7.45-1.75a2 2 0 0 1 -2.21-1.8c-.74-3 .68-4.94 3.66-4.91 17.06.17 22.87-3.67 21.51 3.31-.37 1.93-1 2.52-3.13 2.61-5.24.22-7-.77-6.83 2.05.61 14.42.26 13.77.56 13.77"/>
    <path d="m283.59 256.83c-2.27-3.26-8-10.27-4.27-11.59 3.87-1.36.86 4.53 9.51 11.12a20.5 20.5 0 0 1 2.85 2.39c1.49 1.62 1 3.08-1.22 3.22-1.86.12-1.41.36-3.25 11.15-.47 2.75-.94 3.09-3.76 3.27-5.71.36-10.4-2.19-14.77-5.36-2.86-2.07-5.59-4.38-6.73-8a3.65 3.65 0 0 1 0-3.05c3.13-5.5 2.1-13.89 7.57-9.13a22.8 22.8 0 0 0 14.1 6m-16.38-2.46c-.44 1.86-.72 3.36-1.15 4.81a6.08 6.08 0 0 0 1.51 6.1c1.83 2 5.71 5.59 8.27 6.56 2.72 1 1-1 2.55-5.66.54-1.64 1.52-2.36 2.66-2 1.41.45 1.48 1.59 1.27 2.8s-.43.65-.54 5.12c0 1.17 1.79 1.24 2.16.56.95-1.73.6-1.81 1.17-10.19.07-1.05-.57-1.26-1.39-1.41-9.33-1.72-12-4.49-16.51-6.7"/>
    <path d="m198.42 433a133.27 133.27 0 0 0 .56 19.61c.22 2.19.24 2.24 2.41 2.16 4.51-.18 8.78-1.6 8.88 2 .13 5.07-4.55 2.76-13.56 4.2-2.65.42-3.94-1-3.8-3.65 1.72-31.4-5-42.54 2.06-42.76 4.44-.13 3.45 3.1 3.45 18.42"/>
    <path d="m216.58 230c-.72-.36-1.31.09-1.84.42-4.77 3-9.53 6.05-13.27 10.43-5.66 6.65-4.41 10.65-6.17 13.71a1.83 1.83 0 0 1 -3.52-.89c0-3.36 3.86-13.24 11.46-19.33 12.37-9.9 14.28-7 14.1-10-.68-11.29-1.5-14.17 1.24-14.09 1.33.05 1.82 1 1.7 2.18-.79 7.77 2.34 11.58-1.32 23.61-.69 2.29-2.55 5.59-4.6 4.35-1.84-1.13-.48-3 .68-5a9.06 9.06 0 0 0 1.54-5.36"/>
    <path d="m261.4 225.91c-4.82-.31-9.29.33-13.79.44-4.24.11-.49 1.86-4.92 10.09-.82 1.53-1.85 2-3 1.47s-1.49-1.7-.67-3.19c5.98-10.72-6.84-11.72 30.58-11.72 3 0 4.32 1.12 3.86 4-1.25 7.89-3 15.64-9 21.6-6.87 6.85-9.62.79-6-.64 8.35-3.3 9.75-11.28 11.14-19.95.41-2.51.65-2.09-8.2-2.09"/>
    <path d="m280.61 101.32c6.13 27.72 20.26 18.54 19.46 24-.18 1.28-1.46 2.08-3.49 1.55-7.6-2-13.27-6.59-16.75-15.87-2.87-7.66-2.8-8-2.76-8.72.17-2.9.16-2.18-4.7-3.8-2.18-.73-5.49-3-3.74-4.85a1.58 1.58 0 0 1 2.53 0c1.48 1.87 3.65 2.33 5.69 3.11 6.5 2.46 11.53.11 11.61 3 .06 2.46-4.13 1.64-5.63 1.4a2.73 2.73 0 0 0 -2.22.12"/>
    <path d="m83.4 299.19c-2.49-.78-4.43-.95-3.84-2.8a1.47 1.47 0 0 1 1.83-1 5.6 5.6 0 0 1 1.08.39c4.78 2 8.16-.1 9.49-.37 1.07-.22 2.25-.33 2.59 1 .47 1.86-2.51 2.54-3.73 2.66-2.62.27-4.3 2.24-6.2 3.63-2.87 2.11 1 4.66 1.81 17.83.42 6.83.77 11.25-3.14 16.17-1.22 1.54-3 2.88-4.23 1.34-2.23-2.74 4.48-3.26 4.47-10.74 0-23.19-5.83-18.94-.13-28.13"/>
    <path d="m286.15 157.84c-.72 3.15-1.78 6.24-1.61 9.54.11 2.14.46 2.52 2.6 2.15 3.63-.63 6.59-3.4 9.18-6.1.91-1 1.64-.71 2.42.08s.05 1.37-.46 1.89c-7.51 7.46-9.48 6.1-11.61 7.54.05.83.76 1.1 1.16 1.59.61.74.91 1.51.19 2.31-2 2.26-8.61-2.27-5.72-17.11a3.6 3.6 0 0 1 2.1-2.88c-6.74-3.44-9.65-4.39-8.57-6.37.62-1.16 1.72-1.15 3.69.19a48.81 48.81 0 0 0 8.24 4.05 11.26 11.26 0 0 0 4.51.65c3.92 0 3.47 5.69-3.69 3.21-.8-.27-1.5-.9-2.43-.74"/>
    <path d="m217.81 76c-5.57 12.76-4.86 16.06-7.67 14.88-3.14-1.32.57-4.74 4.74-16.37a7.73 7.73 0 0 1 6.78-5.38 22.66 22.66 0 0 1 8.53 0c1.32.33 2.43.7 2.34 2.33-.07 1.27-.83 1.87-2.68 1.83-2.7-.06-1.07 1.28-2.86 4.11a4.52 4.52 0 0 1 -7.69.39c-.45-.57-.54-1.41-1.49-1.83m7.32-1.25c.13-1.62-1-1.94-2.23-2.2s-2.06-.08-2.05 1.27a2.4 2.4 0 0 0 2.07 2.51c1.19.21 1.76-.65 2.21-1.58"/>
    <path d="m182.09 263.1c1.24-18.11 6.91-26 18.82-36.55 1.4-1.23 3.34-2.13 4.16-.52.73 1.46-.74 2.19-1.44 2.7a43.65 43.65 0 0 0 -14 16.48c-6.95 14.44-1.31 23-5.64 23.11-2.38.05-1.93-2.8-1.93-5.22"/>
    <path d="m296.89 143.67c-8.2-1.35-15.77-4-21.56-10.37-2.43-2.66-8.3-9.91-9.37-13.35a2.13 2.13 0 0 1 1.45-2.94c1.23-.27 2.83.58 2.75 1.85-.15 2.41 1.36 3.9 2.53 5.59 15.16 21.83 27.71 11.7 27.91 17.07.08 2.16-2.28 2.07-3.71 2.15"/>
    <path d="m102.91 256.44c-1.88-.49-4.91 1-5.14-1.26-.2-1.93 1.68-1.75 2.88-1.84 4.59-.32 5.74-1.88 8-3.86s4.25.62 2.22 2.43c-2.52 2.26-4 1.85-4.66 4.31-2.84 10.31-4.61 17.74-16.78 21-1.88.51-4.39.3-4.45-1.64s2.24-1.93 3.48-2c4.81-.37 8.57-2.44 11-6.74a30 30 0 0 0 3.44-10.36"/>
    <path d="m222 144.11c-5.58-.58-15.56-3.26-18.76-6.56a1.35 1.35 0 1 1 1.89-1.93c3.63 3.3 8.26 4.2 12.78 5.38a18.66 18.66 0 0 0 9.36 0c14.14-3.46 17.11-9.55 19.13-10.85a1.56 1.56 0 0 1 2.21 2.19c-2.48 3.48-14 11.12-26.61 11.78"/>
    <path d="m301.89 135.59c-10.41 0-18.86-4-24.84-12.74-3.9-5.69 1.28-7 2.13-4.11 2.87 9.76 18.44 16.51 27.24 12.87 1-.43 2.29-.42 2.78.61.77 1.64-1.46 3.28-3.3 3.36-1.33.06-2.67 0-4 0"/>
    <path d="m223.21 136.64c-6.18-.1-9.81-1.78-15.89-4.44-1.76-.76-3.49-1.82-2.49-3.4a1.5 1.5 0 0 1 2.46-.32c1.86 1.62 4.17 2.33 6.31 3.36 7.91 3.78 18.52 3.08 26.28-7.41.85-1.15 1.43-2.71 3-2s.88 3-.3 4.22a36 36 0 0 1 -14 9.27 15.09 15.09 0 0 1 -5.39.68"/>
    <path d="m175 260.77c.87-14.61 6.5-25 11.64-29.88a1.73 1.73 0 1 1 2.4 2.46c-5.94 5.85-8.55 13.22-9.88 21.23-.78 4.65.83 9.92-2.24 9.8-1.33-.05-2-1.31-1.92-3.61"/>
    <path d="m106.85 209.13c0 4.84-1.73 7.8-3.37 9.13a1.8 1.8 0 0 1 -2.79-2c.65-1.83 4.09-4.67 3-8-.51-1.55-2.15-.72-3.27-.89-6.53-1-12.34-3.43-16.69-8.63a9.09 9.09 0 0 1 -1.39-2.15 1.58 1.58 0 0 1 2.61-1.65c1.4 1.21 1.25 4.37 9.6 7.76 10.7 4.36 12.31-1.61 12.31 6.48"/>
    <path d="m111.89 208c-.21-1.78-.8-3.7 1.07-4 2-.3 2 2.29 1.88 4.31-.93 11.4-6.78 19.65-16.36 25.51-5.09 3.11-6.74-1.14-4.16-2.47a7 7 0 0 1 1.35-.47c7.3-2.09 15.82-11.44 16.22-22.91"/>
    <path d="m142.08 207.87c16.4.68 25.68-9.71 27.36-5.47.43 1.07-.09 1.94-1.61 2.54-8.63 3.44-17.35 6.51-26.77 6.87a9.25 9.25 0 0 1 -3.4-.16c-1.07-.37-2-1-1.74-2.26.39-2 3-1.52 6.16-1.52"/>
    <path d="m284.46 235.56c.21-1.84 0-4.68 2.5-4.39a1.87 1.87 0 0 1 1.74 2c.12 2.32-1.93 6.15 2.8 15.48 1.49 2.94 4.73 3.59 6.45 5.56a1.74 1.74 0 0 1 -1.7 2.92c-3.26-.61-6.81-4.53-8.3-7.46a35.42 35.42 0 0 1 -3.49-14.06"/>
    <path d="m154 284.42c.43-8.85 4.25-12.63 9.84-19.93 4.46-5.83 7.22-1.14 4.87.25-3.62 2.17-5.36 5.94-7.8 9.09s-4 8.49-2.79 12.19c.51 1.48.81 2.93-.65 3.51-1.08.43-1.83-.19-2.44-1a6.32 6.32 0 0 1 -1-4.1"/>
    <path d="m326.87 139.7c-.64 3.69-8.05 6.41-11.66 7.32-10.52 2.65-4.26 2.48-11.07 11.54-.39.52-.81 1.18-1.62.74-2.61-1.4 1.37-4 2.66-9.22 1.92-7.74 12.24-3.53 18.06-11.06 1.52-2 3.72-1.26 3.63.68"/>
    <path d="m237.91 220.23c-1.69 7.44-1.45 14.92-5.17 21.43a9.74 9.74 0 0 1 -2.13 3c-1.94 1.58-4.1-.19-3-2.37 1.46-2.89 4.9-4.49 5.78-18.52.17-2.75.59-5.73 3-5.23a1.91 1.91 0 0 1 1.58 1.67"/>
    <path d="m97.19 196.26c-8.8-1.58-16.66-8.8-18.68-19.38-.36-1.86-.42-3.94 1.48-3.87 1.48.05 1.51 1.38 1.58 2.29.52 6.82 4.15 11.72 9.6 15.47 3.5 2.4 9 1.09 8.5 4-.2 1.31-1.36 1.42-2.48 1.5"/>
    <path d="m283.08 92.42c-8.17.1-14.92-3.8-21.67-7.66-1.37-.78-1.62-1.92-.91-2.85s1.66-.94 3 .09a40.61 40.61 0 0 0 11 5.57c4.11 1.5 10.4.88 13 1.66a1.63 1.63 0 0 1 -.17 3.15 14.28 14.28 0 0 1 -4.28 0"/>
    <path d="m208.59 168.3c-.06 1.57-5.23 12.95-13.3 20.94-1.65 1.63-2.76 2-3.59.95-2.36-2.83 8.33-5.95 12.69-21.83.45-1.66 1-3.32 2.75-3 1 .16 1.49 1.09 1.45 3"/>
    <path d="m88.65 284.55a37.9 37.9 0 0 1 -10.06-1.08c-1.79-.38-2.52-1.12-2.1-2.06 1.17-2.59 4.25 1.63 14 .39 9.48-1.2 13.15-7.51 15-9.18s4.09.77 1.29 3.35c-5.41 5-11.32 8.89-18.13 8.58"/>
    <path d="m233.48 194a7.32 7.32 0 0 1 .46-3.1 1.84 1.84 0 0 1 2.32-1.17c1.32.36 1.47 1.47 1.27 2.79-.87 5.71 1.74 9.72 6.24 12.81 2.12 1.45 5 2.5 3.71 4.52-.72 1.11-1.83 1-2.8.43-7.53-4.36-11.09-11.15-11.2-16.28"/>
    <path d="m289.61 149.37c-3.79-.56-11.33-3.36-17.67-8.26-1.69-1.31-3.23-2.9-1.71-4.38 3.27-3.18 3.2 6.53 19.8 8.77.18 0 .37.09.56.13 1.17.24 2.31.57 2.3 2.07 0 1.17-1 1.75-3.28 1.67"/>
    <path d="m167.94 255.94c1.1-6.72 1.87-14.49 6.18-20.36a1.69 1.69 0 1 1 2.76 1.94 18.09 18.09 0 0 0 -2.31 3.6 35.1 35.1 0 0 0 -2.67 12.88c0 2.12.33 6-2.17 5.68-1.8-.25-1.79-2-1.79-3.69"/>
    <path d="m101.87 241.41a1.73 1.73 0 0 1 -1.85-1.06c-.65-1.68 1-2.39 2.56-3.21 10.09-5.17 12.6-15 13.15-16a1.61 1.61 0 0 1 3 1.17c-3 9.39-14 19-16.86 19.12"/>
    <path d="m273.6 167.41a18.8 18.8 0 0 1 .31-2.1 1.72 1.72 0 1 1 3.37.64 10.56 10.56 0 0 0 0 4.81c3.82 12.94 12.23 10.81 10.23 14.51-.69 1.29-2.42.8-3.27.21-6.37-4.4-9.68-10.59-10.64-18.07"/>
    <path d="m146.31 256.67c-.44 3.86-5.45-.85-12.56 15.12-.55 1.22-1.16 2.41-1.79 3.59-1.67 3.11-5 1-3-1.62 6.23-8.3 3.12-10.66 14.4-18.1 1.4-.93 2.62-.37 2.95 1"/>
    <path d="m84.76 291.28c-4 0-5.6.34-5.8-1.52-.14-1.32 1.7-1.31 3-1.09 8.56 1.46 19.53-2.68 23.23-6.83.93-1 2.19-1.92 3.15-.89s-.17 2.61-1.48 3.46c-6.72 4.37-14 7-22.11 6.87"/>
    <path d="m228.71 223.18c.44 6.57-1.37 16.31-4.58 15.15-1.16-.41-1.12-1.43-.95-2.4.52-3 3.33-4.39 1.92-16.54-.09-.77-.86-3.14 1.42-3.38 2.63-.27 2.19 4 2.19 7.17"/>
    <path d="m336.26 139.21c-2.33 6.42-12 10.55-18.26 13.48-1.26.59-2.31.27-2.66-.71-.46-1.29.28-2 1.36-2.43 2.09-.84 12.27-3.91 15.66-10 1.87-3.35 3.79-2.22 3.9-.37"/>
    <path d="m162.1 211.47c1.45-.07 2.3.35 2.49 1.46a1.7 1.7 0 0 1 -1.54 2 26.8 26.8 0 0 0 -12.54 5.92c-1.69 1.61-3 1.73-3.71.75-2.58-3.53 11.09-9.08 15.3-10.18"/>
    <path d="m258 170a1.89 1.89 0 0 1 1.82 2.08 16.61 16.61 0 0 0 1.2 5.29 12.59 12.59 0 0 0 3.51 5.51c1.23 1.47 1.41 2.46.62 3.29s-2.25.68-3.51-.6c-2.68-2.74-4.67-9-5.44-12.83-.34-1.64.46-2.7 1.8-2.74"/>
    <path d="m301 185a32 32 0 0 1 12.19 3.51c1 .56 2.6 1.22 1.8 2.74-.7 1.33-2 .33-3.1.11a15.13 15.13 0 0 1 -3.17-1.31c-5.42-2.39-7.6-1.47-9.51-1.62a1.66 1.66 0 0 1 -.07-3.3 16.1 16.1 0 0 1 1.86-.13"/>
    <path d="m160.84 250.9c.47-3.23 2-11.06 4-13.28a1.6 1.6 0 0 1 2.72 1.51c-.47 1.49-2.91 3.31-3 11.2 0 1.92-.13 4.26-2 4.13-1.7-.11-1.6-2-1.7-3.56"/>
    <path d="m240.91 154.42c-1.09 0-1.95-.14-2.23-1.16a1.63 1.63 0 0 1 1.44-2.09 28.2 28.2 0 0 0 8.54-3.92 31.7 31.7 0 0 0 3.6-2.82c2-1.66 3.95 1.08 2.11 2.38-3.14 2.21-9.63 6.79-13.46 7.61"/>
    <path d="m204.44 188.24c-1.53 0-2.35-2-.23-3.92 4.36-3.89 5.4-9.48 6.33-11.37a1.59 1.59 0 1 1 2.92 1.24c-1.43 3.26-5.52 13.73-9 14.05"/>
    <path d="m222.82 157.86c-2.54 0-8.26 0-10.36-1.52-1.81-1.27-.55-3.9 2.57-2.58 7.52 3.19 14.52-.75 14.2 3-.09 1-.89 1.42-1.84 1.38-1.53-.07-3-.19-4.57-.29"/>
    <path d="m105.06 247.68c-1.31 0-2.21-.32-2.41-1.46s.53-1.58 1.37-1.95c2-.88 4.18-.59 7.53-4.4 1.52-1.73 2.84-3.1 4.16-1.82a1.44 1.44 0 0 1 .24 2.07c-3 2.86-6.44 7-10.89 7.56"/>
    <path d="m156.59 228c-1.86 0-2.57-1.67-.05-4.45s10.29-7.63 11-4.12-4.19.77-8.71 6.83a4.08 4.08 0 0 1 -2.23 1.74"/>
    <path d="m248.27 174.35c.11-1.31 0-3 1.92-3.09 1 0 1.82.57 1.77 1.49-.14 2.44.86 4.45 1.91 6.49 1.61 3.12-4.52 5.66-5.6-4.89"/>
    <path d="m135.61 255.25c-.14 2.1-3.11 1.12-5.31 6.06-.94 2.13-2.08 2.79-3.11 2.16s-1-1.83 0-3.63a15.56 15.56 0 0 1 5.81-5.84c1.34-.81 2.72-.07 2.64 1.28"/>
    <path d="m228.64 197.6c2.37 0 1.42 2.3 4.42 6.28a1.89 1.89 0 0 1 -2.91 2.41 9 9 0 0 1 -3.27-6.49c0-1.35.7-2.18 1.76-2.2"/>
    <path d="m261.45 149.92a1.74 1.74 0 0 1 -.28.66c-7.34 7.48-10 2.68-7.27 1 1.69-1 3.38-2.07 5-3.24a1.64 1.64 0 0 1 2.56 1.58"/>
    <path d="m196.06 99.09c.17-2.65 2.31-6.45 4.44-4.91 1.86 1.33-.19 2.8-.9 5.42-.29 1.07-.74 2.14-2.07 1.9s-1.39-1.41-1.47-2.41"/>
    <path d="m253.73 106.89c-.15 5.12-4.89 4.94-4.63-.19.09-1.74.94-3.16 2.63-3 1.41.13 2.06 1.17 2 3.2"/>
    <path d="m170.11 227.69c0 1.14-.44 1.46-4.63 3.86a1.62 1.62 0 0 1 -2-2.46 8.77 8.77 0 0 1 4.75-3 1.6 1.6 0 0 1 1.93 1.59"/>
    <path d="m222.86 161.6c2.1.31 4.33.17 4.17 2.16s-3.12 1.73-5.1 1.13c-1.05-.31-2.16-.72-2-2s1.4-1.34 2.89-1.27"/>
    <path d="m241 173.31a6.47 6.47 0 0 1 .31-1.5c1.09-2.64 5.94-1.51 3.3 4.31a1.55 1.55 0 0 1 -2.79.09 5.74 5.74 0 0 1 -.82-2.9"/>
    <path d="m153.43 242.89a10.22 10.22 0 0 1 1.63-3.65 1.75 1.75 0 0 1 3.07 1.54c-1.57 5.37-4.79 5-4.7 2.11"/>
    <path d="m232.09 167.83c0 1.57-1.83 3.66-3.15 3.67a2 2 0 0 1 -1.94-2c0-1.34 2.07-3.49 3.33-3.43a1.76 1.76 0 0 1 1.76 1.78"/>
    <path d="m265 154.9c-1 0-1.54-.46-1.57-1.38s1.58-3 2.47-3.34c2-.71 4.69 2.69-.9 4.72"/>
    <path d="m355.72 137.9c2.55-.12 2.87 3.85.25 4s-2.77-3.87-.25-4"/>
    <path d="m218.86 180.79a2.24 2.24 0 0 1 -1.86 2.21c-2.57.25-2.64-4 0-3.88a1.79 1.79 0 0 1 1.87 1.65"/>
    <path d="m226.56 332.67c-1.55 12.22 1.12 13.32-1.72 15.95a3.78 3.78 0 0 1 -3.34 1.16c-5.82-.76-11.67-.46-17.5-.51-4.1 0-2.89-1.81-2.81-8.73.22-17.28-2.12-29.76 10.35-39.66 2-1.56 3-1.47 4.76.29 11.27 11.4 10.26 12.65 10.26 31.5m-22.43-.49c0 16-.82 14.28 5.94 14.47 2.28.07 2.29 0 2.47-2.36.53-6.58.56-27.61-3.51-32.78-1.22-1.55-1.79-1.53-2.53.27-2.74 6.62-2.32 12.41-2.37 20.4m19.19-.78c.41-7.25 1.05-13.06-1.61-19.26-.58-1.36-1.08-1.38-2-.24-5.36 6.39-4.22 23.87-3.91 30.53.24 4.94-.53 4.26 4.5 4 2.22-.12 2.23-.14 2.54-2.39.56-4.19.31-8.41.51-12.62m-9.11-14.52c.92-2.23 1.65-3.77 2.19-5.37.47-1.39 2.33-2.5 1.6-4s-2.21-2.31-3.34-3.46a1.24 1.24 0 0 0 -1.76-.2 12 12 0 0 0 -2.77 2.44 1.06 1.06 0 0 0 -.07 1.53c2.09 2.45 3.09 5.42 4.15 9"/>
    <path d="m240.33 330.1c0-9.68-.89-14.85 3.67-19.74 1.74-1.87 3.22-1.79 4.76.24 3.82 5 3.83 11.22 3.84 18.17 0 15.56.47 14.64-3.95 15.16a12.85 12.85 0 0 1 -6.75-.51c-2-.83-2.2-.69-2.05-2.71.28-3.54.13-7.07.48-10.61m2.8-.72h-.29c0 10.51-.33 10 .36 10.8s2 0 3 .23c.55.14 1.14.14 1.7.24 1.19.23 1.84-.15 1.83-1.44-.15-12.49.86-20.2-2.58-25.72-.7-1.13-1.19-1.16-1.89-.06-2.68 4.21-2.15 6-2.15 15.95"/>
    <path d="m188.69 332c0 10.84.57 11.5-2.84 11.62s-6.3 1.4-8.2.84c-1.37-.4-2.13-1.12-2-2.68 1.36-13.11-2.27-24.21 4.52-31 1.34-1.35 2.26-1.35 3.78-.23a7.72 7.72 0 0 1 2.82 4.21c2.26 7.83 1.9 8.88 1.9 17.29zm-10.3-2.23v7.47c0 3.48 0 3.47 3.29 3.46 2.92 0 4.45.58 4.43-1.49-.06-7.46.76-18.44-2.53-24.95-.86-1.7-1.6-1.71-2.61-.15-2.33 3.61-2.3 6.64-2.57 15.66"/>
    <path d="m152.89 328.6c.48-2.37.49-4.77 2.81-4.48s1.84 2.7 1.25 6.44c-.36 2.34-3.51 2.5-3.91-.24a12.19 12.19 0 0 1 0-1.71h-.14"/>
    <path d="m150.14 328.36c-.13 1.43 0 3.5-2 3.66-2.53.2-2.65-3.91-2.2-6.41a2 2 0 0 1 3.72-.25 7.39 7.39 0 0 1 .44 3"/>
    <path d="m154 340.45c.06-2.39 1-5.31 3.3-4.58s1.41 2.94.41 6.28c-.6 2-3 1.92-3.53-.33a10.31 10.31 0 0 1 -.18-1.37"/>
    <path d="m164.61 328c-.11 1.88.08 3.76-1.92 3.93-2.39.21-2.65-3.6-2.28-5.88a2 2 0 0 1 4.06 0c.1.66.1 1.33.14 1.94"/>
    <path d="m150.61 340v.86c-.21 3.7-3.79 3.18-4.11.3a18.09 18.09 0 0 1 -.14-3.11 2.07 2.07 0 0 1 4.14 0 13.06 13.06 0 0 1 0 2z"/>
    <path d="m165.08 338.72c0 2.54-.53 3.57-1.74 3.71s-2.17-1.06-2.29-3.31c-.11-2-.07-4 1.94-4 2.19 0 2 2.14 2.09 3.63"/>
    <path d="m373.72 129.92a3.06 3.06 0 0 1 -3 3.14c-3.68 0-4-6.06.11-6.08a3 3 0 0 1 2.88 2.94"/>
  </g>
</svg>
