<svg xmlns="http://www.w3.org/2000/svg" id="Layer_1" data-name="Layer 1" viewBox="0 0 432 247.98">
  <title>
    logo-millcraft
  </title>
  <path fill="#888888" d="M186.92,105.3a117.67,117.67,0,0,1,5.79-47.23H171.62L125,0,101.19,58.11h9.38L130,11.3,163.08,52V105.3Z"/>
  <polygon fill="#888888" points="124.67 62.47 124.67 95.67 127.78 95.26 127.78 65.74 144.22 63.27 144.12 59.45 124.67 62.47"/>
  <g>
    <polygon fill="#888888" points="135.38 80.69 135.38 93.43 141.56 93.19 141.43 80.2 135.38 80.69"/>
    <polygon fill="#888888" points="141.42 79.11 141.28 65.54 135.38 66.46 135.38 79.6 141.42 79.11"/>
  </g>
  <g>
    <polygon fill="#888888" points="134.05 79.71 134.05 66.67 129.42 67.26 129.39 80.09 134.05 79.71"/>
    <polygon fill="#888888" points="129.48 81.15 129.46 93.74 134.05 93.49 134.05 80.79 129.48 81.15"/>
  </g>
  <path fill="#888888" d="M277.19,86.53l-10.3-55.11a36.88,36.88,0,0,0-13.19,7.74Z"/>
  <path fill="#888888" d="M279.83,85.23l6.76-53.33A29.72,29.72,0,0,0,270,30.61Z"/>
  <path fill="#888888" d="M285.16,87.7,312.6,59.43A65.4,65.4,0,0,0,303.91,45Z"/>
  <path fill="#888888" d="M238.08,62.91a90,90,0,0,0-5,20.31l40.71,9Z"/>
  <polygon fill="#888888" points="255.83 105.34 268.03 105.34 274.17 99.03 255.83 105.34"/>
  <path fill="#888888" d="M232.73,86.47a94.89,94.89,0,0,0,.13,18.87h13l28.23-9.72Z"/>
  <path fill="#888888" d="M251.24,41.52a61,61,0,0,0-11.87,18.24l35.81,29.39Z"/>
  <path fill="#888888" d="M301.56,42.25a40.84,40.84,0,0,0-11.86-9l-7,52.64Z"/>
  <path fill="#888888" d="M213.39,90.39H190.3l4.13,14.92h19.41A118,118,0,0,1,213.39,90.39Z"/>
  <path fill="#888888" d="M215.16,73.49h-23l3.44,14.22h18A116.4,116.4,0,0,1,215.16,73.49Z"/>
  <path fill="#888888" d="M219.12,58.07H196.66l3.53,12.4h15.57A108.3,108.3,0,0,1,219.12,58.07Z"/>
  <path fill="#888888" d="M225.84,42.78H203.47l3.25,11.71h13.69A92.39,92.39,0,0,1,225.84,42.78Z"/>
  <path fill="#888888" d="M227.62,39.71a75.31,75.31,0,0,1,6.77-9.5l-.07-.41H213l2.72,9.91Z"/>
  <path fill="#888888" d="M236.24,28.11a58.93,58.93,0,0,1,11.58-9.91H227.76l1.86,9.91Z"/>
  <path fill="#888888" d="M259.47,12.7h-12l1,5.12A47.24,47.24,0,0,1,259.47,12.7Z"/>
  <path fill="#888888" d="M292.92,99.78a11,11,0,0,1-1,3.12l3,2.44H318Z"/>
  <path fill="#888888" d="M319.07,83.56l-27,9.29a11.38,11.38,0,0,1,.92,3.64l26.5,5.86A96.79,96.79,0,0,0,319.07,83.56Z"/>
  <path fill="#888888" d="M290.09,90.11l28.52-9.83a85.16,85.16,0,0,0-4.67-17.58L288.26,89.17A4.57,4.57,0,0,1,290.09,90.11Z"/>
  <path fill="#888888" d="M281.52,97.68c0-4.77,2.59-8.64,5.79-8.64h-5.79c-3.19,0-5.78,3.87-5.78,8.64s2.59,8.64,5.78,8.64h5.79C284.11,106.32,281.52,102.45,281.52,97.68Z"/>
  <g>
    <path fill="#888888" d="M48,184l-.83-39.18L27.45,178.36h-.83L6.8,144.77,6.12,184H0l2.11-56.35,1.14-.15,24.06,41.76,23.44-41.76,1.22.15L54.08,184Z"/>
    <path fill="#888888" d="M71.12,184V128.59h6V184Z"/>
    <path fill="#888888" d="M95,184V128.59h6v50h26.4V184Z"/>
    <path fill="#888888" d="M140.11,184V128.59h6.06v50h26.4V184Z"/>
    <path fill="#888888" d="M208.28,184.94c-39.46,0-38.95-57.26,0-57.26a35.6,35.6,0,0,1,18.31,5.3l-2.5,5.14c-4.68-2.72-11-4.77-16.34-4.77-29.88,0-30.07,45.92.53,45.92a35.22,35.22,0,0,0,16.34-4.76l2,5.14A35.7,35.7,0,0,1,208.28,184.94Z"/>
    <path fill="#888888" d="M328.88,184l-6.58-15.35H297.48l-7.62,17.88-5.09-3,24.74-56h1L335.38,184Zm-19-44.25-10.21,23.83h20.43Z"/>
    <path fill="#888888" d="M353.17,134v20.2h23.75v5.45H353.17V184h-6.05V128.59h32.45V134Z"/>
    <path fill="#888888" d="M413.54,134v50h-6.05V134H389v-5.44h43V134Z"/>
    <path fill="#888888" d="M248.29,156.62s6.11,14.22,17.2,22.67c11.36,8.66,18.13,11.11,22.37,12.1l.91-2.17c-16.14-8.38-30.93-24.93-30.47-28,.28-1.82,2.67-4.22-.71-4.11A86.12,86.12,0,0,1,248.29,156.62Z"/>
    <path fill="#888888" d="M254.37,127.53a96.81,96.81,0,0,0-13,.93v56h6.17V133.7a40,40,0,0,1,7.79-.62c9.25,0,14.18,5.17,14.18,11.8,0,7.33-5.09,12.16-15.66,12.16-.34,0-.1,5.27.09,5.27,14.65,0,22.21-8.34,22.21-17.82C276.12,134.78,269,127.53,254.37,127.53Z"/>
  </g>
  <g>
    <path fill="#888888" d="M163.51,221.56h.72v19.08c0,4.3-1.88,7.34-7.08,7.34-8.06,0-6.72-8-6.86-8.6H151c.18.67-1.28,7.88,6.14,7.88,4.12,0,6.36-1.74,6.36-7.16Z"/>
    <path fill="#888888" d="M182.44,247.36h-.72v-4.59h-.07c-1.67,6.95-13.3,7-13.3-1.66V228.79h.73V241c0,8.44,12.64,8.38,12.64-1.7V228.79h.72Z"/>
    <path fill="#888888" d="M198.52,234.28c0-3.72-2.45-5.2-6-5.2-5.2,0-5.57,3.29-5.57,3.94,0,6.41,12.79,2.48,12.79,9.61,0,3.72-3.5,5.17-6.72,5.17-4.88,0-7.51-2.13-7.51-6.79h.72c0,4.11,2.49,6.07,6.79,6.07,2.68,0,6-1.2,6-4.37,0-4.52-6.11-3.87-10.55-5.86-3.55-1.52-3.45-8.49,4.05-8.49,4.12,0,6.72,1.8,6.72,5.92Z"/>
    <path fill="#888888" d="M205.14,229.52v14.23c0,2.78,1.37,2.89,2.49,2.89a7,7,0,0,0,1.59-.11v.73a13.94,13.94,0,0,1-1.77.1c-1.7,0-3-.83-3-3.46V229.52H201v-.73h3.44v-5.85h.72v5.85h4.19v.73Z"/>
    <path fill="#888888" d="M221.87,234.54c.18-3.51,2.49-6.18,7.08-6.18,3.29,0,6,1.27,6.14,5.31.33,12.78-1.17,13.35,2.35,13v.72c-1.41.11-3.07.11-3.07-1.8v-2.42h-.07c-1.81,6-13.59,6.6-13.59-.37,0-9.45,13.66-2.59,13.66-8.56,0-2.24-.47-5.13-5.42-5.13-3.87,0-6.11,2-6.36,5.46Zm12.5,1.91h-.07c-2.18,3.16-12.87-1.34-12.87,6.32,0,6.53,12.94,5.81,12.94-2.88Z"/>
    <path fill="#888888" d="M251.39,234.28c0-3.72-2.46-5.2-6-5.2-5.2,0-5.56,3.29-5.56,3.94,0,6.4,12.79,2.48,12.79,9.61,0,3.72-3.51,5.17-6.72,5.17-4.88,0-7.52-2.13-7.52-6.79h.72c0,4.11,2.5,6.07,6.8,6.07,2.67,0,6-1.2,6-4.37,0-4.53-6.11-3.87-10.55-5.86-3.55-1.52-3.46-8.49,4-8.49,4.12,0,6.72,1.8,6.72,5.92Z"/>
    <path fill="#888888" d="M256.74,240.35v7H256v-25.8h.72v17.89l12.82-10.66h1.05l-8.52,7.09,9.14,11.48h-1l-8.71-11Z"/>
    <path fill="#888888" d="M275.46,247.36h-.73v-3.54h.73Z"/>
  </g>
</svg>
