<svg xmlns="http://www.w3.org/2000/svg" id="Layer_1" data-name="Layer 1" viewBox="0 0 440.28 96.91">
  <title>
    logo-hite
  </title>
  <path fill="#e31b22" d="M75.11,41.49c-2.63,0-4.41,2.54-4.41,6.57s1.73,6.58,4.35,6.58c3,0,4.33-3.35,4.33-6.48C79.38,44.55,78,41.49,75.11,41.49Z"/>
  <path fill="#e31b22" d="M75.22,60.08c-7.09,0-11-5.16-11-12s4.11-11.89,10.85-11.89c5.66,0,9.15,3.64,10.29,8.31a.2.2,0,0,0,.4,0V.66a.21.21,0,0,0-.21-.21h-24a.2.2,0,0,0-.2.21V56c0,12.79-3.34,23-18.25,23-16.26,0-18.66-11.59-18.66-24.91V.66a.2.2,0,0,0-.2-.21H.21A.21.21,0,0,0,0,.66V59.07C0,65.6.27,78.92,11.85,88c5.2,4.13,14.79,8.93,30.91,8.93,15.32,0,31.18-3.87,38.64-17.45,4.13-7.6,4.4-16.39,4.4-22.25V51.57a.2.2,0,0,0-.4,0C84.28,56.23,80.88,60.08,75.22,60.08Z"/>
  <polygon fill="#e31b22" points="114.67 75.72 114.67 0.45 90.02 0.45 90.02 36.28 104.31 36.28 104.31 41.94 96.48 41.94 96.48 45.97 103.08 45.97 103.08 51.62 96.48 51.62 96.48 60.19 90.02 60.19 90.02 94.51 147.04 94.51 157.97 75.72 114.67 75.72"/>
  <path d="M156.84,94.51a2.83,2.83,0,1,1,2.83-2.83A2.79,2.79,0,0,1,156.84,94.51Zm2.58-2.83a2.57,2.57,0,1,0-2.57,2.58A2.55,2.55,0,0,0,159.42,91.68Zm-2.36-1.79c.55,0,1.15.21,1.15.91a.85.85,0,0,1-.73.84c.29.13.43.26.51.75a3.06,3.06,0,0,0,.27,1.06h-.72a1.64,1.64,0,0,1-.14-.5c0-.07-.08-.46-.09-.55-.1-.55-.38-.55-1-.55v1.6h-.64V89.89Zm-.77,1.45h.53c.47,0,.76-.11.76-.49s-.35-.47-.69-.47h-.6Z"/>
  <g>
    <path fill="#888888" d="M212.94,38.2V20.76H195.18V38.2H188.1V.08h7.08V15.3h17.76V.08H220V38.2Z"/>
    <path fill="#888888" d="M226.88,38.2V.08H234V38.2Z"/>
    <path fill="#888888" d="M248.74,38.2V5.48H237.08V.08h30.34v5.4H255.81V38.2Z"/>
    <path fill="#888888" d="M270.56,38.2V.08h22.35v5.4H277.63V15.63h13.18V21H277.63V32.75H295.4l-3.14,5.45Z"/>
    <path fill="#888888" d="M341.78,38.2l-3.51-9.45H323.1l-3.62,9.45h-7.13L327.74.08h6.91L349.5,38.2ZM330.87,8l-6,16H336.6Z"/>
    <path fill="#888888" d="M375.61,38.2l-10.1-16.52c-2.58.22-4.43.14-5.83.16V38.2h-7V.08c13.12.1,19.94-1.28,24,4.42a10.68,10.68,0,0,1-4.21,15.61L383.55,38.2Zm-12.9-21.28c.21,0,.7.06,1.35.06,7.36,0,8.42-6.17,6.26-9.34-2.05-3-6.2-2.33-10.64-2.38V21.19Z"/>
    <path fill="#888888" d="M393.5,38.2V5.48H381.84V.08h30.35v5.4H400.58V38.2Z"/>
    <path fill="#888888" d="M188.1,94.2V56.08h7.13V94.2Z"/>
    <path fill="#888888" d="M233.68,94.2,208.83,66.66s.22,26.68.22,27.54h-7V56.08h6.64l20.79,23.65s-.21-22.47-.21-23.65h6.91V94.2Z"/>
    <path fill="#888888" d="M242,86.37a18.56,18.56,0,0,0,10.26,3.51c5.56,0,7.34-3.51,7.34-5.88,0-3.57-3.18-5-6.21-6.27-.69-.54-11.18-3-11.18-11.5,0-10.27,12.69-13.73,23-9.13v6.43c-7.28-5.6-15.61-3.43-15.61,2,0,7.94,17.55,5.21,17.55,17.93,0,7.45-6.74,11.66-14.36,11.66A30.34,30.34,0,0,1,242,93Z"/>
    <path fill="#888888" d="M280.15,94.2V61.48H268.49v-5.4h30.35v5.4H287.23V94.2Z"/>
    <path fill="#888888" d="M302,94.2V56.08h7.13V94.2Z"/>
    <path fill="#888888" d="M323.82,94.2V61.48H312.16v-5.4h30.35v5.4H330.9V94.2Z"/>
    <path fill="#888888" d="M378.88,80.27c0,14.36-13.07,14.9-16.69,14.9-8,0-16.63-3.34-16.63-14.63V56.08h7.13V79.62c0,5,1.73,10.26,9.61,10.26,7.56,0,9.51-5.13,9.51-10.53V56.08h7.07Z"/>
    <path fill="#888888" d="M393.63,94.2V61.48H382v-5.4h30.35v5.4H400.7V94.2Z"/>
    <path fill="#888888" d="M415.44,94.2V56.08H437.8v5.4H422.52V71.63h13.17V77H422.52V88.75h17.76l-3.13,5.45Z"/>
  </g>
</svg>
