<svg xmlns="http://www.w3.org/2000/svg" viewBox="0 0 665.29 302.45">
  <g fill="#888">
    <path d="m246.12 95.13c7.83 4.1 13.25-1.15 17.35-9 7-13.43 2.53-19.11-11.55-22.84a72.09 72.09 0 0 0 -8.29 12.45c-3.92 7.94-5.34 15.26 2.49 19.39z"/>
    <path d="m230.76 66.35c0-20.07-17.2-26.95-17.2-26.95-8.39 17.6-87.68 138.35-87.68 138.35 0-8.72 36.81-87.41 36.81-106.73 0-20.91-17.19-24-17.19-24-14.5 23.79-77.8 122.72-77.8 122.72 0-5.52 30.14-61.18 30.14-81.91 0-14.13-16.94-27.13-22.84-27.13-12.12 0-43.3 53-62.9 53-9 0-11.31-6.5-11.31-6.5s-6.78 29 19.78 29c23 0 56.25-58.6 60.38-58.6 3.68 0-51.28 101.26-51.28 133.33 0 11.13 9.72 27.23 26.84 27.23 0 0-1.41-.9-1.41-8.34 0-27.66 65.06-125.59 65.06-125.59s-28.44 75-28.44 97.37c0 14.88 13.49 28.46 28.58 28.46a18.2 18.2 0 0 1 -.94-5.62c0-29 70.38-125.9 70.38-125.9s-44.66 89-44.66 116.85c0 18.37 12.68 29.91 24.7 29.91 2.69 0 6.47-1.88 6.47-1.88s-3.82-3.86-3.82-11.77c-.04-28.17 58.33-142.79 58.33-165.3z"/>
    <path d="m650.92 139.81c-8 0-27 8.76-45.26 41.76 21.6-61.72 47.43-99.07 47.43-103.41 0-8.5-10.69-14.81-15.43-14.81-3.66 6.73-47.11 84.58-53.23 84.58-4.21 0 21-58.88 21-66 0-8-11.34-15.31-15.52-15.31-.14 0-52.19 80.39-60.32 80.39-2.13 0 .27-9.39 5.14-23.07 2.22-2.89 61.42-80.11 61.42-105.88.04-5.13-12.82-18.06-18.15-18.06-14.45 0-40 42-55.8 84.82-3.48 5.9-35.7 60.54-37.27 60.54-2.67 0 19.76-53.88 19.76-60.85 0-9.75-13.81-15.54-14.39-15.78 0 0-58.86 85.06-58.47 83.42 4.8-20.47 26.86-65.14 40.47-91.94 12.37 0 25.47.23 38.1.23 5.85 0 10-3.9 13.33-10.32 6.9-13.17 2.82-19-11.55-22.84 0 0-11.3 8.52-11.3 20.45-6.32 0-13.77-.41-21.74-.9 2.55-5 4.09-8 4.09-8.21 0-3-10.88-19.8-14.69-19.8-2.28 0-8.53 10.86-16.17 26.58-29.18-.93-56.66 1.6-56.66 21.6 0 13.63 17 12.51 17 12.51a5.31 5.31 0 0 1 -1-3.58c0-9.6 13.72-13.42 33.28-14.86-3.72 8.2-7.57 17-11.29 25.91-14.55 23.28-46.76 72-48.36 72s23.49-53 23.49-57.86-9.5-18.27-11.28-18.27c-15.35 0-53.65 62.25-53.65 62.25 26.3-61 49-94.23 49-99.23 0-5.33-8.91-19.29-13.56-19.29-9.93 0-59.39 120.47-59.39 140.21 0 4.59 9 17.4 11.76 17.4 0 0 30.92-54.87 53.75-81.87 0 0-20.35 47.72-20.35 60 0 4.7 9.1 15.31 15.58 15.31 4.65 0 22.77-28.24 38.19-52.83-5.73 15.81-9.56 28.61-9.56 33.94 0 4.3 10.41 12.57 15 12.57 7.38 0 50.46-66.23 50.46-66.23s-15.09 34.56-15.09 42.06c0 6.63 13.35 16.94 18.85 16.94 6.76 0 21.83-24.77 33.84-46.7-2.41 10.51-3.8 20.36-3.8 28.85 0 6.42 14.61 17.47 18.94 17.47 12.24 0 45.35-55 45.35-55s-11.62 28.46-11.62 36.3c0 5.5 6.85 18.37 17.85 18.37 3.75 0 11.86-10.58 20.71-24.1-9.53 22.46-17.82 46.19-20.48 65.54-1.52 11 14.44 15.4 14.44 15.4 22.15-39.57 51.89-63.07 71.52-63.07 0 .03-.04-17.33-14.37-17.33zm-63.51-120.46c6.91 0-22.36 47.17-42.38 78.21 14.86-35.91 35.58-78.21 42.38-78.21z"/>
    <path d="m474.24 181.94a392 392 0 0 0 -121 18.78c-17.23-14.3-50.52-7.11-71.71.23l8.32-11.95c16.44-12 31.41-44 31.41-68.32 0-9.23-3.85-14.94-8.59-18.48 2.18-23.2 26.83-23.46 26.83-23.46s-4.53-13.22-18-13.22c-17.25 0-26.19 12.47-26.19 30.9 6.42 4 9 10.68 9 18.27 0 16.91-24.1 66.44-31.06 66.44-8.19 0 6.23-51.18 26-69.32 0 0-8.33-10.51-15.08-10.51-7.63 0-20.06 14.11-28 34.35-12.39 20.27-30.36 52.57-32.14 52.57-3.67 0 23.45-55.57 23.45-62.54 0-9.75-17-15.54-17.63-15.78 0 0-29.46 61.38-29.46 79.8 0 6.63 13.35 16.94 18.85 16.94 4 0 18-23.14 30.12-44.2a99 99 0 0 0 -.74 11.8c0 7.94 11.75 15.31 21.25 18.24l-21.68 22.93s4.76 14.13 13.52 14.13c10.69 0 32.25-23.66 63-23.66a36.33 36.33 0 0 1 10.48 1.33c-56.74 22.18-92 54.38-92 77.32 0 8.13 8.81 17.92 21 17.92 52.36 0 96.62-47.25 98.07-79.8 33-9.85 73.32-16.82 120.67-16.82 38.4 0 34.47 12.6 34.47 13.49 0 0 10.91-2.54 10.91-13.41-.14-11.91-14.97-23.97-54.07-23.97zm-218.39 104.76c-9.15 0 20.58-33.4 85.8-57.28-11.19 23.87-53.4 57.28-85.8 57.28z"/>
  </g>
</svg>
