<svg id="Layer_1" data-name="Layer 1" xmlns="http://www.w3.org/2000/svg" viewBox="0 0 422.25 125.25">
  <title>logo-ivy-tech</title>
  <polygon points="422.25 0 0 0 0 125.25 422.25 125.25 422.25 0 422.25 0" fill="#fff"/>
  <path d="M85.93,29.47l-8.37,0-15,26.31L47.54,29.42l-8.46,0,23.4,39.77L85.93,29.47ZM8.62,8.62H59.16V41.09H66V8.62h50.58v108H67.49V88.21l24-29.59h-12l-17,21.57L45.45,58.57l-11.74,0L57.55,88.24v28.38H8.62V8.62Z" fill="#006248"/>
  <polygon points="123.38 8.63 413.63 8.63 413.63 116.63 123.38 116.63 123.38 8.63 123.38 8.63" fill="#868988"/>
  <g>
    <path d="M139.26,22.89c-1.61-.44-2.76.11-2.76-.75s2.53-.26,8.16-.26c5.16,0,7.58-.52,7.58.26s-.7.4-2.44.69c-1.43.27-1.85,1.17-2,3-.14,2.33-.22,28.64.11,32.17.16,1.43.53,2.39,2.12,2.6,2.5.36,3.55,0,3.55.63,0,1-2.21.37-9.28.37-1.21,0-4.55.16-6.67.16-.69,0-1.06-.16-1.06-.53s.21-.42.85-.42c3.89,0,3.7-.52,3.7-14.41C141.16,24.69,141.64,23.43,139.26,22.89Z" fill="#fff"/>
    <path d="M156.69,22.89c-1.7-.46-2.7.12-2.7-.69s2.53-.32,9.06-.32c4.86,0,7.74-.55,7.74.32,0,.37-.32.47-.79.47-3.59,0-2.89,1.69-1.38,5.57l9.11,24.06h.21c10.51-26.87,12.13-28.73,10.23-29.36a7.09,7.09,0,0,0-2.12-.27c-.47,0-.9-.05-.9-.42s.48-.53,1.49-.53c2.65,0,4.87.16,5.56.16,3.93,0,6.09-.54,6.09.32s-1.75,0-3.44,1.11S193.31,25,178.53,58.6c-1.38,3.08-1.7,3.93-2.44,3.93s-1-.75-2-3.24C159.16,24.72,161.11,24.11,156.69,22.89Z" fill="#fff"/>
    <path d="M210.17,48.06A11.26,11.26,0,0,0,209,42.49c-.37-.84-7.47-12.5-9.33-15.26-1.35-2-3.46-4.56-5.88-4.56-.42,0-.79-.1-.79-.47,0-.85,2-.32,7.68-.32,4.87,0,6.47-.54,6.47.32,0,.7-1.91.17-1.91,1.53,0,1.16,1.69,3.74,9.64,17.65.53-1.27,7.21-12.93,7.95-14.57,2.31-5.07-1.32-3.64-1.32-4.61s1.36-.32,5.88-.32,6.62-.51,6.62.26-1.5.19-3.34,1.17a8,8,0,0,0-2.86,2.6,167.76,167.76,0,0,0-10.12,16.85c-.95,2.27-.79,3.83-.79,9.64,0,5.41-.14,7.89,2.33,8.22s3.5,0,3.5.63c0,1-2.47.37-9.22.37-5.82,0-7.8.57-7.8-.37,0-.62,1-.26,2.71-.63,1.88-.38,1.8-3.54,1.8-8.22Z" fill="#fff"/>
    <path d="M260.57,24.69c-8.64.41-11.66-.26-13,1.75-1.21,1.8-.78,2.49-1.49,2.49-.37,0-.48-.27-.48-.85,0-.85,1-5.67,1.12-6.09.44-1.92.84-.54,2.91-.38,1.54.16,3.55.27,5.3.27,21.48-.14,20.81.25,24.64-.27,2.65-.52,1.7-1.1,1.7,7-.05.53-.16.85-.48.85-1.6,0,1.78-4.42-6.89-4.61l-6.67-.16c0,33.08-.68,35.53,2.33,35.93,2.5.36,3.55,0,3.55.63,0,1-2.24.37-9.33.37-5.58,0-7.74.58-7.74-.37,0-.26.22-.42.85-.42,2.67,0,3.19-.6,3.45-3.13.26-2.22.26-6.41.26-11.28Z" fill="#fff"/>
    <path d="M289.3,25.85c-.13-2.1-.61-3.18-4.35-3.18-.58,0-.9-.1-.9-.47s.37-.48,1.17-.48c6.15,0,20.12.55,23.16-.21.64-.13,1.16-.52,1.16.26,0,.37-.26,1-.42,3.45s0,4.08-.8,4.08c-1.43,0,1.4-3.87-4.34-4.56-.9-.1-6.47-.21-7.53-.21-.26,0-.37.16-.37.53.05,14.06-.24,14,.37,14,7.7,0,10.13.1,11-.9.38-.43.59-.69.85-.69.68,0,.24.58-.05,4.29,0,1.06-.21,3.18-.21,3.55s0,1-.48,1c-1.41,0,1-4-3.66-4.45-1-.11-6.25-.16-7.52-.16-.27,0-.32.21-.32.53,0,.1,0,11.5,0,12.4.11,3.66,1,4.45,6.36,4.45,4.48,0,6.64-.32,7.37-4.56.1-.58.21-.79.58-.79s.42.42.42,1a40.61,40.61,0,0,1-.69,5.88c-.37,1.38-.84,1.38-2.86,1.38-6.56,0-12.11-.32-14.68-.32-6,0-7.73.55-7.73-.37,0-.26.21-.42.84-.42,3.68,0,3.71-.33,3.71-14.41C289.4,29.12,289.42,27.8,289.3,25.85Z" fill="#fff"/>
    <path d="M319.08,26.6c6.57-6,15.56-6.25,24.43-5.09,2,.26,3.71.74,5.3.9,1.23.11.69.76.53,3.55-.28,4.72.22,6.94-.79,6.94-.43,0-.53-.42-.53-1.16-.2-6.12-6.74-8.16-12.83-8.16-10.34,0-14.84,6.75-14.84,17,0,12.61,9.6,18.86,16.7,18.86,4.71,0,7.58-.53,9.7-3a8.91,8.91,0,0,0,1.8-3.49c.16-.85.26-1.06.69-1.06s.47.37.47.79a50.07,50.07,0,0,1-1.16,7.05,1.89,1.89,0,0,1-1.38,1.54c-2.12.84-6.15,1.22-9.54,1.22C310.22,62.53,308,36.75,319.08,26.6Z" fill="#fff"/>
    <path d="M384.27,38.2c0-8,0-10.34-.11-12.35s-.6-3.18-4.34-3.18c-.59,0-.9-.1-.9-.47,0-.88,2-.32,8.74-.32,5.86,0,7.79-.54,7.79.32,0,.64-.76.34-2.49.63-2.38.44-2.07,1.9-2.07,14.26,0,21.22-.36,23.17,2.33,23.53,2.51.36,3.56,0,3.56.63,0,1-2.33.37-9.33.37-5.5,0-7.74.58-7.74-.37,0-.26.21-.42.85-.42,3.87,0,3.71-1,3.71-14.41-.13-4.2.28-5-.32-5-22,.06-20.56-.21-20.56.32,0,7-.06,13.19.26,16,.26,2.34.72,3.07,4.77,3.07.59,0,.85.16.85.42s-.42.53-1.06.53c-3.44,0-6.78-.16-8.27-.16-5.58,0-7.73.58-7.73-.37,0-.26.21-.42.85-.42,2.69,0,3.08-.53,3.44-3.13.33-2.78.27-8.63.27-20.61,0-12.57.4-13.67-2.39-14.26-1.49-.37-3,.17-3-.63s2-.32,8.75-.32c5.86,0,7.79-.54,7.79.32,0,.37-.32.47-1,.47-4.21,0-3.6,1.3-3.6,14.42.07.67-.19,1.48.32,1.48C385,38.46,384.27,38.87,384.27,38.2Z" fill="#fff"/>
    <path d="M139,71.7c3.48-3,8.23-1.9,11.38-1.54.46,0,.28.26.21,1.31-.12,1.61.07,2.6-.35,2.6s.18-1.06-1-2.23c-1.43-1.38-9.59-3.24-9.59,5,0,7.74,9.82,8.57,10.58,4.5.1-.63.48-.39.48,0a18.14,18.14,0,0,1-.43,2.6.71.71,0,0,1-.53.57,12,12,0,0,1-3.66.44C135.69,85,134.65,75.54,139,71.7Z" fill="#fff"/>
    <path d="M161.28,69.63c11.7,0,10.57,15.32-.21,15.32C150.05,85,150,69.63,161.28,69.63Zm-.6,1c-2.25,0-4.9,1.19-4.9,6,0,4,2.3,7.2,6.12,7.2C168.42,83.89,168.23,70.67,160.68,70.67Z" fill="#fff"/>
    <path d="M175.06,69.47c.55,0,.4.4,6,11.52,5.46-10.9,5.42-11.52,6-11.52.71,0,.45,1.7,2.3,12.7.18,1.21.37,1.74,1,1.93,1,.29,1.47.08,1.47.36s-.23.23-.53.23c-.51,0-3.38-.09-4.19-.13s-.7-.33-.36-.44-.09-1.63-1-9.29h-.07l-4.34,8.74c-1,2.07-.69,2.2-6-8.51h-.07c-1.22,9.4-1.3,9-.41,9.13.65.13,1,0,1,.27,0,.41-.88.16-2.62.16s-2.37.25-2.37-.16c0-.23.44-.15,1-.23s.73-.85.82-1.49C174.73,70.44,174.45,69.47,175.06,69.47Z" fill="#fff"/>
    <path d="M196.28,69.47c.56,0,.41.4,6.05,11.52l5.43-11c.37-.73.87-.57,1,.14,2.1,13.15,1.74,13.68,2.83,14s1.47.08,1.47.36-.23.23-.53.23c-.51,0-3.38-.09-4.19-.13s-.71-.33-.36-.44-.09-1.63-1-9.29h-.07l-4.34,8.74c-1,2-.64,2.3-6-8.51h-.07c-1.22,9.4-1.3,9-.41,9.13.65.13,1,0,1,.27,0,.41-.88.16-2.62.16s-2.37.25-2.37-.16c0-.23.44-.15.94-.23s.74-.85.83-1.49C196,70.44,195.68,69.47,196.28,69.47Z" fill="#fff"/>
    <path d="M213.51,70.3c-.23,0-.34-.07-.34-.21,0-.32.65-.14,3.47-.14,2.35,0,3-.17,3,.14,0,.14-.11.21-.32.21-1.7,0-1.38.22-1.38,8,0,2.85.56,4,1.54,4.74a4.27,4.27,0,0,0,5.27-.25c1.41-1.33,1.15-3.61,1.17-7.22,0-4.89.1-4.92-.89-5.2-.51-.15-1.09,0-1.09-.28s.73-.14,2.83-.14,2.79-.18,2.79.14c0,.14-.12.21-.35.21-1.72,0-1.35.27-1.38,7.36,0,2.18-.23,4.48-1.93,5.88A6.31,6.31,0,0,1,221.65,85c-4.37,0-6.46-2-6.46-6.51C215,71,216,70.3,213.51,70.3Z" fill="#fff"/>
    <path d="M235,84.14c.75.25,1.4,0,1.4.35s-.94.13-3.08.13c-1.84,0-2.64.24-2.64-.13s.57-.14,1.24-.3c.83-.22.54-.68.8-14,0-.39.14-.67.35-.67s.53.3.87.65c10.55,10.55,10.58,10.6,10.6,10.62h.09c-.51-10,.6-10.53-1.95-10.53-.25,0-.32-.09-.32-.21,0-.32.78-.14,3.08-.14,1.43,0,2.44-.18,2.44.14,0,.12-.12.21-.35.21-1.18,0-1.33.48-1.36,1.68-.35,11.81,0,12.94-.55,12.94-1.08,0-11.32-10.74-11.47-10.87h-.07C234.5,81.25,234,83.77,235,84.14Z" fill="#fff"/>
    <path d="M251,70.3c-.21,0-.32,0-.32-.23s.89-.12,3.19-.12,3-.16,3,.12-.12.23-.33.23c-1.74,0-1.4.13-1.4,8.71,0,4.28-.12,5,.9,5.2.79.13,1.35,0,1.35.28s-.94.13-3.65.13c-2.14,0-3,.24-3-.13s.48-.14,1-.28.69-.78.69-5.2C252.17,71.43,253.18,70.3,251,70.3Z" fill="#fff"/>
    <path d="M264.48,71.1c-3.15.16-4.41-.15-5,.67-.43.58-.3.92-.57.92s-.19-.11-.19-.32.39-2.21.44-2.37c.12-.66.31-.24,1.1-.14,1.52.18,10.86.12,11.62,0,1-.14.66-.54.66,2.69,0,.21-.07.33-.18.33s-.21-.1-.23-.4l0-.2c-.14-1.56-3.82-1-4.95-1.18,0,12.23-.21,12.94.9,13.11.79.13,1.36,0,1.36.28s-.95.13-3.66.13c-.46,0-1.84.07-2.64.07-.55,0-.49-.41-.07-.41,1.43,0,1.4-.14,1.4-5.27Z" fill="#fff"/>
    <path d="M276.3,71.93c-1.69-2.38-2.46-1.28-2.46-1.84,0-.31.57-.14,2.92-.14,2.07,0,2.6-.18,2.6.14s-1.25-.09-.48,1.22c.37.6,3,5.18,3.35,5.73,2-3.59,3.32-5.29,3.32-6.28,0-.57-.81-.34-.81-.67s.56-.14,2.32-.14l2.16,0c.56,0,.44.39,0,.39a2.45,2.45,0,0,0-.87.23,2.73,2.73,0,0,0-1.06.92,66,66,0,0,0-3.93,6.25,4.57,4.57,0,0,0-.26,2c0,4.37-.27,4.62,1.89,4.62.41,0,.54.41-.09.41-1.27,0-2.62-.07-3.17-.07s-1.87.07-2.63.07-.51-.41-.11-.41c1.38,0,1.4-.37,1.4-3.06C280.28,79.64,281.37,79.3,276.3,71.93Z" fill="#fff"/>
    <path d="M297.9,71.7c3.49-3,8.23-1.9,11.38-1.54.46,0,.28.26.21,1.31-.12,1.6.08,2.6-.35,2.6-.16,0-.2-.16-.2-.41-.09-2.27-2.43-3-4.69-3-3.61,0-5.69,1.79-5.69,6.19,0,7.73,9.82,8.57,10.58,4.5.1-.63.48-.39.48,0a16.82,16.82,0,0,1-.43,2.6c-.09.34-.19.43-.53.57A12,12,0,0,1,305,85C294.6,85,293.62,75.53,297.9,71.7Z" fill="#fff"/>
    <path d="M320.23,69.63C331.93,69.63,330.8,85,320,85,309,85,308.9,69.63,320.23,69.63Zm-.6,1c-2.25,0-4.9,1.19-4.9,6,0,4,2.3,7.2,6.12,7.2C327.37,83.89,327.18,70.67,319.63,70.67Z" fill="#fff"/>
    <path d="M335.43,83.13c.35.3,1.13.41,2.69.41,1.38,0,2.66,0,2.88-1.72.05-.39.41-.47.41.14a14.92,14.92,0,0,1-.3,2.25c-.16.52,0,.68-4.92.46-5.12-.11-5.63.21-5.63-.18s.48-.14,1-.28c.74-.16.69-1.27.69-5.2,0-6.48,0-6.94,0-7.58s-.23-1.13-1.54-1.13c-.23,0-.35-.07-.35-.21,0-.32.68-.14,3.22-.14s3.36-.17,3.36.14c0,.14-.12.21-.37.21-1.8,0-1.58.15-1.58,5.27C335,81.74,334.94,82.72,335.43,83.13Z" fill="#fff"/>
    <path d="M348.13,83.13c.34.3,1.12.41,2.69.41,1.08,0,1.86,0,2.37-.55s.37-1.47.73-1.47-.06,2.52-.11,2.69c-.17.52,0,.68-4.92.46-5.13-.11-5.64.21-5.64-.18s.48-.14,1-.28c.73-.16.69-1.27.69-5.2,0-6.48,0-6.94,0-7.58s-.23-1.13-1.54-1.13c-.24,0-.35-.07-.35-.21,0-.32.67-.14,3.22-.14s3.36-.17,3.36.14c0,.14-.12.21-.37.21-1.81,0-1.59.15-1.59,5.27C347.69,81.74,347.64,82.72,348.13,83.13Z" fill="#fff"/>
    <path d="M357.42,71.43c-.06-1-.65-1.13-1.68-1.13-.41,0-.56-.39.12-.39.11,0,7.52.1,8.44,0,1.76-.1,1.25-.82,1.15,1.25-.08.7,0,1.61-.35,1.61-.49,0,.45-1.49-1.63-1.68-.35,0-2.76-.09-3.17-.09s-.1.15-.14,5c0,.11,0,.2.14.2,1.71,0,4.09.12,4.5-.34.16-.14.23-.25.32-.25.27,0,.15.39,0,1.63s0,1.75-.29,1.75-.14-.24-.26-.88c-.25-.84-1-.85-4.3-.85-.19,0-.09.33-.11,1.77,0,3.83-.5,4.53,2.73,4.53,1.72,0,2.52-.14,2.79-1.7,0-.2.09-.3.23-.3.43,0-.05,2.47-.1,2.62-.13.51-.32.51-1.08.51-2.74,0-4.5-.12-6.07-.12l-2.55.07c-.54,0-.48-.41-.07-.41,1,0,1.2-.18,1.31-1.1s.09-2.37.09-4.17C357.44,72.53,357.45,72.07,357.42,71.43Z" fill="#fff"/>
    <path d="M382.56,84.07c-3.43,1.69-14.31,1.79-14.31-6.78,0-4.19,2.9-7.66,9-7.66a23.25,23.25,0,0,1,3.58.32c1.72.29,1.89.12,1.89.44a26.17,26.17,0,0,0-.14,3.22c0,.3-.12.44-.28.44-.38,0,0-.93-.89-1.87-1.57-1.62-6-2.21-8.3-.34-3.45,2.81-2.47,12,5.17,12,.87,0,1.82,0,1.82-.9,0-4.62.38-5.22-1.68-5.22-.36,0-.56-.39.11-.39,1.06,0,2.51,0,3.11,0,2.3,0,2.78-.18,2.78.13a.23.23,0,0,1-.25.21c-1.67,0-1.36.87-1.36,3.47C382.81,84.12,382.87,83.9,382.56,84.07Z" fill="#fff"/>
    <path d="M388.22,71.43c-.07-1-.66-1.13-1.68-1.13-.42,0-.56-.39.11-.39.11,0,7.52.1,8.44,0,1.76-.1,1.26-.82,1.15,1.25-.07.7,0,1.61-.34,1.61-.5,0,.45-1.49-1.64-1.68-.34,0-2.76-.09-3.17-.09-.26,0-.09.15-.14,5,0,.11,0,.2.14.2,1.76,0,4.1.12,4.51-.34.16-.14.23-.25.32-.25.27,0,.14.39,0,1.63s0,1.75-.3,1.75-.14-.24-.25-.88c-.25-.84-1-.85-4.3-.85-.19,0-.1.33-.12,1.77,0,3.83-.49,4.53,2.74,4.53,1.71,0,2.51-.14,2.78-1.7,0-.2.09-.3.23-.3.43,0,0,2.47-.09,2.62-.23.85-.37.39-7.15.39l-2.55.07c-.55,0-.49-.41-.07-.41,1.43,0,1.4-.14,1.4-5.27C388.24,72.53,388.24,72.07,388.22,71.43Z" fill="#fff"/>
    <path d="M137.49,104.46c-.42-.18-.45-.19-.25-3,0-.28.08-.47.23-.47.3,0,.08.4.36,1.22.72,2.42,5.5,2.47,5.5-.5,0-2-2.23-2.6-2.9-3.15-5-2.94-3-7.64,1.76-7.64.43,0,2.88.08,2.88.52,0,.23-.06.74-.06,2.14,0,.75-.42.69-.42.25,0-2.67-5.06-2.65-5.06-.1,0,2.75,5.9,2.72,5.9,7.1,0,2.07-1.45,4.07-4.94,4.07A8,8,0,0,1,137.49,104.46Z" fill="#fff"/>
    <path d="M148.35,92.57c-.06-.88-.64-1-1.54-1-.38,0-.51-.35.11-.35.11,0,6.87.09,7.7,0,1.61-.1,1.15-.75,1,1.13-.07.63,0,1.47-.31,1.47-.44,0,.4-1.36-1.49-1.53-.32,0-2.52-.08-2.9-.08-.23,0-.08.15-.13,4.57,0,.11,0,.19.13.19,1.6,0,3.74.11,4.12-.31.14-.13.21-.23.29-.23.36,0-.08,1.18-.08,2.68,0,.15,0,.4-.19.4s-.17-.06-.17-.14C154.79,98,155,98,151,98c-.08,0-.11.08-.11.19,0,5.18-.46,5.56,2.5,5.56,1.56,0,2.3-.12,2.54-1.55.05-.19.09-.27.21-.27.4,0,0,2.25-.08,2.39-.13.46-.29.46-1,.46-1.38,0-2.5,0-3.4-.06-4.3-.1-4.83.19-4.83-.17s.44-.12,1-.25c.67-.15.63-1.16.63-4.75C148.37,99.5,148.37,93.17,148.35,92.57Z" fill="#fff"/>
    <path d="M161.87,103.26c.31.27,1,.38,2.46.38,1,0,1.7,0,2.16-.51s.35-1.34.67-1.34-.06,2.31-.1,2.46c-.15.47,0,.62-4.5.42s-3,0-4.78,0c-.5,0-.45-.38-.07-.38.9,0,1.1-.16,1.2-1,.12-1.12.09-9.89.06-10.73,0-.55-.21-1-1.4-1-.21,0-.32-.06-.32-.18,0-.29.61-.13,2.94-.13s3.07-.16,3.07.13-.46.13-1,.25c-.83.14-.74.51-.74,4.74C161.47,96.35,161.41,102.88,161.87,103.26Z" fill="#fff"/>
    <path d="M172.41,103.26c.32.27,1,.38,2.46.38,1,0,1.7,0,2.16-.51s.35-1.34.67-1.34-.06,2.31-.1,2.46c-.15.47,0,.62-4.5.42-4.67-.11-5.14.19-5.14-.17s.43-.12.94-.25c.68-.15.63-1.16.63-4.75,0-5.91,0-6.33,0-6.93s-.21-1-1.4-1c-.21,0-.32-.06-.32-.18,0-.29.61-.13,2.94-.13.44,0,2,0,2.67,0,.27,0,.4,0,.4.17s-.11.18-.34.18c-1.65,0-1.45.15-1.45,4.81C172,101.59,172,102.88,172.41,103.26Z" fill="#fff"/>
    <path d="M180.06,92.57c-.07-.88-.64-1-1.54-1-.38,0-.51-.35.11-.35.11,0,6.87.09,7.7,0,1.61-.1,1.15-.75,1,1.13-.07.63,0,1.47-.31,1.47s.4-1.36-1.49-1.53c-.32,0-2.52-.08-2.9-.08s-.09.15-.13,4.57c0,.11,0,.19.13.19,1.6,0,3.74.11,4.12-.31.14-.13.21-.23.29-.23.25,0,.13.4,0,1.49s0,1.59-.27,1.59-.13-.21-.23-.79c-.23-.76-.8-.78-3.93-.78-.17,0-.09.2-.11,1.62,0,3.49-.45,4.13,2.5,4.13,1.56,0,2.3-.12,2.54-1.55.09-.38.38-.41.38.14a12.76,12.76,0,0,1-.25,2c-.21.77-.37.35-6.53.35l-2.33.07c-.5,0-.44-.38-.06-.38,1.31,0,1.28-.11,1.28-4.81C180.08,93.59,180.08,93.17,180.06,92.57Z" fill="#fff"/>
    <path d="M190.68,92.57c-.06-.88-.64-1-1.53-1-.38,0-.51-.35.1-.35h5.4a6.48,6.48,0,0,1,3.51.75,3.14,3.14,0,0,1,1.3,2.46c0,1.32-.76,2.5-2.56,3.95,1.63,2,2.94,3.63,4,4.74a3.42,3.42,0,0,0,2.41,1.22c.26,0,.41.38-.12.38h-1.77a4,4,0,0,1-2-.36,8.41,8.41,0,0,1-2.52-2.62c-2.36-3.1-1-2.52-3.74-2.61-.22,0-.12.25-.15.4,0,1.66,0,3,.11,3.8.06.53.15.86.71,1a7.43,7.43,0,0,0,.91.06.22.22,0,0,1,.23.19c0,.12-.15.19-.38.19-1.07,0-2.6-.07-2.88-.07s-1.53.07-2.27.07c-.49,0-.44-.38-.06-.38.9,0,1.1-.16,1.2-1s.08-2.16.08-3.8C190.7,93.59,190.7,93.17,190.68,92.57Zm2.54,5.48a4,4,0,0,0,2.71-.12c2.24-1.58,1.44-6.68-2.71-5.76a.24.24,0,0,0-.17.26C193.1,98.12,192.93,97.91,193.22,98.05Z" fill="#fff"/>
    <path d="M202.74,104.46c-.3-.13-.36-.21-.36-.61,0-1,.08-2.08.1-2.37s.09-.47.23-.47c.31,0,.09.4.36,1.22.73,2.42,5.5,2.47,5.5-.5,0-2-2.22-2.6-2.9-3.15-5-2.94-3-7.64,1.77-7.64.43,0,2.87.08,2.87.52,0,.23-.06.74-.06,2.14,0,.75-.42.69-.42.25,0-2.67-5.06-2.65-5.06-.1,0,.8.3,1.43,1.95,2.35.44.35,3.95,1.6,3.95,4.75,0,2.07-1.44,4.07-4.93,4.07A8,8,0,0,1,202.74,104.46Z" fill="#fff"/>
    <path d="M213.59,92.57c-.06-.87-.62-1-1.53-1-.38,0-.51-.35.1-.35,1,0,2.15,0,2.5,0,.93,0,2.14,0,2.77,0,4.7,0,5,3.76,1.85,5.79,5.15,1.65,4.31,7.75-1.51,7.75-.5,0-2.07-.11-3-.11l-2.33.07c-.5,0-.45-.38-.07-.38.91,0,1.1-.16,1.2-1s.08-2.16.08-3.8C213.61,93.59,213.61,93.17,213.59,92.57Zm2.54,4.27c4.22,1,3.91-4.83.84-4.83-.84,0-1,0-1,.33C216,92.34,215.89,96.75,216.13,96.84Zm.53,6.82a3.37,3.37,0,0,0,1.32.21c2.87,0,3-4,.52-5.69a3.89,3.89,0,0,0-2.39-.46c-.06,0-.1,0-.1.12C216.06,102.8,215.76,103.31,216.66,103.66Z" fill="#fff"/>
    <path d="M225.21,96.35c0-4.34.18-4.46-.82-4.74-.47-.14-1,0-1-.25s.6-.13,3.17-.13c2.16,0,2.77-.16,2.77.13s-.29.15-.84.25c-.79.14-.81.39-.71,7.24,0,2.81.69,5,3.73,5A3.52,3.52,0,0,0,234,103c1.29-1.22,1-3.3,1.07-6.6,0-4.45.1-4.48-.82-4.74-.46-.13-1,0-1-.25s.67-.13,2.58-.13,2.54-.17,2.54.13-.28.14-.86.25c-.8.13-.72.47-.72,4.74-.07,2.13.42,5.5-1.76,7.29s-6.43,1.55-8.13.06c-.94-.82-1.67-2.14-1.67-4.72Z" fill="#fff"/>
    <path d="M240.49,96.35c0-4.3.19-4.46-.82-4.74-.44-.13-1,0-1-.25s.73-.13,2.94-.13c2.51,0,4.84-.31,6.39.71a3.14,3.14,0,0,1,1.3,2.46c0,1.32-.76,2.5-2.56,3.95,1.64,2,2.94,3.63,4.05,4.74a3.47,3.47,0,0,0,2,1.18,1.83,1.83,0,0,0,.44,0,.21.21,0,0,1,.23.19c0,.15-.12.19-.35.19h-1.77a4,4,0,0,1-2-.36,8.41,8.41,0,0,1-2.52-2.62c-1.73-2.27-1.6-2.56-2.08-2.56-1.59,0-1.81-.16-1.81.1,0,.89,0,3,.11,4,.06.53.15.86.71,1a7.43,7.43,0,0,0,.91.06.22.22,0,0,1,.23.19c0,.12-.15.19-.38.19-1.07,0-2.6-.07-2.88-.07s-1.53.07-2.26.07c-.24,0-.36-.07-.36-.19s.06-.19.29-.19a2.75,2.75,0,0,0,.65-.06c.38-.09.49-.42.55-1,.08-.75.08-2.16.08-3.8Zm2.52,1.7a4,4,0,0,0,2.71-.12c2-1.4,1.59-5.82-1.62-5.82a7,7,0,0,0-1.09.06.24.24,0,0,0-.17.26C242.89,98.12,242.72,97.91,243,98.05Z" fill="#fff"/>
    <path d="M265,103.49c0,.48,0,.51-.23.63a11.14,11.14,0,0,1-4.52.8c-4.53,0-8.54-2.06-8.54-7,0-3.83,2.65-7,8.21-7a37.47,37.47,0,0,1,4.74.48c.46,0,.13,0,.13,3.15,0,.27-.11.4-.25.4-.36,0,0-.85-.82-1.7-1.87-2-9.28-2.87-9.28,4,0,3.84,2.48,6.63,6.42,6.63a3,3,0,0,0,1.3-.19.58.58,0,0,0,.36-.63v-1.63c0-2.48.24-3.13-1.53-3.13-.33,0-.49-.36.1-.36,1,0,2.29,0,2.84,0s1.55,0,2.16,0,.4.36.15.36c-1.52,0-1.24.8-1.24,3.17Z" fill="#fff"/>
  </g>
</svg>
