<svg id="Layer_1" data-name="Layer 1" xmlns="http://www.w3.org/2000/svg" viewBox="0 0 783.07 659.46">
  <title>logo-design-it-forward</title>
  <g>
    <path d="M303.3,514.23c3.2,1,2.19.55,3.34-1.09l-7.46-4.46c-1,2-1.66,1.4.61,3.32-11.26,3.3-11.23,4.41-13.21,3.23l-1.19-.71,4.73-7.93c1.94.58,2.54,1.14,3,.39l.85-1.42-8-4.75c-1.08,2.2-1.87,1.4.92,3.86L275.68,523.5c-1.85-.5-2.51-1.21-3-.43l-.85,1.42,8,4.76c1-2.06,1.91-1.35-.94-3.83l5.05-8.46c3.55,2.12,2.15-.17,5,14.71-2.93-1-1.84-1.06-3.28,1l7.76,4.63c.52-1.09,1.32-1.6.65-2.21v0c-.16-.18-.66-.62-1.47-1.37-2.3-13.38-2-14.47-3-15.49C291,518.39,291.72,517.82,303.3,514.23Z" fill="#888"/>
    <path d="M330.82,531.11l2.55-6.14-18.24-7.6-.63,1.49c-.28.68.17.9,2.1,2.16l-8.44,20.27-2.19-.45c-.88-.18-.87.87-1.43,1.95l18.25,7.6,2.45-5.9-1.7-.71c-1-.4-1,.19-2.3,2.71l-9.51-4,3.62-8.7,9.37,3.91,1.13-2.7-9.38-3.91,3.52-8.45,9.52,4C328.08,531.07,328.2,529.79,330.82,531.11Z" fill="#888"/>
    <path d="M356.49,559.5c.57,1.16,1.29.87,2.94,1.41l6-24,2.24.09c1,0,.74-1,1.17-2.17l-8.95-2.24-.41,1.64c-.17.67.28.84,2.77,1.89-4.25,17-4.37,17.32-4.44,18l-10.39-24c-.69-1.15-.24-.57-5.67-2.06-.4,2.43-1.35,1.9,2,3.44l-5.34,21.27-2.24-.09c-.91,0-.69.88-1.13,2.14L344,557c.24-2.37,1.67-1.81-2.34-3.49,4.5-17.95,4.33-17.16,4.45-18.08Z" fill="#888"/>
    <path d="M396,540.92c0,3.71-.09,2.8,2.71,3.19l.57-6.05-22.59-2.12-.57,6c2.92.17,2.5,1,3.23-2.67l6.47.6-2,21.52-2.15.23c-1,.08-.67,1.25-.87,2.31l9.26.87c.11-2.64.91-2.06-2.5-3l2-21.51Z" fill="#888"/>
    <path d="M434,536.94l-2.77.15-6.83.36.08,1.61c.05.84.9.75,3.21,1l.74,14c.24,4.59-2.27,8-6.85,8.21s-7.43-2.81-7.67-7.49l-.74-13.9c2.3-.47,3.14-.48,3.09-1.32l-.08-1.61-9.64.51c.33,2.39-.77,2.16,2.91,2.66l.74,13.94c.78,14.81,22.67,13.77,21.89-1.16l-.74-13.94,2.17-.54C434.47,539.11,434,538.12,434,536.94Z" fill="#888"/>
    <path d="M460,560.41q6.23-1.29,8.88-6.07c-1.46-1-2.07-2.06-2.94-1a9.38,9.38,0,0,1-6.4,3.83c-9.93,2-14.43-10.42-10.43-17.05,2.25-3.61,6.29-5.11,12.32-4.47,0,0,1,3.23,1,3.33.38,1,1.39.3,2.78.14.08.41-1.29-6.23-1.31-6.33a26,26,0,0,0-8.76-.2l.08,0C436.6,536.48,443,563.92,460,560.41Z" fill="#888"/>
    <path d="M496.22,549.31l8.49-3.1c-.53-1.13-.42-2-1.31-1.9l.05,0c-.24,0-.9.13-2,.28-11.88-6.67-12.51-7.55-13.9-7.45,1-1,1-1.95,5.5-13.19,2.82-1.84,1.81-1.35,1.25-3.29l-8.16,3,.53,1.44c.24.67.57.53,2.44.18l-4.22,10.88c-.49,1.31-2.09,1.5-2.91,1.88l-3.17-8.67c.26-.18.86-.56,1.86-1.17.83-.51.05-1.32-.24-2.45l-8.71,3.18c1,2.21-.08,2.33,3.58,1.72l7.53,20.59c-1.56,1.12-2.52,1.19-2.2,2l.56,1.55,8.71-3.18c-1-2,.17-2.33-3.56-1.69L483,540.72c3.91-1.43,1.24-1.77,14.56,5.41C494.92,547.8,495.53,546.9,496.22,549.31Z" fill="#888"/>
    <path d="M522.82,537.42l8.12-4.47-.8-1.45c-.41-.74-.9-.22-3,.32l-3.93-7.14.74-16.13c2.47-2.21,1.9-1.29.78-3.68l-8.09,4.45c.71,1.1.81,2.05,1.6,1.8,1.28-.4,2-.63,2.16-.71-.22,10.18-.48,10.53-.07,12.87-1.48-1.37-2.64-1.82-10.9-6.79.14-.07.7-.56,1.72-1.43.69-.58-.13-1.22-.64-2.36l-8.09,4.45.79,1.45c.39.7.73.38,2.74-.14l14,8,3.93,7.14-1.67,1.45C521.47,535.7,522.33,536.27,522.82,537.42Z" fill="#888"/>
    <path d="M253.86,214.94c-2.1,3.06-1.6,2.41-1.7,2.5-1.18,2,1,2.65,2.75,4.72,14.33-14.72,17.73-17.07,19.71-24.17.51-1.76.81-8.79-1.05-13.05A23.7,23.7,0,0,0,261.36,173a18.81,18.81,0,0,0-15.6.29c-6.1,2.7-8.51,6.94-18,16.2l-3.1,3.18c2.11,1.71,2.86,3.85,4.78,2.62.13-.15-.54.42,2.46-1.77Zm4-35a20.91,20.91,0,0,1,8.89,8.67,11.73,11.73,0,0,1,1.06,9.07,20.78,20.78,0,0,1-3.5,5.83L259,209c-4.64-4.52,11.37,11.07-21.27-20.73C243.24,182.94,247.92,175.43,257.87,180Z" fill="#888"/>
    <path d="M297.1,133.83l0,0Z" fill="#888"/>
    <path d="M319.4,169.66l-5.85-9.48-.85.52c-1.42,1.11-3.13,1.21-2.6,2.9.19.43.69,1.57,1.61,3.39l-11.57,7.15L293.89,164l12.17-7.51-3.19-5.18-12.17,7.51-6.13-9.92,11.57-7.15c1.22,1.65,2,2.6,2.31,3a1.28,1.28,0,0,0,1.73.23l2.63-1.62.25-.16-5.83-9.43-26.42,16.31c2.18,2.9,1.59,4.78,5.16,3.26.39-.17,1-.4,1.64-.67l16.1,26.07c-2.77,2.46-2.16,2-2.26,2-1.6,1.6.27,2.72,1.52,5.24Z" fill="#888"/>
    <path d="M329.66,163c10.72-.14,22.84-3.95,23-14.66.1-4.12-3-11.82-9.89-12.41a48,48,0,0,0-7.59-.09c-3,.14-6.65-.22-7.65-3.06s.06-5.64,4.39-7.19a18.14,18.14,0,0,1,6.74-1.4c1.1,2.4,1.8,3.83,2.08,4.29a1.29,1.29,0,0,0,1.64.59l2.91-1,.22-.08L342,117.79c-5.7-.24-13.33,1.07-17.39,4.73a12,12,0,0,0-4.41,8.56c-.34,4.45,2.35,9.5,6.19,11.18,7.3,3.2,16.69-2.08,18.91,4.27,1.4,3.93-.56,6.71-4.55,8.11a29.44,29.44,0,0,1-7.8,2c-1.11-2.45-1.83-3.93-2.11-4.39a1.24,1.24,0,0,0-1.62-.55l-2.91,1-.23.07h0C326.28,153.48,329.47,162.48,329.66,163Z" fill="#888"/>
    <path d="M361.09,111.32c.69,2.68,0,4.8,2.28,5a1.52,1.52,0,0,1,.36,0c.24,0-.59,0,2.67,0l4.94,30.24a25.22,25.22,0,0,0-2.51.89,1.73,1.73,0,0,0-.33.12c-2.11.86-.8,2.62-.6,5.42.12,0,16.13-2.64,16.47-2.7-.89-3.41.35-5.09-3.54-5l-1.71,0-4.95-30.23c.66-.23,2.22-.78,2.8-1,2.11-.88.78-2.7.59-5.42Z" fill="#888"/>
    <path d="M413,114.28c4.48-1.73,11.45-.74,15.57.77.49,7.17.29,5.24,4.13,5.71l1,0,.26-10.74c-39.68-15.61-47.51,28-25.09,37.87,6.59,2.89,17.4,2.69,24.63-2.33l.42-17-14-.34c0,7.18-1.33,5.64,6.75,6.07l-.18,7.64a17.81,17.81,0,0,1-13.91.42C401.57,137.51,401.88,118.5,413,114.28Z" fill="#888"/>
    <path d="M445.74,148.11l-1,3.28,15.81,5c.59-2.7,2.14-4.28.18-5.44-.1,0-1.22-.58-3.46-1.64,5-16.24,6-18.55,6.95-22.6,13.87,36.47,12.41,34.74,14.81,35.52l3.9,1.23,10.95-34.74c2.16.32,2.79.32,3,.38,2.27.18,1.9-2,3-4.57h0l-15.81-5c-.58,2.68-2.15,4.28-.19,5.45.11,0,1.23.57,3.46,1.64-8.06,26.25-5.32,16-6.91,22.68-13.41-35.21-12.77-34.46-13.41-34.9-.43-.57-3.16-1.16-9.51-3.25-1,4.72-3,4,2.5,6.85l-9.22,29.22C447.63,146.8,446.3,146.34,445.74,148.11Z" fill="#888"/>
    <path d="M522.13,180.09a1.1,1.1,0,0,0-.31-.17c-2.06-.93-2.45,1.24-4.34,3.3l13.3,10.1c1.47-2.37,3.46-3.32,2-5.07-.1-.07-.69-.8-2-2.19l18.53-24.4c1.69.88,2.61,1.32,2.64,1.35,2.07.92,2.46-1.25,4.34-3.3L543,149.61c-1.44,2.33-3.46,3.31-2,5.07.17.11-.3-.29,2,2.21L524.51,181.3C524.41,181.25,522.34,180.15,522.13,180.09Z" fill="#888"/>
    <path d="M549.17,210.92h0Z" fill="#888"/>
    <path d="M571.63,172.68l-7.46,6.63c3.22,3.59,2.59,3.89,6,1.38l5.7,6.41L553.46,207c-1.47-1.18-2.24-1.72-2.34-1.82-1.85-1.31-2.64.74-4.89,2.4l11.1,12.47c1.75-1.92,4.06-2.53,2.91-4.62-.18-.25,0-.14-1.54-2.54L581.07,193l5.7,6.41c-2.76,3-2.49,2.5.72,6.08l7.46-6.63Z" fill="#888"/>
    <polygon points="212.66 568.17 239.32 554.89 225.88 552.13 220.15 540.88 212.66 568.17" fill="#888"/>
    <polygon points="271.25 606.43 294.25 587.5 280.53 587.83 272.41 578.15 271.25 606.43" fill="#888"/>
    <polygon points="336.95 630.53 355.1 606.91 341.81 610.32 331.72 602.72 336.95 630.53" fill="#888"/>
    <polygon points="395.04 613.31 406.39 639.23 418.76 612.13 406.58 618.44 395.04 613.31" fill="#888"/>
    <polygon points="476.01 632.09 481.96 602.9 471.51 611.79 459.12 609.38 476.01 632.09" fill="#888"/>
    <polygon points="520.67 591.15 542.23 609.47 541.47 579.69 533.29 590.71 520.67 591.15" fill="#888"/>
    <polygon points="594.23 543.69 588.74 556.26 576.54 559.53 601.67 572.54 594.23 543.69" fill="#888"/>
    <polygon points="294.13 71.98 270.94 55.77 274.5 85.35 281.61 73.61 294.13 71.98" fill="#888"/>
    <polygon points="244.88 102.58 220.22 88.7 226.64 117.79 232.57 105.42 244.88 102.58" fill="#888"/>
    <polygon points="175.33 132.03 188.13 158.93 191.13 145.54 202.48 140 175.33 132.03" fill="#888"/>
    <polygon points="136.05 189.95 154.58 213.28 154.48 199.56 164.3 191.6 136.05 189.95" fill="#888"/>
    <polygon points="668.88 218.02 686.83 196.13 657.06 197.41 668.22 205.4 668.88 218.02" fill="#888"/>
    <polygon points="636.29 162.71 648.86 137.35 620.15 145.29 632.81 150.56 636.29 162.71" fill="#888"/>
    <polygon points="598.64 88.61 572.45 102.81 585.98 105.1 592.1 116.14 598.64 88.61" fill="#888"/>
    <polygon points="538.75 52.42 516.42 72.14 530.12 71.33 538.57 80.72 538.75 52.42" fill="#888"/>
    <polygon points="472.24 30.62 454.93 54.87 468.09 50.99 478.44 58.24 472.24 30.62" fill="#888"/>
    <polygon points="402.54 24.35 391.12 51.87 403.08 45.13 414.79 49.86 402.54 24.35" fill="#888"/>
    <polygon points="333.22 33.92 328.28 63.3 338.42 54.05 350.89 56.02 333.22 33.92" fill="#888"/>
    <path d="M196.08,184c1.07-.13,2.93.47,4.11-1.14C300.67,46,507.57,38.54,617.82,182.86a2.78,2.78,0,0,0,4.5-3.25c-2.14-3.16-4.75-6.54-8.82-11.93-110.79-135.79-318-127.49-419.67,11.84A2.79,2.79,0,0,0,196.08,184Z" fill="#888"/>
    <path d="M685.79,505c-.71.08-1.68-.27-2.27.6a327.24,327.24,0,0,1-43.72,52.61C492.77,701.66,251.71,677.3,140.29,510c-3.06-4.6-3-4.95-3.95-4.95a1.35,1.35,0,0,0-1.14,2.08c114.33,176.71,361,205.87,508.56,55.09a319.63,319.63,0,0,0,43.17-55.11A1.34,1.34,0,0,0,685.79,505Z" fill="#888"/>
    <path d="M98.9,233a3.76,3.76,0,0,0,3.39-.59c2-1.5,1.06-3.77,9.92-24.7a.08.08,0,0,1,0-.05C184.39,36.82,400.41-56.67,590.2,62.81,699.79,134.7,719.58,235.2,722.73,235.2a.9.9,0,0,0,.87-1.16C683.53,101.22,562.71.58,410.79,0c-147,0-271.68,96.4-313.71,228.82C96.74,230.89,97.1,232.39,98.9,233Z" fill="#888"/>
    <path d="M588,263.81c0-.1,2.1-3.84.42-5.87-2.14-2.19-5.1,1.53-16.92.57-9,1-22.81-3.89-42.16,10.05-18,12.58-30.36,29-38,49.89-58.45,157.77-52.08,143-58.5,154.16-1.28,1.91-2.59,5.37-.71,6.76,1.53,1.14,4.18.69,6,.13a21.75,21.75,0,0,1,7.17-1.3c5.09,0,6.66,2.38,10.13,1.17a8.87,8.87,0,0,0,4.92-4.62c.73-2.1.54-7.17,4.6-14.46l1.28-3c7.85-24.78,7-15.87,13.06-39.45.7-2.27,3.91-5,8-5a23.33,23.33,0,0,0,6.58.87,32.2,32.2,0,0,0,6.6-.73l1.44-.14c3.2,0,3.91,2.81,3,5.31l-.85,1.72c-4.14,6.62-4.85,10.81-6,13.91l-.71,1.86c-2.85,7.51-3.34,10-6.45,18.78-7.41,20-13.11,21.74-7.56,25,2.64,1.53,4.74-.6,10.85-.6s7.69,2.52,11.84.6a9.72,9.72,0,0,0,4.93-5.32c1-2.67.42-7.66,4-17.36,10.06-25,16.05-43.91,27.53-73.27C587.91,260.52,584.17,269.16,588,263.81ZM517.48,384.27a8.24,8.24,0,0,1-8.31,7.6c-4.62,0-4.17-1.71-8.47-1.71s-6.72,2.68-9.19.29c-2.56-2.18-.27-5.13-.13-5.75,9.58-15.93,14-39.48,25.09-63.81,4.76-10.31,6.59-20.2,20.51-32.12q7-6,14.78-6c3.9,0,1.37,4,1.28,4.59-10.49,24.53-8.66,23.55-32.12,85C519.62,376.28,518.37,379.18,517.48,384.27Z" fill="#888"/>
    <path d="M781.1,275.57c-1.5-3.49-2.42-11.12-11.9-15.34-10.36-4.84-19.61-2.6-27.38-2.87a126.09,126.09,0,0,1-19.37-1.57q-6,0-8,5.3l-.44,1.44c-2.22,15.14-9.22,25.34-16.63,48.4-3,9.3-36.79,97.59-51.91,140.59-4.59,15.8-9.38,20.37-10.19,22.38-.87,2.84,1.53,5.48,5,4.3,8.93-2.15,13.37-.93,22.53-1,6-.68,17.86,2.2,36.28-7.74,16.12-9.88,26.8-24,29.8-32.11.46-1.05,4.17-11.84,5.28-14.88h0l.68-.45,3.57-11c-13.75,36.61,18.48-48.51,20.46-54.79,2-6.53,4.77-13.32,7.46-19.58,2-5.07.45-2.45,3.87-11.32,5.27-11.75,5.57-14.18,10.75-27.83C785.39,285.08,781.54,278.35,781.1,275.57Zm-117.85,167a2.29,2.29,0,0,1,.17-.28A1.72,1.72,0,0,0,663.25,442.53Zm.47-.53.1-.05Zm.19-.09.23-.07Zm.25-.08.18-.06A.9.9,0,0,1,664.16,441.83Zm77.52-108.32q-4.32,11.78-12.49,33.84h-.57c-16.27,45.69-12.6,37.22-20.08,55.5-3.48,9.79-3.37,10.3-5,12.8-5.4,8.4-19.19,17.31-30.51,17.74-3.23,0-1.4-5.13,0-8a126.93,126.93,0,0,0,9.61-26.25c23.7-55.92,32.58-91.22,41.66-111.06,1.78-3.88,4.11-9.93,5.52-13.55,2.06-5.71,1-6.76,2.29-9.76,1.06-3,2.72-4.44,5-4.44q13.62.57,16.63,12.33C755.49,300.78,751.17,305.85,741.68,333.51Z" fill="#888"/>
    <path d="M91.89,300.67a33.63,33.63,0,0,0,3.72-14.48c0-3.33,5-6.74,8.46-6.74,4.05.64,3,1,6.32,1.57,4.5.77,6.49,3.44,6,8a24.42,24.42,0,0,1-4.32,13.34c0,.5-4,5.88,3.74,5.88,2.93,0,4.33-1,8.32-1,4.2,0,4.82,1.14,7.6,1.14,5.23,0,7.71-2.47,8.17-7.6.8-9.88,13.23-41.31-14.06-43.59-22.85-1.38-31,1-38.58-1.15a5.78,5.78,0,0,0-5.37,1A7,7,0,0,0,79,261.81c-1.26,11.1-4.11,11.31-13.91,40.72-6.44,19-20.29,51.52-41.87,113.15C5.09,466,9.1,456.16.26,472.9a3.55,3.55,0,0,0,.15,3,4,4,0,0,0,4,2.72c1.78,0,4.26-1.29,8.9-1.29,5,0,5.8,1.29,8.31,1.29,3.8,0,6.59-2.72,7.89-6,1.42-4.28.15-6.72,3.16-14.91,2.37-5.79,4.07-7.58,6.16-13.2,5-15,7.09-20.95,8.18-27.53q2.15-5.31,6.73-5.3c1.39,0,3.88,1.28,7.17,1.28a45.08,45.08,0,0,1,13.77,1c.19,0,4.68,1.48,6.89-4.58,1.15-2.55.21-4.08,2-8.74,2-5.51,2.88-4.58,3.72-7.47,1.44-3.72.43-5.59-3-5.59a7,7,0,0,0-2.44.3,57.11,57.11,0,0,1-9.47.7,51.34,51.34,0,0,0-11,1.3c-2.38,0-3-3.2-2.15-5.6,4.14-8.26,1.49.19,13.41-33,.13-.35.24-.64.36-1l-.06.16C77.35,337.77,91.69,301.1,91.89,300.67Z" fill="#888"/>
    <path d="M172.62,454.54a109.31,109.31,0,0,0,10-21.5c11.27-32.34,18.29-49.39,29.39-78.3h-.14l28.68-76.86a31.22,31.22,0,0,1,1.73-5.45c2.64-7.39,5.45-10.33,6-12.06.47-1.23-.34-4.16-2.72-4.16a20.18,20.18,0,0,0-3.59.58c-7.81,2.6-9.34-.88-24.81.43-11.48.65-25.25-1.9-41.59,15.78-13.46,14-16.22,24.7-22.24,41.2C153,315.25,97.71,464,98.19,462.86a84.73,84.73,0,0,1-5.45,11.19c-.94,2.46.31,4.45,3,4.45a119.39,119.39,0,0,1,16.49-1.3c11.66.33,16.3.83,26.53-.14C163.47,473.88,171.31,454.54,172.62,454.54Zm-44.16-5.87.28-.73c7-14.52,43.86-118.83,56.21-149.85q8.48-18.34,23.68-18.36c2.38,0,3.88.63,4.51,1.87,1.32,2.65-.48,5.34-.51,5.44-5.29,9.54-18.92,46.2-24.81,61.53a162.18,162.18,0,0,1-7,19.64l-4.73,12.91c-10.2,28.45-9.13,28.5-14.49,39.72A99.27,99.27,0,0,0,157.86,431c.17.18-1.1,3.33-1.2,3.56v0a57.42,57.42,0,0,1-6.11,11.61c-2.47,4.31-6.73,6.71-9.92,6.94l-.41.09c-4.58.59-6.41,2-9.18,2C127.34,455.26,127.29,451.8,128.46,448.67Z" fill="#888"/>
    <path d="M656,343.26c.13-2.86,3.63-7.51,4.88-10.09,5.16-10.62,12.16-24.91,17.32-35.45,4.89-10,13.1-20.07,7.76-31.79-3.06-6.7-11.05-5-17.2-5.09-15.11-.26-27.27,1.33-48.9-1.33q-5.45,0-7.75,5.59c-1.07,2.93-.24,5-2.57,11-11.78,31.24-11.16,30.64-16.49,43.67A221.08,221.08,0,0,0,584.84,343a24.71,24.71,0,0,1-1.42,3.31c-4.39,9.2-25.36,67-25.39,67.1-3.25,12-5.17,15.3-13.76,39q-3.16,8.44-10.61,23.93c-1.41,3.9.53,5.89,3,5.89s4.68-1.44,9.89-1.44c4.79,0,5.76,1.3,8.45,1.3a7.71,7.71,0,0,0,5.57-2.7c2.75-3.12,1.62-6.6,5.62-17.66l3.72-10.62c4.57-12,8.06-17.15,10.62-30.69,1.06-2.77,2.77-4.15,5.17-4.15,14.19,0,8.42,21.75,5.3,35.41q-.87,7.47-5.16,20.65c0,.11-2.23,4.07-1.42,7.06h0c1,3.69,6.07,2.47,6.72,2.55,8.59-2.26,11.74.58,14.48.58,5.06-.28,7.6-3.73,7.6-7.31a20.44,20.44,0,0,1-.3-7c.64-5.32,2.46-7.06,2.46-10.33,2-13.55,3.54-17.2,5.88-29.69,3.4-16.17-2.64-22.69-1.86-24.24.76-2.31,10.5-8.33,18.48-23.37,13.34-26.5,12.87-26.42,18-37.09h0a.66.66,0,0,0,.09-.19m1.86-52.92a128.83,128.83,0,0,0-13.48,24.23q-5.73,11.61-9.6,20.08c-8.78,19.24-9.21,18.19-18.5,38.29a46.35,46.35,0,0,1-12.33,15.77,14.62,14.62,0,0,1-9.75,4c-1.34,0-1.92-.58-1.73-1.72,2.48-8.61,8-20.83,13.34-35l4.74-13.19h-.15c12.65-34,13.65-36.21,13.51-35.67.1-.32.28-.82.55-1.61,5.4-14.35,2.41-16.2,6.74-19.79,3.83-3.27,7.06-2.27,7.16-2.29a19.79,19.79,0,0,0,12.95.66c2.22-.58,5-1.8,6.91.84C659,286.06,658.86,288.54,657.84,290.34Z" fill="#888"/>
    <path d="M234.41,356.08q-19.08,51.35-19.51,52.76-2.15,7.91-5.16,15.93c-9.33,23.82-7.05,21.63-19.21,47-1.42,3.89.54,5.89,3,5.89,2.68,0,6.57-2.16,12.73-1.24,2.92.39,3.48,1.1,5.63,1.1a7.87,7.87,0,0,0,7-5.17l.57-1.71a78,78,0,0,1,3.59-13.48c9.63-26.65,4-10.87,10-26a95.44,95.44,0,0,0,4.3-15.34c1.05-2.78,2.77-4.16,5.17-4.16q6.3,0,8.31,5.88c1.69,6.6,1,12-3,29.53q-.87,7.47-5.17,20.65c0,.1-5.18,9.76,3.16,9.76l2.15-.15c8.62-2.26,11.63.58,14.48.58,4.89-.27,7.6-3.54,7.6-7.31-2-8.32,2.16-13.32,2.16-17.35,2-13.6,3.53-17.12,5.88-29.69,3.4-16.17-2.64-22.69-1.86-24.25.77-2.33,10.49-8.32,18.49-23.36,16.52-32.85,5-10.7,29.82-61.46,7.39-15.14,27.09-39.22,10.12-53.6-8.63-7.31-21.49-4.39-31.91-4.39a213,213,0,0,1-26.1-1.58c-3.64,0-6.22,1.85-7.75,5.6-1.07,2.92-.25,5-2.57,11-12.83,34-10.7,29.51-16.49,43.67a217.23,217.23,0,0,0-8.18,23.15C240.59,341.49,238.52,344.7,234.41,356.08Zm14.91,30.4c1-3.63,2-6.09,5.73-15.91,5.82-13.39,10.94-28.51,12.34-32.28h-.14c18.49-49.71,15-37.73,18.35-53.78a9.77,9.77,0,0,1,8.75-5.73l.86.14c7.67,3.34,14.44-.14,16.49-.14a4,4,0,0,1,3.37,1.65c3.23,4.42-3.49,5.75-13.84,29.61q-5.73,11.61-9.6,20.08c-9.14,20-8.91,17.52-18.5,38.29a46.35,46.35,0,0,1-12.33,15.77,14.64,14.64,0,0,1-9.75,4C249.7,388.2,249.13,387.62,249.32,386.48Z" fill="#888"/>
    <path d="M413.34,470c0-8.87,3.66-12.27,6.6-21.36C430.82,418.25,480,287,484.32,275c3.09-11.3,9.24-14.49,7.1-18.15-.81-1.38-2.42-1.83-4.81-1.36-6.1,1.72-11.47,1.68-16.05-.15h-.72a8.82,8.82,0,0,0-8.46,6.89,46.84,46.84,0,0,1-1,6.74,313.66,313.66,0,0,1-13.77,37.72c-4.59,10.35-5.83,18.53-17.08,46.89-.25.65-1.52,4.52-4.14,10.17-3.07,7.58-11.53,33.25-14.19,38.58-4,8.57-3,10.11-8.19,22.52-2.92,7.84-2.72,7.35-3.58,9.47-3.76,7.52-3.71,12.17-4.3,15.19-3.59,6.83-12.87,6.61-13.34-.85-.58-8.91,2.53-16.54,6.6-26.68,32.73-82.67,27.38-79.55,35.27-91.05,3.07-4.76.49-7.86-3.44-7.33a36,36,0,0,1-16.35,0c-1.71-.18-3.58.48-5.58,2-5,3.83-1.63,5.64-4.89,12.91-8.67,24.29-15.68,44.44-24.94,67C358.56,431,355,449,344.29,453.37c-1.24.29-6,3-7.67-.69q-1.29-2.87,1.15-6.31c4-7.09,2.68-5.32,25.66-67,5.17-14.2,6.5-16.92,12.91-34,6.75-18.28,9.19-26.62,18.07-49l3.3-9.17c6.83-21.76,13.08-25.41,11.47-29.54-.95-2.45-4.42-2.55-6.89-2-8.11,2.31-10.72-.32-14.05,0-4.51,0-8.14,2.78-8.75,7.31-1,6.12-2.09,7.76-7.74,23.37-25.1,68.33-21.49,61.3-29.83,80.88-9.54,25.36-5.57,17.7-28.1,76.29-8,20.79-7.87,22-11.76,28.11-3.18,5-.71,7.9,4.3,6.59,9.6-2.34,10.64-.79,30.4-1.14,10,.17,16.88-4.73,20.37-6.45l1.14-.58q8.75,8.46,23.8,6.74a61.94,61.94,0,0,1,21.23,1.58C408.87,479.43,413.56,474,413.34,470Z" fill="#888"/>
    <path d="M600.71,513.58c3-3.31-1.77-8.07-5.15-4.6C498.1,609.1,352.9,613,253.05,538.36a254.26,254.26,0,0,1-27.22-23.45c-2-2.07-9.2-10.72-12-5.92a3.93,3.93,0,0,0,.85,4.64c54.13,55.9,122.44,83.15,193,83.17C485.07,596.78,555.82,562.55,600.71,513.58Z" fill="#888"/>
  </g>
</svg>
