<svg xmlns="http://www.w3.org/2000/svg" viewBox="0 0 739.17 181.76">
  <g fill="#888">
    <path d="m0 178.71v-163.37c27.45.53 51.29-2.87 66.9 11.11 16 14.61 22.84 45 1.57 64.33 30.6 10.5 37.23 51.22 14.53 73.55-18.22 18.31-38.18 13.59-83 14.38zm24.51-93.21c4.52-.39 19.39 1.85 27.71-6.09s8.91-27.15-.16-35.41c-8.7-8-22.31-5.52-27.55-6zm0 70c9.33-.5 28.79 2.5 39.54-6.5a23.78 23.78 0 0 0 .32-35.76c-10.15-9.37-32.68-6.6-39.86-7.09z"/>
    <path d="m137.91 75.65v59.16q0 25.62 20.08 25.61t20.09-25.61v-59.16h23.67c-.74 54.17 1.89 66.44-3.06 81.07a36 36 0 0 1 -10.2 14.49c-16 13.95-44.64 14.18-60.9 0-18.92-16.58-11.94-32.55-13.36-95.56z"/>
    <path d="m249.89 0v178.71h-23.67v-178.71z"/>
    <path d="m302.45 0v178.71h-23.67v-178.71z"/>
    <path d="m331.35 0h23.65v84.23c18.52-16.76 43-13.8 55.64-.11q8.83 9.85 8.83 31.43v63.16h-23.65c-1.07-55.26 2.71-69.88-4.36-78.87q-4.36-5.57-14-5.56c-19.72 0-22.4 14.22-22.4 34.6v49.83h-23.71z"/>
    <path d="m455.13 88.46c33.55-33.1 93.39-11.29 93.39 38.83 0 31.66-24.35 54.39-55.11 54.39-49.7 0-71.9-60.04-38.28-93.22zm38.7 72c33.45 0 37.22-40.77 22.19-57q-8.41-9.1-22.19-9.1c-40.47-.08-41.39 66.06 0 66.06z"/>
    <path d="m568.17 75.65h23.67v9.21c7.44-7.86 13.31-12.06 23.76-12.06q9.36 0 19.56 6.13l-10.83 21.81c-4.48-3.24-8.87-4.88-13.14-4.88q-19.37 0-19.35 29.42v53.43h-23.67z"/>
    <path d="m650.92 75.65h23.77v9.53q12.4-12.39 28-12.38 17.88 0 27.87 11.32 8.63 9.63 8.63 31.43v63.16h-23.8c-1.19-63.64 6.3-84.43-19.14-84.43-28 0-20.33 29.89-21.56 84.43h-23.77z"/>
  </g>
</svg>
