<svg xmlns="http://www.w3.org/2000/svg" viewBox="0 0 172.1 59.97">
  <path fill="#888" fill-rule="evenodd" d="M3.51,0c2.42,0,3.1.14,3.1.68V13.59H18.14V.68c0-.74,1-.58,3.51-.68s3.1.14,3.1.68V32.14c0,.76-1.44.6-3.6.68-2.55,0-3-.13-3-.68V18.87H6.61V32.14c0,.76-1.44.6-3.6.68-2.55,0-3-.13-3-.68V.68C0-.06,1,.1,3.51,0ZM34,8.75h.23c2.69,0,3,.19,3,.69.15,13.57-.45,15.7.91,17.23s4.45,1.28,6,.32S45.5,25.68,45.5,9.44c0-.5.09-.69,3-.69h.23c2.69,0,3,.19,3,.69,0,7.55-.17,16,.32,22.56.07,1-.9.7-3,.82-3,0-2.81.09-3.15-2.41a8.46,8.46,0,0,1-6.56,2.87c-5.91,0-8.44-3.75-8.44-9.8v-14C31,8.94,31.05,8.75,34,8.75Zm26.58,0c2.23,0,2.64.09,2.82.6a13,13,0,0,1,.37,2c4-4.57,11-3.56,13.26.59,3.79-4.83,10.48-4.41,13.36-1.14,3.28,3.67,1.73,8.51,2.14,21.38,0,.8-1.16.57-3.19.68-3,0-3-.18-3-.68-.15-13.57.45-15.7-.91-17.23-1.21-1.39-4.16-1.28-5.66-.37s-1.41,1.31-1.36,17.6c0,.5-.28.68-3,.68-1.94-.1-3.28.18-3.28-.68V19.83c0-3.38-.05-6-3.78-6a5.71,5.71,0,0,0-2.78.68c-1.69,1.05-1.37,1.34-1.37,17.6,0,.8-1.17.57-3.19.68-3,0-3.06-.18-3.06-.68,0-7.55.17-16-.32-22.57C57.58,8.94,58.53,8.88,60.59,8.75ZM112.92,11c.38-2.08-.53-2.24,2.87-2.24,2.21.11,2.92-.05,2.92.64,0,8.32-.3,15.5.23,22.61,0,.64,0,.82-2.6.82-3.2-.1-2.93.22-3.33-2.14-4,4.52-15.91,4.2-15.91-9.44S109.34,5.84,112.92,11Zm-.54,4.92a4.84,4.84,0,0,0-4-2.19c-3.33,0-4.88,2.65-4.88,7.34,0,4.06,1.1,7,4.79,7a4.41,4.41,0,0,0,3.42-1.37C112.72,25.42,112.27,24,112.38,15.91Zm15.09-7.16c3,0,2.81-.08,3.14,2.42,3.4-3.93,10.12-3.62,12.95-.41,3.27,3.67,1.72,8.51,2.14,21.38,0,.5-.27.68-3,.68-1.94-.1-3.28.18-3.28-.68-.16-13.57.44-15.7-.92-17.23-1.21-1.41-4.53-1.29-6.11-.32s-1.41,1.29-1.36,17.55c0,.5-.28.68-3,.68-1.94-.1-3.28.18-3.28-.68,0-7.55.17-16-.32-22.57C124.46,8.94,125.41,8.88,127.47,8.75ZM166.08,11c.38-2.08-.54-2.24,2.87-2.24,2.21.11,2.92-.05,2.92.64,0,2.95-.32,15.21.23,22.61,0,.64,0,.82-2.6.82-3.2-.1-2.94.22-3.33-2.14-4,4.52-15.91,4.2-15.91-9.44S162.49,5.84,166.08,11Zm-.55,4.92a4.81,4.81,0,0,0-4-2.19c-3.33,0-4.88,2.65-4.88,7.34,0,4.06,1.09,7,4.78,7a4.4,4.4,0,0,0,3.42-1.37C165.87,25.43,165.42,24.13,165.53,15.91ZM8.56,40.15v1.68H2.18v4.69H6.86V48.2H2.18v5.11H9.27V55H0V40.15ZM18.24,55c-.06-.1-3-4.52-2.77-4.24l-.28.57L12.93,55H10.48l3.91-5.66-3.94-5.48h2.44C13,44,15.75,48.26,15.58,48l.2-.43,2.45-3.68h2.41l-3.95,5.44,4,5.7Zm9.57-11.29c5.35,0,5.72,8.22,1.74,10.67a5.89,5.89,0,0,1-4.75.49c0,.1,0,5.4,0,5.07H22.68V43.88h1.95v1.21a4,4,0,0,1,3.18-1.36Zm1.49,2.63c-.83-1.09-2.73-1.41-4.47,0v6.78a3.23,3.23,0,0,0,4.78-1.5C30.19,50.21,30.22,47.58,29.3,46.36Zm13.87,1.57a11.74,11.74,0,0,1-.1,2H36.2a1.09,1.09,0,0,1,0,.2q.16,3.43,3.4,3.43a7.44,7.44,0,0,0,2.77-.6l.41,1.23c-1.31,1.07-6.42,2.14-8.11-1.65a7.46,7.46,0,0,1-.58-3.1c0-7.28,8.9-7.55,9.07-1.5Zm-2,.56c.25-4-2.92-3.64-4-2.47a4.19,4.19,0,0,0-.89,2.47Zm9.56-4.77a2.81,2.81,0,0,1,1.09.14v2a3.83,3.83,0,0,0-3.9.65V55H45.76V43.9h1.81l.14,1.23a4.4,4.4,0,0,1,3-1.41Zm5.43.18V55H54V43.9Zm-1-4.88c2,0,1.72,2.85-.2,2.84S53.26,39,55.17,39Zm12.88,8.91a11.63,11.63,0,0,1-.1,2H61.08a1.09,1.09,0,0,1,0,.2c.11,2.29,1.25,3.43,3.4,3.43a7.44,7.44,0,0,0,2.77-.6l.41,1.23c-1.31,1.07-6.41,2.16-8.11-1.65a8.17,8.17,0,0,1,0-6c1.71-3.94,8.35-3.94,8.5,1.42Zm-2,.56c.25-3.92-2.86-3.7-4-2.47a4.19,4.19,0,0,0-.9,2.47Zm6.59-4.59v1.18c2.23-1.52,6-2.28,6.88.45.5,1.52.24,3.36.31,9.49H77.68c0-7.53.24-8.62-.68-9.26s-2.89-.13-4.13.77V55H70.72V43.9Zm17.92.4L90.21,46a4.31,4.31,0,0,0-2.5-.61c-4.34,0-4.28,8.16-.06,8.16a5.66,5.66,0,0,0,2.66-.65l.44,1.22a5.65,5.65,0,0,1-6,.33c-3-2-3.12-7.9.17-10A6.44,6.44,0,0,1,90.55,44.3Zm10.64,5.62H94.32a1.09,1.09,0,0,1,0,.2c.11,2.29,1.25,3.43,3.4,3.43a7.49,7.49,0,0,0,2.78-.6l.41,1.23c-1.71,1.39-8.7,2.55-8.7-4.75s8.9-7.57,9.08-1.5A11.79,11.79,0,0,1,101.19,49.92Zm-1.9-1.43c.25-4-2.92-3.64-4-2.47a4.19,4.19,0,0,0-.9,2.47Zm20.76-8,.29.07L120,42.49a5.09,5.09,0,0,0-1.72-.59c-9.48-1.81-8.58,14.5,1.08,11.09a2.66,2.66,0,0,0,.84-.44v1.84C106.47,59.92,105.59,36.19,120.05,40.48Zm11.43,7.45a11.58,11.58,0,0,1-.1,2h-6.87a1.09,1.09,0,0,1,0,.2c.14,3,2,3.84,4.88,3.25a4.81,4.81,0,0,0,1.29-.42l.41,1.23c-1.52,1.24-8.69,2.67-8.69-4.75,0-3.28,1.74-5.64,5-5.7,2.28,0,4,1.48,4.1,4.2Zm-2,.56c.12-1.82-.38-3.24-2.21-3.24s-2.51,1.46-2.69,3.24Zm6.59-4.59v1.18c2.27-1.54,6-2.23,6.88.45.5,1.51.24,3.35.31,9.49h-2.15c0-7.54.23-8.62-.68-9.26s-3,0-4.13.77V55h-2.15V43.9Zm11.09,1.61H145.7V44.34c1.71-.49,1.44-.19,2.3-3h1.29v2.54h3.14v1.62h-3.14c.05,8-.55,8.44,2.25,7.81a4.36,4.36,0,0,0,.88-.28l.37,1.23a5.92,5.92,0,0,1-3.07.9c-1.94,0-2.57-1-2.57-2.82Zm16.09,2.42a10.62,10.62,0,0,1-.11,2h-6.86a1.09,1.09,0,0,1,0,.2q.16,3.43,3.4,3.43a7.44,7.44,0,0,0,2.77-.6l.41,1.23c-1.27,1-6.39,2.2-8.12-1.65a8.17,8.17,0,0,1,0-6c1.71-3.95,8.35-4,8.5,1.42Zm-2,.56c.11-1.81-.38-3.24-2.21-3.24s-2.51,1.46-2.69,3.24Zm9.56-4.77a2.72,2.72,0,0,1,1.08.14v2a3.82,3.82,0,0,0-3.89.65V55h-2.15V43.9h1.81l.14,1.23a4.42,4.42,0,0,1,3-1.41Z"/>
</svg>
