<svg id="Layer_1" data-name="Layer 1" xmlns="http://www.w3.org/2000/svg" viewBox="0 0 330.92 154.21">
  <title>logo-katalyst</title>
  <path d="M262.5,107.51l27.4,25.78s6.28,4.71-.08,10c0,0-2.69,3.55-6.68-.65l-27.57-27s-2.3-3.44,1.48-9.23C257.05,106.4,259.15,102.8,262.5,107.51Z" fill="#fcf16a"/>
  <path d="M256.9,114l22.77,22.12s4.59,10.11-2.23,10.91c0,0-5.37-2-11.06-9.85l-12.94-17.65S247.43,111.92,256.9,114Z" fill="#ffd233"/>
  <path d="M255.14,114.28a284.93,284.93,0,0,0,28.53,27.6c1.26,1.06,3.11-.76,1.83-1.84A282.63,282.63,0,0,1,257,112.44c-1.12-1.24-3,.6-1.84,1.84Z"/>
  <path d="M172.32,48.4S155.7,63,174.12,78.22c0,0,10.86,6.76,23,.49a14.41,14.41,0,0,0,7.07,2.8c5.87.7,14.61-1.93,20.19-9.14,1.36-1.76,3.34-6.18,4.61-14.08,3.47-21.62-13.89-40.68-42.71-38.65a75.36,75.36,0,0,0-13.68,2.84c-7.83,2.85-22.33,11.61-29.34,38.21,0,0-8,38.36,22.92,49.47,0,0,17.18,7.52,33.17,3.17a42.57,42.57,0,0,0,20.35-12.63l2.91-4-11.33-7.86s-8.78,13.52-25.05,12.23c0,0-28.11-.06-27.76-29.92,0,0-.23-40.06,34.87-39.53,0,0,23,.75,23.43,21.39a25.41,25.41,0,0,1-5,16.85s-6.12,8.76-7.7-1.23l2.61-22.61S189.7,34.39,172.32,48.4Zm21,17s-7.21,8.27-12.64-1a9.3,9.3,0,0,1-.78-4.36c.48-3.75,2.8-10.11,13-10.47l2.39.4Z" fill="#f15a26" stroke="#000" stroke-miterlimit="10" stroke-width="2.23"/>
  <path d="M248.28,70.2s9.51-7.1.21-14.09c0,0-13.64-3.11-13.66,7.75C234.83,63.86,236.21,76,248.28,70.2Z" fill="#f15a26" stroke="#000" stroke-miterlimit="10" stroke-width="2.23"/>
  <path d="M231.51,89.65s2.91,6.58,13.37,4c0,0,10.05-4.7.53-13,0,0-6.74-4.85-10.83-2.44C231.39,80.08,229.51,84.82,231.51,89.65Z" fill="#f15a26" stroke="#000" stroke-miterlimit="10" stroke-width="2.23"/>
  <path d="M35.69,47.69,7.14,35.14S2.71,31.46.73,36.56L.1,41s-2.34,2.39,15.67,10L47.36,63.47s7.13,2,11.19,1.91c0,0,5-3.44,1.62-6.45Z" fill="#ffd32d"/>
  <polygon points="100.02 14.7 79.88 16.41 88.96 117.18 110.15 114.92 104.66 69.69 112.22 63.23 144.99 122.32 163.24 115.42 127.13 52.65 158.81 22.23 144.4 10.62 102.22 49.63 100.02 14.7" fill="#f15a26" stroke="#000" stroke-miterlimit="10" stroke-width="2.23"/>
  <path d="M35.12,3.66s-5.49-7-10.5-.56c0,0-6.38,4.13-.23,9.47L57.88,44.36s6.49,6,10.84,1.91l4-8.5s3-3.75-6.86-9.4Z" fill="#fcf16a"/>
  <path d="M29.67,0,25.31,3.43S21.6,5.16,27.05,8.82L65,41.24s2.74,3.35,5.41-.06L72,37.78s4.7-2.75-6.87-9.4Z" fill="#ffd32d"/>
  <path d="M23.08,7.48Q46.8,24.69,69,43.91c.94.81,2.32-.56,1.37-1.38C55.49,29.65,40,17.37,24.06,5.8c-1-.73-2,1-1,1.68Z"/>
  <path d="M50.82,59.18s5.37,5.79,9.58,3.7L63.79,58s-.09-3.74-8.9-8.75L9.44,19.72S4.86,17.38,3.18,22c0,0-3.58,2.8,4.6,7.09Z" fill="#fcf16a"/>
  <path d="M7.09,35.67c17.37,9,35.51,17.12,51.72,28.2,1,.71,2-1,1-1.67C43.58,51.11,25.44,43,8.07,34c-1.11-.58-2.09,1.1-1,1.68Z"/>
  <path d="M37.74,69.39,10.33,69s-5.4.74-5,4.79l.39,5.07s2.74,3,19,1.49l41.62.58s6.41-1.76,4.68-5.46a28.47,28.47,0,0,0-5.15-7Z" fill="#fcf16a"/>
  <path d="M58.46,77l-35.18.71-10.15-.23s-3,0-2.33,3.41l.71,3.37,46.36.87,7.1-.42s1-.34-1.4-4S58.46,77,58.46,77Z" fill="#ffd32d"/>
  <path d="M12.21,86.87l53.45.74a1.08,1.08,0,0,0,0-2.16l-53.45-.74a1.08,1.08,0,0,0,0,2.16Z"/>
  <path d="M64.79,91.92a156,156,0,0,1-37.44,10.21s-9.5-1.93-6.69,7.51c2,6.84,23-.24,23-.24l18.22-4.59s15.2-2.19,10.74-8.23l-1.39-4S69.5,89.17,64.79,91.92Z" fill="#fcf16a"/>
  <path d="M63.2,101.08,32.61,109s-11.28,1.86-9.87,5l2,3.74s2.65,3.8,10.6.53c1.82-.76,37.79-9.54,37.79-9.54L71.68,103S72.29,97.6,63.2,101.08Z" fill="#ffd32d"/>
  <path d="M26.61,122.35q24.09-7.41,48.53-13.54a.86.86,0,0,0-.45-1.66q-24.45,6.13-48.54,13.53a.87.87,0,0,0,.46,1.67Z"/>
  <path d="M79.31,117.2l-3.19-3.42s-2.88-4.69-9.4,3.56L47.4,135.48s-5.59,7,1.05,9.74l27.79-20.43S82.49,120.63,79.31,117.2Z" fill="#fcf16a"/>
  <path d="M68.85,140,76,133.92s4.69-3.2.56-6.62c0,0-1.31-5-6.94-1.18L48.13,145.23s-3.75,2.55,1.32,5.65c0,0,1.31,4.39,4.75,3.09Z" fill="#ffd32d"/>
  <path d="M76.07,119.64c-11.82,8.75-22.65,18.6-33.23,28.8-.8.78.42,2,1.22,1.22,10.47-10.1,21.18-19.87,32.88-28.53.89-.66,0-2.16-.87-1.49Z"/>
  <path d="M64.93,5.54A5.79,5.79,0,0,0,57.29,9a5.91,5.91,0,0,0,4.36,7.21,6,6,0,0,0,6.86-5,6.18,6.18,0,0,0-5.32-6.65" fill="#26b6ea"/>
  <path d="M21.06,58.19c-2.36-1.19-5.53.36-6.29,3.06s1,5.88,3.59,6.43,5.32-1.63,5.65-4.43a5.42,5.42,0,0,0-4.39-5.92" fill="#26b6ea"/>
  <path d="M39.19,91.32a4.18,4.18,0,0,0-5.58,2.62,4.55,4.55,0,0,0,3.19,5.51,4.43,4.43,0,0,0,5-3.79,4.67,4.67,0,0,0-3.88-5.08" fill="#26b6ea"/>
  <path d="M33.44,126.14a5.21,5.21,0,0,0-7,3.27,5.67,5.67,0,0,0,4,6.88,5.53,5.53,0,0,0,6.25-4.73,5.83,5.83,0,0,0-4.85-6.34" fill="#26b6ea"/>
  <path d="M283.16,4.76l-31,27.8s-4.82,3.31-1.77,7c0,0-.37,3.82,8.34-.84s40.62-27.46,40.62-27.46,2.15-12.3-9.54-11C289,.32,284.12,4.52,283.16,4.76Z" fill="#fcf16a"/>
  <path d="M301,7.94s-2.34-3.15-7.45,1.33c-37.45,25.85-39.63,27.17-41.9,30.53-2,3,7.9,3.11,7.9,3.11l33.69-21.36,8.64-4.43s4.89-2.18,2.42-5.13C303.12,10.56,302.59,8.38,301,7.94Z" fill="#ffd531"/>
  <path d="M258,45.57c17.43-10.09,34-21.59,50.85-32.66,1.38-.91.09-3.16-1.31-2.23-16.81,11.06-33.42,22.56-50.85,32.65A1.3,1.3,0,0,0,258,45.57Z"/>
  <path d="M300.79,34l-28,11.07-9.1,3.22s-5.18,2.14-3.72,5.21l.94,2.43s.62,2.7,7.23,1l46.45-14s4.46-3.68-.82-9.75C313.75,33.19,311.53,28.88,300.79,34Z" fill="#fcf16a"/>
  <path d="M268.59,52s24.59-2.9,38.45-6.84c0,0,7.53-2.2,8.25,2.55,0,0,2.4,5.51-3.15,5.26l-38.36,6.46-6.29,1c-4.19-2.16-3.64-4.75-3.64-4.75S262.73,52,268.59,52Z" fill="#ffd531"/>
  <path d="M267.44,66.13S289,70,308.18,68.89c0,0,10.26-3.12,10.46,3.93,0,0,2.19,4.61-2.79,7.64l-47.76-2.84s-5.39,1.24-6-2l-.81-6.81S262.42,66.53,267.44,66.13Z" fill="#fcf16a"/>
  <path d="M313,76.38c-13,1-22.44,3.11-42.29,1.2,0,0-6.39-.61-1.67,5.11s34.66,5.1,43.3,3.59c0,0,7.37-.46,6.37-5.25C317.12,73.38,313,76.38,313,76.38Z" fill="#ffd531"/>
  <path d="M267.94,88.39s-11.51-5.21-11.42,3c0,0-1.83,6.85,6.74,9.14L293.6,114s6.59-.15,8.17-8.88c.63-3.45-.71-4.75-7.27-6.56Z" fill="#fcf16a"/>
  <path d="M260.33,94.39s-7.75-1.62-1.77,6.28L293,120.1s8.91,1.74,5.44-4.75l-4.38-6.28Z" fill="#ffd531"/>
  <line x1="255.74" y1="99.52" x2="296.34" y2="118.95" fill="none" stroke="#000" stroke-linecap="round" stroke-miterlimit="10" stroke-width="2.23"/>
  <path d="M269.22,85.41l43.07,2.93c1.66.11,1.66-2.48,0-2.59l-43.07-2.94c-1.67-.11-1.66,2.48,0,2.6Z"/>
  <path d="M267.44,62.38a284.44,284.44,0,0,1,46.85-6.31c1.66-.08,1.67-2.67,0-2.59a288.51,288.51,0,0,0-47.54,6.4c-1.62.36-.94,2.86.69,2.5Z"/>
  <path d="M245.74,111.82a5.31,5.31,0,0,0-7.29,2.38,5.42,5.42,0,0,0,3.26,7,5.51,5.51,0,0,0,6.72-3.85c.67-2.81-1.06-4.24-2.69-5.51" fill="#26b6ea"/>
  <path d="M309.48,95.59A4.68,4.68,0,0,0,302.89,98c-1,2.6.4,6,2.89,6.78s5.46-1.06,6.09-3.8a5.42,5.42,0,0,0-3.73-6.36" fill="#26b6ea"/>
  <path d="M327.76,49.51c-2.8-1.8-7-.29-8.28,3S320,60,323.12,61s6.86-1.32,7.65-4.77-1.49-7.29-4.69-8" fill="#26b6ea"/>
  <path d="M257.31,8.16c-2.39-1.55-5.95-.25-7.07,2.54s.43,6.4,3.1,7.28,5.87-1.13,6.54-4.08-1.27-6.23-4-6.83" fill="#26b6ea"/>
  <path d="M302.27,125.41a4.14,4.14,0,0,0-5.84,2.1,4.71,4.71,0,0,0,2.57,6,4.46,4.46,0,0,0,5.4-3.36,4.81,4.81,0,0,0-3.32-5.64" fill="#26b6ea"/>
  <path d="M90.09,127.07c0-.44,1.14-.71,1.27.2l.44,8.8c2.63-4.93,1.74-8.85,2.71-8.85.64.11.75.38.75.88,0,2.93-1.4,6-2.62,8.85a10.89,10.89,0,0,1,4.71,7.26c.13.66-.35.68-.62.68-1.14,0-.5-5-5-7,0,2.1.46,7.15-.13,7.15a1,1,0,0,1-.81-.44A145.66,145.66,0,0,0,90.09,127.07Z" fill="#888" stroke="#888" stroke-miterlimit="10" stroke-width="0.56"/>
  <path d="M102,128.41c.14-2,1.46-1.5,1.83,0,.55,2.2,1,4.2,3.37,15.86,0,.49-.66.86-1.06.16l-.79-4-3,.44c-.18,1-.33,3-.38,3.91,0,.53-1,.4-1,0Zm.38,11.44,2.75-.39-2.16-9.8C103,129.81,102.41,138.81,102.41,139.85Z" fill="#888" stroke="#888" stroke-miterlimit="10" stroke-width="0.56"/>
  <path d="M111.6,128.65l-1.76-.06c-.7-.2-1-.88.11-1.15,1.72,0,3.39,0,5.17.13,1,.09.93,1.19.29,1.19l-2.4,0s-.11,9.14-.24,13.77c-.18.66-1.08.46-1.23-.15C111.54,142.24,111.76,128.82,111.6,128.65Z" fill="#888" stroke="#888" stroke-miterlimit="10" stroke-width="0.56"/>
  <path d="M120.16,128.41c.13-2,1.45-1.5,1.83,0,.55,2.2,1,4.2,3.36,15.86,0,.49-.66.86-1,.16l-.79-4-3,.44c-.17,1-.32,3-.37,3.91,0,.53-1,.4-1,0Zm.37,11.44,2.76-.39-2.16-9.8C121.12,129.81,120.53,138.81,120.53,139.85Z" fill="#888" stroke="#888" stroke-miterlimit="10" stroke-width="0.56"/>
  <path d="M129.69,127.82c.17,5,.15,10,.59,15,1-.27,3.39-.94,3.39.09s-1.67.71-2.95,1.08a4.15,4.15,0,0,1-.94.28c-1.22,0-.66-2.56-1-8.67l-.29-5.43v-2.79C128.82,126.72,129.5,127.12,129.69,127.82Z" fill="#888" stroke="#888" stroke-miterlimit="10" stroke-width="0.56"/>
  <path d="M137.83,135.1c-.4-.79-2.27-4.56-2.62-5.35-.57-1.25.66-1.43.88-.81l2.51,5.28,1.47-5.83c.09-.62,1.41-.57,1.41.15v.09l-2.18,6.69.77,8.93c0,.65-1.13.63-1.25.07C138.51,141.55,138.47,137.54,137.83,135.1Z" fill="#888" stroke="#888" stroke-miterlimit="10" stroke-width="0.56"/>
  <path d="M144.14,141.7c.82.13.66,1.21,1.54,1.34,1.43.24,1.76-.77,2-2,.7-4.38-3.4-6.25-2.88-9.46.31-1.74,1.14-2.92,3-2.92.82,0,1.52.09,1.38.83-.19,1.08-2.53-.75-3,2.33-.24,1.41.33,2,1.08,3.26,1.16,2,2.17,3.83,1.78,6.21-.31,1.8-1.06,2.86-2.84,2.86C143.59,144.19,142.78,141.7,144.14,141.7Z" fill="#888" stroke="#888" stroke-miterlimit="10" stroke-width="0.56"/>
  <path d="M154.68,128.65l-1.76-.06c-.7-.2-1-.88.11-1.15,1.72,0,3.39,0,5.17.13,1,.09.93,1.19.29,1.19l-2.4,0s-.11,9.14-.24,13.77c-.18.66-1.08.46-1.24-.15C154.62,142.24,154.84,128.82,154.68,128.65Z" fill="#888" stroke="#888" stroke-miterlimit="10" stroke-width="0.56"/>
  <path d="M171.77,127.93h.16c2.14.1,2.26,2.06,1.56,2.06s-.93-1-1.78-1c-3,0-5.08,13.82,0,14h.11c1.58,0,1-2.05,2.22-2.05h.07a.48.48,0,0,1,.52.49c0,.39-.13.39-.33.85-1.41,3-7.76,2.55-6.77-7.3C167.59,132.85,168.54,127.93,171.77,127.93Z" fill="#888" stroke="#888" stroke-miterlimit="10" stroke-width="0.56"/>
  <path d="M179.12,126.39c3,0,4.12,2.17,4.12,4.7a4.77,4.77,0,0,1-2.18,4.27c2.53,1.12,3.15,4.71,3.15,7.18,0,.39-.25.55-.64.55s-.38,0-.49-.36c-.11-1.65-.52-6.31-3.08-6.31l-.22,0c-.24,2.49,0,5-.19,7.5a.71.71,0,0,1-1.17,0C178.72,126.27,177.25,126.39,179.12,126.39Zm.51,8.31c3.49-.69,2.79-7,.35-7-.09,0-.77,0-.77.17Z" fill="#888" stroke="#888" stroke-miterlimit="10" stroke-width="0.56"/>
  <path d="M188.17,137.39c0-3.15-.31-5.17-.31-8.32V128c3.52-.29,3.91,0,3.91.44a.76.76,0,0,1-.26.55c-2.32.1-2.55-.17-2.55.17,0,2.34.22,4,.35,6.45a24,24,0,0,0,2.55,0c.75,0,1.26,1.3.24,1.3h-2.79l0,5.15c.53.13,3.33-.42,3.33.55a.54.54,0,0,1-.42.57c-2.58.2-4.06.11-4.07-.33C188.19,142.82,188.16,137,188.17,137.39Z" fill="#888" stroke="#888" stroke-miterlimit="10" stroke-width="0.56"/>
  <path d="M197.69,128.41c.13-2,1.45-1.5,1.83,0,.55,2.2,1,4.2,3.36,15.86,0,.49-.66.86-1,.16l-.79-4-3,.44c-.18,1-.33,3-.38,3.91,0,.53-1,.4-1,0Zm.38,11.44,2.75-.39-2.16-9.8C198.65,129.82,198.07,138.79,198.07,139.85Z" fill="#888" stroke="#888" stroke-miterlimit="10" stroke-width="0.56"/>
  <path d="M207.26,128.65l-1.76-.06c-.7-.2-1-.88.11-1.15,1.72,0,3.39,0,5.17.13,1,.09.92,1.19.29,1.19l-2.4,0s-.11,9.14-.24,13.77c-.18.66-1.08.46-1.24-.15C207.19,142.24,207.42,128.82,207.26,128.65Z" fill="#888" stroke="#888" stroke-miterlimit="10" stroke-width="0.56"/>
  <path d="M216.76,128.37c0,.11,1.08,14.48,1.08,14.58,0,.36-.37.49-.75.49-1,0-.54-.94-1.18-10.5a47.34,47.34,0,0,1-.31-4.75C215.62,127.64,216.72,127.84,216.76,128.37Z" fill="#888" stroke="#888" stroke-miterlimit="10" stroke-width="0.56"/>
  <path d="M220.86,128.28l0-.13c0-.33.42-.44.71-.47,1.12,0,.38.12,3.5,13.4,2.39-12.12,1.78-13,2.9-13.07.35,0,.68.14.7.58-3,15.46-2.88,15.17-3.54,15.84-.22-.05-.44,0-.57-.31C223.23,138.86,222.31,133.51,220.86,128.28Z" fill="#888" stroke="#888" stroke-miterlimit="10" stroke-width="0.56"/>
  <path d="M233,137.39c0-3.15-.31-5.17-.31-8.32V128c3.52-.29,3.92,0,3.92.44,0,.15-.11.48-.27.55-2.32.1-2.55-.17-2.55.17,0,2.34.22,4,.35,6.45a24,24,0,0,0,2.55,0c.75,0,1.26,1.3.25,1.3h-2.8l0,5.15c.52.13,3.32-.42,3.32.55a.53.53,0,0,1-.42.57c-2.58.2-4.06.11-4.07-.33C233,142.72,233,137,233,137.39Z" fill="#888" stroke="#888" stroke-miterlimit="10" stroke-width="0.56"/>
</svg>
