<svg xmlns="http://www.w3.org/2000/svg" viewBox="0 0 284.16 109.14">
  <g fill="#888">
    <path d="m284.16 102.9c-1.89.78-2.58.42-2.9-1.43-2.91-17.13-2.59-15.13-2.9-16-6.63 18.86-6 18.12-7.08 18.14s-1.12-.87-1.36-1.57c-5.88-16.6-5.44-15.73-6-16.29-1.95 11.18-.8 4.63-2.8 16.47-.16 1-.7 1.25-2.1 1-1-.17-.6-.88-.5-1.4q2-10.81 4.15-21.64c.08-.38.72-1 .88-1a2.15 2.15 0 0 1 1.22 1c3 8.16 5.42 15.1 6.55 18 3.7-9.77 6.16-18.34 7.07-19 .7-.46 1.29-.08 1.48.88q1.56 8.11 3.12 16.23c1.29 6.71 1.17 4.71 1.17 6.61z"/>
    <path d="m220.06 17.72a.76.76 0 0 1 .75-.76c2 0 7.59 0 10.11.3 5.84.77 10.17 6.46 9.75 12.35a11.9 11.9 0 0 1 -11.21 11.11c-2.71.1-5.43 0-8.15.07-.94 0-1.26-.31-1.25-1.26zm4.53 18.81a41.34 41.34 0 0 0 4.46 0 7.73 7.73 0 0 0 5.52-12.19c-1.89-2.74-5.9-3.27-10-3z"/>
    <path d="m185.78 21.1v5.52h7.22c1.68 0 1.69 0 1.68 1.62 0 2.79.44 2.53-2.57 2.54h-6.31v5.88h9.39c.9 0 1.2.32 1.18 1.19-.07 3.45.44 2.92-2.9 2.94-3.6 0-7.2 0-10.8 0-1.1 0-1.46-.33-1.45-1.44q.06-10.5 0-21c0-1 .31-1.41 1.37-1.4 4.16.05 8.32 0 12.48 0 1 0 1.33.35 1.31 1.33-.09 3.3.41 2.77-2.79 2.8-2.59.04-5.11.02-7.81.02z"/>
    <path d="m205.31 21.1v5.52h7.07c1.94 0 1.94 0 1.94 1.88 0 2.31.33 2.29-2.25 2.28-2.23 0-4.46 0-6.76 0v5.88h7.78c3.16 0 3.15 0 2.88 3.19-.05.65-.33.93-1 .93h-13.16c-.73 0-1-.32-1-1q0-10.86 0-21.71c0-.75.27-1.08 1-1.08q6.54 0 13.07 0c.72 0 1 .31 1 1 0 3.78.41 3.07-2.83 3.11-2.48.03-5.05 0-7.74 0z"/>
    <path d="m167 32.14v6.93c0 1.7 0 1.72-1.63 1.7-3.31 0-2.83.41-2.84-2.87 0-6.48 0-13 0-19.44 0-1.15.34-1.55 1.51-1.51 2.35.08 4.71 0 7.07 0a7.58 7.58 0 1 1 0 15.16zm.06-4.17c1.46 0 2.78.07 4.08 0a3.46 3.46 0 0 0 3.2-3.32 3.15 3.15 0 0 0 -2.71-3.3c-1.49-.14-3 0-4.57 0z"/>
    <path d="m149.74 85.62q-1.32 7.84-2.64 15.7c-.16.94-.06 2.05-1.64 1.88-1.25-.13-1.39-.18-1.15-1.42 4.63-23.91 4.1-22.83 5.05-22.63a2.09 2.09 0 0 1 1.28 1.12c2.16 5.87 4.26 11.77 6.47 17.93 1.35-3.37 6.41-18.14 6.56-18.28a2.52 2.52 0 0 1 1.17-.75c.25 0 .73.53.8.89.93 4.47 3.47 17.67 4.19 21.63.1.54.55 1.42-.55 1.45-.8 0-1.83.5-2.07-1-.31-2-2.61-15.49-3-16.73-.32.84-.58 1.49-.81 2.15-6.24 17.9-4.83 14.5-6.41 16-1.52-1.6 0 2-6.79-17.23l-.3-.76z"/>
    <path d="m157.93 18.52c.89.54 1.11 1.09.48 2-1.46 2.2-1.4 2.17-3.74 1a10.51 10.51 0 0 0 -3.17-1 2.72 2.72 0 0 0 -2.88 1.72c-1.63 4.89 12.34 4.17 10.9 13-1 6.32-9.43 7.42-14.79 3.51-.7-.5-.93-1-.42-1.8 1.37-2.17 1-2.83 3.78-1.1a9.64 9.64 0 0 0 3.71 1.15 2.69 2.69 0 0 0 2.75-1.73c1.19-3.47-4.45-4.44-7.72-6.81-5.17-3.74-2.86-11.32 3.55-11.82a11.71 11.71 0 0 1 7.55 1.88z"/>
    <path d="m170.68 62.7v7.85c0 1.08-.29 1.47-1.42 1.46s-1.3-.52-1.29-1.47c0-7 0-13.91 0-20.87 0-1.2.42-1.5 1.54-1.47 2.59.06 5.19 0 7.79 0a7.23 7.23 0 0 1 3.7 13.65c-.3.18-.62.34-1.06.59 4.72 8.81 4 7.5 4.45 8.3s.18 1.17-.74 1.25a2.25 2.25 0 0 1 -2.65-1.49c-1-2.35-2.28-4.57-3.39-6.87a1.45 1.45 0 0 0 -1.57-1c-1.74.11-3.46.07-5.36.07zm.18-11.88v9.58c2.34 0 4.57.09 6.79 0a4.92 4.92 0 0 0 4.51-4.77 4.76 4.76 0 0 0 -4.07-4.75c-2.38-.19-4.77-.06-7.23-.06z"/>
    <path d="m163.32 72c-.79.2-1.18-.3-1.49-1-.58-1.4-1.25-2.76-1.83-4.16a1.17 1.17 0 0 0 -1.26-.81c-11.23.11-10.89-.44-11.42.84-.6 1.48-1.26 2.93-1.92 4.38-.34.73-2 1.2-2.54.63s0-1.16 6.11-14.78c3.64-8.05 3.9-9.06 4.75-9.06s.63-.08 10.73 22.5c.55 1.24.43 1.46-1.13 1.46zm-4.66-8.2-5-11.2-5 11.2z"/>
    <path d="m219.17 81.78v8.22h8.94c.82 0 1.35.07 1.36 1.13s-.54 1.22-1.41 1.21c-2.92 0-5.84 0-8.85 0v8.49c2.07.11 10.33.06 10.49.06.86 0 1.46.09 1.45 1.21 0 1.69 0 1-13.37 1.14-1.07 0-1.36-.35-1.36-1.38q.06-10.5 0-21c0-1.13.37-1.44 1.46-1.42 13.17.17 13.25-.55 13.27 1.14 0 1.07-.49 1.26-1.41 1.25-3.47-.07-6.95-.05-10.57-.05z"/>
    <path d="m192.23 96.38c-1.39 10.24-17.42 9.31-17.71-1.17-.14-4.91 0-9.83-.05-14.75 0-1.12.71-1 1.45-1 1.84-.09 1.06.3 1.21 15.09.09 8.92 12.66 8.63 12.7.12.09-16.39-.57-15.24 1.57-15.22.85 0 1.1.39 1.09 1.19-.03 2.36.26 11.89-.26 15.74z"/>
    <path d="m238.52 94.26c0 9.24 12.62 9 12.71.09.14-14.87-.65-15 1.35-15 1.13 0 1.32.53 1.31 1.49v13.56c-.07 11.88-17.49 12.37-17.93.46-.17-4.72 0-9.44-.08-14.16 0-1 .3-1.35 1.3-1.34s1.39.31 1.37 1.31c-.04 1.73-.03 13.49-.03 13.59z"/>
    <path d="m197.61 101c-.81-.65-.64-1.21-.07-1.91s1.06-.75 1.78-.14c6.66 5.58 12.71-.69 8.5-4.12-1.82-1.49-6-3.29-7.2-4-5.68-3.35-3.88-10.83 2.34-11.7a10.75 10.75 0 0 1 6.92 1.37c.68.38 1.07.8.57 1.61s-.89 1.26-1.89.65a7.26 7.26 0 0 0 -5.22-1.3 3.81 3.81 0 0 0 -3.34 2.85 3.59 3.59 0 0 0 1.66 4c4 2.76 11.37 3.63 10.21 10-.98 5.14-8.46 7.35-14.26 2.69z"/>
    <path d="m193.44 50.54c-1.9 0-3.66 0-5.41 0-.95 0-1.13-.42-1.13-1.24s.33-1.11 1.15-1.1q6.72 0 13.44 0c.83 0 1.12.3 1.13 1.12s-.26 1.24-1.17 1.22c-1.75 0-3.5 0-5.37 0v20c0 1-.15 1.46-1.29 1.47s-1.38-.47-1.38-1.51c.05-6.12.03-11.71.03-19.96z"/>
  </g>
  <g fill="#20bfdc">
    <path d="m7.3 0 110.4 15.08a.42.42 0 0 1 .37.42v26.12a.43.43 0 0 1 -.46.43l-110.4-8.89a.43.43 0 0 1 -.39-.43v-32.3a.43.43 0 0 1 .48-.43z"/>
    <path d="m17.1 36.92 113.78 9.08a.47.47 0 0 1 .44.46l.27 26.26a.47.47 0 0 1 -.48.48l-114.06-2.11a.47.47 0 0 1 -.46-.47v-33.23a.47.47 0 0 1 .51-.47z"/>
    <path d="m.46 73.21 111.64 2.6a.45.45 0 0 1 .44.44l.64 32.43a.46.46 0 0 1 -.46.46h-112.27a.46.46 0 0 1 -.45-.46v-35a.46.46 0 0 1 .46-.47z"/>
  </g>
</svg>
