<svg xmlns="http://www.w3.org/2000/svg" viewBox="0 0 454.91 169.6">
  <g fill="#888">
    <path d="m18.73 1.3a1.15 1.15 0 0 1 1.27-1.3h2.8a1.15 1.15 0 0 1 1.3 1.3v60.17a1.15 1.15 0 0 1 -1.3 1.3h-4.16c-.87 0-1.21-.35-1.47-1.3l-9.37-37.11-2.6-12h-.34l.52 12.31v36.8a1.15 1.15 0 0 1 -1.3 1.3h-2.78a1.15 1.15 0 0 1 -1.3-1.3v-60.17a1.15 1.15 0 0 1 1.3-1.3h4.16c.87 0 1.22.35 1.48 1.3l9.36 37.11 2.6 12h.35l-.52-12.31z"/>
    <path d="m88.08 61.47-2-12.92h-12.66l-2 12.92c-.09.7-.43 1.3-1.3 1.3h-3.12c-.78 0-1.13-.6-1-1.39l9.28-60a1.34 1.34 0 0 1 1.44-1.38h6.07a1.34 1.34 0 0 1 1.47 1.39l9.28 60c.09.87-.35 1.39-1 1.39h-3.16a1.27 1.27 0 0 1 -1.3-1.31zm-14-17.77h11.22l-3.55-23.59-1.82-14.73h-.35l-1.82 14.73z"/>
    <path d="m144.77 4.85v56.62a1.15 1.15 0 0 1 -1.3 1.3h-2.77a1.15 1.15 0 0 1 -1.3-1.3v-56.62h-10.49a1.15 1.15 0 0 1 -1.3-1.3v-2.25a1.15 1.15 0 0 1 1.3-1.3h26.35a1.15 1.15 0 0 1 1.3 1.3v2.25a1.15 1.15 0 0 1 -1.3 1.3z"/>
    <path d="m212.74 61.47-2-12.92h-12.66l-2 12.92c-.09.7-.43 1.3-1.3 1.3h-3.12c-.78 0-1.13-.6-1-1.39l9.28-60a1.34 1.34 0 0 1 1.44-1.38h6.07a1.34 1.34 0 0 1 1.47 1.39l9.28 60c.09.87-.35 1.39-1 1.39h-3.2a1.27 1.27 0 0 1 -1.26-1.31zm-14-17.77h11.26l-3.55-23.59-1.86-14.73h-.35l-1.82 14.73z"/>
    <path d="m265.44 57.92h14.83a1.15 1.15 0 0 1 1.3 1.3v2.25a1.15 1.15 0 0 1 -1.3 1.3h-18.9a1.15 1.15 0 0 1 -1.3-1.3v-60.17a1.15 1.15 0 0 1 1.3-1.3h2.77a1.15 1.15 0 0 1 1.3 1.3z"/>
    <path d="m328.29 61.47a1.15 1.15 0 0 1 -1.3 1.3h-2.77a1.15 1.15 0 0 1 -1.3-1.3v-60.17a1.15 1.15 0 0 1 1.3-1.3h2.78a1.15 1.15 0 0 1 1.3 1.3z"/>
    <path d="m389.13 0a1.15 1.15 0 0 1 1.3 1.3v2.25a1.15 1.15 0 0 1 -1.3 1.3h-14.83v24.15h11.53a1.15 1.15 0 0 1 1.3 1.3v2.25a1.15 1.15 0 0 1 -1.3 1.3h-11.53v24.07h14.83a1.15 1.15 0 0 1 1.3 1.3v2.25a1.15 1.15 0 0 1 -1.3 1.3h-18.9a1.15 1.15 0 0 1 -1.3-1.3v-60.17a1.15 1.15 0 0 1 1.3-1.3z"/>
    <path d="m24.1 118.35v38.85c0 7.89-1.9 12.4-12 12.4s-12.1-4.51-12.1-12.4v-38.85c0-7.8 1.91-12.35 12.05-12.35s12.05 4.55 12.05 12.35zm-18.72 0v38.85c0 4.77 1 7.54 6.67 7.54s6.68-2.77 6.68-7.54v-38.85c0-4.76-1-7.54-6.68-7.54s-6.67 2.78-6.67 7.54z"/>
    <path d="m135.65 169.16a1.15 1.15 0 0 1 -1.3-1.3v-60.17a1.15 1.15 0 0 1 1.3-1.3h8.41c11.45 0 13.53 5.2 13.53 14v34.81c0 8.85-2.08 14-13.53 14zm8.41-4.85c6.94 0 8.15-3.3 8.15-9.11v-34.85c0-5.72-1.21-9.1-8.15-9.1h-4.33v53.06z"/>
    <path d="m218.53 106.39a1.15 1.15 0 0 1 1.3 1.3v2.25a1.16 1.16 0 0 1 -1.3 1.31h-14.83v24.1h11.53a1.15 1.15 0 0 1 1.3 1.3v2.25a1.15 1.15 0 0 1 -1.3 1.3h-11.53v24.11h14.83a1.15 1.15 0 0 1 1.3 1.3v2.25a1.15 1.15 0 0 1 -1.3 1.3h-18.9a1.15 1.15 0 0 1 -1.3-1.3v-60.17a1.15 1.15 0 0 1 1.3-1.3z"/>
    <path d="m268.11 131.27 8.67 9.71c3.12 3.47 5.29 6.77 5.29 16.22 0 7.89-1.91 12.4-12.05 12.4s-12-4.51-12-12.4v-8.93a1.15 1.15 0 0 1 1.3-1.3h2.68a1.15 1.15 0 0 1 1.3 1.3v8.93c0 4.77 1 7.54 6.68 7.54s6.67-2.77 6.67-7.54c0-5.9-.6-8.24-4.76-12.92l-8.67-9.71c-3.13-3.38-5.29-6.76-5.29-16.22 0-7.8 1.9-12.39 12-12.39s12.05 4.59 12.05 12.39v8.94a1.15 1.15 0 0 1 -1.3 1.3h-2.68a1.16 1.16 0 0 1 -1.31-1.3v-8.94c0-4.76-1-7.54-6.67-7.54s-6.68 2.78-6.68 7.54c0 6.07.66 8.33 4.77 12.92z"/>
    <path d="m328.19 167.86a1.15 1.15 0 0 1 -1.31 1.3h-2.77a1.15 1.15 0 0 1 -1.3-1.3v-60.17a1.15 1.15 0 0 1 1.3-1.3h2.77a1.15 1.15 0 0 1 1.31 1.3z"/>
    <path d="m391.73 137.78a1.15 1.15 0 0 1 1.3 1.3v18.12c0 7.89-1.91 12.4-12 12.4s-12.05-4.51-12.05-12.4v-38.85c0-7.8 1.9-12.39 12.05-12.39s12 4.59 12 12.39v7.2a1.15 1.15 0 0 1 -1.3 1.3h-2.73a1.15 1.15 0 0 1 -1.31-1.3v-7.2c0-4.76-1-7.54-6.67-7.54s-6.68 2.78-6.68 7.54v38.85c0 4.77 1 7.54 6.68 7.54s6.67-2.77 6.67-7.54v-14.57h-6a1.15 1.15 0 0 1 -1.3-1.3v-2.25a1.15 1.15 0 0 1 1.3-1.3z"/>
    <path d="m449.53 107.69a1.15 1.15 0 0 1 1.3-1.3h2.78a1.15 1.15 0 0 1 1.3 1.3v60.17a1.15 1.15 0 0 1 -1.3 1.3h-4.16c-.87 0-1.22-.34-1.48-1.3l-9.36-37.11-2.6-12h-.35l.52 12.31v36.76a1.15 1.15 0 0 1 -1.3 1.3h-2.77a1.15 1.15 0 0 1 -1.3-1.3v-60.13a1.15 1.15 0 0 1 1.3-1.3h4.16c.86 0 1.21.35 1.47 1.3l9.37 37.11 2.6 12h.34l-.52-12.31z"/>
  </g>
</svg>
