<svg id="Layer_1" data-name="Layer 1" xmlns="http://www.w3.org/2000/svg" viewBox="0 0 190.33 190.33">
  <path d="M95.17,0a95.17,95.17,0,1,0,95.16,95.16A95.27,95.27,0,0,0,95.17,0m0,187A91.86,91.86,0,1,1,187,95.16,92,92,0,0,1,95.17,187" fill="#888"/>
  <path d="M47.1,113.89a10.23,10.23,0,0,0,3.24-.53C50.1,110.89,51,109,49.1,109l-1.91,0a2.11,2.11,0,0,0-.13.77c0,.58.29.77.88.77h.66c0,.46,0,1.82,0,1.72-2,.38-3.17-.14-3.19-2.68,0-1.88.66-2.83,2-2.83a3.49,3.49,0,0,1,2,.65,2,2,0,0,0,.83-1.34c-3.08-1.95-6.79-.58-6.76,3.55,0,2.45,1.11,4.26,3.59,4.24" fill="#888"/>
  <path d="M59,113.18c-1-.75-.74-2.65-1.92-3.06a2.55,2.55,0,0,0,.65-4.18c-1.09-.88-2.44-.65-5-.57l-.08.08.05,8.22a5.64,5.64,0,0,0,1.83,0l0-3.07c.5.06,1.29-.27,1.63.77A8.19,8.19,0,0,0,57,113.5a1.34,1.34,0,0,0,1.42.08,1.36,1.36,0,0,0,.52-.4m-3.52-4.05-1,0,0-2.46c1.1,0,2.15-.2,2.16,1.21a1.06,1.06,0,0,1-1.17,1.22" fill="#888"/>
  <path d="M64.78,105.32a6.92,6.92,0,0,0-2.13,0L60,113.47l.07.1a3.52,3.52,0,0,0,1.67.05l.52-1.8c.26,0,2.52,0,2.75,0,.42,1.27.33,1.89,1.47,1.88a1.82,1.82,0,0,0,1-.24Zm-.42,5c-.72,0-1.56,0-1.66,0,0-.18.72-2.38.9-3.35h.06l.94,3.34h-.24" fill="#888"/>
  <path d="M74.23,110.13a3.18,3.18,0,0,0,0-4.24c-1-.91-2.18-.73-4.92-.64l-.08.08.06,8.22a5.74,5.74,0,0,0,1.85,0l0-2.64c.65-.07,2.05.24,3.13-.77m-3.14-.63,0-2.89c.83,0,1.45-.13,1.79.43.55.88.36,2.43-.93,2.44l-.84,0" fill="#888"/>
  <path d="M78.9,105.2a6,6,0,0,0-1.85,0l.06,8.27a5.74,5.74,0,0,0,1.85,0c0-.1,0-3.72,0-3.5l2.73,0c0,4.8,0,3.14,0,3.5a5.8,5.8,0,0,0,1.86,0l-.06-8.28a6.11,6.11,0,0,0-1.86,0c0,.11,0,3.47,0,3.25l-2.73,0C78.91,108.35,78.9,105,78.9,105.2Z" fill="#888"/>
  <path d="M88,113.42,88,105.14a5.8,5.8,0,0,0-1.86,0l.06,8.28a6.11,6.11,0,0,0,1.86,0" fill="#888"/>
  <path d="M96.45,111.61a2.3,2.3,0,0,0-.54-.54c-2.11,1.57-3.77,1.08-3.79-1.84,0-1.28.19-2.84,1.48-2.85,1.1,0,1.38.85,1.41,2,2.15.55,2.21-1.62.88-2.71a3.61,3.61,0,0,0-4.75.41c-1.2,1.35-1.18,4.12-.5,5.67,1.1,2.54,4.46,2.25,6.14.55a1.51,1.51,0,0,0-.33-.64" fill="#888"/>
  <path d="M106.48,113.21a2.89,2.89,0,0,0,2.07-2,7.88,7.88,0,0,0,0-4.2c-.85-2.56-3.59-2.14-6.29-2l-.08.08.06,8.16.08.08c2.86,0,3.35.08,4.19-.13M104,111.93l0-5.53c.71.22,2.89-1,2.92,2.75,0,1.84-.54,2.77-1.65,2.78H104" fill="#888"/>
  <path d="M116.26,105.64a3.29,3.29,0,0,0-.07-.7L111,105l-.09.08c.14,7-.38,8.23,1.13,8.22l3.27,0c1,0,1.22-.64,1.21-1.56-2.93,0-2.9,0-3.74,0v-1.91l2.71,0a2.7,2.7,0,0,0,0-1.52c-1.75,0-2.22,0-2.71,0,0-.1,0-1.93,0-1.81l3.36,0a2.75,2.75,0,0,0,.14-.85" fill="#888"/>
  <path d="M124.12,110.76c0-2.72-4.05-2.52-4.06-3.76,0-.37.31-.78,1-.79a5.23,5.23,0,0,1,2.19.58,2.09,2.09,0,0,0,.62-1.4c-4.94-2.51-7.79,2.44-4,4.07.92.47,2.24.64,2.25,1.56,0,.45-.34.85-1.06.85a4.7,4.7,0,0,1-2.45-.78,2.16,2.16,0,0,0-.72,1.39c2.43,1.54,6.21,1.15,6.19-1.72" fill="#888"/>
  <path d="M128,113.13l-.06-8.27a5.74,5.74,0,0,0-1.85,0l.06,8.28a6,6,0,0,0,1.85,0" fill="#888"/>
  <path d="M134.13,106.17a3.57,3.57,0,0,1,2,.65,2,2,0,0,0,.83-1.34,5.35,5.35,0,0,0-2.94-.85c-4,0-4.76,5.22-2.89,7.52,1.25,1.56,4,1.25,5.9.59l0-3.17c0-1.27-1.09-1.11-1.24-1.16l-1.89,0c-.15.38-.24,1.1.08,1.36a1,1,0,0,0,.67.17h.66c0,.44,0,1.82,0,1.72-2,.38-3.18-.15-3.19-2.69,0-1.88.66-2.82,2-2.83" fill="#888"/>
  <path d="M141.65,108.6l2,4.42a6.47,6.47,0,0,0,2.19,0l-.06-8.24-.08-.07c-.41,0-1.06-.1-1.39.26a1.25,1.25,0,0,0-.24.86c0,1.21,0,2.88.18,5.2h0c-3.8-8.54-2.49-5.59-2.78-6.23a6.55,6.55,0,0,0-2.16,0l.05,8.24a5,5,0,0,0,1.72,0c0-2,0-3.64-.18-6.13h0c.13.33.36.9.71,1.7" fill="#888"/>
  <path d="M55.32,121.2c1.1,0,1.38.84,1.4,1.94.93.25,1.76.08,1.75-.93,0-2.55-3.84-3.35-5.61-1.37-1.2,1.34-1.19,4.1-.5,5.68,1.1,2.54,4.46,2.25,6.14.55a2.29,2.29,0,0,0-.87-1.18c-2.11,1.56-3.78,1.08-3.8-1.85,0-1.29.21-2.83,1.49-2.84" fill="#888"/>
  <path d="M63.34,125.26c.78.68.61,3,1.93,3a1.61,1.61,0,0,0,1.28-.56c-1-.75-.74-2.65-1.93-3.06a2.54,2.54,0,0,0,.65-4.18c-1.08-.87-2.45-.65-5-.57l-.09.08.06,8.22a5.91,5.91,0,0,0,1.83,0l0-3.08c.29,0,.93-.09,1.27.19m-1.28-1.61,0-2.46c1.05,0,2.15-.22,2.16,1.21s-.94,1.2-2.14,1.25" fill="#888"/>
  <path d="M68.28,128.19a3.94,3.94,0,0,0,.82-.08l.52-1.8c.24,0,2.44,0,2.75,0,.41,1.26.33,1.89,1.47,1.88a1.79,1.79,0,0,0,1-.24l-2.67-8.12a7.31,7.31,0,0,0-2.14,0L67.35,128l.07.1a2.32,2.32,0,0,0,.86.13m2.65-6.68H71l.94,3.34c-1.6,0-2,0-1.9,0C70.08,124.68,70.76,122.47,70.93,121.51Z" fill="#888"/>
  <path d="M76.29,119.84l0,8.2a5.8,5.8,0,0,0,1.86,0l0-3.37,2.63,0a3,3,0,0,0,0-1.51l-2.63,0c0-.56,0-1.26,0-1.82,1.9-.17,3.46.42,3.45-.89a3.33,3.33,0,0,0-.09-.71l-5.13,0Z" fill="#888"/>
  <path d="M88.34,119.68l-5.94,0a5.3,5.3,0,0,0,0,1.54l2,0c.05,9.25,0,6.06,0,6.75a6,6,0,0,0,1.85,0c0-.1-.06-7.2-.06-6.75C86.56,121.06,89.06,121.92,88.34,119.68Z" fill="#888"/>
  <path d="M95.17,120.34a3.48,3.48,0,0,0-.06-.71l-5.18,0-.08.09c.13,7-.39,8.23,1.12,8.22l3.27,0c1.06,0,1.23-.67,1.22-1.56-2.93,0-2.77,0-3.75,0v-1.91l2.71,0a2.59,2.59,0,0,0,0-1.51c-1.73,0-2.1,0-2.71,0,0-.11,0-1.93,0-1.82l3.36,0a2.47,2.47,0,0,0,.14-.84" fill="#888"/>
  <path d="M103.68,125.81a8,8,0,0,0,0-4.2c-.84-2.49-3.47-2.14-6.29-2l-.08.09,0,8.15.09.09c2.75,0,5.46.48,6.26-2.11m-3.28.69H99.17l0-5.54c.71.23,2.89-.94,2.91,2.76,0,1.84-.53,2.77-1.64,2.77" fill="#888"/>
  <path d="M113.41,121.47h.09c.22,2.08.86,5.63.84,5.53.11.6.33.84,1.32.84.44,0,.91,0,1.4-.1l1.57-8.1-.09-.12a3.83,3.83,0,0,0-1.71,0c-.43,2.68-.82,4.64-1,6.75-.09,0-.12,0-.13-.17l-1-6.41a8.18,8.18,0,0,0-2.37,0l-1,6.59c-.12,0-.1,0-.15-.54s-.91-5.39-.89-5.28c-.11-.72-.33-1-1-1a2.54,2.54,0,0,0-1,.23c1.75,8.21,1.19,8.23,2.81,8.22a12.74,12.74,0,0,0,1.43-.09C113,124.26,113.2,123.3,113.41,121.47Z" fill="#888"/>
  <path d="M120.34,119.45l.06,8.28a6,6,0,0,0,1.85,0l-.06-8.28a6,6,0,0,0-1.85,0" fill="#888"/>
  <path d="M129.72,119.39l-5.94,0a4.69,4.69,0,0,0,0,1.54l2,0c0,9.25,0,6.06,0,6.75a5.81,5.81,0,0,0,1.86,0c0-.1-.07-7.2-.06-6.75C127.93,120.76,130.44,121.63,129.72,119.39Z" fill="#888"/>
  <path d="M135.85,127.62a6,6,0,0,0,1.85,0l-.06-8.28a6,6,0,0,0-1.85,0c0,.11,0,3.47,0,3.25H133.1c0-4.45,0-2.91,0-3.25a5.81,5.81,0,0,0-1.86,0l.06,8.27a5.81,5.81,0,0,0,1.86,0c0-.1,0-3.72,0-3.5l2.73,0C135.84,124.22,135.85,127.84,135.85,127.62Z" fill="#888"/>
  <path d="M75.26,139.21c1.33-1.23,1.3-5-2.16-5-.5,0-1.42,0-2.78.07l-.08.08.06,8.22a6,6,0,0,0,1.85,0l0-2.64c.64-.07,2.05.24,3.13-.77m-3.14-.63,0-2.89c.88,0,1.45-.12,1.79.42.55.89.37,2.44-.93,2.45l-.84,0" fill="#888"/>
  <path d="M77.41,142.67a3.75,3.75,0,0,0,.81-.08l.52-1.8c.23,0,2.46,0,2.75,0,.42,1.27.34,1.89,1.47,1.88a1.85,1.85,0,0,0,1-.24l-2.68-8.12a6.92,6.92,0,0,0-2.13,0l-2.63,8.15.07.1a2.29,2.29,0,0,0,.86.13M80.06,136h.06l.94,3.34h-1.9C79.21,139.18,79.88,137,80.06,136Z" fill="#888"/>
  <path d="M89.22,137.72c-.94-.46-2.21-.66-2.22-1.4,0-.37.32-.78,1-.78a5.08,5.08,0,0,1,2.18.58,2.08,2.08,0,0,0,.62-1.4c-5-2.55-7.75,2.44-4,4.06.91.47,2.25.64,2.25,1.56,0,.45-.34.85-1.06.86a4.81,4.81,0,0,1-2.45-.79,2.19,2.19,0,0,0-.72,1.39,5.9,5.9,0,0,0,3,.89c3.09,0,3.77-2.59,2.66-4a3.44,3.44,0,0,0-1.36-1" fill="#888"/>
  <path d="M95.3,142.64c3.72,0,4.15-3.76,1.3-5l-1.46-.6c-1.58-.67-.68-2.49,2.45-1a2,2,0,0,0,.62-1.4c-5-2.54-7.75,2.45-4,4.07l1.43.59c1.79.79.6,3-2.69,1a2.21,2.21,0,0,0-.72,1.39,6,6,0,0,0,3,.89" fill="#888"/>
  <path d="M100.34,134.14l.06,8.28a6.09,6.09,0,0,0,1.86,0l-.06-8.28a5.8,5.8,0,0,0-1.86,0" fill="#888"/>
  <path d="M107.9,142.55c4.45,0,4.19-6.28,2.23-7.9-1.83-1.47-5.87-1.12-5.83,3.6,0,3,1.55,4.31,3.6,4.3m-.05-7.21c1.09,0,1.65.95,1.66,2.87s-.53,2.9-1.62,2.91-1.65-1-1.66-2.88.52-2.9,1.62-2.9" fill="#888"/>
  <path d="M115.78,137.87l2,4.42a6.46,6.46,0,0,0,2.19,0L120,134l-.08-.07c-.4,0-1.06-.1-1.39.26a1.26,1.26,0,0,0-.24.87c0,1.2,0,2.86.18,5.19l-.05,0c-3.8-8.55-2.48-5.6-2.77-6.24a6.6,6.6,0,0,0-2.17.05l.06,8.24a4.74,4.74,0,0,0,1.72,0c0-1.93,0-3.66-.19-6.13h0c.13.33.36.9.7,1.7" fill="#888"/>
  <path d="M138.29,143a3.27,3.27,0,0,0-2.47.7l-5.92,4.34c-1.72,1.26-2,3-1.45,4.15a15.37,15.37,0,0,0,1.38,2.15c4.29-3.18,5.33-3.84,6.95-5.24,8.5,11.21,9,13.44,11.35,13.44,1.44,0,2.43-1.16,3.67-2l.09-.54c-11.72-15.5-11.44-16.7-13.6-17" fill="#888"/>
  <path d="M123.44,152.8a3.17,3.17,0,0,0-2.55,0l-8.14,2.91c-3,1.06-2.85,3-1.91,5.59l.09.26c7.64-2.74,7.24-2.55,9.31-3.38l1.41,4L115,164.56a7.48,7.48,0,0,0,.47,2.4,6.9,6.9,0,0,0,1.14,2.09c3.81-1.37,5.34-1.89,6.65-2.4l1.38,3.81-8.23,2.94a7.57,7.57,0,0,0,1.26,4.52l.11.19,13.51-4.82.23-.49c-6.73-18-6.12-19.06-8.07-20" fill="#888"/>
  <path d="M110.3,175.05l-.06-.21-5.35.44-1.37-17.76a16.54,16.54,0,0,0-5.7.43c.15,1.82-.51-6.58,1.4,17.76-1.89.22-3.91,0-4.94,1s-.59,3-.16,4.13l.07.19,16.43-1.26a12.23,12.23,0,0,0-.32-4.68" fill="#888"/>
  <path d="M83.61,174.86l3.29-17.51a16,16,0,0,0-5.62-1.06c-.33,1.79,1.21-6.48-3.26,17.52-2.47-.37-5.51-1.81-6.12,1.43a7.39,7.39,0,0,0-.11,2.36l16.19,3a11.92,11.92,0,0,0,.91-4.82Z" fill="#888"/>
  <path d="M74.45,155.32a3.2,3.2,0,0,0-1.79-1.81l-7.83-3.66c-2.87-1.34-4.12.12-5.29,2.64l-.12.25c7.35,3.41,7.06,3.33,9,4.14l-1.84,3.86-6.41-3a7.35,7.35,0,0,0-1.35,2,6.58,6.58,0,0,0-.66,2.29c5,2.32,5.38,2.51,6.41,3l-1.68,3.69L55,165l-.13.13a8.25,8.25,0,0,0-2.21,4.19l13,6.06.51-.19c7.89-17.54,9-17.85,8.32-19.9" fill="#888"/>
  <path d="M55.17,143.21l-5.36,6-.79-.7a2.32,2.32,0,0,1-.66-3c1.11-2.81,2.12-4.55,2.06-6s-1.73-2.65-3-3a3.63,3.63,0,0,0-2.22-.11,4.26,4.26,0,0,1-.31,3c-.7,2.07-2.15,4.13-1.46,6.27-5.47-1.42-11,4.92-7.57,10.43,1.23,2,3.69,3.95,8.19,7.7l.55,0L59.44,147A16.52,16.52,0,0,0,55.17,143.21Zm-8.38,9.44L42.91,157c-1.56-1.53-4-2.82-1.73-5.43,2-2.27,3.34-.93,5.61,1.08" fill="#888"/>
  <path d="M41.81,127.8l-6,3.47c-.57-.67-2.89-7.17-8.95-6.3a10.09,10.09,0,0,0-5.94,3.43c-3.76,4.75.18,9.39,3.88,15.44l.52.14,19.33-11.24A16.43,16.43,0,0,0,41.81,127.8ZM32,133.51l-6,3.52c-.26-.51-1.11-1.94-1.05-1.84-.93-1.6.09-3.06,1.69-4a3.3,3.3,0,0,1,3.49-.32c.6.37.77.8,1.83,2.49Z" fill="#888"/>
  <path d="M35.19,113.3l-7.78,2.15c-.14-1-1.28-2.41.82-3.92,2.44-1.75,4.25-2.66,5-3.9s0-3.16-.86-4.19a3.77,3.77,0,0,0-1.81-1.31,4.19,4.19,0,0,1-1.88,2.34c-1.7,1.35-4,2.29-4.63,4.47-3.86-4.21-11.89-1.79-12,4.63-.05,2.16.53,3.72,2.69,10.91l.47.27,21.56-5.94A16.45,16.45,0,0,0,35.19,113.3ZM17,113.94a4.17,4.17,0,0,1,3.61-1.4c1.53.33,1.86,2.06,2.43,4.11L17.4,118.2c-.44-1.9-1.09-3.13-.42-4.26" fill="#888"/>
  <path d="M29.16,98.66a3,3,0,0,0,3.22-3.13l.36-8.63c.09-2.09-.78-3.34-2.58-3.7A18.87,18.87,0,0,0,28,83c-.32,7.9-.36,7.73-.36,9.9l-4.28-.21.3-7.07-.19-.07a8.38,8.38,0,0,0-4.58-.13c-.2,4.93-.26,5.87-.27,7.07l-4.05-.14.37-8.74a7.73,7.73,0,0,0-4.67-.54l-.22,0c-.07,1.65.24-5.62-.6,14.32l.37.41c25.72,1.08,17.8.81,19.34.81" fill="#888"/>
  <path d="M15.61,73.85a6.37,6.37,0,0,0,6.45,1.62A9.8,9.8,0,0,0,25.6,73l2.81-3.06C30.49,67.65,33,69,32,71.69c-1.08,3-3.46,4.71-4.27,5.51a5.88,5.88,0,0,0,1.33,2.13,5.7,5.7,0,0,0,2,1.48l.13-.1c5.12-4,8.1-12.25,3.79-16.27a7,7,0,0,0-6.67-1.64,9,9,0,0,0-3.87,2.66l-2.87,3.12c-1.48,1.66-2.68,1.26-3.14.14-.75-1.8,1.95-5.17,3.5-6.71l.13-.12a5.58,5.58,0,0,0-3.3-3.29l-.17-.07c-.4.48-5,4.6-5.06,9.91a7.39,7.39,0,0,0,2,5.41" fill="#888"/>
  <path d="M25.4,50.87a6.38,6.38,0,0,0,5.68,3.46A9.8,9.8,0,0,0,35.2,53l3.6-2.09c2.65-1.52,4.65.5,2.93,2.79-1.92,2.57-4.7,3.47-5.71,4v.2a6.47,6.47,0,0,0,2.13,4.24c.1,0,6.74-2.25,8.94-8.58a6.74,6.74,0,0,0-2.3-8.1,6.32,6.32,0,0,0-3.92-1.33A9,9,0,0,0,36.4,45.5l-3.66,2.13c-1.89,1.14-2.94.42-3.05-.8-.17-1.95,3.41-4.37,5.33-5.37l.16-.08A5.72,5.72,0,0,0,33,37.27l-.14-.12-.17.08c-5.5,2.76-9.92,8.53-7.3,13.64" fill="#888"/>
  <path d="M55.1,44.83l.53.14,4.27-2.44h0c2.87-1.65,6-3.23,7.22-6.21,1.63-4-2.18-9.11-6.68-8.66,2.23-4.16-2.09-11.1-10.06-6.34-1.87,1.12-4.74,2.93-6.47,4l-.14.53Zm.06-11c1.54-.79,3-2.21,4.47-1.69a3.34,3.34,0,0,1,2.16,3.29c-.25,1.71-2.12,2.38-3.67,3.35Zm-2.83-8.68a2.52,2.52,0,0,1,2-.45,2.71,2.71,0,0,1,1.73,2.86c-.19,1.23-1.92,1.82-3.08,2.62l-2.39-4c.19-.1.39-.21.62-.35Z" fill="#888"/>
  <path d="M77.22,34.45l-1.94-7.84c1.5-.27,2.56-1,3.89.92,2.22,3.19,3.07,6,5.91,5.32a5.47,5.47,0,0,0,2.07-1,3.72,3.72,0,0,0,1.35-1.77,4.23,4.23,0,0,1-2.28-1.95C84.91,26.39,84,24,81.87,23.39c4.76-4.14,1.81-14.12-7.66-11.77-2.11.53-5.56,1.46-7.64,2l-.29.47,5.4,21.7A15.85,15.85,0,0,0,77.22,34.45ZM72.78,16.54c2.15-.43,4.61-1.76,5.46,1.64.73,2.95-1.11,3.28-4.06,4Z" fill="#888"/>
  <path d="M94.42,31.9l1.72-4.53c.74.09,6.15.49,6.75.51l.41,2c.53,2.46,1.31,3.13,3.57,3.3a5.36,5.36,0,0,0,2.94-.54L104.37,9.93A19.84,19.84,0,0,0,98,9.41L89.08,30.89l.25.46C89.48,31.37,90.65,32.24,94.42,31.9Zm3.44-9c1.24-3.24,2.18-6.05,2.61-7.45.61,3.45,1.5,7.86,1.48,7.76C101.18,23.08,100.12,23,97.86,22.85Z" fill="#888"/>
  <path d="M122.33,38.19c5.1.89,8.36-2.9,10.4-7.71,2.76-6.53,2-11.75-4.58-14.5-3.1-1.32-4.86-2-7.7-3.11l-.5.21-8.6,20.34.21.51C117.77,36.71,119.85,37.75,122.33,38.19Zm-4.13-6.3,5.43-12.84c2.51,1.17,4.45,1.37,4.79,3.86.36,2.7-1.9,8.1-4.11,9.73-2,1.47-3.36.29-6.11-.75" fill="#888"/>
  <path d="M142.88,54.2,163,43.3l.08-.53c-.09-.1-.47-1.62-3.41-3.76l-15.4,9.09c1.43-2,2.53-3.58,3.28-4.83,4.56-7.88,5.67-8.83,5.67-10.45s-2-3-3.67-3.69l-.23-.09L138.89,46.73C137.41,49.4,138.94,50.72,142.88,54.2Z" fill="#888"/>
  <path d="M148.25,59.69a3.22,3.22,0,0,0,.34,2.53l4.08,7.61c.92,1.73,2.26,2.52,4.1,1.87a15.9,15.9,0,0,0,2-.93c-3.87-7.21-3.61-6.82-4.72-8.71l3.79-2,3.33,6.24.2,0a7.9,7.9,0,0,0,4-2.21c-2.12-4-2.69-5.08-3.36-6.23l3.56-1.94,4.13,7.72A7.69,7.69,0,0,0,174,61.69l.17-.14-6.76-12.64-.53-.16C150.05,58,148.9,57.61,148.25,59.69" fill="#888"/>
  <path d="M171.82,69c0,.1,1.34,5.56,1.26,5.22l-17.34,4.09A17.05,17.05,0,0,0,157,83.61l.09.21,17.33-4.12c.6,2,.5,5.12,3,5.12a6.93,6.93,0,0,0,2.85-.86l.18-.1-3.78-16A11.52,11.52,0,0,0,171.82,69Z" fill="#888"/>
  <path d="M176,88.51c0,.11,0,5.72,0,5.38l-17.81-.23,0,.22a17.34,17.34,0,0,0,0,5.49l17.81.2c.07,2.68-.83,5.78,2.59,5.78a7.46,7.46,0,0,0,2-.24l.2-.06.21-16.47A12.23,12.23,0,0,0,176,88.51Z" fill="#888"/>
  <path d="M158.35,105.84a3.19,3.19,0,0,0-1.48,2.09l-2.19,8.35c-.83,3.16,1,4.07,3.54,4.74l.26.07c2-7.71,2-7.45,2.47-9.59l4.13,1.11-1.8,6.85a7.63,7.63,0,0,0,2.25,1,6.75,6.75,0,0,0,2.37.25c1.24-4.77,1.5-5.69,1.77-6.85l3.93,1-2.22,8.46.15.11a8.13,8.13,0,0,0,4.51,1.42l3.65-13.87-.28-.47C160.79,105.86,160.23,104.77,158.35,105.84Z" fill="#888"/>
  <path d="M153,121.65a17,17,0,0,0-2.87,4.68l-.08.22,6.92,4.16c-.88,1.27-1.08,2.54-3.4,2.11-4.2-.81-6.5-2-7.94.42a4.82,4.82,0,0,0-.46,4.38,4.13,4.13,0,0,1,3-.25c2.13.3,4.44,1.36,6.42.28-.34,4.81,4.88,8.44,9.14,7,3.76-1.26,5.2-5.4,8.57-11l-.13-.53Zm12.86,14.41c-1.25,1.86-2,4.51-5,2.71-2.62-1.59-1.52-3.14,0-5.72Z" fill="#888"/>
  <path d="M143.39,94.47a1.65,1.65,0,0,0-1.65-1.65h-96a1.66,1.66,0,0,0,0,3.31h96a1.65,1.65,0,0,0,1.65-1.66" fill="#888"/>
  <path d="M77.6,49.9a6,6,0,0,0-1.15.08c-.35,1.44-.94,3.56-1.16,4.93h-.07C75,53.5,74,49.88,74.06,50a7.92,7.92,0,0,0-2.28,0l-.6,7.75a4.6,4.6,0,0,0,1.65,0c.16-3,.24-3.79.27-5.89h.08l1.18,4.73a6.7,6.7,0,0,0,1.79,0l1.18-4.73h.08c0,1.39.28,6,.28,5.89a4.54,4.54,0,0,0,1.64,0L78.72,50a5.65,5.65,0,0,0-1.12-.08" fill="#888"/>
  <path d="M86.5,50.51a3.56,3.56,0,0,0-4.29,0c-1.86,1.55-2,7.41,2.15,7.41s4-5.88,2.14-7.41m-2.15,6.07c-1,0-1.54-.91-1.54-2.72s.51-2.72,1.54-2.72,1.55.9,1.55,2.72-.52,2.72-1.55,2.72" fill="#888"/>
  <path d="M94.57,50.48c-1-.81-3.14-.6-4.89-.54L89.6,50v7.67l.08.08c2.55.06,5.14.5,5.91-1.93a7.5,7.5,0,0,0,0-4,2.83,2.83,0,0,0-1-1.4m-2.07,6H91.33V51.25c.68.22,2.73-.87,2.73,2.61,0,1.74-.52,2.6-1.56,2.6" fill="#888"/>
  <path d="M102.75,50.63a3.13,3.13,0,0,0-.06-.67H97.82l-.08.08c.08,6.45-.44,7.75,1,7.75h3.08c1,0,1.15-.6,1.15-1.46-2.67,0-2.72,0-3.52,0,0-.1,0-1.92,0-1.8H102a2.57,2.57,0,0,0,0-1.43H99.46c0-.1,0-1.82,0-1.71h3.16a2.44,2.44,0,0,0,.14-.79" fill="#888"/>
  <path d="M110,53.68a2.48,2.48,0,0,0-.34-3.16c-1-.84-2.3-.63-4.69-.58l-.08.08v7.73a5.58,5.58,0,0,0,1.73,0V54.86c.45,0,1.21-.25,1.52.74a7.66,7.66,0,0,0,.85,2,1.38,1.38,0,0,0,1.82-.3c-.91-.71-.68-2.49-1.79-2.89a2.14,2.14,0,0,0,1-.76m-2.47-.18-.91,0V51.21c1,0,2-.19,2,1.15,0,.76-.36,1.14-1.1,1.14" fill="#888"/>
  <path d="M114.58,53.58l1.89,4.17a6.56,6.56,0,0,0,2.07,0V50l-.08-.06c-.37,0-1-.1-1.31.24a1.11,1.11,0,0,0-.23.81c0,1.07,0,2.73.14,4.89h0L114.44,50a6.1,6.1,0,0,0-2,0v7.75a4.89,4.89,0,0,0,1.62,0c0-1.74.06-3.44-.13-5.77h0c.12.31.33.85.65,1.61" fill="#888"/>
  <path d="M58.17,64.26c-1-.86-2.06-.7-4.62-.64l-.08.08v7.73a5.14,5.14,0,0,0,1.75,0V69c.59-.06,1.92.24,2.94-.7a3,3,0,0,0,0-4m-1.1,2.62c-.24.88-1.16.73-1.85.76V64.91c.82,0,1.36-.1,1.68.42a2.08,2.08,0,0,1,.17,1.55" fill="#888"/>
  <path d="M65.82,67.36c.93-1.24.52-3.78-2.33-3.78-.51,0-1.41,0-2.69,0l-.08.08v7.73a5,5,0,0,0,1.72,0V68.54c.46.06,1.22-.24,1.53.74a7.72,7.72,0,0,0,.84,2,1.39,1.39,0,0,0,1.83-.3c-.91-.71-.68-2.49-1.79-2.88a2.09,2.09,0,0,0,1-.77m-2.46-.18-.92,0V64.89c1,0,2-.18,2,1.15a1,1,0,0,1-1.1,1.14" fill="#888"/>
  <path d="M70.05,63.65a5.14,5.14,0,0,0-1.75,0v7.78a5.71,5.71,0,0,0,1.75,0Z" fill="#888"/>
  <path d="M74.61,67.26l1.89,4.17a6.21,6.21,0,0,0,2.06,0V63.65l-.08-.07c-.36,0-1-.1-1.31.24a1.17,1.17,0,0,0-.22.81c0,1.11-.06,2.71.13,4.89h0l-2.57-5.88a5.84,5.84,0,0,0-2,0v7.75a4.64,4.64,0,0,0,1.62,0c0-1.74.06-3.44-.14-5.77h0c.11.31.33.85.65,1.61" fill="#888"/>
  <path d="M80.08,64.37a4,4,0,0,0,.06.72h1.92c0,8.71,0,5.7,0,6.35a5.71,5.71,0,0,0,1.75,0c0-.1,0-6.76,0-6.35.25-.15,2.58.68,1.93-1.43H80.14a4,4,0,0,0-.06.72" fill="#888"/>
  <path d="M87.29,63.65v7.78a5.64,5.64,0,0,0,1.74,0V63.65a5.08,5.08,0,0,0-1.74,0" fill="#888"/>
  <path d="M93.45,63.65a5.84,5.84,0,0,0-2,0v7.75a4.41,4.41,0,0,0,1.62,0c0-1.73.06-3.44-.13-5.77h0c.51,1.4,2.59,5.88,2.54,5.78a6.27,6.27,0,0,0,2.07,0V63.65l-.08-.07c-.36,0-1-.1-1.31.24a1.12,1.12,0,0,0-.23.81c0,1-.05,2.72.14,4.89h0C92.5,61.47,93.72,64.25,93.45,63.65Z" fill="#888"/>
  <path d="M103.16,64.92a3.36,3.36,0,0,1,1.88.63,1.83,1.83,0,0,0,.78-1.25,5,5,0,0,0-2.75-.83c-3.76,0-4.53,4.87-2.77,7.06,1.17,1.47,3.77,1.2,5.55.6-.22-2.33.62-4.09-1.14-4.09h-1.8c-.14.36-.23,1,.06,1.29a1,1,0,0,0,.63.16h.63c0,.41,0,1.72,0,1.62-1.94.36-3-.2-3-2.55,0-1.76.64-2.65,1.94-2.65" fill="#888"/>
  <path d="M112,71.35a5.33,5.33,0,0,0,2.22.07c.52-3.22.73-4.28.92-5.93h.09c.06.55.17,1.44.34,2.67.61,3.22-.08,3.61,3,3.26l1.53-7.61-.08-.12a3.53,3.53,0,0,0-1.61,0l-.68,3.91c-.42,2.48-.29,2.52-.43,2.4s-1-6.27-.94-6.17a8.4,8.4,0,0,0-2.24,0l-1,6.19c-.18,0,0,.12-.43-2.4-.58-3.25-.35-4-1.47-4a2.28,2.28,0,0,0-.93.21C111.69,70.55,111.54,71.08,112,71.35Z" fill="#888"/>
  <path d="M121.8,63.65v7.78a5.64,5.64,0,0,0,1.74,0V63.65a5.08,5.08,0,0,0-1.74,0" fill="#888"/>
  <path d="M125.15,63.65a4.35,4.35,0,0,0,0,1.44h1.93c0,8.71,0,5.7,0,6.35a5.71,5.71,0,0,0,1.75,0c0-.1,0-6.76,0-6.35h.72c.64,0,1.31.09,1.31-.75a2.36,2.36,0,0,0-.09-.69Z" fill="#888"/>
  <path d="M134,63.65a5.08,5.08,0,0,0-1.74,0v7.78a5.08,5.08,0,0,0,1.74,0c0-.1,0-3.51,0-3.29h2.56c0,4.51,0,3,0,3.29a5.14,5.14,0,0,0,1.75,0V63.65a5.14,5.14,0,0,0-1.75,0c0,.1,0,3.25,0,3.05H134Z" fill="#888"/>
  <path d="M44.47,82.63c.6-.06,1.92.24,3-.7a3,3,0,0,0,0-4c-1-.86-2.05-.7-4.62-.64l-.08.08v7.73a5.14,5.14,0,0,0,1.75,0Zm0-4c.82,0,1.37-.1,1.68.42.48.79.36,2.3-.89,2.3h-.79Z" fill="#888"/>
  <path d="M49.62,77.3l-.08.08v7.73a5,5,0,0,0,1.72,0V82.22c.64,0,1.24-.17,1.53.74.55,1.46.58,2.26,1.46,2.26a1.51,1.51,0,0,0,1.21-.53c-.91-.71-.69-2.49-1.79-2.88a2.22,2.22,0,0,0,1.39-2.09c0-2.86-2.82-2.48-5.44-2.42m3.66,2.42c0,1.27-.89,1.13-2,1.16V78.57c1,0,2-.18,2,1.15" fill="#888"/>
  <path d="M56.69,77.33v7.79a5.7,5.7,0,0,0,1.75,0V77.33a5.7,5.7,0,0,0-1.75,0" fill="#888"/>
  <path d="M60.39,77.38v7.68l.08.08c2.57.06,5.15.46,5.9-1.94a7.46,7.46,0,0,0,0-4c-.77-2.38-3.38-2-5.9-2Zm1.73,1.24c.66.21,2.72-.89,2.72,2.61,0,1.73-.52,2.6-1.56,2.6-.17,0-1.31,0-1.16,0Z" fill="#888"/>
  <path d="M68.09,77.41c.08,6.45-.44,7.74,1,7.74h3.07c1,0,1.16-.6,1.16-1.46-2.77,0-2.66,0-3.53,0,0-.1,0-1.91,0-1.8h2.56a2.45,2.45,0,0,0,0-1.42c-1.56,0-2.06,0-2.56,0,0-.11,0-1.82,0-1.71H73A2.85,2.85,0,0,0,73,77.33H68.17Z" fill="#888"/>
  <path d="M76.63,85l.07.09a3.24,3.24,0,0,0,1.57.06l.51-1.69c.22,0,2.36,0,2.58,0,.38,1.17.29,1.78,1.37,1.78a1.82,1.82,0,0,0,.9-.22l-2.46-7.66a6.77,6.77,0,0,0-2,0Zm3.41-6h.06L81,82.08H79.17S79.88,79.83,80,78.93Z" fill="#888"/>
  <path d="M86.81,77.33a6.37,6.37,0,0,0-2,0v7.75a4.41,4.41,0,0,0,1.62,0c0-1.73.06-3.43-.14-5.76l0,0c.51,1.39,2.59,5.88,2.54,5.78a6,6,0,0,0,2.07,0V77.33l-.08-.07c-.37,0-1-.1-1.31.24a1.12,1.12,0,0,0-.23.81V79.9c0,1.15,0,2.25.13,3.3h0C85.86,75.15,87.08,77.93,86.81,77.33Z" fill="#888"/>
  <path d="M95.72,77.26c-1,0-1.94,0-2.82,0l-.08.07v7.68l.08.08c3.46.08,6.17.59,6.17-3.92,0-2.41-.93-4-3.35-4m0,6.57H94.55V78.62c.68.21,2.73-.88,2.73,2.61,0,1.73-.52,2.6-1.56,2.6" fill="#888"/>
  <path d="M105.88,77.26c-.47,0-1.34,0-2.61,0l-.08.08v7.73a5.08,5.08,0,0,0,1.74,0V82.63c.61-.06,1.93.24,2.95-.7,1.25-1.15,1.25-4.67-2-4.67m.9,3.31c-.23.86-1.13.72-1.85.75V78.59c.82,0,1.37-.1,1.68.42a2,2,0,0,1,.17,1.56" fill="#888"/>
  <path d="M109.42,85.19a3.72,3.72,0,0,0,.77-.06l.5-1.69c.23,0,2.36,0,2.59,0a4,4,0,0,0,.61,1.58,1.75,1.75,0,0,0,1.65,0l-2.46-7.66a6.77,6.77,0,0,0-2,0L108.54,85l.07.09a2.31,2.31,0,0,0,.81.12M112,78.93H112l.87,3.15h-1.79S111.79,79.82,112,78.93Z" fill="#888"/>
  <path d="M119,83.88a4.54,4.54,0,0,1-2.31-.75,2.09,2.09,0,0,0-.68,1.3c1.46.95,3.86,1.24,5.07.18s1.21-3-1-4l-1.36-.57c-1.47-.64-.64-2.35,2.31-.93a1.93,1.93,0,0,0,.59-1.31c-4.49-2.33-7.45,2.19-3.77,3.79.78.41,2.11.61,2.11,1.49,0,.42-.33.79-1,.79" fill="#888"/>
  <path d="M122.74,79.52a2.25,2.25,0,0,0,1.62,2.08l1.34.57c1.66.75.57,2.85-2.54,1a2,2,0,0,0-.68,1.3,5.56,5.56,0,0,0,2.86.86c3.5,0,3.92-3.52,1.25-4.67-.91-.45-2.07-.63-2.07-1.33,0-.36.32-.73,1-.73a4.92,4.92,0,0,1,2.05.56,2,2,0,0,0,.59-1.31c-2.48-1.29-5.39-.6-5.39,1.71" fill="#888"/>
  <path d="M129.68,77.33v7.79a5.7,5.7,0,0,0,1.75,0V77.33a5.71,5.71,0,0,0-1.75,0" fill="#888"/>
  <path d="M138.43,84.57a4.14,4.14,0,0,0,1.22-3.35c0-4.44-3.81-4.73-5.51-3.35s-1.65,5.33,0,6.7a3.56,3.56,0,0,0,4.29,0m-3.7-3.35c0-1.81.52-2.72,1.55-2.72s1.54.91,1.54,2.72-.51,2.72-1.54,2.72-1.55-.91-1.55-2.72" fill="#888"/>
  <path d="M147.23,85.08V77.33l-.08-.07c-.3.13-1.54-.43-1.54,1,0,1.1-.05,2.71.14,4.89h-.05l-2.56-5.88a6.15,6.15,0,0,0-2,0v7.76a4.89,4.89,0,0,0,1.62,0c0-1.74.06-3.44-.13-5.77l0,0c.51,1.39,2.59,5.89,2.55,5.79a6.22,6.22,0,0,0,2.06,0" fill="#888"/>
</svg>
