<svg xmlns="http://www.w3.org/2000/svg" viewBox="0 0 244.55 144.05">
  <path fill="#e6c200" d="m14.84 0h32.41c8.83 0 15.09 5.34 17.58 13.14l6.8 17.92 15.56 42c2.88 7 9.38 12.87 17.64 12.87h-35.4c-8.64 0-14.91-5.5-17.64-12.87-13.67-36.89-12.79-33.26-22.93-60.13-2.6-6.88-7.78-11.63-14.02-12.68z"/>
  <path fill="#e6c200" d="m218.92 85.92h-32.41c-8.83 0-15.09-5.34-17.58-13.14l-6.8-17.93-15.58-41.95c-2.88-7.05-9.38-12.9-17.65-12.9h35.43c8.67 0 14.91 5.53 17.67 12.9 13.64 36.88 12.73 33.25 22.9 60.1 2.6 6.88 7.78 11.63 14 12.68z"/>
  <path fill="#f9d664" d="m139.83 29.92c-13.83 35.85-8.37 21.5-16.42 43.08-2.74 7.38-9 12.87-17.71 12.87h-35.54c8.29.04 14.84-5.78 17.71-12.87l15.61-42 .46-1.21z"/>
  <path fill="#f9d664" d="m142.45 23.08c1.69-4.38 3.12-8.09 3.91-10.17 3-8 9.5-13.08 17.1-12.91h-35.55c-8.86 0-15.15 5.34-17.65 13.15l-3.75 9.85z"/>
  <g fill="#888">
    <path d="m0 120.73h5.68l5.54 16.56 5.41-16.56h5.44l-8.33 22.68h-5.41z"/>
    <path d="m31.35 120.73h5.13v22.68h-5.13z"/>
    <path d="m54.2 120.73h5.67l8.3 22.68h-5.61l-1.73-5.2h-8l-1.74 5.2h-5.36zm5.4 13.5-2.75-8.57-2.85 8.57z"/>
    <path d="m92.1 136.65c3.86 4.16 9.08 3.13 9.08.3 0-3.36-6.28-2.42-9.4-5.61a6.52 6.52 0 0 1 .38-9.13c3-2.76 9.83-3.19 14 1l-3 3.27c-5.74-4.69-10 0-6.6 2 1.84 1.07 3.4 1 5.83 2a6.73 6.73 0 0 1 3.59 9.3c-3 5.74-12.71 5.45-17.2.47z"/>
    <path d="m122.16 125.25h-7.34v-4.52h19.82v4.52h-7.31v18.16h-5.17z"/>
    <path d="m144.19 120.73h5.17c.06 12.68-1 16.61 2.3 18a6 6 0 0 0 4.08 0c3.11-1.34 2.22-4.21 2.29-18h5.2c-.48 11.75 1.43 16.84-2.56 20.73-4.83 4.69-16.48 3.32-16.48-6.65z"/>
    <path d="m174.28 120.73c8 .16 16.56-1.43 19.77 6.33a14.23 14.23 0 0 1 0 10c-3.79 8.62-14.47 5.78-19.76 6.31zm13.5 16.34c3.13-3 3-11.82-5.24-11.82h-3.12v13.61c2.03-.17 5.83.66 8.36-1.79z"/>
    <path d="m205.46 120.73h5.13v22.68h-5.13z"/>
    <path d="m228.05 143.07c-9.52-4-9.52-18 0-22a11.82 11.82 0 0 1 15.57 6.29 12.06 12.06 0 0 1 -6.22 15.74c-1.4.58-6.48 1.19-9.35-.03zm7.36-4.49c5-2.43 5-10.78 0-13.14a6.31 6.31 0 0 0 -8.7 3.79c-1.16 3.38-.11 7.72 3.32 9.35a8.37 8.37 0 0 0 5.38 0z"/>
  </g>
</svg>
