<svg xmlns="http://www.w3.org/2000/svg" viewBox="0 0 420.7 83.06">
  <g fill="#888">
    <path d="m180.48 56.54v25.56h-17.91v-80.18c2.33-.1 25-.11 32.72 0 14.3.15 27.7 3.4 31.2 17.2 3.21 12.65.64 28.11-12.84 33.83-1.15.5-1 .41-1.15.64l20.2 28.54c-2.47.12-9.51 0-20.91.09a2 2 0 0 1 -1.85-1c-17.8-25.77-16.59-24.74-18.3-24.72-3.64.06-7.35.04-11.16.04zm.07-15.64c.55.06 14.08.6 20.84-.73a8.89 8.89 0 0 0 7.43-7.08c1.29-5.36.65-12.86-5.22-14.49-5.23-1.46-5.09-1.2-22.29-1.3a4.64 4.64 0 0 0 -.76.13z"/>
    <path d="m17.92 82.11h-17.92v-80.11h17.9v32.71c30.02-31.65 28.91-32.87 31.35-32.86h21.15l-31.91 35.49 31.92 44.83c-21.61 0-20.66.46-21.81-1.1s-21.48-29.07-22.71-30.54c-8.62 9.57-7.95 8.55-8 10v20z"/>
    <path d="m102.35 66.27h41v15.81h-58.92v-80.08h57.7v15.8h-39.82v16.51h35.75v15.29h-35.71z"/>
    <path d="m357 68.9 10.46-12.9c7.33 5 18.67 14.74 30.21 10 6-2.47 6-10.63.46-13-16.69-7-37.41-6.23-37.73-28.1-.4-30.23 41.28-30.28 58.83-14.27l-8.85 12.77c-7.72-4-14.32-8.75-24-7.39-8.57 1.19-9.69 10.2-3.94 13.15 13.39 6.88 39.14 5 38.23 31-.8 22.84-31.14 29.32-53.78 16.24a54.6 54.6 0 0 1 -9.89-7.5z"/>
    <path d="m279.05 82.12h-18v-64.68h-22.62v-15.44h63.24v15.4h-22.62z"/>
    <path d="m337.25 82.11h-17.84v-80.11h17.84z"/>
  </g>
</svg>
