<svg xmlns="http://www.w3.org/2000/svg" viewBox="0 0 349.26 119.43">
  <g fill="#f05c22">
    <path d="M209.94,114.66c-.1.46-2.18,2.33-2.18,0,0-.94-.09-1.21,1.4-1.21a.83.83,0,0,1,.78.32A2.83,2.83,0,0,1,209.94,114.66Z"/>
    <path d="M214.86,114.66c-.1.46-2.18,2.33-2.18,0,0-.94-.09-1.21,1.4-1.21a.83.83,0,0,1,.78.32A2.58,2.58,0,0,1,214.86,114.66Z"/>
    <path d="M219.78,114.66c-.1.46-2.17,2.33-2.17,0,0-.94-.1-1.21,1.4-1.21a.82.82,0,0,1,.77.32A2.58,2.58,0,0,1,219.78,114.66Z"/>
    <path d="M235.82,112.54a36.12,36.12,0,0,1-6.86,3.74c-1.9.85-2.15,1.31-2.89,1.5-2.3.58-2.12-.72-2.32-1s-.15-.15-.29-.31c-1-1.26.69-14.47,2.58-14.33,1.61.1.11,3.56-.46,5a16.64,16.64,0,0,0-1,5.52c5.54-7.34,9.19-4.53,6.52-.11-.55.91-.89,1.4-1.25,1.92,2.81-1,6.33-3.64,6.56-3.36S236.27,112.17,235.82,112.54Zm-11.15,3.92c.07.39,1.48-.27,1.81-.44,1.75-.88,3.65-3.76,4.09-5.18C231.54,107.75,224,112.66,224.67,116.46Z"/>
    <path d="M242.68,113.93c-4.71,3.54-8.58.75-6.73-4.66,2.46-7.19,11.11-3.32,1.6,2.5l-.26.17c-.29.2-.15,1.38.76,1.84,1.35.69,3.69-.55,4.88-1.55,1-.87,1.63-1.83,1.82-1.35A8.34,8.34,0,0,1,242.68,113.93Zm-5.6-3.17c.59-.38,2.94-2.12,3.2-3.06C240.81,105.86,237.58,106.59,237.08,110.76Z"/>
    <path d="M266.73,110.17c-1.3,1-5.68,3.86-6.37,4.37-1.44,1-1.35,1.22-2.3,1.92a1.71,1.71,0,0,1-2,.06c-.73-.85,3-2.4,4.45-3.88s2.12-3.32.83-4.74-5.93,4.28-5.93,6.1c0,.82.13,1.13-.21,1.38-2.62,1.91-.45-9.11,0-11.76.27-1.74.35-2.3.73-2.72a.82.82,0,0,1,1.45.64c-1.29,6.07-1.61,7.2-1.92,9.42,1-1.59,3.51-4.59,5.42-4.59,1.43-.05,2.63,1.55,2.61,3a9,9,0,0,1-.87,2.42c5.16-3.54,5.67-4.78,6-4.15C268.7,108,267.44,109.62,266.73,110.17Z"/>
    <path d="M274.87,108.89c-.49,0-.8-.47-2.66.63-4.56,2.72-3,5.18-3.28,6.28-.07.35-2.41,2.93-1.47-6.3.18-1.81.12-2.52,1-3a.68.68,0,0,1,1,.37c.13.48-.6,1.47-.6,4.11a.49.49,0,0,0,0,.12c1.23-1.53,4.6-5,6.33-4.06a1.11,1.11,0,0,1,.64.88C275.8,108.1,275.44,108.89,274.87,108.89Z"/>
    <path d="M278.29,116c-.77-1.07-.49-3.28-.29-5.2.24-2.33.14-2.82.86-3.44.38-.33,1.56-.37,1.24,1-3.41,14.87,6.55.69,7.26.69C289.8,109.06,280.9,119.56,278.29,116Zm3.29-11.61c-.21.27-.27.27-.61.21-1.28-.23-.72-.83-.56-1.31s-.14-1.48,1.15-1.42a1,1,0,0,1,.67.26C282.63,102.51,281.92,103.92,281.58,104.38Z"/>
    <path d="M295.78,110.14c-2.21,4.19-8.26,8.79-9,4.12-.35-2.12.59-7.28,1.22-9.49.83-2.92,2-3.56,2.26-2.94.41,1-4.53,12.67-.85,12.67,2.44,0,5.65-5.06,6.44-5.06C295.92,109.44,295.91,109.89,295.78,110.14Z"/>
    <path d="M294.87,115.55c-1.49-2.21.41-10.82,1-12.66.89-2.61,2.53-1.41,2.12-.09-.72,2.33-1.52,2.35-2,8.24-.34,3.91.75,4.91,3.6,2.36a26.23,26.23,0,0,0,3.06-3.43c.34-.4.66.3,0,1.43C301.19,114.12,296.68,118.26,294.87,115.55Z"/>
    <path d="M304.94,116.21c-1.54,0-2.36-1.17-2.67-2.68a13.79,13.79,0,0,1,.12-5.28,1.7,1.7,0,0,1,1.49-1.14c.88,0-.75,3.31.09,6.39.7,2.6,4.39-.56,6.27-2.48,1.49-1.53,1.56-2.1,1.75-1.53C312.09,109.73,308.11,116.21,304.94,116.21Zm.53-13.11c-.57.79-2.24.36-2.24,0,0-.94,1.12-2.21,2.27-1.63C306,101.66,305.8,102.65,305.47,103.1Z"/>
    <path d="M323.94,109.11c-.64,1.26-5.13,6.75-6.92,3.93-.54-.85-.31-1.9-.76-1.45-.84.84-3.66,5.25-5.67,3.45s1.69-8.05,4.36-9.15c2.42-1,2.19.21,2.64.59s.71.49.51,1.07c-.73,2.19-.37,3.83.15,4.52,1.12,1.51,5.05-4,5.66-4C324.06,108.07,324.12,108.75,323.94,109.11Zm-7.75-2.32c-2,.22-4.74,4.71-4.74,6.58,0,.46.51.87,1.28.34C315.53,111.79,317.56,107,316.19,106.79Z"/>
    <path d="M336.28,113.19c-7,5.77-5.41-3.88-7-3.88s-3.91,5.09-5.53,5.6c-1.74-.37-.35-7,.41-7.83.24-.26.76-.39,1,0,.46.82-1,4-.67,5.21,1-.1,2.89-4.71,5.29-4.71,2.63,0,1.25,4.34,2.61,5.55s4.52-2,5.76-3.42C339.81,107.69,339.74,110.3,336.28,113.19Z"/>
    <path d="M346.09,107.69c-.44.62-1.31.18-5.24.77-.53.08-.4-.29-1.07,2.66a9.1,9.1,0,0,0-.39,2.85c.09.88.64,1.44,1.53,1.06a10.63,10.63,0,0,0,2.49-1.89c.56-.43,1.46-.18.09,1.46-1.75,2.29-5.14,3.09-5.64.17-.36-2.23.75-4.56.75-6,0-.34-2.28.48-2.28-1,0-.83.89-.42,2.79-.53.11,0,.3-.51.34-.62,1-2.49,1-3.65,1.91-3.65a.75.75,0,0,1,.76.79c0,.14-.63,1.8-1.14,3.23,2.48-.15,4.88-.63,5.16,0A1,1,0,0,1,346.09,107.69Z"/>
    <path d="M348.36,114.66c-.09.46-2.17,2.33-2.17,0,0-.94-.09-1.21,1.4-1.21a.81.81,0,0,1,.77.32A2.37,2.37,0,0,1,348.36,114.66Z"/>
  </g>
  <g fill="#5c2d91">
    <polygon points="90.74 27.35 111.45 89.9 90.74 119.43 90.74 27.35 90.74 27.35"/>
    <polygon points="97.13 25.82 128.59 65.53 117.34 81.52 97.13 25.82 97.13 25.82"/>
    <polygon points="101.58 21.92 141.53 46.96 133.23 58.79 101.58 21.92 101.58 21.92"/>
    <path d="M155.63,26.92,146,40.63,104.31,16.69Z"/>
    <polygon points="105.18 10.86 104.98 10.85 174.53 0 160.05 20.62 105.18 10.86 105.18 10.86"/>
    <polygon points="83.79 119.43 63.09 89.9 83.79 27.35 83.79 119.43 83.79 119.43"/>
    <polygon points="57.21 81.52 45.94 65.53 77.41 25.82 57.21 81.52 57.21 81.52"/>
    <polygon points="41.3 58.79 33 46.96 72.95 21.92 41.3 58.79 41.3 58.79"/>
    <polygon points="28.5 40.63 18.9 26.92 70.22 16.68 28.5 40.63 28.5 40.63"/>
    <path d="M14.48,20.62,0,0,69.56,10.85,14.48,20.62Z"/>
  </g>
  <g fill="#888">
    <path d="M159.92,81.74H160c7.6-28.3,5-18.54,5.55-20.65h6.56l-8.75,27h-6.77l-8.71-27h6.55C155,63.2,152.43,53.44,159.92,81.74Z"/>
    <path d="M179.85,65.3h-6.28V61.09h6.28Zm.06,22.78h-6.28V68h6.28Z"/>
    <path d="M191.05,81.94l.11,0c4.19-19.1,2.75-12.51,3.06-13.94h6.58l-6.52,20.06h-6.36L181.4,68H188C188.31,69.45,186.86,62.87,191.05,81.94Z"/>
    <path d="M208.63,65.3h-6.28V61.09h6.28Zm.05,22.78H202.4V68h6.28Z"/>
    <path d="M218.94,67.65a5.5,5.5,0,0,1,4.52,2.47v-11h6.26V88.08h-5.48l-.43-2.45c-2.84,4.29-8.28,3.29-10.65.09C209.64,81,210,67.65,218.94,67.65Zm-.84,14.64c1,2,4.16,1.68,5.36-.07v-8.1c-1.45-2.4-6.08-3.21-6.08,4A9.17,9.17,0,0,0,218.1,82.29Z"/>
    <path d="M243.48,88.08h-6.25v-27h6.25Z"/>
    <path d="M253.12,68l.22,2.65c2.67-4.08,9.12-4.15,10.94.28a6.38,6.38,0,0,1,5.78-3.3c8.77,0,5.67,12.44,6.28,20.43h-6.28c-.15-10.9.38-13.48-.6-14.8s-3.42-1-4.59.42c0,.13,0,14.22,0,14.38h-6.27c-.25-12.33,1-15.61-2.42-15.61a3.46,3.46,0,0,0-2.73,1.23V88.08h-6.26V68Z"/>
    <path d="M295.88,85.73c-2.28,3.07-7.52,4-10.26.57v9.49h-6.27V68h5.92l.18,2.19c3.27-4.79,12.47-3.4,12.47,7.88C297.9,78.3,298.18,82.65,295.88,85.73ZM290.94,74c-1.12-2.31-4.28-1.83-5.32,0v8.38c1.11,1.62,4.3,1.9,5.34-.08a8.28,8.28,0,0,0,.72-3.81A10.31,10.31,0,0,0,290.94,74Z"/>
    <path d="M311.7,88.06a9.28,9.28,0,0,1-1-3.1c-1.42,2.77-3.17,3.51-5.14,3.51a7,7,0,0,1-4.9-1.62c-2.63-2.44-3.91-10.65,7.29-10.65h2.58c-.07-1,.24-2.44-.61-3.39s-4-1.31-4,1.4h-6.08l0-.12c-.3-6.36,10.13-8.25,14.71-4.57s.35,10.82,3.38,18.57Zm-1.15-5.88V79.53c-1.83.11-3.71-.33-4.69.73a2.37,2.37,0,0,0-.08,3.21C306.32,84,309.53,84.33,310.55,82.18Z"/>
    <path d="M330.79,80.94h5.71l0,.11c.18,8-11,9.57-15.34,4.59-4.22-4.82-3.9-18,7-18,4.88,0,8.42,2.8,8.32,7.94l0,.11h-5.71c0-1.77-.77-3.23-2.57-3.23-2.72,0-3.25,2.67-3.25,5.38a10.1,10.1,0,0,0,.72,4.37C326.12,83.08,330.79,85,330.79,80.94Z"/>
    <path d="M345.72,63v5h3.17v4.34h-3.17c.13,9.13-1.2,12.11,3.11,11l.43,4.63c-12.2,3.11-9.48-7.42-9.81-15.66h-2.79V68h2.79V63Z"/>
  </g>
</svg>
