<svg xmlns="http://www.w3.org/2000/svg" viewBox="0 0 420 245.31">
  <g fill="#888">
    <path d="m0 204.12h5.81v35.29h18.27v5.29h-24.08z"/>
    <path d="m62.17 203.54c21 0 28.65 23.59 15.6 35.74-13.22 12.33-37.32 4.95-37.32-14.74 0-12.41 9.36-21 21.72-21zm-11.17 9.87c-5.77 5.6-6.29 16 0 22.05a16.61 16.61 0 0 0 22.59-.09 15.4 15.4 0 0 0 0-21.91c-6.4-6.18-16.9-5.62-22.59-.05z"/>
    <path d="m132.55 204.12h5.84c-.17 20.87.43 26.22-.69 30.09-4 13.89-25.57 14-31.92 4-3.11-4.87-2.16-8.47-2.31-34h5.84c.4 26.21-1.88 30.95 5.29 34.57 4 2 10.73 2 14.73-1.35 4.19-3.63 3.09-6.02 3.22-33.31z"/>
    <path d="m160.77 204.12h5.81v40.58h-5.81z"/>
    <path d="m195.5 225c-4.43-2.71-7.67-5.58-7.67-10.64 0-10.55 12.68-13.73 21.29-7.92v6.56c-8.91-8.57-20-2.48-14.6 3.88 1.94 2.29 5.53 4 8.78 6 9.47 5.66 8.82 14.88 4.15 19.22-5.06 4.73-13.79 3.59-19.45-.64v-7.38c7.11 9 17.26 6.68 17.26.63 0-2.46-7.52-8.03-9.76-9.71z"/>
    <path d="m255.91 204.12h5.78l-17.16 40.75h-1.32l-17.48-40.75h5.84l12.21 28.5z"/>
    <path d="m280.47 204.12h5.8v40.58h-5.8z"/>
    <path d="m309.56 204.12h5.81v35.29h18.27v5.29h-24.08z"/>
    <path d="m353 204.12h5.81v35.29h18.27v5.29h-24.08z"/>
    <path d="m396.44 204.12h23v5.17h-17.18v12.37h16.61v5.2h-16.61v12.61h17.74v5.17h-23.56z"/>
    <path d="m344.39 16.54c-1.56.18-11.05 1.49-15.54 7.16-2.86 3.63.71 11.24 6 10.62 7.29-.86 10.57-9.23 17.3-10 31.85-3.76 48.06 37.68 26.85 64.53-10.25 13-26 19.69-42.46 24.51 6.38-23.58 10.8-46.51 10.38-50-.49-4.08-10.39-6.21-13-2.88-2.13 2.65-10.06 28.52-15.21 35.02s-13.85 9.68-14.87 1c-.84-7.14 7.5-27.31 7.12-30.53s-10.27-4.55-12.96-1.17c-2.24 2.83-6.86 19.19-7.56 30.93-1.82 5.3-18.39 25.06-18.39 10.58 0-5.75 4.33-23.92 7.68-27.27 1.84-1.83 3.73-6.66.63-9.1s-7 0-12-5c-4-4-4.42-9-8.32-12.08s-8 0-11.18 4c-1.63 2.07-.85 5.25 1.21 8.57-.6 7.15-7.37 13.78-15 17.18-.44-8.41-3.14-15.78-8.76-20.56-7.13-6.19-17.81-3.37-22.22 2.22-9.61 12.2-1.3 31.3 20.91 28.73-2.53 11.82-8.3 24.42-12.5 29.74-5.26 6.66-13 7.3-13.92-.54s5.82-25.34 5.28-29.93c-.42-3.63-7.54-5.8-9.81-2.93a25.56 25.56 0 0 0 -4.15 9.09s0 0 0 0c-2.62 5.42-12.41 27.38-16.79 32.93-5.9 7.46-14.21 4.43-15.25-4.52-.92-7.79 5.26-29.41 10.86-48.18 10.83 1.11 20.22 3 21.74 2.79 2.34-.27 4.86-8.2 2.28-10.23-.94-.74-9.79-2.49-20.79-3.37 3.06-10.31 5.34-18.32 5.11-20.3-.4-3.41-11.61-7-14.69-3.14-1.36 1.72-4.68 11-8.1 23a299.52 299.52 0 0 0 -33.48 3.41c-6.12-13-12.56-26-13.35-41.72-1-19.82 21.09-25.37 21.63-14.42.26 5-2.15 12.58 3.53 17.72s14.65-.78 14.29-8.13c-1.89-38.72-58.84-27.64-57.03 8.73 1 19.28 7.16 30.13 13.06 41.62a113.27 113.27 0 0 0 -20.92 7.49c-21.36-13.6-61.68 1.42-59.17 51.77 3.37 67.61 113.8 63.87 109.32-26-.51-10.2-3.51-19.26-7.26-28 11.08-1.22 25.44-2 26.55-2-4.46 17.49-8.22 37.4-6.94 48.25 3 25.87 28.48 29.24 44.39-.24 3.18 14.12 20 15.89 30.55 2.51a76.59 76.59 0 0 0 15.42-37.71c11.38-3.82 21.33-11.35 21.55-18 4.32 3.86 9.32 6.7 12.45 6.33-2.74 3.48-12.26 28.94-1.64 39.55 7.45 7.45 16.11 1.49 26.84-9.14 6.06 6.55 19 8.07 32.91-9.54-.4.51-1.37 7.51-3.39 16.91-30.78 7.71-59.76 12.86-56.12 43.85 2.67 22.69 30.23 28.16 49.19 4.15 5.63-7.14 11.59-23.08 16.72-40.29 19.46-5.12 39.78-12.75 53.54-30.17 19.42-24.54 14.79-84.54-42.52-77.8zm-264.67 75.7a21 21 0 0 1 4.28 12.44c.68 13.58-15 18.15-15.58 7.06-.42-8.48 4-14.74 11.3-19.5zm-45.33 39.1c-1.78-35.73 23.67-50.34 38.83-43.98-8.46 6.14-13.78 14.17-13.22 24.64 1.22 24.35 36.17 20.16 34.83-6.7a29.47 29.47 0 0 0 -6.34-17.49 104.07 104.07 0 0 1 18.38-5.22 81.16 81.16 0 0 1 7.32 30.76c3.22 65.36-77.45 65-79.8 17.99zm191.84-46.44c-6.48.42-12-2.44-12.92-10.39-.5-4.28 4.81-7.73 8.51-4.81s4.85 8.59 4.41 15.2zm80.52 75.41c-11.61 14.71-28.16 12.6-29.83-1.61-2.47-21 18.54-25.17 44.13-31.14-3.05 11.6-7.65 24.32-14.3 32.75z"/>
  </g>
</svg>
