<svg xmlns="http://www.w3.org/2000/svg" viewBox="0 0 360 294.29">
  <g fill="#888">
    <path d="m102.75 266.23a10.29 10.29 0 0 0 -8.16 3.77c-3.54-4.52-10.9-5.4-14.91-.52v-2.6h-6.6v26.77h6.92v-15.65c0-6.72 10.13-7.5 10.13 0v15.64h6.87v-15.64c0-6.79 10.18-7.46 10.18 0v15.64h6.86v-15.64c.04-7-4.12-11.77-11.29-11.77z"/>
    <path d="m133.31 266.23c-7.43 0-13.46 6.08-13.46 14.08s6 14 13.46 14a13.59 13.59 0 0 0 13.51-14c0-8-6.08-14.08-13.51-14.08zm-6.6 14.14c0-10.44 13.2-10.44 13.2 0 0 10.15-13.2 10.16-13.2 0z"/>
    <path d="m159.45 268.31v-13.31h-6.91v38.67h6.91v-15.67c0-6.58 10.19-7.14 10.19 0v15.64h6.86v-15.64c0-11.23-10.85-14.39-17.05-9.69z"/>
    <path d="m203.73 269.76c-7-7.4-20.94-2.35-20.94 10.55s13.86 17.93 20.94 10.5v2.86h6.55v-26.77h-6.55zm-7.17 18.14c-3.8 0-6.86-3.27-6.86-7.54s3.06-7.69 6.86-7.69 6.86 3.43 6.86 7.69-3.07 7.54-6.86 7.54z"/>
    <path d="m247.85 293.67h-7.07l-4.83-17.72-4.83 17.72h-7.12l-8.32-26.77h7.28l4.68 18.71 4.88-18.71h6.86l4.89 18.71 4.67-18.71h7.28z"/>
    <path d="m268.12 285.98v7.69h-6.86v-38.67h6.86v21.62l8.78-9.72h9.46l-9.97 10.45 10.55 16.32h-8.74l-6.65-11.28z"/>
  </g>
  <path fill="#e2e41a" d="m75.93 52.35a36 36 0 0 1 -.38-31.95l-71.63 143.26c13.22-25.91 50.16-26.28 63.86-.58a36 36 0 0 1 .65 32.55l39.57-79.13z"/>
  <path fill="#71caef" d="m219.93 52.35a36.13 36.13 0 0 1 -3.93-16.62 35.83 35.83 0 0 1 3.55-15.33l-39.55 79.1 32.08 64.16a36 36 0 0 1 .35 32l39.57-79.16z"/>
  <path fill="#f7b5cb" d="m144 179.73a35.87 35.87 0 0 1 3.92-16.07l32.08-64.16-39.92-79.84a36 36 0 0 1 0 32.69l-32.08 64.15 39.42 78.84a36.24 36.24 0 0 1 -3.42-15.61z"/>
  <path fill="#c9e9e6" d="m333.89 145.37a36.13 36.13 0 0 1 22.19 18.29l-72-144a36 36 0 0 1 0 32.69l-32.08 64.15 39.57 79.13c-13.29-27.53 12.13-58.88 42.32-50.26z"/>
  <path fill="#faa83d" d="m140.07 52.35a36.1 36.1 0 0 1 -32.34 19.65 36 36 0 0 1 -31.8-19.65l32.07 64.15z"/>
  <path fill="#e86fa6" d="m180 99.5-32.08 64.16c13.43-26.31 50.89-26 64.16 0z"/>
  <path fill="#5087c7" d="m284.07 52.35c-13.34 26.12-50.74 26.22-64.14 0l32.07 64.15z"/>
  <path fill="#77c044" d="m72 180a36 36 0 1 1 -36-36 36 36 0 0 1 36 36z"/>
  <path fill="#8e5ba6" d="m216 180a36 36 0 1 1 -36-36 36 36 0 0 1 36 36z"/>
  <path fill="#08539f" d="m288 36a36 36 0 1 1 -36-36 36 36 0 0 1 36 36z"/>
  <path fill="#f47b23" d="m144 36a36 36 0 1 1 -36-36 36 36 0 0 1 36 36z"/>
  <path fill="#6bc8c6" d="m360 180a36 36 0 1 1 -36-36 36 36 0 0 1 36 36z"/>
</svg>
