<svg xmlns="http://www.w3.org/2000/svg" viewBox="0 0 260 21">
  <path fill="#888" fill-rule="evenodd" d="m2.78 6.6h.22c1.06 0 1.36.06 1.36.3v5.66h5.06v-5.66c0-.24.2-.3 1.32-.3h.22c1.06 0 1.36.06 1.36.3v13.8c0 .24-.3.3-1.36.3h-.22c-1.12 0-1.32-.06-1.32-.3v-5.82h-5.06v5.82c0 .24-.3.3-1.36.3h-.22c-1.12 0-1.32-.06-1.32-.3v-13.8c0-.24.2-.3 1.32-.3zm13.6 3.84h.1c1.18 0 1.3.08 1.3.3v5.4c0 1.38.08 1.8.4 2.16.26.3.74.46 1.32.46.46 0 .96-.1 1.32-.32.42-.26.52-.58.56-1.06.04-.46.04-1.2.04-1.96v-4.68c0-.22.04-.3 1.34-.3h.1c1.18 0 1.3.08 1.3.3v5.52c0 1.56.06 3.3.14 4.38.02.28-.06.36-1.2.36h-.1c-.98 0-1.16-.04-1.24-.26-.06-.18-.1-.5-.14-.8-.64.76-1.66 1.26-2.88 1.26s-2.16-.4-2.76-1.08c-.66-.74-.94-1.7-.94-3.22v-6.16c0-.22.04-.3 1.34-.3zm11.56 0h.1c.98 0 1.16.04 1.24.26.06.18.12.56.16.86.66-.76 1.68-1.32 2.82-1.32 1.24 0 2.44.54 3 1.58.8-1.02 1.94-1.58 3.18-1.58 1.16 0 2.08.4 2.68 1.08.66.74.94 1.7.94 3.22v6.16c0 .22-.12.3-1.3.3h-.1c-1.3 0-1.34-.08-1.34-.3v-5.4c0-1.38-.08-1.8-.4-2.16-.26-.3-.72-.46-1.26-.46-.36 0-.86.08-1.22.3-.42.26-.52.58-.56 1.06-.04.46-.04 1.2-.04 1.96v4.7c0 .22-.12.3-1.3.3h-.1c-1.3 0-1.34-.08-1.34-.3v-5.4c0-1.38-.08-1.8-.4-2.16-.26-.3-.72-.46-1.26-.46-.36 0-.86.08-1.22.3-.42.26-.52.58-.56 1.06-.04.46-.04 1.2-.04 1.96v4.7c0 .22-.12.3-1.3.3h-.1c-1.3 0-1.34-.08-1.34-.3v-5.52c0-1.56-.06-3.3-.14-4.38-.02-.28.06-.36 1.2-.36zm23.06.98.08-.72c.02-.18.1-.26 1.18-.26h.12c1.02 0 1.16.06 1.16.28 0 .66-.04 2.68-.04 4.32v1.22c0 1.56.06 3.3.14 4.38.02.28 0 .36-1.14.36h-.1c-.98 0-1.14-.04-1.22-.26-.06-.12-.1-.44-.14-.68-.6.68-1.72 1.14-2.74 1.14-2.62 0-4.24-2-4.24-5.28 0-3.64 2.02-5.68 4.42-5.68 1.08 0 2.06.52 2.52 1.18zm-.24 5.76v-3.6c-.38-.58-1.04-.96-1.74-.96-1.46 0-2.14 1.16-2.14 3.22 0 1.78.48 3.06 2.1 3.06.64 0 1.22-.24 1.5-.6.22-.28.28-.64.28-1.12zm6.52-6.74h.1c.98 0 1.16.04 1.24.26.06.18.1.5.14.8.64-.74 1.68-1.26 2.9-1.26s2.18.4 2.78 1.08c.66.74.94 1.7.94 3.22v6.16c0 .22-.12.3-1.3.3h-.1c-1.3 0-1.34-.08-1.34-.3v-5.4c0-1.38-.08-1.8-.4-2.16-.26-.3-.76-.46-1.34-.46-.46 0-.98.1-1.34.32-.42.26-.52.58-.56 1.06-.04.46-.04 1.2-.04 1.96v4.68c0 .22-.12.3-1.3.3h-.1c-1.3 0-1.34-.08-1.34-.3v-5.52c0-1.56-.06-3.3-.14-4.38-.02-.28.06-.36 1.2-.36zm17.04.98.08-.72c.02-.18.1-.26 1.18-.26h.12c1.02 0 1.16.06 1.16.28 0 .66-.04 2.68-.04 4.32v1.22c0 1.56.06 3.3.14 4.38.02.28 0 .36-1.14.36h-.1c-.98 0-1.14-.04-1.22-.26-.06-.12-.1-.44-.14-.68-.6.68-1.72 1.14-2.74 1.14-2.62 0-4.24-2-4.24-5.28 0-3.64 2.02-5.68 4.42-5.68 1.08 0 2.06.52 2.52 1.18zm-.24 5.76v-3.6c-.38-.58-1.04-.96-1.74-.96-1.46 0-2.14 1.16-2.14 3.22 0 1.78.48 3.06 2.1 3.06.64 0 1.22-.24 1.5-.6.22-.28.28-.64.28-1.12zm23.37-10.043v1.68h-6.378v4.687h4.678v1.68h-4.678v5.107h7.09v1.709h-9.267v-14.863h8.554zm12.176 14.863h-2.49l-2.442-3.701-.332-.537-.273.566-2.265 3.672h-2.451l3.916-5.654-3.945-5.479h2.441l2.442 3.692.244.41.205-.43 2.451-3.672h2.412l-3.955 5.44 4.043 5.693zm7.08-11.29c.807 0 1.543.198 2.207.592s1.195.99 1.592 1.787.596 1.776.596 2.934c0 1.192-.232 2.253-.694 3.184s-1.115 1.655-1.958 2.173c-.843.517-1.818.776-2.925.776a5.625 5.625 0 0 1 -1.826-.283l.03 1.484v3.584h-2.149v-16.074h1.943v1.201a5.042 5.042 0 0 1 1.27-.966c.482-.26 1.12-.391 1.914-.391zm2.207 5.499c0-1.283-.24-2.238-.718-2.866s-1.173-.943-2.085-.943c-.475 0-.913.09-1.313.269s-.757.392-1.07.64v6.787c.202.175.464.302.787.38.322.079.727.118 1.215.118.612 0 1.16-.17 1.641-.508.482-.339.86-.837 1.133-1.494.273-.658.41-1.452.41-2.383zm13.154-1.299c0 .528-.006.936-.02 1.226-.012.29-.041.545-.087.766h-6.865c.006.046.01.111.01.196.11 2.291 1.243 3.437 3.398 3.437.39 0 .885-.062 1.484-.185.6-.124 1.029-.264 1.29-.42l.41 1.23c-.359.293-.902.532-1.631.718a8.618 8.618 0 0 1 -2.13.278c-1.047 0-1.94-.226-2.675-.678-.736-.453-1.296-1.109-1.68-1.968-.384-.86-.576-1.892-.576-3.096 0-1.094.19-2.067.571-2.92a4.605 4.605 0 0 1 1.69-2.016c.745-.492 1.649-.748 2.71-.767.748-.013 1.429.14 2.04.459.613.319 1.103.797 1.47 1.435.368.638.565 1.407.591 2.305zm-2.011.567c.013-.209.02-.362.02-.46 0-.826-.168-1.497-.504-2.011-.335-.514-.91-.772-1.723-.772-.723 0-1.324.256-1.802.767-.479.511-.777 1.336-.894 2.476zm9.56-4.776c.521 0 .882.046 1.084.137v2.012a1.932 1.932 0 0 0 -.532-.19c-.218-.05-.529-.074-.933-.074-.494 0-.952.09-1.372.268-.42.18-.773.396-1.06.65v8.496h-2.148v-11.113h1.807l.146 1.23c.144-.195.376-.403.699-.625.322-.221.69-.408 1.103-.561.414-.153.816-.23 1.206-.23zm5.43.186v11.113h-2.149v-11.113zm-2.559-3.36c0-.273.077-.527.23-.761.153-.235.353-.42.6-.557a1.54 1.54 0 0 1 .752-.205c.443 0 .783.124 1.02.371.238.247.357.563.357.947 0 .287-.075.547-.224.782a1.598 1.598 0 0 1 -1.357.742 1.47 1.47 0 0 1 -.684-.161 1.276 1.276 0 0 1 -.694-1.158zm14.463 7.383c0 .528-.006.936-.02 1.226-.012.29-.042.545-.087.766h-6.865c.006.046.01.111.01.196.11 2.291 1.243 3.437 3.398 3.437.39 0 .885-.062 1.484-.185.6-.124 1.029-.264 1.29-.42l.41 1.23c-.359.293-.902.532-1.632.718a8.618 8.618 0 0 1 -2.128.278c-1.049 0-1.94-.226-2.676-.678-.736-.453-1.296-1.109-1.68-1.968-.384-.86-.576-1.892-.576-3.096 0-1.094.19-2.067.571-2.92a4.605 4.605 0 0 1 1.69-2.016c.745-.492 1.648-.748 2.71-.767.748-.013 1.429.14 2.04.459.613.319 1.103.797 1.47 1.435.368.638.565 1.407.591 2.305zm-2.012.567c.013-.209.02-.362.02-.46 0-.826-.168-1.497-.503-2.011s-.91-.772-1.724-.772c-.722 0-1.323.256-1.801.767-.479.511-.777 1.336-.894 2.476zm6.592-4.59.01 1.172c.508-.345 1.138-.658 1.89-.938s1.47-.42 2.153-.42c.768 0 1.38.143 1.836.43.456.286.788.745.996 1.377.208.631.313 1.484.313 2.558v6.934h-2.149v-6.943c0-.625-.049-1.122-.146-1.49-.098-.367-.277-.643-.538-.825-.26-.182-.638-.273-1.132-.273-.118 0-.205.003-.264.01-.39.013-.838.112-1.343.297a5.747 5.747 0 0 0 -1.391.738v8.486h-2.149v-11.113zm15.186-.176c.631 0 1.191.06 1.68.18.488.121.84.253 1.054.396l-.342 1.7a3.177 3.177 0 0 0 -1.054-.465c-.404-.1-.886-.15-1.446-.15a3.03 3.03 0 0 0 -1.567.429c-.485.286-.877.734-1.177 1.343-.3.608-.449 1.375-.449 2.3 0 .859.137 1.596.41 2.211.274.616.648 1.083 1.123 1.402s1.01.478 1.602.478c.514 0 1.015-.067 1.504-.2.488-.134.872-.285 1.152-.454l.44 1.22c-.346.32-.827.575-1.446.767a6.616 6.616 0 0 1 -1.972.288c-1.016 0-1.893-.242-2.632-.727-.74-.485-1.3-1.151-1.685-1.997-.384-.847-.576-1.807-.576-2.881 0-1.114.203-2.111.61-2.993a4.766 4.766 0 0 1 1.822-2.085c.807-.508 1.79-.762 2.949-.762zm13.476 4.2c0 .527-.006.935-.02 1.225-.012.29-.041.545-.087.766h-6.865c.006.046.01.111.01.196.11 2.291 1.243 3.437 3.398 3.437.39 0 .885-.062 1.484-.185.6-.124 1.029-.264 1.29-.42l.41 1.23c-.359.293-.902.532-1.631.718a8.618 8.618 0 0 1 -2.13.278c-1.047 0-1.94-.226-2.675-.678-.736-.453-1.296-1.109-1.68-1.968-.384-.86-.576-1.892-.576-3.096 0-1.094.19-2.067.571-2.92a4.605 4.605 0 0 1 1.69-2.016c.745-.492 1.649-.748 2.71-.767.748-.013 1.429.14 2.04.459.613.319 1.103.797 1.47 1.435.368.638.565 1.407.591 2.305zm-2.011.566c.013-.209.02-.362.02-.46 0-.826-.168-1.497-.504-2.011-.335-.514-.91-.772-1.723-.772-.723 0-1.324.256-1.802.767-.479.511-.777 1.336-.894 2.476zm17.159-8.497c.833 0 1.527.046 2.08.137s1.061.205 1.523.342l.293.078-.312 1.934a8.793 8.793 0 0 0 -.684-.318c-.215-.088-.56-.177-1.035-.268s-1.048-.137-1.719-.137c-.996 0-1.86.234-2.592.703-.733.469-1.294 1.136-1.685 2.002-.39.866-.586 1.882-.586 3.047 0 1.159.195 2.187.586 3.086.39.898.952 1.598 1.685 2.1.732.5 1.593.752 2.583.752.488 0 .983-.043 1.484-.127a7.583 7.583 0 0 0 1.328-.337c.384-.14.664-.288.84-.445l.01 1.846c-.424.17-.786.304-1.09.405-.302.101-.68.19-1.132.264a9.418 9.418 0 0 1 -1.528.112c-1.387 0-2.603-.312-3.648-.937s-1.852-1.504-2.422-2.637-.854-2.445-.854-3.936c0-1.582.312-2.952.937-4.11.625-1.16 1.462-2.042 2.51-2.647a6.733 6.733 0 0 1 3.428-.909zm15.039 7.93c0 .528-.007.936-.02 1.226s-.042.545-.088.766h-6.865c.007.046.01.111.01.196.11 2.291 1.243 3.437 3.398 3.437.391 0 .886-.062 1.485-.185.599-.124 1.028-.264 1.289-.42l.41 1.23c-.358.293-.902.532-1.63.718a8.618 8.618 0 0 1 -2.13.278c-1.048 0-1.94-.226-2.675-.678-.736-.453-1.296-1.109-1.68-1.968-.384-.86-.576-1.892-.576-3.096 0-1.094.19-2.067.57-2.92a4.605 4.605 0 0 1 1.69-2.016c.746-.492 1.65-.748 2.71-.767.749-.013 1.43.14 2.041.459.612.319 1.102.797 1.47 1.435s.565 1.407.59 2.305zm-2.012.567c.013-.209.02-.362.02-.46 0-.826-.168-1.497-.503-2.011s-.91-.772-1.724-.772c-.723 0-1.323.256-1.802.767-.478.511-.776 1.336-.893 2.476zm6.592-4.59.01 1.172c.508-.345 1.137-.658 1.89-.938.751-.28 1.47-.42 2.153-.42.768 0 1.38.143 1.836.43.455.286.787.745.996 1.377.208.631.312 1.484.312 2.558v6.934h-2.148v-6.943c0-.625-.049-1.122-.147-1.49-.097-.367-.276-.643-.537-.825-.26-.182-.638-.273-1.133-.273-.117 0-.205.003-.263.01-.39.013-.838.112-1.343.297a5.747 5.747 0 0 0 -1.392.738v8.486h-2.148v-11.113zm11.084 1.601h-1.445v-1.162l.351-.097c.3-.085.521-.155.664-.21.144-.056.269-.134.376-.235.108-.1.194-.24.259-.415.098-.247.24-.693.43-1.338l.215-.703h1.289v2.54h3.144v1.62h-3.144v5.635c0 .742.029 1.268.088 1.577.058.31.167.51.327.6.16.092.431.137.815.137.28 0 .62-.045 1.02-.136.401-.091.696-.186.884-.283l.371 1.23c-.319.234-.776.444-1.372.63a5.73 5.73 0 0 1 -1.704.278c-.813 0-1.445-.203-1.894-.61-.45-.407-.674-1.144-.674-2.212zm16.094 2.422c0 .528-.007.936-.02 1.226s-.042.545-.088.766h-6.865c.007.046.01.111.01.196.11 2.291 1.243 3.437 3.398 3.437.39 0 .886-.062 1.485-.185.599-.124 1.028-.264 1.289-.42l.41 1.23c-.358.293-.902.532-1.631.718a8.618 8.618 0 0 1 -2.129.278c-1.048 0-1.94-.226-2.676-.678-.735-.453-1.295-1.109-1.68-1.968-.383-.86-.576-1.892-.576-3.096 0-1.094.19-2.067.572-2.92a4.605 4.605 0 0 1 1.69-2.016c.745-.492 1.648-.748 2.71-.767.748-.013 1.428.14 2.04.459s1.102.797 1.47 1.435.565 1.407.59 2.305zm-2.012.567c.013-.209.02-.362.02-.46 0-.826-.168-1.497-.503-2.011-.336-.514-.91-.772-1.724-.772-.723 0-1.323.256-1.802.767-.478.511-.776 1.336-.893 2.476zm9.56-4.776c.521 0 .883.046 1.085.137v2.012a1.932 1.932 0 0 0 -.533-.19c-.218-.05-.529-.074-.932-.074-.495 0-.952.09-1.372.268-.42.18-.773.396-1.06.65v8.496h-2.148v-11.113h1.806l.147 1.23c.143-.195.376-.403.698-.625.322-.221.69-.408 1.103-.561.414-.153.816-.23 1.207-.23z" transform="translate(-1 -6)"/>
</svg>
