<svg xmlns="http://www.w3.org/2000/svg" viewBox="0 0 590.25 617.17">
  <g fill="#46b3bb">
    <path d="M125.73,617.17c-.54-.73-1.44-.58-2.17-.82-8.54-2.86-8.52-15.69-1.19-19.06a10.1,10.1,0,0,1,10.85,1c3.16,2.34,4.1,5.75,3.69,9.56-.93,8.72-8.21,8.39-8.78,9.33Zm8.12-10.5a13.64,13.64,0,0,0,0-1.43,6.87,6.87,0,0,0-10.46-5.39c-4.68,2.75-4.48,11.82.89,13.9C128.54,615.39,134,613.09,133.85,606.67Z"/>
    <path d="M206.85,617.17c-.46-.68-1.29-.53-1.93-.81-6.09-2.58-4.68-7.06-4.84-18.35,0-1.17.47-1.5,1.57-1.52,1.28,0,1.42.68,1.41,1.67-.07,10.62-.05,11.21.34,12.43a5,5,0,0,0,9.72-1c.1-1.58.08-10.62,0-11.74s.68-1.42,1.69-1.4,1.54.18,1.53,1.3c-.09,10.49,1.37,16.07-5.23,18.63-.49.19-1.14.13-1.43.74Z"/>
    <path d="M104.61,617.17c-.4-.65-1.13-.48-1.71-.69a9.14,9.14,0,0,1-6.5-8.83,17.16,17.16,0,0,1,.06-2.87,9.07,9.07,0,0,1,5.43-7.61,10.06,10.06,0,0,1,9.83.69c.59.36,1.27.78.7,1.71-1.17,1.92-2,.13-4.63-.5a6.53,6.53,0,0,0-8,4.72c-2.22,7.06,3.91,12.82,10.07,9.56,1.17-.63,1.48-1.64,2.82-.19.65.71.11,1.1-.38,1.56-1.38,1.28-3.23,1.61-4.83,2.45Z"/>
    <path d="M368.13,617.17c-1.35-.82-3-1-4.29-1.95-1.09-.83-1.14-1.7-.12-2.5.69-.54,1.22-.08,1.71.27a6,6,0,0,0,4.49,1.27,3.28,3.28,0,0,0,2.84-1.9,2.84,2.84,0,0,0-1.53-4c-2.54-1.16-8.52-1.85-7.57-7.23.88-5,6.5-6.22,10.68-3.69.77.47,1.27,1,.68,1.92s-1.12,1-1.95.4a5.24,5.24,0,0,0-4.1-.85,2.58,2.58,0,0,0-2.38,2.31A2.33,2.33,0,0,0,368,604c4,1.74,8,2.11,7.86,6.68a5.89,5.89,0,0,1-3.66,5.66c-.72.33-1.61.18-2.18.86Z"/>
    <path d="M214,150.6c.25,3.1-.22,6.24.48,9.31.13.55.12,1.12.26,1.66.33,1.22.56,2.36-1,2.93a.63.63,0,0,0-.35,1c.28.46.54.89,1.27.88,1.53,0,1.9.35,1.33,1.56-.94,2,1.26,1.6,1.64,2.82,1,3.37,3.7,5.72,5.36,8.7.57,1,2.05.94,2.13,2.4.06,1.2.43,1.86,1.94,1.51,1-.24,1.53.72.86,1.58a1.18,1.18,0,0,0,0,1.68c.21.28.48.46.82.25.53-.32,1.19-.6.82-1.45-.08-.19,0-.32.23-.39,8.12,4.88,16.75,6.86,26,4,.52.56-.09,1.17.36,1.63s.46,1.18,1.23.71c.57-.35,1.42-.63.77-1.61-.35-.52-.82-1.05,0-1.6,1.64-1.05,1.44,1.68,3,.59a1,1,0,0,0,.45-1.18c-.19-1.53.21-1.74,1.77-1.12,1.14.46,1.79,0,1.54-1.28a1.21,1.21,0,0,1,.42-1.44c1.4-1.08,1.17,1.65,2.8.34,1.44-1.17-1.27-1.61,0-3.09a26,26,0,0,0,6.56-17.47c1.1-.8.78,1.3,2.58-.1.5-.39.28-.81,0-1.25-.44-.7-1-.73-1.6-.28a6.91,6.91,0,0,1-.93.43c-1.68-2.24,1.89-2.31-.41-4.13-.38-.29-.8-.49-1-1-.67-2.1-2.1-3.75-3.33-5.52-.44-.64-1.11-1.24,0-1.9a.81.81,0,0,0,.21-1.25c-.34-.54-.71-.62-1.39-.47-1.84.39-2.76-.34-3.18-2.24-.25-1.13-.64-1.43-1.8-.9-.9.41-1.51,0-2.25-.28-10.7-3.79-20.11,1.13-23.19,9.64-.34.94-.53,1.72-1.84,1.77a.94.94,0,0,0-.24,1.76c1.18.53,1.34,1.33,1.43,2.45.4,5,2.72,8.75,7.35,10.94.87.41,2.15.54,1.5,2.11-.28.68,1.66,1.4,1.91.4.3-1.16,1-1.39,2.1-1.42,3.74-.09,6.47-2,8.55-5,.53-.76.78-1.7,1.95-1.89.56-.1.87-1.07.51-1.38-.87-.75-.75-1.68-.91-2.6-.45-2.46-3.08-2.8-4-.58a11.45,11.45,0,0,0-1.2,3.34c-.32,3.28-4.62,4.1-7.88,3.13-.75-.22-1.74-.37-1.33-1.75.16-.53-.3-1.59-1.28-1.17s-1.44-.17-1.81-.9c-3.71-7.27,2.79-16.17,11.06-15.51a1.2,1.2,0,0,1,.08.43c-.26.9-.51,1.81.78,2.06,1.08.21,1.12-.76,1.25-1.38.26-1.31,1.18-.9,1.85-.72,7.69,2.07,11.86,9.59,11.72,17.06-.64,1.33-1.85-.5-2.3.91-.24.78-.19,1.44.76,1.69s1,.94.72,1.83c-2.6,8.46-8.54,13.24-16.89,15.35a18.38,18.38,0,0,1-5.23.52c-.94,0-1.82.14-2.23-1.18a1,1,0,0,0-1.83,0c-.37.74-1,.71-1.65.55a26.23,26.23,0,0,1-11.69-5.81c-.52-.48-1-.84-.57-1.8.36-.74-.07-1.79-1.14-1.44-1.26.42-1.8-.25-2.39-1-3.12-4-5.57-8.47-6.39-13.53-2.31-14.15,2.3-25.79,13.12-35.06,7.6-6.52,19.46-10.35,29.78-9.84,1,0,2-.07,2.3,1.44.19.9,1.32.87,1.85-.09s1-.71,1.79-.58c11.17,2,21.32,8.38,25.6,13.26-.15.8-.7.9-1,1.21-.57.5-.4,1,0,1.45a.91.91,0,0,0,1.25.29c2-.9,2.05-.93,3.35.68A61.42,61.42,0,0,1,307.71,152c.35,1,.88,1.91.24,3s1.1,1.13,1.57,3.55c2.87,14.65,1.62,25.23-3.58,37.77-18.91,45.58-84,60-127.34,18.95-.79-.75-2.14-1.36-.74-2.83.43-.46-.64-1.62-1.17-1.22-1.59,1.19-2.27-.08-3.07-1-11.26-12.6-13.66-19.67-21.05-34.7-.39-.79-.55-1.42.19-2.13,4.74-4.6,5.09-10.42,4.51-16.48-.13-1.34-.54-2.66-.69-4-.11-1-.66-1.32-1.52-1.51a29.81,29.81,0,0,0-6.93-.3c-2.29.05-2.39,0-2.65-2.29-.35-3.18-.64-6.36-.92-9.54-.32-3.7,2.62-.06,10.81-4.64a12.55,12.55,0,0,0,4.37-4c5-7.65-1.08-15.38-9.09-19-1.51-.68-1.53-.71-1-2.26a77.45,77.45,0,0,1,4.21-9.67c1.43-2.86,2.24,1.19,10.3,1.34,4.31.08,8.54-.41,11.21-4.54,3.39-5.24,1.27-12.26-2.22-17.28-1.34-1.92-1.32-2,.59-3.39,2.45-1.79,4.94-3.54,7.43-5.28,3.64-2.55.85,1.1,9.64,6.58,7.88,4.91,14.71.35,17-6.47,2.65-8-1-10.79,1.88-11.08,13.31-1.36,12.17-1.79,12.66,1.09.63,3.72,1.48,7.35,3.9,10.43,5.46,7,15.63,5.82,21.39-5.35,1.46-2.83,1.46-2.88,4.41-1.59,2.57,1.11,5.1,2.3,7.62,3.52,3.17,1.53.05,1-1.06,10.59-1.37,11.94,12.83,19,25.26,7.61a1.49,1.49,0,0,0,.38-1.9,30,30,0,0,0-3.12-6.2c-.72-1-.84-1.72.33-2.53,7.25-5,7.32-6.38,8.73-4.67a20.35,20.35,0,0,0,7.4,5.56,9.49,9.49,0,0,0,11.87-4.35,18.53,18.53,0,0,0,1.69-8.85c-.12-2.7-.08-2.75,2.6-3.16,2.2-.35,4.43-.6,6.65-.81,1.76-.17,1.82-.13,2.08,1.67,2.5,16.89,16.88,18.85,23,2.85.38-1,.8-1.2,1.78-.82,2.68,1,5.31,2.22,7.91,3.45,1.95.93-.1,1.47-1,8.17-1.26,9.42,7.65,16.14,19,8.78l2-1.31a89.06,89.06,0,0,1,5.87,7.7c1.75,2.44-2.79,1.8-6.44,9.48A9.6,9.6,0,0,0,379.66,112a19.91,19.91,0,0,0,8.71,1.19c2.1-.09,2.13-.07,2.5,2.07a48.34,48.34,0,0,1,.82,6.89c.07,2,.07,2.11-2,2.41-5.48.79-9.48,2.85-12,8.33a7,7,0,0,0-.17,4.93c1.24,4.33,4.45,6.9,8.13,9,2.67,1.53,2.65,1.47,1.44,4.35a2.92,2.92,0,0,1-2.59,2c-2.81.43-5.56,1.19-8.9,1.93,11.47,4.32,45,27.54,48.27,61.26,2.74,28.13,2.1,47,21.2,58.93,3.87,2.4,7.92,4.52,11.55,7.3,5.7,4.36,6.21,10.9,1.28,16.17-3.71,4-8.71,7-13.75,9.95-.87.51-1,1-.4,1.9,6.41,9.44,11,8.59,18.69,11.94a3.33,3.33,0,0,1,2.29,3.7,13.92,13.92,0,0,1-4.33,9.6c-11.64,11-21.5,11.57-23.72,12.3a9.46,9.46,0,0,0,5.52,1c11-1.38,17.23-7.4,20.57-1.57a11.24,11.24,0,0,1,.61,9.93c-1.89,5.08-11.09,2.82-13.93,10.26-2.34,6.13,2.36,7.85,3.82,17.84.69,4.8-.24,8.93-3.88,12.45a29.8,29.8,0,0,1-17.81,8.47c-8.78,1.05-17.38.07-25.94-1.7a232.17,232.17,0,0,1-24.84-7.16c-1.24-.65-1.71,0-2.08,1.07-11.28,32,.16,72.77,1.44,95.78C349.24,459.6,321,435.12,274.46,432.23c-4.37-.27-16,.2-16.28.24-2.8.43-2.65.59-2.41,2.53s-1.24,2.31-2.64,3.16a8.82,8.82,0,0,1,.11-4c7.43-21.39,1.11-57.52-16.22-75.61-2.39-2.49-5.32-2.65-8-.41s-3.67,5.17-3.83,8.48c-.15,3.11-.1,3.12-3.16,3.33-1.26.09-2.77.61-3.72.1s-.74-2.3-1.13-3.5c-2.62-8.11-9.74-10.1-15.57-3.85-2.47,2.65-1.88,5-3.86,4-4.47-2.26-5.76-2-5-4,4.55-12.19-5.84-17.46-14.29-11.56a1.2,1.2,0,0,1-2-.35c-1.61-2.38-2.94-3.19-2.95-4.55s1.68-2,2.53-3.05c6.83-8.47,1.38-15.68-7.9-15.5-1.86,0-1.86,0-2.13-1.91-.32-2.28-1-4.22,1.27-4.17.23,0,.46.15.7.16,2.57.11,3.19-.56,2.93-3.11a16.85,16.85,0,0,0-2.8-8.06c-6.06-8.88-17.88-3.2-21.77,6-1.34,3.18-1.12,2.56-3.74,1.61a87.6,87.6,0,0,1-9.78-4.54c-1.59-.81-1.63-.87-.83-2.58a26,26,0,0,0,2.22-7.56c1.88-14.43-12-19-23.9-10.18-.45.33-.91.64-1.56,1.09a111.1,111.1,0,0,1-8.77-12.21c.34-.87,1.17-1.1,1.78-1.57,15.67-12.11,7.83-25.76-4.85-26-6.08-.1-7.37.7-7.57-1.29a116.17,116.17,0,0,1-1.07-11.93c0-1.93,0-1.94,2-2.06,12.79-.8,21.43-11.62,12.87-21.46a23.75,23.75,0,0,0-8.52-6.1c-1.6-.7-1.6-.73-1-2.44A72.53,72.53,0,0,1,98,199.35a5,5,0,0,1,1.3-2c3.55,1.45,7.67,3.68,15.3,2.44,8.41-1.38,12.37-11.63,4.31-23.19-1.3-1.86-1.29-2,.38-3.29,2.91-2.25,5.89-4.41,9-6.37,1.64-1,1.65-1,2.8.53,3.68,4.84,9.68,9.84,15.74,8.95,1.12-.16,1.39.44,1.75,1.18,7.93,16.62,7.15,15.75,15.22,27.12a84.94,84.94,0,0,0,9.62,11.94c14,13.64,30.4,22.67,49.75,26.09,1,.18,1.73.31,1.2,1.6-.33.77.39.91.89,1.12,1.09.45,1.14-1.17,1.3-2.21,8.61,1.54,25.41.77,36.64-3.11.92-.31,1.66-.41,2.16.7.25.53.62,1.16,1.48.69,1.07-.58.69-1.23.22-1.95-.07-.11,0-.3-.06-.57,1.34-.61,2.72-1.22,4.09-1.85,24.15-11.11,38.51-29.9,43.39-52.75.23-1.07.44-2.08,2-1.47.77.3.89-.46,1.08-1s0-1-.58-1.08c-4.11-.5,1.3-4-3.1-24.45-.44-2-.18-4.27-1.79-5.94-4.47-12.21-11-18.58-12.24-20.76l.33-.46c.63-.38,1.73-.42,1.47-1.52-.13-.54-.46-1.27-1.36-.95-1.2.43-1.08,1.18-.55,2.06l-.39.36c-2.05-1.42-3.62-3.36-5.55-4.91-15.1-12.14-33.27-14.6-47.05-10.42-.88.27-1.74.79-2.67,0a.9.9,0,0,0-1.39.46c-.34,1.23-1.35,1.43-2.27,1.85-13.71,6.29-22.22,17.11-25.34,30.59-.23,1-.13,2.23-1.83,1.67-.58-.19-.71.5-.89.92-.23.58.09.92.59,1.1a8.94,8.94,0,0,0,1.17.21Zm40.35,7.21c.69,1.33.93,2.27,2.21,1.27.72-.56.41-1.05,0-1.57-.93-1.12-1.46.35-2.22.33-.32-.44.05-1.17-.62-1.44-.43-.18-.86-.53-1.34-.25a1.37,1.37,0,0,0-.59,1.24c0,.71.66.77,1.16,1C253.68,158.72,253.82,157.78,254.38,157.81Zm4.8-23c-.37.07-.58-.18-.81-.4-.7-.67-1.16-.08-1.6.34-1,1,1.08,1.26,2.41,5.34-.48.46-1.09,0-1.59.21a1.26,1.26,0,0,0-.72,1.37c.05.73.71.77,1.24.87,1.09.2,1-1.32,1.06-2.47,2.35-.53,2.54-1,1.35-2.88-.66-1.07-1.79-.65-1.36-2.39.82-.73,2.19.82,2.4-1.36.06-.73-.46-.89-1-1-.77-.22-1,.3-1.11.84S259.26,134.26,259.18,134.78ZM239,203.4c.15,0,.36,0,.44.12.6.79,1.19.56,1.84.06s.25-1,.08-1.49c-.46-1.44-1.68-2.3-2.57-3.4a.78.78,0,0,0-1.24-.14c-.41.32-.69.72-.45,1.23a4.65,4.65,0,0,0,1.31,2,1.45,1.45,0,0,1,.61,1.67c-.4.39-.91.08-1.35.19a1.3,1.3,0,0,0-.89,1.48c0,.73.75.73,1.26.79C239.13,206,239,204.57,239,203.4ZM221.18,328.21c5.26-1.38,31.32-25,35.54-28.68a2.54,2.54,0,0,0,1-2.06c0-2.24,0-4.47,0-6.71l.12-.07C254.3,294,222.19,323.46,221.18,328.21ZM396.91,220.72c-.18-.24.18-.69-.31-.81a.76.76,0,0,0,.34.79c.35,4.54,1.25,9,2,13.48a44,44,0,0,0,11.12,23c.25.27.64.51.39,1.12a24.7,24.7,0,0,1-7.49,2.78c-8.48,1.94-16.84.55-34.86-1.41.52.83,1.3.84,2,1,15.77,4.53,32.31,9.35,47.27,3a9.58,9.58,0,0,0,3.29-1.86c-12.87-11-15.46-17.5-21.33-34.59A36.22,36.22,0,0,0,396.91,220.72ZM318.86,336.46c-.11,1-.14,1.73-.28,2.43-2.06,10-15.75,6.18-24.36.75-19.85-12.51-38.05-40.71-26-57.74a10.69,10.69,0,0,1,8.5-4.64c6-.4,10.75,1.79,15.93,3.94a5.06,5.06,0,0,0-1.53-2.8c-5.36-5.78-16.49-7.08-24-2.47-3.76,2.31-5.47,6-6.46,10-4.72,19.18,5.47,35.94,20.19,49.26a58.45,58.45,0,0,0,25.65,13.89c4.66,1.13,11.26,2.64,13.87-1.38C322.36,344.65,321.73,339.43,318.86,336.46Zm-25.5-7c.13-.66-.09-.8-.27-.95-10.9-9.05-24.37-26.45-15-37.15,3.32-3.81,7.35-3.93,10.44.29a16.08,16.08,0,0,1,2.91,14.06c-1.68,6.56-3.49,12.29,2.59,16.62s14.9,2.86,16.59,10.6c0,.06.13.09.29.21,1.78-3.26-.83-6.36-4.24-8.06-6.29-3.14-9.12-3.94-11.42-6-3.55-3.2-2.23-6.85-.68-11.31s1.33-9,1-13.53a13.94,13.94,0,0,0-.87-3.23c-2.37-7-12.17-10.14-18-4.06-8.42,8.73-7.25,24.76,10.55,38.35A44.19,44.19,0,0,0,293.36,329.5Zm46-105.73A23.57,23.57,0,0,0,328.58,225c-.43.15-1.14.67-1.29.32-.75-1.76-1.8-.4-2.44-.16-8,3-14.91,11.16-16.93,18.19-.25.87-.23,1.41.75,1.91a4.87,4.87,0,0,1,3,3.79c.1.92.78.87,1.43.86a12.67,12.67,0,0,0,8.21-3.47c1.77-1.52,2.89-3.59,4.29-5.43.76-1-1-.85-.37-1.74C329.09,233.4,332.92,227.49,339.34,223.77Zm-46.2,43c1-.22,13.65-12.17,15.61-15.09,1-1.52,1-2.19-.15-3.33-2.14-2.15-2.94-1.51-18.73,13-.49.45-1.33,1-.41,1.7C290.91,264.15,291.59,265.37,293.14,266.72ZM430.3,289c-1,3.46-3.1,5.72-5.16,8-2.87,3.21-2.43,9.69,2.69,11.88,10.36,4.44,13.7-8.43,22-7.79.09,0,.19-.22.28-.34-1.6-1.78-3.2-2-5.47-.66-5.61,3.36-8,5.58-11.18,6.39s-5.51-.66-6.43-3.74c-.86-2.91,1.16-5.56,2.57-8.73A7.23,7.23,0,0,0,430.3,289ZM280.08,270.53A31.28,31.28,0,0,1,286.6,272a1.11,1.11,0,0,0,1.31-.2c3.41-3.1,4.45-3.52,3.62-4.49-2.38-2.81-3.46-4.47-4.74-3.24C284.57,266.25,282.32,268.39,280.08,270.53ZM250.26,161c.22,1,1.14,1.32,1.86,1.76.48.3,1.11.57,1.54.06A1.52,1.52,0,0,0,254,161c-.57-1.2-1.11-1.54-2.53-1.19a3.85,3.85,0,0,1-1.88-.11c-1.34-.28-1.88.26-1.58,1.6.06.32.67.51.13.94s-.29,1,.06,1.45,1.13.84,1.14,1.73c0,.67.72.78,1.27.86s.73-.25.84-.67.2-1.09-.45-1.44C249.55,163.43,249.75,162.24,250.26,161Zm-46.52-13.48c-.44-.4-1.26-.63-1.19-1.29.14-1.36-1.19-1.56-1.67-2.41-.22-.4-.68-.31-1,0s-.8.6-.58,1.16.51,1.29,1.08,1.51a1.81,1.81,0,0,1,1.31,1.89c.09,1.09.82,1.35,1.64.69s1.24-1.11,2.27-.9c.71.14.82-.62,1-1.13A.73.73,0,0,0,206,146C204.12,145.33,204.69,147,203.74,147.49Zm81.06,22.94c-.17.07-.46.1-.59.27a6.61,6.61,0,0,1-3.35,2.41c-.75.24-.65.94-.25,1.58s.81.69,1.35.25c1.06-.85,2.7-.51,3.83-2.56A1.32,1.32,0,0,0,284.8,170.43Zm-3.33-2.14c-.68,0-1.72,1.32-1.86,2.25s.51,1.05,1.14,1.15c.44.06,1.81-1.42,1.74-2A1.68,1.68,0,0,0,281.47,168.29Zm-18.35-41.56c.92.11.87-.7,1-1.24.21-.94-.65-1-1.19-1.08-.9-.17-1,.68-1.08,1.23C261.66,126.58,262.54,126.47,263.12,126.73Zm-40.69,25c-.07-.79-.77-.92-1.33-1-.88-.09-.95.75-1,1.31-.13.92.75.88,1.3,1C222.36,153.27,222.11,152.32,222.43,151.78Zm17.69,43.81c-.74.16-.78.9-.83,1.44-.09.86.72.95,1.3,1,.83,0,1-.76,1-1.35C241.56,195.85,240.77,195.82,240.12,195.59Zm-2.26,13c-.08-.87-.84-.87-1.39-1-.95-.12-.88.78-.95,1.31-.11.89.75,1,1.3,1C237.67,210,237.61,209.1,237.86,208.55Zm-28.49-59.2c1,.16,1-.65,1.11-1.19.19-.91-.65-1-1.2-1.1-.95-.21-.92.65-1.07,1.2C208,149.26,208.89,149.08,209.37,149.35Zm52.22,83c-.38.37-1.21.48-1.14,1.24.16,1.87,2.57,1.33,2.38.08A1.4,1.4,0,0,0,261.59,232.38Zm-29.92-58.95c-.37.41-1.24.51-1,1.35.12.5.38,1.19,1.05,1.11C233.45,175.7,233.34,173.7,231.67,173.43Zm-23-18.37c-.32-.49-.5-1.27-1.21-1.28a1.21,1.21,0,0,0-1.29,1.15C206.18,156.26,208,156.79,208.69,155.06Zm35.4,51.26c-.34-.43-.46-1.21-1.23-1.2a1.22,1.22,0,0,0-.24,2.41C243.24,207.59,243.77,207.07,244.09,206.32ZM217.75,267c-.88,0-1,.74-1.09,1.31-.17.82.57.83,1.08,1,.93.23,1.06-.5,1.2-1.11C219.18,267.14,218.27,267.26,217.75,267Zm-34-60.72c-.58.31-1.32.5-1.19,1.27.09.57.42,1.33,1.18,1.16.53-.11,1.33-.42,1.18-1.18A1.42,1.42,0,0,0,183.73,206.24Zm96.21-65.62c-.49.32-1.27.5-1.29,1.21a1.21,1.21,0,0,0,1.16,1.28C281.16,143.13,281.64,141.32,279.94,140.62ZM225.27,248.21c0-.74-.54-.85-1.07-1-.88-.2-1.07.47-1.21,1.08-.2.91.51,1,1.13,1.12C225,249.55,225.06,248.81,225.27,248.21Zm-2.53,2.93c-.79-.08-.87.5-1,1.05-.15.84.4,1.12,1.06,1.25.95.2,1-.61,1.12-1.17C224.13,251.36,223.25,251.42,222.74,251.14ZM211,158.49c-.27-.57-.47-1.32-1.22-1.24a1.15,1.15,0,0,0-.19,2.3A1.41,1.41,0,0,0,211,158.49Zm20.69,67.24c.72,0,.87-.53,1-1.07.17-.86-.47-1.07-1.09-1.21-.92-.2-1,.54-1.11,1.14C230.37,225.48,231.15,225.5,231.72,225.73Zm68.14-63.48c-.34-.44-.53-1.22-1.35-.94-.47.16-1.23.34-1,1.05.14.55.4,1.33,1.19,1.21A1.29,1.29,0,0,0,299.86,162.25Zm-35.3,2.23c-.76.11-.86.82-.85,1.39,0,.81.78.92,1.39.92s.77-.68.8-1.22C265.94,164.69,265.25,164.63,264.56,164.48Zm18.91-26.16c-1.87.39-1.37,2.28-.41,2.43C284.57,141,285.09,139,283.47,138.32Zm-3.29,27.81c-.3-.54-.47-1.32-1.26-1.18-.57.1-1.34.39-1.17,1.21A1.22,1.22,0,0,0,280.18,166.13Zm-58.68,94c0-.59-.49-.82-1.05-.92-1-.18-1.2.58-1.28,1.28s.61.82,1.13.91C221.19,261.52,221.25,260.77,221.5,260.09ZM259.34,154.7c-.46.34-1.31.39-1.29,1.16a1.22,1.22,0,0,0,2.4.32C260.52,155.52,260,155,259.34,154.7Zm-29,75c.89.14,1-.54,1.17-1.14s-.41-.94-1-1c-1-.21-1.21.54-1.3,1.24S229.83,229.51,230.32,229.68Zm61.42-61.42c.51-.35,1.36-.46,1.14-1.29-.14-.56-.39-1.35-1.24-1.11-.5.14-1.13.46-1,1.12A1.29,1.29,0,0,0,291.74,168.26Zm-13.89,1.08c0-.92-.68-1.07-1.27-1.11-.88-.06-.93.73-1,1.32s.64.84,1.15.93C277.66,170.64,277.71,169.9,277.85,169.34Zm-39.26-.62c-.25.5-1.24.41-1.14,1.23a1.2,1.2,0,0,0,2.38.19A1.49,1.49,0,0,0,238.59,168.72Zm18-36.7c-.21-.61-.47-1.27-1.18-1.31a1.26,1.26,0,0,0-1.23.95C253.94,132.83,255.69,134,256.59,132Zm-21.21,39.09c-.58.23-1.36.37-1.35,1.12a1.21,1.21,0,0,0,2.39.31C236.49,171.88,236,171.41,235.38,171.11Zm-71,50.62c-.49-2-2.21-1.41-2.42-.47C161.66,222.5,163.44,223.54,164.36,221.73Zm113.29-77.48c-.35-.53-.55-1.32-1.34-1.1-.54.15-1.36.4-1.05,1.27.17.48.45,1.15,1.13,1S277.6,145,277.65,144.25ZM234,220.63c.12-.94-.66-1-1.2-1.14-.78-.22-.88.43-1,1-.16.82.35,1.13,1,1.28C233.84,222,233.77,221.13,234,220.63Zm63.78-45.34a1.31,1.31,0,0,0-1.51-.82c-.82.06-.82.92-.81,1.48,0,.75.83.71,1.31.76C297.74,176.8,297.48,175.84,297.8,175.29Zm-34.92-45.74c.14-.9-.55-1.05-1.14-1.18-.74-.17-.93.42-1.05,1-.21,1,.54,1.21,1.24,1.3S262.72,130.05,262.88,129.55ZM166.68,218c-.63.19-1.32.47-1.32,1.16a1.2,1.2,0,0,0,1.15,1.26C167.73,220.39,168.42,218.83,166.68,218Zm66.3-1.15c.06.71.62.84,1.15.93.89.13,1.07-.57,1.16-1.17.14-.9-.62-1-1.23-1C233.19,215.46,233.2,216.26,233,216.82Zm13.48-41c-.89.13-.9.93-.89,1.46,0,.84.91.82,1.46.83.75,0,.71-.81.77-1.29C247.92,175.89,247,176.15,246.46,175.86Zm70.66-25.1c-.31-.49-.45-1.33-1.25-1.1-.52.15-1.37.41-1.12,1.24.16.56.54,1.25,1.36,1A1.14,1.14,0,0,0,317.12,150.76ZM235.5,213.85c.81-.07,1-.7,1-1.33,0-.87-.75-.92-1.34-1-.76-.06-.81.61-.88,1.14C234.19,213.56,234.88,213.67,235.5,213.85Zm69-34.61c.83.06,1-.57,1.1-1.2.12-.9-.62-1-1.22-1.07-.78-.14-.88.48-1,1C303.26,178.84,303.87,179.05,304.53,179.24Zm-57.94,1.67c0-.92-.71-1-1.31-1-.77-.11-.84.53-.93,1.07-.13.86.52,1.12,1.14,1.19C246.34,182.23,246.42,181.49,246.59,180.91Zm78.8,3.48c.13-.86-.46-1.11-1.1-1.23-1-.17-1,.66-1.07,1.21-.15.9.7,1,1.25,1.07C325.23,185.59,325.3,184.93,325.39,184.39Zm-96.46-31.15c-.54.09-.76.57-.86,1.12-.17.88.48,1.08,1.1,1.2.91.18,1-.54,1.11-1.15C230.4,153.52,229.62,153.5,228.93,153.24ZM215.81,186.5c-.26-.56-.39-1.31-1.2-1.21a1.16,1.16,0,0,0-.16,2.31A1.33,1.33,0,0,0,215.81,186.5Zm15.13,3.88c2-.46,1.15-2.31.19-2.37C229.59,187.92,229.18,189.91,230.94,190.38Zm-39.15,12.43c-.33-.52-.42-1.35-1.27-1.16-.5.11-1.2.37-1.14,1A1.21,1.21,0,1,0,191.79,202.81Zm16.06-12.94c-.58.27-1.37.42-1.24,1.21.08.56.37,1.33,1.21,1.14.5-.11,1.2-.37,1.13-1A1.37,1.37,0,0,0,207.85,189.87Zm34.94,3c.08-.83-.58-1-1.18-1.12-.76-.16-.92.45-1,1-.22,1,.57,1.19,1.26,1.28S242.62,193.42,242.79,192.87Zm-16.4-39.81c0-.75-.54-.85-1.08-.94-.84-.13-1.09.41-1.16,1.09-.09.84.5,1.08,1.16,1.11C226.15,154.36,226.23,153.66,226.39,153.06Zm43-46.19c.88-.07,1-.77,1-1.36s-.63-.82-1.16-.89c-.88-.1-1,.62-1.11,1.22C268,106.73,268.84,106.71,269.39,106.87Zm-.22,2.79c0-.83-.58-1.06-1.21-1.1-.85-.06-1,.66-1,1.27,0,.88.73.94,1.33,1C269,110.89,269,110.2,269.17,109.66Zm-33.56,87.61c.58-.27,1.37-.43,1.25-1.21-.09-.56-.39-1.33-1.22-1.14-.5.11-1.2.36-1.13,1A1.35,1.35,0,0,0,235.61,197.27Zm-29.37-45.58c-.21-.6-.39-1.34-1.1-1.34-1.55,0-1.47,2.29-.3,2.38A1.49,1.49,0,0,0,206.24,151.69Zm-7.6,46.4c-.35-.38-.38-1.26-1.17-1.14-.54.08-1.26.41-1.13,1.23.09.53.33,1.15,1,1.12A1.33,1.33,0,0,0,198.64,198.09Zm5.67-3.44c.56-.28,1.21-.52,1.08-1.31-.09-.53-.3-1.17-1-1.11A1.21,1.21,0,0,0,204.31,194.65Zm39,6.12c.5-.25,1.21-.45,1.26-1.13a1.12,1.12,0,1,0-2.2-.4A1.39,1.39,0,0,0,243.33,200.77Zm12-47.64c0-.73-.53-.92-1.1-1-.86-.07-1.11.59-1.11,1.23,0,.85.74,1,1.37,1S255.23,153.7,255.31,153.13Zm-1.69,40.61c.63-.17,1.3-.44,1.36-1.12a1.19,1.19,0,0,0-.87-1.26C252.73,191.11,251.88,192.91,253.62,193.74ZM194,199.23c-.57.28-1.21.53-1.07,1.32.09.52.3,1.17,1,1.1A1.21,1.21,0,0,0,194,199.23Zm71.33-77.61c.09-.77-.36-1-1-1.14-.88-.15-1.16.46-1.24,1.11-.1.86.62,1,1.26,1.09S265.24,122.12,265.35,121.62Zm-53,67.06c-.35-.43-.48-1.2-1.3-1-.53.1-1.16.35-1.09,1s.36,1.3,1.12,1.22A1.26,1.26,0,0,0,212.39,188.68Zm29-78.55c-1.94.46-1.47,2.38-.24,2.42S242.84,110.81,241.38,110.13ZM220.25,263.92a1.31,1.31,0,0,0-1.43-.83c-.67.07-.82.68-.85,1.22-.07.88.66,1,1.26,1C220.09,265.37,220,264.56,220.25,263.92Zm50.11-163.29c-.84,0-.92.73-.95,1.29,0,.84.79.91,1.35,1,.76.09.79-.61.85-1.14C271.72,100.88,271,100.79,270.36,100.63ZM254.2,128.54c-.24-.57-.41-1.33-1.16-1.25-1.7.17-1.18,2.44-.14,2.38A1.41,1.41,0,0,0,254.2,128.54ZM219.26,184c-.28-.46-.44-1.19-1.23-1.08a1.18,1.18,0,0,0,0,2.35A1.37,1.37,0,0,0,219.26,184Zm102.23-.93c0-.85-.59-1.07-1.25-1.11s-.9.61-1,1.15c-.12.9.58,1,1.23,1.06S321.38,183.63,321.49,183.06Zm-98.85-1.34c-.2-.62-.44-1.27-1.21-1.17a1.19,1.19,0,0,0,0,2.36A1.33,1.33,0,0,0,222.64,181.72Zm49.52-1c-.27-.31-.27-1.06-1-1a1.19,1.19,0,0,0-.2,2.38A1.23,1.23,0,0,0,272.16,180.76Zm-90.75,29.1c-.24-.54-.35-1.35-1.12-1.26a1.19,1.19,0,0,0-.17,2.37A1.25,1.25,0,0,0,181.41,209.86ZM309.55,179.3c0-.87-.61-1.1-1.22-1.12-.84,0-.95.8-1,1.35-.06.88.78.88,1.35.91C309.43,180.48,309.46,179.82,309.55,179.3Zm-33.81-.7c-.34-.46-.48-1.21-1.3-1.07-.53.09-1.16.34-1.1,1A1.2,1.2,0,1,0,275.74,178.6ZM245.14,211c.56-.29,1.21-.55,1.06-1.33-.09-.52-.31-1.17-1-1.1A1.22,1.22,0,0,0,245.14,211Zm5.87,5.75c-.19-.59-.31-1.34-1-1.36a1.19,1.19,0,0,0-.36,2.34C250.33,217.82,250.73,217.31,251,216.71Zm49.59-41c-.78-.1-1,.38-1.08,1-.15.85.33,1.16,1.05,1.24s1-.43,1.1-1C301.89,176,301.16,175.91,300.6,175.7ZM170.05,218.07c.37-.36,1.21-.46,1.06-1.25-.1-.56-.36-1.33-1.16-1.17A1.22,1.22,0,0,0,170.05,218.07ZM279.18,176.3c-.36-.4-.4-1.26-1.23-1.1-.55.11-1.31.32-1.17,1.15C277.07,178,278.89,177.66,279.18,176.3Zm-4.93-29.57c-.23-.6-.49-1.26-1.22-1.23a1.15,1.15,0,0,0-.19,2.3A1.56,1.56,0,0,0,274.25,146.73ZM293.7,174.4c.07-.76-.36-1-1-1.13-.87-.15-1.15.47-1.22,1.11-.1.87.62,1,1.26,1.09S293.59,174.91,293.7,174.4Zm11.4-49c-.39-.35-.4-1.24-1.25-1-.61.14-1.17.55-1,1.32.12.51.34,1.16,1,1A1.4,1.4,0,0,0,305.1,125.43ZM289.8,173c0-.88-.74-1-1.31-1-.84,0-1,.74-.93,1.33,0,.84.83.88,1.41.88S289.68,173.53,289.8,173Zm-34.05,50.42c-.18-.63-.44-1.25-1.19-1.19a1.19,1.19,0,0,0-.07,2.36A1.35,1.35,0,0,0,255.75,223.45Zm8-81.31c-.5-.25-.4-1.23-1.22-1.15a1.17,1.17,0,0,0-.23,2.32A1.45,1.45,0,0,0,263.73,142.14Zm24.63,26c-.45.29-1.19.44-1.18,1.17a1.11,1.11,0,1,0,2.21.05A1.27,1.27,0,0,0,288.36,168.11Zm-37.78-41.79c.56-.27,1.27-.5,1.19-1.23a1.11,1.11,0,1,0-2.19.11C249.69,125.72,249.91,126.25,250.58,126.32Zm-16.37,29.21c0-.72-.54-.92-1.11-1-.87-.06-1.09.62-1.09,1.25,0,.85.74,1,1.37,1S234.14,156.1,234.21,155.53ZM273,97.58c-.17-.8-.85-.93-1.44-.91s-.78.67-.8,1.23c0,.86.68,1,1.27,1C272.84,98.94,272.73,98.09,273,97.58ZM259.3,229c-.48.31-1.17.51-1.08,1.3a1.11,1.11,0,1,0,2.21.06A1.35,1.35,0,0,0,259.3,229Zm-29,3.32a1.23,1.23,0,0,0-1.43-.92c-.73,0-.78.68-.82,1.23-.05.76.52.93,1.09,1C230,233.65,230.11,233,230.27,232.3Zm-7.61,23.93c0-.9-.67-1.07-1.26-1.09-.85,0-.9.78-1,1.33-.07.71.65.83,1.14.91C222.47,257.53,222.52,256.79,222.66,256.23Zm72.57-92.75c-.55.31-1.37.45-1.2,1.24.12.56.5,1.28,1.28,1.09.48-.11,1.19-.35,1.06-1S296,163.56,295.23,163.48Zm-67.54,71.8c-.81.1-.94.82-1,1.38-.06.88.79.87,1.35.91.73.05.8-.61.85-1.15C229,235.57,228.3,235.46,227.69,235.28Zm-15.64-74.57c-.52.2-1.17.37-1.1,1s.34,1.32,1.11,1.24C214.13,162.74,213.26,160.64,212.05,160.71ZM286.81,136c-.55.27-1.24.44-1.2,1.22a1.13,1.13,0,0,0,2.25.15A1.34,1.34,0,0,0,286.81,136Zm16.46,23.92c-.33-.4-.44-1.2-1.29-1-.52.14-1.09.47-1,1.11s.32,1.34,1.11,1.21A1.32,1.32,0,0,0,303.27,159.91Zm-58.48-1.66c-.76.16-.86.82-.85,1.41s.65.85,1.17.88c.83,0,1-.66,1-1.28C246.17,158.39,245.41,158.41,244.79,158.25Zm60.72.76c.52-.31,1.26-.45,1.15-1.27-.08-.53-.32-1.15-1-1.13A1.2,1.2,0,0,0,305.51,159Zm-14.2-24.11c-.29-.51-.36-1.34-1.17-1.19a1.19,1.19,0,0,0-.07,2.37A1.25,1.25,0,0,0,291.31,134.9ZM270,244c-.31-.52-.47-1.25-1.28-1.14-.53.07-1.15.33-1.13,1A1.21,1.21,0,0,0,270,244ZM248.25,120.43c-.42.25-1.07.45-1.05,1.08s.25,1.37,1.06,1.28C250,122.58,249.69,120.63,248.25,120.43Zm15.63,33.17c-.32-.5-.46-1.32-1.25-1.11-.5.14-1.31.39-1.07,1.23.14.5.41,1.15,1.07,1S263.83,154.39,263.88,153.6Zm-30.51,40.21c.41-.23,1.08-.32,1.11-1a1.18,1.18,0,0,0-2.31-.43C232.1,193.09,232.63,193.52,233.37,193.81Zm15.82.9c.19.61.38,1.32,1.13,1.33,1.61,0,1.36-2.41.07-2.38A1.4,1.4,0,0,0,249.19,194.71Zm-1.11,2.59c-.21-.57-.36-1.34-1.12-1.32a1.18,1.18,0,0,0-.09,2.35A1.32,1.32,0,0,0,248.08,197.3Zm-59.72,7.82c-.35-.5-.55-1.26-1.33-1.07-.47.12-1.19.35-1,1s.34,1.35,1.12,1.22A1.37,1.37,0,0,0,188.36,205.12Zm60.26,8c-.26-.53-.34-1.33-1.17-1.21a1.17,1.17,0,0,0,.08,2.34A1.2,1.2,0,0,0,248.62,213.17Zm70.91-63.41c.2-.38,1-.43.83-1.16-.15-.56-.37-1.35-1.23-1.14-.53.13-1.08.52-.83,1.22C318.48,149.16,318.64,149.78,319.53,149.76ZM253.38,220c-.19-.56-.43-1.16-1.07-1.14-1.88.06-1.26,2.33-.19,2.32A1.31,1.31,0,0,0,253.38,220ZM274.07,93.8c-.05-.63-.66-.84-1.3-.89s-.85.67-.9,1.16c-.08.77.65.78,1.16.89C273.78,95.13,274,94.61,274.07,93.8Zm-75.91,48.71c.31-.39,1.14-.54.9-1.37-.15-.53-.49-1.12-1.16-1s-1.26.5-1,1.31A1.23,1.23,0,0,0,198.16,142.51Zm60,84.34c-.36-.41-.4-1.25-1.21-1.2a1.2,1.2,0,0,0-.24,2.35C257.41,228.13,257.82,227.57,258.16,226.85Zm-56.09-31c-.34-.38-.33-1.25-1.13-1.21a1.18,1.18,0,0,0-.1,2.35A1.39,1.39,0,0,0,202.07,195.8Zm-5.81-58.3c-.61.16-1.19.44-1.25,1.19a.43.43,0,0,0,.48.42C197,138.82,196.9,137.32,196.26,137.5ZM160.06,223c-.31.44.09.71.24,1,.32.7,1.13.23.64-.43C160.72,223.27,160.52,222.92,160.06,223Z"/>
    <path d="M71,193.4c0,.8-.06,1.61,0,2.4.1,1.07-.27,1.7-1.39,1.77-8,.55-9.46,1.55-9.73-1.16A19.41,19.41,0,0,0,56.59,187c-2.12-3-5.06-3.93-8.59-3.56-4.1.44-7.07,2.71-9.57,5.78-2,2.48-1.13,1.59-8.57-4.43-1-.79-1.08-1.32-.17-2.28a15.05,15.05,0,0,0,4.2-13c-.66-4.2-5.16-6.9-8.52-7.39-1.95-.28-3.93-.75-5.94-.17-1.19.35-1.68-.23-1.86-1.44-2.27-15.51.18-5.72,9.89-12.55,6-4.27,6.25-12.3-1.9-18.94-1-.82-1-1.35-.2-2.29,9-9.94,3.37-6.94,12.37-2.88,8.83,4,16.47-1.11,15.44-13.52a1.4,1.4,0,0,1,1.42-1.75c7.88-1,9.62-1.28,9.64,1,.07,9,7.93,16.66,16.09,11.8,6.19-3.69,5.48-6.73,7.75-5.08,2.07,1.5,4,3.13,6,4.82a1.62,1.62,0,0,1,.28,2.62,30.91,30.91,0,0,0-3.26,5.3c-3.09,6.19-.16,13.54,7.57,14.89,6.21,1.09,7.71-.74,7.89,1.33a71.64,71.64,0,0,1,.58,7.88c0,1.72-.15,1.91-1.86,2.12A19.27,19.27,0,0,0,99,156.82c-7.49,3.36-9.1,11-3.58,17.05,3.11,3.41,4.76,3.51,3.81,4.89a45.81,45.81,0,0,1-5.91,6.91,1,1,0,0,1-1.3,0c-.86-.57-1.75-1.11-2.61-1.7-9.66-6.64-17.78-1.45-18.39,6.53-.07.95,0,1.91,0,2.87Zm-8.73-63c-13.23-.66-23.49,11.81-23.22,23a23.31,23.31,0,0,0,23.08,22.56c13,.07,22.79-10.78,22.76-23C84.87,140.49,73.27,129.49,62.29,130.36Z"/>
    <path d="M265.83,29.29c.05-1.87.05-1.87,2-2,7.44-.63,10.39-6.43,3.17-12.23-.65-.53-1-1-.34-1.77,7.44-8.89,4-5.51,10.44-2.83,3.76,1.57,7-.36,7.39-4.4.31-3.63-.74-5.23,1.3-5.45,8.42-.9,8.06-.93,8.23,1.31.5,6.57,5.08,10,9.85,5.75,2.37-2.11,2.79-3.56,4-2.62,7.6,5.78,6.24,4.74,4.07,8.34a14.16,14.16,0,0,0-1.13,2.1c-1.49,3.75.45,7,4.48,7.45,3.6.4,5.32-.87,5.51,1.51.54,6.7,1.18,7.67-1.67,8-7.19.85-8.9,5.18-6.22,9,2.9,4.17,6.86,2-1,10-1.47,1.51-2.55-.83-6.29-2.29s-7,.67-7.28,4.68c-.22,3.7.76,4.86-1.19,5.19a33.14,33.14,0,0,1-6.44.47c-1.64,0-1.75-.11-1.87-1.79-.45-6.79-5.17-9.38-9.28-6.18-2.64,2.06-3,4.47-4.9,3-1.68-1.35-3.37-2.7-4.91-4.21a1.36,1.36,0,0,1,0-2.25c2.14-2.12,3.92-6,2.09-8.9-1.42-2.25-3.94-2.6-6.39-2.49-3,.13-3,.24-3.45-2.76A34.62,34.62,0,0,1,265.83,29.29Zm29.84-12.61c-7.59-.29-13.53,6.52-13.42,13.31a13.5,13.5,0,0,0,13.32,13,13.35,13.35,0,0,0,13.12-13.36C308.65,22.68,301.68,16.09,295.67,16.68Z"/>
    <path d="M141,378.64c0,1.7.26,2.64-1,2.78-8.61.92-4.23,1.09-7.5-5.73-1.67-3.49-4.35-4.79-9.06-3.4s-4.37,5.49-6.46,3.56c-3-2.74-4.61-3.19-3.21-4.67a9.9,9.9,0,0,0,2-3.51c2.19-6-1.25-10.05-6.89-10.65-1.44-.16-2.75.49-3.46-.31s-.64-2.4-.78-3.66a15.65,15.65,0,0,1,0-1.68.94.94,0,0,1,1-1.08c8.11-.64,12.13-7.57,6.86-13.56-2.38-2.7-2.9-2.42-.5-5.05.74-.81,1.16-2.18,2.33-2.27,1-.08,1.75,1,2.63,1.54,6,3.67,12,1.25,12.54-5.84.28-3.42-.88-3.88,3.09-4.08,3.32-.18,3.32-.18,4.13,3.11,1.28,5.22,5.67,8.58,10.43,6.2,4.25-2.13,4.25-5.16,6.33-3.28.06.06.13.1.19.15,3.72,2.7,3.72,2.7,1.48,6.65-3.36,5.95,0,12.53,8.56,11.73,1-.1,1.45.41,1.55,1.34.6,5.5.59,5.19-2.46,5.81-7.28,1.47-10.11,8.15-4.33,13.87,2,2,2.2,2-.39,4.81-1.89,2.09-1.88,2.07-4.22.64a18,18,0,0,0-2.76-1.43c-5-2-9.73,1-10.11,6.33,0,.56,0,1.12,0,1.68Zm-5.93-11.46c9.24.48,16-7.84,16.11-15.53.1-9.22-8.15-16.17-15.27-16.31-9.33-.19-16.79,7.42-16.77,15.81A15.8,15.8,0,0,0,135.08,367.18Z"/>
    <path d="M190.15,579.67V517.15c2.57.2,15.91,14.85,20.5,31.86a1,1,0,0,0,.75.91c3.81-13.8,12.57-26.75,20.44-33,.52,1.91.71,58,.25,62.46-2.61-.26-4.45-5.3-5-7.87-1.87-8.21-1.41-11.77-1.41-35.18-3.6,2.19-10.67,17.92-14.32,31.86A90.83,90.83,0,0,0,196.78,536c-.45,7.61,1.22,33.06-3.44,40.87A5.71,5.71,0,0,1,190.15,579.67Z"/>
    <path d="M472.12,579c-.78-.32.82,1.79-17.36-24.88-1.57-2.31-1.41-2.46-3.18-1.06-2.61,2.06-2.61,2.06-4.68-.59-1.47-1.89-1.47-1.9.31-3.4,2.67-2.25,2.65-2.24.65-5.11-1.64-2.35-3.23-4.75-5-7.3-1.75,2.54,2.72,37-5,42.27-1,.64-1.46.41-1.57-.71,0-.1,0-59.4.06-60.83.71.16-.75-1.68,16.86,23.72.23.33.49.64.69,1,.46.79.95.66,1.54.14,1-.89,2.1-1.72,3.11-2.63.7-.64,1.16-.5,1.79.14,3.52,3.61,3.18,3.41-1.53,7.25a1.26,1.26,0,0,0-.22,1.9,118.32,118.32,0,0,0,7.42,9.87c0-19.83-.16-28.26,1.5-35.26.7-3,1.68-5.94,4.62-6.6Z"/>
    <path d="M299.62,517c-.19.13-.37.27-.57.38-9.31,4.65-3.83,17.85,3.1,25.73a.76.76,0,0,0,1-.27,34.57,34.57,0,0,0,7.17-12.87c1.36-4.87,1.18-9.39-4.72-12.92.12-.77.74-.44,1.12-.45,3.28,0,6.56,0,9.83,0,2,0,2.08.1,2.14,2.22.29,9.27-2.89,17.38-8.27,24.75-3.4,4.67-4.25,4-2.56,6C314.75,557.62,319,567,318.7,577.7c-.06,2-.06,2-2,2-3.65,0-7.3,0-11,0,.1-.73.61-.85,1-1.09,7.95-5.08,3.49-15.77-2.06-23.3a6.88,6.88,0,0,0-2.18-2.41c-4.15,4.46-8.18,11.7-8.33,17.57a8.86,8.86,0,0,0,4.59,8.36c.75.45.59.36.95.87-.78,0-10.73,0-11.52,0-1.22,0-1.66-.4-1.71-1.64a36.89,36.89,0,0,1,4.8-20c5.41-9.68,8.12-8.85,6.09-11.25-7-8.2-11.39-17.52-10.87-28.37.08-1.78.16-1.92,1.93-1.94,3.67,0,7.34,0,11,0Z"/>
    <path d="M405.35,127a34,34,0,0,1-2.72-2.13c-1-.77-1.21-1.52-.28-2.57a8,8,0,0,0,1.57-3.21c1.29-4.55-1.18-8-6.72-8.28-2.11-.1-2.28-.2-2.6-2.22-.12-.7-.08-1.43-.13-2.15s.3-1.33,1.22-1.37a9.23,9.23,0,0,0,3.65-1.11c4.24-2.18,5.39-6.81.2-11.57-.93-.85-.34-1.36.57-2.33.76-.81,1.2-2.16,2.28-2.36s1.72,1,2.64,1.45c5.29,2.62,9.05.51,10-4.05.1-.47.07-1,.16-1.43.2-.94-.61-2.28.69-2.78a9.31,9.31,0,0,1,4.49-.24c.82.11.42,2,1.54,4.4,1.95,4.15,6,5.17,9.66,2.42,1.84-1.39,2.05-2.62,2.89-2.27a8.56,8.56,0,0,1,3.68,3c.67,1-.92,1.66-2,4.68-1.49,4,.7,8,6.25,8.43,1.7.13,3.63-1.67,3,5.09-.06.6-.68.54-1.14.65a15.91,15.91,0,0,0-3.43,1c-4.17,2.06-5.08,6.44-2.05,9.94,1.7,2,4.22,1.8-.91,6.31-.47.41-.91,0-1.3-.24-.9-.51-1.75-1.13-2.69-1.57-4.4-2.06-9.12.35-9.09,6.35,0,2.83.67,2.43-4.34,2.7-1.73.09-1.2-1.29-2.1-3.77-1.79-4.93-6.85-6.14-10.71-2.57-.47.43-.89.92-1.33,1.38A1,1,0,0,1,405.35,127Zm14.51-7.56a13.33,13.33,0,0,0,13.54-13.23c.11-7.59-6.56-13.58-13-13.6a13.65,13.65,0,0,0-13.83,13.3A13.47,13.47,0,0,0,419.86,119.41Z"/>
    <path d="M492.39,547.15c2-.15-1.48-.16,23.33-.12,2.19,0,2.18,0,2.21,2.27.15,9.26-1.58,18-7.33,25.25a14.24,14.24,0,0,1-20.69,1.51c-4.89-4.6-7.65-10.42-9.08-16.85-2.33-10.48-1.89-20.8,2.44-30.76,5.52-12.68,18.78-14.64,28.9-8.28a2.33,2.33,0,0,1,1.37,2.08c0,4.29,0,8.58,0,13.11-.95-.49-1.09-1.24-1.4-1.83-2.91-5.52-3.56-8.53-7.49-9.72-5.1-1.56-9.4-.54-13,3.51-8.22,9.25-8.94,23-4.46,33.57,6.73,15.78,21,15.56,24.92-4,.76-3.78,1.33-3.55-3-3.54-3.34,0-6.73.36-10-.54C496.14,552,493.7,550.51,492.39,547.15Z"/>
    <path d="M184.27,579.57c-4.43-1.85-5.33-8.84-5.69-13.59-1.34-17.44.68-16.91-3.54-16.91q-5.28,0-10.55,0c-2.29,0-2.32,0-2.32,2.17,0,19.39-.95,23.23-6.23,27.85-.74-.54-.42-1.32-.42-2q0-21.46,0-42.94c0-9.28,5.3-15.52,14.43-17.3,4.2-.82,8.43-.56,12.66-.47,1.22,0,1.62.58,1.67,1.79.16,4.35.2,4.37-4.22,4.34a33.8,33.8,0,0,0-10,1.11c-9.39,2.76-7.83,11.1-8,18.14,0,1.06.5,1.37,1.48,1.37q6.24,0,12.47,0c1.1,0,1.63-.36,1.58-1.52,0-1.44,0-2.88,0-4.32,0-1.74.08-1.85,1.7-1.83,6,.08,4.84-.89,4.88,4.63.06,12.16,0,24.31,0,36.47Z"/>
    <path d="M429.53,579.7c-4.08-3.11-5.22-8.59-5.65-13.76-.35-4.21-.61-8.44-.62-12.68,0-1-.22-2.06-.3-3.09-.06-.81-.48-1.1-1.24-1.1-4.32,0-8.63,0-13,0-1.08,0-1.34.53-1.34,1.49.08,16.79-.41,22.69-6.31,28.49-.54-.63-.35,2.33-.35-44.9,0-8.67,4.53-14.94,14.25-17.19,4.25-1,8.58-.63,12.89-.52,1,0,1.55.43,1.63,1.58.33,4.57.37,4.58-4.24,4.55-19.7-.15-17.7,9-17.9,19,0,1.08.32,1.61,1.51,1.6,4.15,0,8.31,0,12.47,0,1.11,0,1.6-.38,1.56-1.53-.06-1.44,0-2.88,0-4.32,0-1.74.08-1.84,1.71-1.82,6,.08,4.84-.89,4.87,4.63C429.58,552.48,429.53,563.76,429.53,579.7Z"/>
    <path d="M362.6,516.82c5.58,2.66,6.63,18.34,6.47,23.95,0,1.09.32,1.59,1.5,1.59,5.35,0,10.71,0,16.07,0,.88,0,1.32-.31,1.35-1.23.19-5.44,1.06-22.1,6.11-24.11.56,1.83.81,55.52.31,62.25-.78.28-1.18-.3-1.57-.77-4.59-5.6-5.11-22.45-4.65-27.44.19-2.09,0-2.13-2.09-2.14H371.23c-2.14,0-2.17,0-2.16,2.09,0,7.25-.15,24.71-6.47,28.25Z"/>
    <path d="M356,536.07a9.36,9.36,0,0,1-1.77-2.82c-3.56-6.57-4.71-10.74-13.27-8.88-10.69,2.32-16.32,22.18-10.79,35.62,3,7.25,8.15,12.61,15.92,11.53,5.66-.78,6.54-4.81,9-11a3.73,3.73,0,0,1,.82-1.35c.2,2.87,0,7.2.13,14.11a3.36,3.36,0,0,1-1.62,3.17c-8.09,5.6-18.94,4.76-25.61-4.86-9.75-14.07-8.92-35.36.61-48.11,3.12-4.17,7.25-6.21,12.41-6.77a17.43,17.43,0,0,1,12.55,3.62,3.46,3.46,0,0,1,1.66,3.19C356,527.55,356,531.54,356,536.07Z"/>
    <path d="M59.84,546.75A23.91,23.91,0,0,1,53.51,540c-7.22-12.18,4-30.82,22.2-21.31,1.44.76,1.14.5,1.14,6.6a26.68,26.68,0,0,0-8.13-2.95c-6.82-1.11-14.4,5.64-11.22,13a13.71,13.71,0,0,0,6.86,7.07,2.15,2.15,0,0,0,2.45-.15c1.16-.85,2.36-1.64,3.54-2.46,1.46-1,1.46-1,2.56.49,1.28,1.77,1.87,2.12,1.85,3,0,1.74-4.36,2-2.06,3.66,8.06,5.84,10.6,14.6,6.9,24a13,13,0,0,1-8.06,7.42,22,22,0,0,1-17.45-.91c-1.7-.79-2.64-1.87-2.36-3.9a38.39,38.39,0,0,0,0-4.7c1.75.9,3.18,1.75,4.7,2.4,10.21,4.4,17.84-.18,18.48-7.88.47-5.7-2.28-9.12-7-12.14-2.19-1.41-2-1.21-4.52.51-3.66,2.51-4,2.43-6.08-1.45-.7-1.29.28-1.58,1.49-2.47A2,2,0,0,0,59.84,546.75Z"/>
    <path d="M552.43,517a6,6,0,0,1-2.85,2.92c-4.74,2.9-12.84,2.65-18.05,2.73-2.47,0-2.37.05-2.68,2.49-.68,5.33-.67,12.31,2.5,16.69a7.52,7.52,0,0,0,9.07,2.94c.73-.24,1.44-.52,2.35-.85-.81,3.67-3.89,3.82-2.31,5.34a7.84,7.84,0,0,1,2.29,3.43,4.55,4.55,0,0,1-2.1-.71c-4.08-1.49-7.75,0-9.62,3.86-2.36,4.94-2.45,9.53-2.14,15.5.11,2.12.11,2.15,2.15,2.16,7.38,0,18.44-.35,21.57,5.91-.53.4,1.59.32-26.65.31-2.44,0-2.4,0-2.81-2.42-2.1-12.11.45-21.83,4.66-27.9a1.79,1.79,0,0,0,0-2.36c-5.8-8.5-6.18-18.66-4.54-28.85.17-1,.52-1.71,1.83-1.7C553.55,516.68,551.81,516.17,552.43,517Z"/>
    <path d="M278.8,517c-.55,1.56-2,2.36-3.29,3.16-4.39,2.63-12.93,2.44-17.85,2.51-2.14,0-2.1.05-2.42,2.24-.82,5.54-.74,12.88,2.73,17.31a7.39,7.39,0,0,0,8.55,2.64c.81-.25,1.6-.58,2.66-1a9.65,9.65,0,0,1-3.1,4.47c1.05,1.41,2.63,2.52,3.06,4.76-4.36-2.77-9.27-2.26-11.45,2.13a26.68,26.68,0,0,0-2.58,14.66,1.57,1.57,0,0,0,0,.23c.3,1.05-.38,2.47.64,3.15s2.18.21,3.29.21a66,66,0,0,1,12.64,1,10.41,10.41,0,0,1,7.25,5c-.52.39,1.82.31-26.62.3-2.41,0-2.41,0-2.85-2.4a40.56,40.56,0,0,1,1.41-21.48c2.34-6.5,4.58-6.59,3-9-5.83-9.32-5.9-18-4.32-28.65.16-1.08.61-1.67,1.87-1.66C279.73,516.67,278.23,516.2,278.8,517Z"/>
    <path d="M152,517c-3.62,5.72-12.06,5.68-22,5.68-1,0-1.41.29-1.56,1.32-.78,5.61-1,13.32,2.39,17.88,4.49,6.1,10.19,2.19,11.09,2.22-.2,1.45-.2,1.45-2.68,4.36,1.13,1.34,2.5,2.57,3.16,4.66a17.89,17.89,0,0,0-3.33-1.39c-3.81-.91-6.86.46-8.53,4a30,30,0,0,0-2.14,16.41c.18,1.15.64,1.46,1.7,1.44a73.87,73.87,0,0,1,14.8,1,10.08,10.08,0,0,1,7,4.74c-.35.7,1.69.53-27,.49-1.86,0-1.88,0-2.24-1.92-1.89-10.19-.89-19.74,4.52-28.38a2,2,0,0,0,0-2.42c-4.47-6.66-5.69-14.14-5.3-22,.11-2.38.6-4.74.9-7.12a1.38,1.38,0,0,1,1.59-1.38c4,.15-11.81-.07,25.68,0C150.76,516.55,151.45,516.31,152,517Z"/>
    <path d="M79.18,516.82h41.46c0,1.16-.81,1.71-1.49,2.3-2.55,2.23-5.72,2.69-8.93,3-7.42.63-7-.56-7,3.65v50.39c0,3.61.17,3.54-1.92,3.54-5.35,0-4.42.8-4.42-4.31,0-16.64.12-33.28.18-49.91,0-1.74.32-2.92-1.33-3-1.35,0-2.7-.28-4.06-.3a30.33,30.33,0,0,1-5.47-.6A10.34,10.34,0,0,1,79.18,516.82Z"/>
    <path d="M169.91,500.24c1.22-4.4,1.68-3.35,21.83-29.94a91.72,91.72,0,0,0,10-16.05c6-12.65,5.89-28.54-4.14-44-10.78-16.57-25.13-31.27-34.42-46.37-1-1.64-1.88-3.35-2.84-5-.51-.88-.32-1.42.56-1.94s1.29,0,1.66.7c9.52,16.57,31.21,40.84,40.14,57a44.08,44.08,0,0,1,5.47,25.17c-1.45,18.66-20.92,40.64-34.91,57.37A10.74,10.74,0,0,1,169.91,500.24Z"/>
    <path d="M190.52,484.78c17.87-23.54,34.94-42.7,18.77-70.9C198.69,395.38,184,381,169.06,357c-.9-1.45-1-2.58.22-3.94,9.71,23.16,43.55,49.54,47.37,74.65a53.51,53.51,0,0,1-2.32,26c-1.78,5.1-13.72,21.48-17,25.8C195.59,481.84,193,483.17,190.52,484.78Z"/>
    <path d="M212.62,468.21c7.31-11.65,12.77-19.91,11.94-34.92-1.41-25.77-26.92-42.58-45.23-74.46-.83-1.43-.81-1.45.9-2.54,5,8.54,6.37,11.2,21.78,30.29,10,12.4,22.37,28,24.64,42.2,1.67,10.43-.94,24.55-8.33,34.86A16,16,0,0,1,212.62,468.21Z"/>
    <path d="M508.54,281.49c-1.79,3.27-15.84,20.46-23,30.29a102.73,102.73,0,0,0-9.69,15.91c-2.05,4.25-3.69,16.51-1,25.64,2,6.67,5.74,11.86,8,15.48.31.5,1,1.1.06,1.58-.67.36-1.46.86-2.18,0a55.65,55.65,0,0,1-9.13-21.94,45.11,45.11,0,0,1,2.74-23.73c2.3-6,25.48-35.41,31-42.56C506.26,281,506.59,280.34,508.54,281.49Z"/>
    <path d="M405.18,150.71a1.15,1.15,0,0,1,1.23-.92c2.13,0-2.37,6,10.84,25.28,13.07,19.08,32.66,39,38.85,55.39.26.7.29,1.24-.48,1.58-.93.42-1.1-.3-1.29-.9-1.63-5.23-5.11-9.38-8.14-13.77-13.15-19-30-36.93-37.39-52.14C405.78,159,404.89,152.19,405.18,150.71Z"/>
    <path d="M205.76,365.84c28.78,39.72,42.94,51.66,39.49,76.93-.27,1.94-.51,2.22-2.81,3.17,3.05-12.12.9-23-4.37-31.15-13.1-20.22-22.28-30.13-32.89-45.45C204,367.68,204.09,367.56,205.76,365.84Z"/>
    <path d="M153.86,610.14c2.34-4.25,4.53-8.14,6.62-12.08a2.49,2.49,0,0,1,2.62-1.58c2.14.13,1.21.18,1.41,18.71,0,1.16-.48,1.55-1.59,1.51s-1.2-.78-1.2-1.63c0-3.27,0-5,0-13.18-1.32,1.14-1.17,1.54-6,10.39-1.19,2.16-2.38,2.21-3.61.1-2.69-4.61-4.89-9.22-5.82-10.2-.69.34-.35,1-.36,1.44-.1,12.64.53,13-1.27,13.08-1.15,0-1.55-.42-1.54-1.55.18-19-.4-18.38.74-18.56,2.51-.38,2.48.08,3.52,1.94Z"/>
    <path d="M189.57,602.49c-6.22,11.38-5.25,9.73-5.59,10.24-1,1.53-2.2,1.54-3.11,0-3.34-5.77-5.2-9.69-5.85-10.15-.67.27-.43-.5-.48,12.23,0,.7.1,1.49-.75,1.84-1.12.46-2-.12-2-1.45,0-1.93,0-15.85,0-16.78,0-.66-.32-1.59.69-1.79s1.94-.33,2.63.62c.28.39-.12-.3,6.7,11.9.15.27.17.64.79.68,7.47-13.5,6.87-13.17,8.17-13.29,1.74-.16,2.15.1,2.15,1.86,0,5.51,0,11,0,16.54,0,.67.26,1.51-.77,1.75s-1.91-.16-2-1.38c-.07-2,0-4,0-6,0-2.22,0-4.43,0-6.65Z"/>
    <path d="M512.48,424.73c-4.82.25.1-1.85-19.15-26.37-7.06-9-20-23.55-25.59-34.09-.25-.47-.68-.87-.3-1.51.66-1.12,1.42-1.07,2.25.18C485.5,386.93,508.16,410.28,512.48,424.73Z"/>
    <path d="M230,455.25c2.59-6.44,4.27-9.95,4.56-17.57a38.7,38.7,0,0,0-2.5-14.79,84.53,84.53,0,0,0-12.77-23.75c-4.79-6.05-6.53-6.38-20.48-25.31-.32-.43-.8-.81-.8-1.43a3.49,3.49,0,0,1,3.6,1.64c7,9.45,14.46,18.5,21.25,28.08,9.22,13,11.72,17.29,13.13,27a46.81,46.81,0,0,1-2.49,22.61C232.75,453.92,232.57,454.06,230,455.25Z"/>
    <path d="M145.7,374.52c9.73,13.1,16.33,21.44,24.06,32,6.09,8.29,9.5,18.78,10.52,29.15a2,2,0,0,1-1,2.23c-.55.25-1.06.91-1.72.52-1.42-.85,3-10.85-8.73-29-6.65-10.33-14.4-19.15-23.62-31.09C144,376.71,144.11,376.28,145.7,374.52Z"/>
    <path d="M445,610.57c0-10.62,0-9.75,0-12.61,0-1,.33-1.46,1.38-1.46s1.41.41,1.41,1.42c-.08,19.35.27,18.4-.58,18.66-1.78.55-1.14.8-13-14.54-.48.63-.33-.39-.36,12.93,0,.79.13,1.65-1.09,1.72-1.54.08-1.67-.42-1.67-2.12,0-5.35,0-10.7,0-16.05,0-.66-.32-1.57.57-1.89a2.06,2.06,0,0,1,2.5.84c2.8,3.68,7.81,10.06,10.29,13.2Z"/>
    <path d="M162.64,371.58c21.53,28.81,30,37.82,34.93,55a1.26,1.26,0,0,1-.86,1.7c-.44.18-.77.14-1-.34a7.48,7.48,0,0,1-.33-.9c-4.49-17.1-20.94-35.72-33.42-51.74C160.61,373.48,160.61,373.48,162.64,371.58Z"/>
    <path d="M226.07,602.12c0,14.92.21,14.2-.67,14.49-1.07.34-1.79-.15-1.81-1.4,0-1.94,0-14.88,0-17,0-.59-.25-1.37.63-1.59a1.73,1.73,0,0,1,1.95.52c10.79,13.79,10.12,13.35,10.71,13.49.6-.35.34-1,.34-1.46,0-3.67,0-7.35,0-11,0-1,.19-1.65,1.44-1.64s1.29.86,1.29,1.77c0,6.65,0,16.61,0,17-.07,1.3-.93,1.78-2.08,1.17-.56-.29.21.57-10.68-13.5A1.62,1.62,0,0,0,226.07,602.12Z"/>
    <path d="M334.86,608c2,2.87,4,5.57,5.95,8.39-2.11.63-3.46.26-4.51-1.49s-2.37-3.41-3.6-5.08a2.73,2.73,0,0,0-1.63-1.32c-1.59-.34-2.2.1-2.23,1.73-.1,5.48.49,6.47-1.42,6.47-1.13,0-1.56-.41-1.55-1.54q0-8.64,0-17.27c0-1,.44-1.42,1.44-1.4,1.92,0,3.84,0,5.76,0,3.22.14,5.44,1.82,6,4.48s-.58,4.76-3.44,6.43C335.46,607.58,335.27,607.73,334.86,608Zm-6-3c0,.49.08,1,.69,1.06,1.5.08,3,.3,4.45-.37,3.25-1.53,3.07-6.24-1.07-6.75C329,598.47,328.76,598.44,328.85,605Z"/>
    <path d="M491.86,419.8a3.49,3.49,0,0,1-3.52-1.76c-8-13.91-20-26.1-29.86-39.23-1.82-2.41-2.63-5.36-3.54-8.19.73-.38.94,0,1.15.32C469.94,390.3,490.52,413.74,491.86,419.8Z"/>
    <path d="M501.69,607.91c5.82,8.08,5.83,7.85,5.55,8.4s-.82.32-1.28.37a2.4,2.4,0,0,1-2.37-1.29c-4.48-6.5-4.73-6.83-5.7-6.89-1.91-.12-2.15.2-2.08,1.68.08,1.67,0,3.36,0,5,0,1.2-.54,1.48-1.61,1.48s-1.37-.51-1.36-1.48q0-8.64,0-17.28c0-1,.34-1.46,1.39-1.44,2,0,4,0,6,.07,6.66.43,7.65,7.53,3.15,10.41C502.94,607.28,502.43,607.51,501.69,607.91Zm-4.08-9c-2.08.06-1.83-.35-1.77,6,0,.49,0,1.06.65,1.1,1.74.12,3.51.38,5.1-.69a3.5,3.5,0,0,0,1.43-3.79,3,3,0,0,0-2.78-2.57A18.67,18.67,0,0,0,497.61,598.92Z"/>
    <path d="M460.11,367c1.82-.87,1.85-.89,2.78.53C474.1,384.65,497.6,410,502,422.08a2.12,2.12,0,0,1-2.78-1.3c-8.45-17.64-29.17-36.87-38.66-52.67C460.34,367.78,460,367.49,460.11,367Z"/>
    <path d="M426.88,201c7.2,8.6,14.46,17.13,18.84,27.6,1.06,2.53,2.48,5,1.95,8,2,3.5,1.06,7.32,1.1,11a35.51,35.51,0,0,1-4.32,16.78c-.28.53-.34,1.67-1.36,1.2-2.15-1,1.71-3.6,3-11.3a60.68,60.68,0,0,0,.56-12.64c-.42-9.11-4.42-16.73-9.36-24C427.67,203.45,428.09,207.07,426.88,201Z"/>
    <path d="M186.75,433.47c-.7-12.72-6.55-22.25-14.69-33.32-7.82-10.63-15.58-19.63-18.86-23.94a6.53,6.53,0,0,1,4.43,2.14c15,19.71,29.19,35.63,31.35,51.91C189.21,432,189.54,432.7,186.75,433.47Z"/>
    <path d="M384.14,404.2a4.57,4.57,0,0,1,4.3,2,102.61,102.61,0,0,1,9.17,15.13c6,12.9,5.32,25.75-1.08,38.22-.24.47-.57.81-1.13.52s-.89-.66-.56-1.35c5.86-12.4,6.63-24.38.53-36.85C392.36,415.72,388.37,410.34,384.14,404.2Z"/>
    <path d="M301.93,616.45c1.31-3.32,7.09-17.93,7.34-18.63a1.78,1.78,0,0,1,2-1.34c1,0,1.82.13,2.26,1.28,1.77,4.62,4.78,11.88,6.7,16.88.24.62.85,1.33,0,1.91a2.08,2.08,0,0,1-2.66-.82c-2.73-5.52.75-4-9.19-4.39-1.84-.07-1.64,1-2.65,3.38C304.84,616.77,304.8,616.79,301.93,616.45Zm9.31-16.23c-1.05,2.84-2.29,5.6-3.2,8.78a42.86,42.86,0,0,0,6.8-.13c-.93-2.48-1.8-4.84-2.71-7.18C311.94,601.2,312,600.55,311.24,600.22Z"/>
    <path d="M396,407.09a3.23,3.23,0,0,1,3.14,1.51,120.22,120.22,0,0,1,8.21,12.67c4.83,9.07,5.87,21.57.85,33.14-1,2.3-3.87,8.24-5.34,10.17-.66.87-1.74-.12-1.5-.79,1.79-5,14.3-19.71,4.23-41.14C402.4,416,399.5,412.24,396,407.09Z"/>
    <path d="M489.48,382.4c3.48,2.24,6.93,4.36,9.5,7.75,10.47,13.79,21,26.33,24,37.05-1.37.13-2.34-.1-2.85-1.49-2.53-7-6.77-13-11.16-18.89C502.22,397.7,495.89,390.78,489.48,382.4Z"/>
    <path d="M140.25,117.32a1.21,1.21,0,0,1,1.22,1.39c-.78,2.76-7.5,14.88-1.22,31.44,1.54,4.06,1.25,6,3.19,7,.49.24.7,1,1,1.57,6,9.42,5.58,8.77,5.71,9.14.33.93-.26,1.56-.93,2s-1-.26-1.28-.68c-5.92-8.55-10.83-17.51-11.75-28.17-1.1-12.65.07-15.17,3.24-22.87C139.61,117.76,139.74,117.33,140.25,117.32Z"/>
    <path d="M430.74,184.9c1.32-.36,2.23-.4,3,.65,9.25,12.26,22.16,25.88,29.13,39.08.26.49.48,1,.76,1.49a1.07,1.07,0,0,1-.49,1.74c-1,.53-1.24-.13-1.57-.8C454.1,211.71,432.79,189.29,430.74,184.9Z"/>
    <path d="M516.46,283c-2.16,3.89-20.07,24.87-29.81,40.9a2,2,0,0,1-2.23,1.21c.68-6.44,23.18-34,28.78-41.23C514,282.83,514.85,282.17,516.46,283Z"/>
    <path d="M474.2,598.08c0-1.08.33-1.6,1.5-1.58,10.6.15,10.95-.49,11,1.14,0,1.13-.57,1.32-1.5,1.31-2.15,0-4.31,0-6.46,0-1.08,0-1.54.3-1.6,1.48-.26,4.8-.3,4.79,4.51,4.8.64,0,1.28,0,1.92,0,.93,0,1.26.42,1.24,1.32,0,1.46-.93,1-5.53,1.08-2,0-2.11.06-2.1,2,0,5.52-.63,4.54,4.46,4.64,4,.08,5-.37,5.06,1.1,0,.86-.25,1.36-1.21,1.36-3.35,0-6.71,0-10.06,0-1.16,0-1.23-.73-1.23-1.6S474.24,600.21,474.2,598.08Z"/>
    <path d="M418.92,596.52c1.68,0,3.36,0,5,0,.93,0,1.28.41,1.25,1.32,0,1.57-.79,1-7.68,1.13-1.78,0-1.86,0-1.84,1.67.06,5.63-.81,4.44,4.45,4.59,2,0,3.22-.38,3.18,1.3,0,.85-.46,1.1-1.22,1.09-1.67,0-3.36,0-5,0-1,0-1.44.41-1.41,1.43.14,4-.58,5.23,1.47,5.2,2.24,0,4.48,0,6.72,0,.84,0,1.38.23,1.36,1.21,0,.75-.24,1.24-1.08,1.23H413.81c-1.87,0-.75-1.09-1.11-18.51,0-1.24.42-1.72,1.66-1.67,1.52.07,3,0,4.56,0Z"/>
    <path d="M461.4,315.32c4.9-8.69,14.48-19.44,27.73-36.25,1.08-1.36,1.09-1.35,3.12-1-.38,1.51-.2.52-20.56,27C462.45,317,464.47,317,461.4,315.32Z"/>
    <path d="M470.17,320c-2-1.24-2-1.25-1-2.91,5.41-8.93,13.73-18.83,27.88-36.3.44-.55.81-1.24,1.56-1.42a1.2,1.2,0,0,1,1.32.34c.29.4,0,.75-.28,1.06-10.17,13-18,22.36-25.83,33.66C472.58,316.23,471.39,318.11,470.17,320Z"/>
    <path d="M393.52,606.51c0,7.59,6.83,9.47,11.35,6.2.83-.6,1.32,0,1.81.52s.11,1-.3,1.43c-3.56,3.55-14.59,4-16-6.58-1.31-9.72,8.53-14.87,15.6-10,.54.37,1.13.74.52,1.51-.44.56-.84,1.24-1.74.79-.22-.1-.41-.24-.62-.35C398.52,597.11,393.52,600.18,393.52,606.51Z"/>
    <path d="M439.62,183.79c2-.73,2.05-.73,3.19.68,15.18,18.9,18.81,22.91,28,37,.82,1.27.67,1.7-.16,2.19-1.08.63-1.15-.08-3.09-3.25C458.59,205.74,439.15,185.08,439.62,183.79Z"/>
    <path d="M447.93,182.61c1.47-.63,2.31-.35,3.12.73,9.46,12.42,17.07,20,26.5,34.28.43.65,1.34,1.32.05,2.14-1.63,1-1.26.32-7.47-8.3C463.49,202.27,458.5,196.84,447.93,182.61Z"/>
    <path d="M250.83,421.71c-6-13.43-8.08-15.21-31.18-45.06-.25-.31-.56-.58-.56-1,2.2-.75,2.23-.77,3.35.74C231.1,388,242.93,402,250.2,416.25A8,8,0,0,1,250.83,421.71Z"/>
    <path d="M98.09,273.22C97,276,75.82,301.12,69.57,311.75c-.69,1.16-1.17,1.89-2.38,1.19-.81-.47-.21-1,.07-1.37,13.5-19.7,8.23-11.61,26.13-36.06C94.58,273.9,96.16,273.56,98.09,273.22Z"/>
    <path d="M533.15,286.41c-.41,1.63-16.51,20.1-23.23,31.21a4,4,0,0,1-3.85,2.16,15.19,15.19,0,0,1,1.76-3.29c5.88-9.66,14.46-20.15,22.19-29.38C531.11,285.8,531.15,285.84,533.15,286.41Z"/>
    <path d="M495.39,322.25c3.72-8.77,21.25-30.08,26.45-36.59,1.24-1.57,1.24-1.57,3.44-.89-.54,1.59-.07.29-19.28,24.29a89.24,89.24,0,0,0-8,11.9C497.26,322.22,497.23,322.21,495.39,322.25Z"/>
    <path d="M85.35,276.74c-4.9,7.36-15.51,19.8-24,33.16C60.59,311.14,60,312,58.54,311c-.87-.53-.16-1.14.13-1.6,6.39-10.21,14-19.27,22.78-30.83A4.79,4.79,0,0,1,85.35,276.74Z"/>
    <path d="M465.17,180.19c1.47-.75,2.51-.72,3.55.72,6.86,9.5,11.78,14.9,22.78,29.55.42.56.72,1.08-.09,1.58a1,1,0,0,1-1.63-.26C481.12,200.1,465.72,182.77,465.17,180.19Z"/>
    <path d="M381.43,409.93c4.86,6.74,9.09,13.5,10.2,21.79a48.92,48.92,0,0,1-1.89,22.42c-.15.44-.26,1.06-.85.95-1.74-.31-.87-1.93-.62-3,3.73-15.18,1.07-27.55-6.74-39A2.7,2.7,0,0,1,381.43,409.93Z"/>
    <path d="M283.19,606c1.59-2.74,3-5.14,4.36-7.52,1.26-2.18,1.27-2.17,4-1.79.19.73-.4,1.17-.7,1.7-.79,1.38-1.54,2.8-2.46,4.09-7.5,10.47-1.24,14.08-5.27,14.18-1,0-1.47-.34-1.45-1.38,0-1.6,0-3.19,0-4.79.08-2.11-.23-2.07-7.16-13.59,3.41-.93,2.83-.81,6.3,5.16C281.54,603.26,282.23,604.42,283.19,606Z"/>
    <path d="M459.42,600.6c0-1.26-.47-1.7-1.69-1.63s-2.39,0-3.59,0c-.85,0-1.05-.52-1.05-1.25s.29-1.21,1.11-1.2c14.19.09,14.72-.63,14.72,1.24,0,1-.48,1.24-1.34,1.22-1.2,0-2.39,0-3.59,0-1,0-1.42.44-1.39,1.44,0,.45,0,12.22,0,14.6,0,1.53-.21,1.68-1.62,1.67s-1.54-.13-1.56-1.73C459.4,614,459.38,602.32,459.42,600.6Z"/>
    <path d="M433.74,171.86c2,3.25,2.12,3.23,2.09,3.72a1.45,1.45,0,0,1-.74,1.17c-.58.36-.9-.11-1.15-.5-6.91-10.61-11.32-19.1-10.47-31.62.14-2.07,1.33-2.8,2.46-2.59s.32,1,.34,1.6C426.47,148.58,424.94,157.76,433.74,171.86Z"/>
    <path d="M448.8,51.18c.41,8.11-2.38,15.57-6.63,22.6-.7,1.16-4.39,6.9-4.69,7.23-.57.62-.81,2-2.11,1.09-1.15-.83-.12-1.53.32-2.2,3.77-5.81,8.73-12,10.4-21.07,1.74-9.42-.15-16.26-.11-17.35a1.21,1.21,0,0,1,1.14-1.07c.65-.09.6.57.73,1A32.86,32.86,0,0,1,448.8,51.18Z"/>
    <path d="M131.15,152.06c-2-1.64-3.46-2.95-4-5.11a41.85,41.85,0,0,1-1.07-13c.68-9.17,4-17.27,5.76-19.81.42-.62.95-.41,1.47-.1,2.39,1.42-6.34,4.2-4.36,27.07A58.92,58.92,0,0,0,131.15,152.06Z"/>
    <path d="M146.87,416.1c-2.52,1-2.53.5-3.18-.69-4.85-8.81-14.63-22-19.22-27.69-.53-.65-.73-1.16.06-1.79s1.28-.26,1.77.38C134.11,396.62,141.15,405.59,146.87,416.1Z"/>
    <path d="M541.26,288.09c-2.19,3.87-8,9.11-20.45,27.1a3.83,3.83,0,0,1-3.59,1.88c.49-3.62,20.84-28.47,20.91-28.57C539,287.23,540,287.2,541.26,288.09Z"/>
    <path d="M400.92,164.62a8.77,8.77,0,0,1-3.66-4.76,38,38,0,0,1,2.83-31.22c.27-.51.31-1.66,1.41-1,2.52,1.52-2.6,1.71-3.56,16.24C397.06,157.32,401.42,163.53,400.92,164.62Z"/>
    <path d="M379.92,106.13c-1.68-1.94-1.22-1.75,0-3.35,4.16-5.26,8.42-10.43,12.63-15.64,11.56-14.3,8.72-14.62,13.31-17.06-.78,5-21.76,31.13-24.48,34.56C381,105.2,380.65,105.86,379.92,106.13Z"/>
    <path d="M429.21,183a22,22,0,0,1-2.71-3.59c-7.74-10.82-12.19-19.1-12.24-31.25,0-1.18.2-2.08,1.73-2,1,4.88-2.55,10.88,13.77,34.17C430.68,181.6,430.65,181.62,429.21,183Z"/>
    <path d="M349.79,607.84c0-2.39,0-4.79,0-7.19,0-1.22-.46-1.76-1.7-1.69s-2.24,0-3.36,0c-.9,0-1.56-.12-1.53-1.27,0-1,.57-1.18,1.4-1.18,4.39,0,8.79,0,13.18,0,.95,0,1.25.44,1.23,1.33,0,1.51-1,1-4.54,1.12-1.7,0-1.75.06-1.76,1.76,0,3.15,0,14.23,0,14.38.08,1.1-.33,1.59-1.5,1.58s-1.46-.62-1.44-1.65c0-2.4,0-4.8,0-7.2Z"/>
    <path d="M262.07,607.58c0-2.4,0-4.8,0-7.2,0-1-.37-1.46-1.41-1.42-1.27,0-2.56,0-3.83,0-.85,0-1.08-.48-1.08-1.23,0-1.9.61-1,14.55-1.21.93,0,1.26.43,1.24,1.32s-.43,1.13-1.2,1.13c-5.73-.05-5.33-.2-5.35,1.77,0,2.47,0,14.21,0,14.4.08,1.12-.38,1.55-1.53,1.55s-1.42-.67-1.4-1.68c0-2.47,0-5,0-7.43Z"/>
    <path d="M426.41,84.17c-.28.4-.53,1.19-1.24.69-1.48-1-.65-2,.43-3.44,7.29-9.5,12.61-20.9,12.23-32.79,0-.79-.15-1.61.67-2.15.51-.34,1-.33,1,.36C440.21,62.13,435.3,71.48,426.41,84.17Z"/>
    <path d="M180.64,476.52c1.58-3.57,2.77-7.29,5-10.56,12.18-18,9.57-25.41,12.53-28C199,451,188.92,466.51,180.64,476.52Z"/>
    <path d="M250.29,403.72c-7.1-9.88-14.88-19.17-21.92-29.05,2-1,2.18-1,3.15.3,6.07,8,12.2,16,18,24.2A5.44,5.44,0,0,1,250.29,403.72Z"/>
    <path d="M467.93,245c.29,13.49-6,22-10.38,28.7-.41.63-.77,1.3-1.66.65-1.25-.9-.22-.93,4-8.39,4.32-7.65,7.33-17.15,5.8-25.88-.13-.74-.7-2,.5-2.23,1.45-.34,1.23,1,1.45,1.91A26.29,26.29,0,0,1,467.93,245Z"/>
    <path d="M497.63,208.49a.88.88,0,0,1-1.24-.29c-1.28-1.54-2.58-3.06-3.83-4.62-19.92-24.87-20.26-25-17.27-25.07.78,0,1.06.61,1.44,1.12,6.64,9.1,13.73,17.87,20.71,26.71C498.11,207.19,498.75,207.82,497.63,208.49Z"/>
    <path d="M458.88,439.27a28.25,28.25,0,0,1-.58,6c-.08.63.06,1.59-1,1.6-.85,0-1.41-.88-1.17-1.93a23.2,23.2,0,0,0,.35-3.09,39.31,39.31,0,0,0-4.1-19.94c-5-10.58-8.29-12.31-7.14-13.22.84-.66,1.33,0,1.87.78,6,9,9.91,16.17,11.52,26A37.3,37.3,0,0,1,458.88,439.27Z"/>
    <path d="M457.49,181c1.17-.2,1.49.5,1.93,1.06,25.46,32.48,26.87,32.77,25.29,33.75-.57.35-1.14.65-1.66-.08-10.12-14.35-22.6-29.38-25.71-33.94C457,181.35,457.29,181.07,457.49,181Z"/>
    <path d="M117.73,191.25c-6.12-7.85-14.7-18.94-20.06-27.36a1.3,1.3,0,0,1,.53-2c.85-.49,1.1.36,1.42.84,5.08,7.86,15.65,21.66,17.61,23.94C118.43,188,118.52,189.42,117.73,191.25Z"/>
    <path d="M480.88,342a35.18,35.18,0,0,1,.79-9.17c.12-.54-.11-1.66,1.08-1.43.95.19,1.22.89,1.09,1.81-1.7,12.45-.64,22.42,6.11,33.06.35.55,1.26,1.23.57,1.8-1,.84-1.26-.46-1.69-1A37.75,37.75,0,0,1,480.88,342Z"/>
    <path d="M134.14,385.32c.85.13,1.25.89,1.73,1.49,4.51,5.77,15.16,19,18.62,26.34.18.39.64.87,0,1.24a1.29,1.29,0,0,1-1.56,0,3.81,3.81,0,0,1-.68-1c-6.73-11.53-17.88-24.23-19.11-26.29A1.25,1.25,0,0,1,134.14,385.32Z"/>
    <path d="M489.63,341.43a24.53,24.53,0,0,1,.46-4.7c.06-.58,0-1.51.84-1.39s1.86.35,1.93,1.45c.2,3.14-1.74,11.06,2.6,21.6,2.68,6.49,4.32,7,3.11,7.59s-1.64-.11-2.24-1.11A45.1,45.1,0,0,1,489.63,341.43Z"/>
    <path d="M141.53,384.82c1.54-.84,2.23,0,2.94.76,6.34,7.11,13.6,16.48,18.15,24.93.32.59,1.06,1.26.18,1.86-2.18,1.49-.87-1.07-14.9-19.28C144.41,388.56,145.05,389.53,141.53,384.82Z"/>
    <path d="M127.71,296.54c-.2,1.39-10.22,12.73-15.24,23.92-.8,1.79-.86,2.26-2.45,1.65a.82.82,0,0,1-.46-1.18,21.85,21.85,0,0,1,1.54-4c4.33-7.38,9.44-14.23,14.42-21.16.27-.37.5-.85,1.11-.72A1.91,1.91,0,0,1,127.71,296.54Z"/>
    <path d="M455.78,238.86c-.12-.67-.26-1.33.72-1.4,1.32-.1,1.67.32,1.81,1.63,1.34,12.49-1.13,20.31-7.51,30.72-.41.68-.71,1.19-1.64.58s-.73-1.07-.26-1.76c4-5.82,5.53-8,6.67-15.9A67.72,67.72,0,0,0,455.78,238.86Z"/>
    <path d="M74.86,314.42a320,320,0,0,1,20.61-29.28c3.54,3.9-.46.18-17.35,28.37C77.15,315.13,77.17,315.14,74.86,314.42Z"/>
    <path d="M437.29,257.55c-2.64-2.35.94-3,.61-14.08-.29-9.73-6.21-18.28-7.13-20.61-.56-1.41,0-3-.72-4.65,2.77,1.86,7.38,12.2,8.74,18.85C440.23,244.11,439.23,254.56,437.29,257.55Z"/>
    <path d="M482.9,177.8c.9-.67,1.61-.77,2.38.29,6,8.36,12.85,16.06,19.13,24.21.76,1,1.34,1.65.49,2.2-.61.38-1.22.87-1.86,0C494.19,193.08,483.15,179.43,482.9,177.8Z"/>
    <path d="M74.12,279.85c-9.55,12.47-15,19.21-20.93,28.21-.63.95-1.21,2-2.68,1.16,0-2.42,18.07-25.75,19.53-27.67C71,280.32,71,280.35,74.12,279.85Z"/>
    <path d="M460,389c7.81,8.67,15.11,17.45,20.53,27.89-1.48.22-2.41.05-3.11-1.12-5-8.38-11-16-17.18-23.54A2.43,2.43,0,0,1,460,389Z"/>
    <path d="M446.23,164.31c-4.75-8.64-4.41-18.92-1.86-28.35.33-1.22.7-2.31,2.43-2.23-.09,1.93-3.67,13.62.52,27.84C447.76,163.05,447.74,163.06,446.23,164.31Z"/>
    <path d="M532.83,429.61c-1.13,0-1.75-.18-2.06-1.15-3.31-10.34-10.2-19.09-16.71-28-.07-.1,0-.26-.09-.61,2.6,1.78,5.1,3.36,6.91,5.91C525.39,412.06,532.05,421.79,532.83,429.61Z"/>
    <path d="M418.61,434.88a8,8,0,0,1,1.74,5.55c-1.18,15.09-3,17.53-10.87,28.7-.35.5-.72.87-1.37.44a1,1,0,0,1-.27-1.62c6.49-9.1,11.16-18.47,10.77-29.54C418.58,437.38,418.61,436.34,418.61,434.88Z"/>
    <path d="M467,269.89c4.7-8.18,9.59-16.14,7.9-30.44-.07-.57-.2-1.18.6-1.31a1.11,1.11,0,0,1,1.42.93c.4,1.87.62,11.19-1.78,20.19a30,30,0,0,1-4.2,8.58C470.05,269.16,468.72,269.51,467,269.89Z"/>
    <path d="M491.18,176.49c1.15-.76,1.88-.33,2.58.67,5.3,7.69,11.59,15.13,18.07,23-1.73,1.81-1.87,1.81-3.24.1C507.35,198.66,491.34,178.43,491.18,176.49Z"/>
    <path d="M360.5,34.48a31.17,31.17,0,0,1,3,8.63,35.83,35.83,0,0,1-1.26,19.52c-.17.49-.3,1.24-1.06,1s-1.33-.65-1-1.59c1.3-3.78,1.38-10,1.33-13.49a42,42,0,0,0-1.77-10.8C359.43,36.63,359.12,35.57,360.5,34.48Z"/>
    <path d="M61.69,283.16c-.46,1.71-4.52,5.53-16.95,23.21-1.16,1.65-1.17,1.64-3.38.86,3.13-5.69,7.45-10.53,16.71-22.33A4.68,4.68,0,0,1,61.69,283.16Z"/>
    <path d="M549.64,289.69c-1.25,2.09-12,15.21-17.11,22.48a4.05,4.05,0,0,1-3.9,2c-.06-.93.6-1.46,1-2,5.27-7.23,10.83-14.24,16.36-21.28C547.36,289.17,547.4,289.2,549.64,289.69Z"/>
    <path d="M448.74,441.79c-2.16-.19-1.92-1.52-1.91-2.7.09-13.45-6.69-21.59-10-27.43,1.83-.85,1.87-.88,2.79.42C447.26,422.92,448.81,430.81,448.74,441.79Z"/>
    <path d="M440.2,171c-5.76-9-7.95-18.66-6.18-30.71.2-1.35.67-2.5,2.42-2.44.06.19.23.43.19.61A38.69,38.69,0,0,0,440.78,168C441.7,169.63,441.64,169.67,440.2,171Z"/>
    <path d="M119.27,294.65c-15.49,21.54-13.12,18.81-16.28,24.18-.36.62-.4,1.86-1.51,1.4-1.34-.54-.3-1.56,0-2.21,3.17-7.67,7.66-13.4,12.38-20.14A7.7,7.7,0,0,1,119.27,294.65Z"/>
    <path d="M113.87,395c1.35,1.92,17.64,24.18,15.07,25.54-.51.26-1.07.47-1.55,0-1-1-.68-4.12-14.24-22.66a13.85,13.85,0,0,1-1.21-1.77C111.46,395.2,113,393.74,113.87,395Z"/>
    <path d="M159.07,423.46a37.07,37.07,0,0,1,.53,23.8,3.67,3.67,0,0,1-2.88,2.77c-.51-.89.09-1.61.28-2.33a46.91,46.91,0,0,0,.63-20.35A3.75,3.75,0,0,1,159.07,423.46Z"/>
    <path d="M247.17,387.73a254.21,254.21,0,0,1-15.95-21.19c-1.09-1.64-1.06-1.66.37-3.64,1.53,2.14,5.48,7.76,12.7,17.36a15.23,15.23,0,0,1,2.87,7.48Z"/>
    <path d="M508.21,174c1.38-.46,2.46-.62,3.4.79,11.57,17.44,15.31,17.88,12.14,19.17a1,1,0,0,1-1.25-.3c-5-6.21-10.07-12.38-14.27-19.19A2,2,0,0,1,508.21,174Z"/>
    <path d="M247.26,598c0-1.17.48-1.53,1.58-1.51s1.66.2,1.65,1.44q-.06,8.63,0,17.26c0,1.18-.48,1.55-1.58,1.51-1.42,0-1.61-.15-1.63-1.67C247.22,610.35,247.32,601.92,247.26,598Z"/>
    <path d="M419.31,60.39c-1.19,8.36-4.58,12.9-12.76,24.3-.52.73-.94,1.5-1.84.79-1.06-.82-.48-1.16,1.08-3.37C420,62,414.27,63.27,419.31,60.39Z"/>
    <path d="M119,390.07c.61-.11.78.3,1,.61,7.63,10.17,12.32,16.48,17.48,26.85a.72.72,0,0,1-.43,1.13c-1,.41-1.23-.38-1.74-1.45-5.48-11.61-15-22.71-17-25.42A1.09,1.09,0,0,1,119,390.07Z"/>
    <path d="M252.86,30.41c3.43,2.29,3.17,5.64,2.83,8.91a47.31,47.31,0,0,1-5.55,17.45c-.22.42-.41,1-.95.91-.73-.13-.6-.85-.58-1.38.07-1.76,5.6-8.46,4.12-25.63C252.72,30.61,252.79,30.54,252.86,30.41Z"/>
    <path d="M118.47,138.45a2.52,2.52,0,0,1-1.69-2.74,46,46,0,0,1,7-23.8c.61-1,1.12-2,2.07-1.35.61.44.32,1,0,1.49-4.29,7.37-7.16,16.15-7.05,24.79C118.86,137.36,119.05,138,118.47,138.45Z"/>
    <path d="M120.67,421.89a.56.56,0,0,1-.37.76c-3.21,1,.49-1.12-13.39-20.89-.81-1.16-1.69-1.88-.64-2.56.57-.37,1-.38,1.43.2a137.27,137.27,0,0,1,11,17.11A31,31,0,0,1,120.67,421.89Z"/>
    <path d="M164.73,414.63c4.06,8.55,6.32,17.59,5.17,26.87-.14,1.13-.4,2-1.63,2.21-.56-.54-.33-1.12-.29-1.64.62-8.51-.45-16.74-4.24-24.47C163.14,416.36,163.77,415.67,164.73,414.63Z"/>
    <path d="M379.88,423.69c2.79,8.41,4.34,16.92,1.91,25.78a1.55,1.55,0,0,1-1.67-1.71c0-5.63.67-11.72-.74-18.38A9.5,9.5,0,0,1,379.88,423.69Z"/>
    <path d="M430.09,53c-.45,10.27-3.89,16.27-8.15,23.34-.79,1.32-1.79,1.66-3.37,1.08,4.1-6.62,8.22-12.47,8.72-20.72C427.39,55,427.79,53.47,430.09,53Z"/>
    <path d="M539.58,311.44c4.82-6.87,9.75-13.33,14.83-19.68,1-1.26,1.12-1.24,3.13-.29-4.95,6.35-11.08,14.13-13.71,17.82A4.42,4.42,0,0,1,539.58,311.44Z"/>
    <path d="M465.26,300.43c1.21-5.25,4.48-8.59,7.33-12.2,8.49-10.78,9.46-13.75,11.13-11.82.39.46,0,.91-.26,1.29-.8,1.09-1.61,2.18-2.46,3.23Z"/>
    <path d="M439,436.49c-3.92.06,1.69-4.3-10.44-23.29a3.15,3.15,0,0,1-.23-.73,2.15,2.15,0,0,1,2.89.84C438.58,424,439.68,434.64,439,436.49Z"/>
    <path d="M49.84,286.49c-1.4,2.59-6.27,7.67-13.5,18.29-1.08,1.6-1.14,1.58-3.29.56,5.13-7.23,3.4-5,12.25-16.53C46.79,286.89,46.8,286.89,49.84,286.49Z"/>
    <path d="M499.51,339.58c2,.47,2.07.47,2,2.15A38.89,38.89,0,0,0,506.79,362c.29.52.93,1.11,0,1.58a1.4,1.4,0,0,1-2.17-.65c-4.49-9.33-5.61-15.92-5.39-22.26A1.54,1.54,0,0,1,499.51,339.58Z"/>
    <path d="M426.37,451.79c1.35,1.5,1.15,3,.43,4.67-2.18,5.11-7.69,12.65-11,17.09-.36.48-.7,1.19-1.51.66-1.8-1.18,1.05-2.36,6.39-11.32a58.27,58.27,0,0,0,5-10.32C425.8,452.28,425.81,451.93,426.37,451.79Z"/>
    <path d="M459,128.79c-3.06,7.19-5.65,12.43-4.24,25.16.13,1.22.16,1.21-1.22,2.33-1.22-3.83-.8-8.43-1-12.59-.19-4.72,1.56-8.91,3.39-13.1C456.45,129.4,457.43,129,459,128.79Z"/>
    <path d="M84.74,316.67c-1.37-.2-.53-1.38.15-2.71,3.62-7.06,8.32-13.4,13.17-19.64,1.63-2.09,1.84-2.67,2.45-2.17.43.35.82.84.42,1.45-1.34,2.07-12,15.15-15,22.14C85.69,316.28,85.45,316.76,84.74,316.67Z"/>
    <path d="M110.76,425c-2.59.16,1.26-2.37-11.07-20-.46-.65,0-1,.44-1.38s1-.55,1.43.05c3.67,4.83,8.11,12.51,10.08,19.44.15.52.39,1.1-.14,1.55A2.68,2.68,0,0,1,110.76,425Z"/>
    <path d="M531.31,189.29c-.12.6-.62.73-1,1a1,1,0,0,1-1.46-.37c-3.42-4.37-8.17-10.59-11.14-15.27-.34-.53-1.22-1.1-.42-1.83a1.85,1.85,0,0,1,2.61.63C529.63,187.25,531.2,188.54,531.31,189.29Z"/>
    <path d="M472,123.41c-5,7.64-6,8.31-7.43,17.37a15.49,15.49,0,0,0-.38,2.84c.06,1.74-.89,2.79-2.47,3.95-.68-7,2.51-15.23,5.81-21.44C468.43,124.52,469.9,124.1,472,123.41Z"/>
    <path d="M109.84,129.37a2.64,2.64,0,0,1-1.52-3.63,76.25,76.25,0,0,1,8.61-18.06c.57-.92,1.11-1,1.93-.47,1,.65.28,1.28-.07,1.8C110.45,121.67,110.77,126.83,109.84,129.37Z"/>
    <path d="M518.12,196.57a1.06,1.06,0,0,1-1.65.81c-1.65-1.57-14.39-18.08-16.2-21.29-.2-.36-.25-.77.21-1,1.57-.84.14.1,17,20.67C517.76,196,518,196.37,518.12,196.57Z"/>
    <path d="M89.84,204.62c-3.42-4.5-6.92-9.2-12.82-16.6-.55-.68-.68-1.18,0-1.81s1.27-.26,1.76.36c15.4,19.74,9.59,12.62,11,14.18A2.65,2.65,0,0,1,89.84,204.62Z"/>
    <path d="M279.55,66.27c.35.19.53.23.62.34,1.48,1.82,1.47,2-.29,3.43-5.89,5-7.25,5.36-5.55,7,.48.46.17,1-.19,1.52-1.76,2.26-3.52,4.53-5.31,6.77a1.67,1.67,0,0,1-2.61-.2C265.82,84.49,265,86.23,279.55,66.27Z"/>
    <path d="M158.32,32.6c2,.77,3,1.9,2.9,4.13a56,56,0,0,1-3.05,15.15,2.81,2.81,0,0,1-.49.65c-1-.9-1.55-1.86-1.11-3.15,1.6-4.78,1.52-9.72,1.49-14.66A3.75,3.75,0,0,1,158.32,32.6Z"/>
    <path d="M176.69,45.79c1.4.59,1.77,1.36,1.41,2.72-1.63,6.16-3.37,9.13-10.71,19.81-1.95-1.39-.57-2,3.74-9.27a45.11,45.11,0,0,0,5.14-12.55A3.45,3.45,0,0,1,176.69,45.79Z"/>
    <path d="M479.37,265.12c2.84-5.72,6.8-11.86,5.46-24.5-.07-.64-.89-1.79.34-2,1.42-.23,1.32,1.16,1.38,2,.6,9.14-.49,14.4-3.48,21.74A3.93,3.93,0,0,1,479.37,265.12Z"/>
    <path d="M104.92,298.22c2.84,2.53,1,.44-7.49,14.74-1.2,2-3,5.19-3,5.2a1,1,0,0,1-1.48.25c-.56-.32-.33-.83-.11-1.26,2.12-4.15,4.28-8.4,11.54-18.46A2.85,2.85,0,0,1,104.92,298.22Z"/>
    <path d="M491,260.68c1.88-5.6,3.43-9.46,2.78-20.33,0-.51-.42-1.19.47-1.34s1.46,0,1.57,1c.07.72.27,1.42.3,2.14a49.88,49.88,0,0,1-1.89,16.11A3.13,3.13,0,0,1,491,260.68Z"/>
    <path d="M102.72,121.8c-1.49-.78-1.86-1.7-1.32-2.94a96.4,96.4,0,0,1,8.37-14.77c.54-.8,1.13-.68,1.84-.29s.69.94.27,1.57A106.88,106.88,0,0,0,102.72,121.8Z"/>
    <path d="M456,56.54c.07-8.11.46-11.3-1.82-18.68-.35-1.14-1.19-2.5.51-3,.61-.18.74.43.93.86a35.2,35.2,0,0,1,2.85,11.53c.92,3.57-.16,6.59-2.49,9.27Z"/>
    <path d="M418.74,411.93a2.65,2.65,0,0,1,3.13,1.2,50.53,50.53,0,0,1,7,15.66,4.51,4.51,0,0,1,.16,2.28c-1.17-.23-2.06-.54-2.36-1.88C424.46,419.57,418.7,413.26,418.74,411.93Z"/>
    <path d="M128.79,304.24c-.8,5.72-4.64,10.77-7.72,18.83-.26.67-.34,1.55-1.68,1.08a.91.91,0,0,1-.64-1.31C119.87,319.53,120.19,316,128.79,304.24Z"/>
    <path d="M525.3,171.72c2.5-.71,2.55-.75,3.53.73,8.2,12.45,10.3,12.68,8.69,13.81a1.2,1.2,0,0,1-1.85-.31c-.24-.31-.53-.6-.77-.91C534,183.81,526,173.77,525.3,171.72Z"/>
    <path d="M63.49,251.41c-.3.86-.81,1.12-1.64.8-2.21-.83,2-3.5,1.95-16.24,0-.76.06-1.41,1-1.66,1.24-.33,1.76,0,1.84,1.29C66.91,240.1,65,247.07,63.49,251.41Z"/>
    <path d="M430.93,462.08c1.1,1.21,1.22,2.13.42,3.37-2.84,4.43-5.9,8.7-9.09,12.88-.56.73-1,1.16-1.91.47-1.35-1.06-.43-1,3.48-6.53C426.17,469,428.47,465.62,430.93,462.08Z"/>
    <path d="M102.69,425.64c.06.87-.11,1.34-.84,1.42-1.33.13-.52-.92-3.13-7.14-4-9.5-7-10.41-4.94-11.7.57-.35.93,0,1.18.42,5.1,8,5.89,8.76,7.6,16.06A7.66,7.66,0,0,1,102.69,425.64Z"/>
    <path d="M533.45,414a11.91,11.91,0,0,1,5.88,6.26c1.67,3.79,3.36,7.56,3.87,11.75-2.4,0-2.44,0-2.87-1.86C538.28,421.18,533.49,415.3,533.45,414Z"/>
    <path d="M274.59,59.54c1.4.89,1.56,1.75.8,3A193,193,0,0,1,263.67,79C263.09,74.34,265.72,74.52,274.59,59.54Z"/>
    <path d="M151.11,435.7c.31,8.77-2.42,15.55-2.87,17.33a5.45,5.45,0,0,1-4,4c-.45-.67.06-1.11.29-1.56A42.58,42.58,0,0,0,149.25,439C149.33,437.8,149.92,436.92,151.11,435.7Z"/>
    <path d="M163.07,61.25c-1.48-1.25-1.42-2.35-.63-3.75,7-12.4,4.87-17.57,6.31-17.44a1.43,1.43,0,0,1,.8.46,1.48,1.48,0,0,1,.25,1.35A50.19,50.19,0,0,1,163.07,61.25Z"/>
    <path d="M566,293.15c-.59,1-7.8,10-10.61,13.54-.87,1.1-1.77,2.07-3.4,1.76-.26-.62-.93.64,10.77-14.64C563.52,292.77,564.35,292,566,293.15Z"/>
    <path d="M457.66,398.06c2.87,2.67,10.67,13.66,11.54,16.33a3.57,3.57,0,0,1-3.21-1.67C457.26,399.4,454.83,400.55,457.66,398.06Z"/>
    <path d="M262.37,43c1.2,1,1.52,1.8,1.32,3a42,42,0,0,1-4.95,13.65c-.27.48-.47,1-1.12,1.16a1.8,1.8,0,0,1-1.53-.54C254.72,59,259.56,56.38,262.37,43Z"/>
    <path d="M75.73,237.39A44,44,0,0,1,72,253.87c-.46,1-.71,1.72-1.85,1.25s-.36-1.35.26-2.7A36.41,36.41,0,0,0,74,235.5c0-.76-.6-2.08.68-2.17,1.55-.11.83,1.36,1,2.16A11.07,11.07,0,0,1,75.73,237.39Z"/>
    <path d="M175,68.11c3.06-4.86,6.2-9.72,8.59-15.57.18-.46.22-1.19,1-1.07s1.7,1.15,1.55,1.84c-.63,3-6.12,10.21-8,12.91A5.68,5.68,0,0,1,175,68.11Z"/>
    <path d="M508.92,343.82c2.48.77,2.48.77,2.65,2.81,1.09,13.25,5.22,13.87,3.3,14.7-.63.27-1.23.44-1.64-.33C511,356.83,508.06,346.29,508.92,343.82Z"/>
    <path d="M502.1,256.47c.44-3.76,1.88-7,1.22-15.58-.05-.63-.36-1.31.64-1.44s1.56.17,1.7,1.19A46.35,46.35,0,0,1,505,254,2.65,2.65,0,0,1,502.1,256.47Z"/>
    <path d="M418.18,425.26a5.09,5.09,0,0,1-3.52-3.1c-1.92-4.35-4.42-7.86-7.14-12.07a2.36,2.36,0,0,1,2.85.72c3,4.5,6.48,8.71,7.91,14.08C418.29,425,418.25,425,418.18,425.26Z"/>
    <path d="M95.94,114.78c-1.67-1.29-1.7-1.31-.87-2.75,2.15-3.75,4.55-7.34,7.05-10.86.74-1,1.1-1.42,2.1-.79s.19,1.47-1.39,3.81C95.79,114.69,96.64,114.71,95.94,114.78Z"/>
    <path d="M94.11,428.12c.1.51-.3.89-1,1.09-1.88.52.13-2.51-6.3-14.46-.34-.62-.5-1.14.24-1.63s1.09,0,1.46.58a39.85,39.85,0,0,1,5.45,13.19C94,427.2,94,427.52,94.11,428.12Z"/>
    <path d="M241.51,17.31c3.4,5.94,5.59,16.72,4.32,22.46C245.06,38.48,241.59,20.73,241.51,17.31Z"/>
    <path d="M385.86,108.14c1.47-2.46,10-12.9,10.07-13,.41-.51.68-1.4,1.64-.76s.65,1.44,0,2.16c-1.86,2-3,4.69-5.52,6.11-.32.18-.31.51-.41.81-.53,1.72-1.82,2.94-2.95,4.25C388.15,108.32,388.07,108.24,385.86,108.14Z"/>
    <path d="M353.66,59.6c-2.19-.64-2.13-.63-1.94-2.55a58,58,0,0,0,.5-10A4.1,4.1,0,0,1,354,43.26,36.15,36.15,0,0,1,353.66,59.6Z"/>
    <path d="M371,43.21c-3.47-12.46-6.89-13.74-5.88-15.21.26-.38.43-.92,1-1s.6.46.82.77a29.86,29.86,0,0,1,4.87,11.31C372.1,40.56,371.38,41.84,371,43.21Z"/>
    <path d="M484.24,118.63c-7.94,12.13-6.81,13.77-11,16.1a74.78,74.78,0,0,1,6.88-13.54A5.09,5.09,0,0,1,484.24,118.63Z"/>
    <path d="M38.47,289.54c-2.84,3.62-4.56,5.72-10.46,13.55-.61.81-1.22,1.52-2.35.9-.29-1,.29-.8,8.64-12.55C35.24,290.12,36.5,289.73,38.47,289.54Z"/>
    <path d="M156,323.63c1.59-6.12,2.38-7,5.1-11.22.25-.39.55-.87,1.13-.59s1.16.74,1,1.46c-.2.94-.52,2.12-1.49,2.28-1.52.25-1.43,1.14-1.43,2.21,0,2.72-1.66,4.94-2.26,7.48a.56.56,0,0,1-.94.31C156.42,325.1,155.8,324.61,156,323.63Z"/>
    <path d="M574.11,294.62c-2.59,3.18-5.13,6.12-7.44,9.21a4.49,4.49,0,0,1-4.14,2c1-2.29,6.38-8.42,7.9-10.5C571.33,294.09,572.37,293.83,574.11,294.62Z"/>
    <path d="M465.83,433.17a7.12,7.12,0,0,1,2.07,5.58,59.22,59.22,0,0,1-1.4,11.58c-.12.53-.13,1.27-.93,1.05s-1.29-.58-1.06-1.56C467.67,436.27,464.79,435.12,465.83,433.17Z"/>
    <path d="M467.66,285.86c-1.12-1.66-1.18-2.86,0-4.27,5.32-6.09,4.86-8.57,7.55-7,.81.48.05,1.1-.28,1.57C472.68,279.44,470.36,282.67,467.66,285.86Z"/>
    <path d="M90.34,108.75a1.42,1.42,0,0,1-1-2.16c3.07-4.59,6.18-8.84,6.31-9,.61-.88,1.31-.69,2.08-.25.41.24.63.55.35,1C89.83,109.94,90.92,108.38,90.34,108.75Z"/>
    <path d="M82.68,239.71a30.87,30.87,0,0,1,.85,7.72,7.82,7.82,0,0,1-.85,3.46c-.42,1-2.4,5.55-3.1,6.74a1,1,0,0,1-1.46.35c-1.38-.6.4-1.66,2.24-6.84A35.42,35.42,0,0,0,82.68,239.71Z"/>
    <path d="M544.33,181.91c-.06.72-1.2,1.34-1.68,1s-6.76-9.1-7.9-11.68c-.41-.93.77-1.37,1.24-1.08,1.21.76,1.48,2.47,7.69,10.63A10,10,0,0,1,544.33,181.91Z"/>
    <path d="M102.43,181.15c.85.33.27-.23,9.86,12,.55.69,1.11,1.14.78,1.6a1,1,0,0,1-.84.35c-1.08.09-.6.21-10.09-11.93A1.32,1.32,0,0,1,102.43,181.15Z"/>
    <path d="M80.94,417.75A41.25,41.25,0,0,1,84.74,430c.17.91-.15,1.33-1,1.49-2,.34-.12-2-4-11.21C79.07,418.83,79.11,418.82,80.94,417.75Z"/>
    <path d="M426.65,483.2a1.8,1.8,0,0,1-1.17-.79c-.23-.41.1-.77.33-1.07,9.12-11.58,8.47-11.09,9.06-10.81a1.18,1.18,0,0,1,.45,1.47c-.12.45.05.29-7.43,10.23C427.57,482.65,427.3,483.2,426.65,483.2Z"/>
    <path d="M392.53,129.35c-.36,2.15-1.91,3.16-3.74,11.9-.09.44,0,1.08-.66,1.07a1.21,1.21,0,0,1-1.26-1.18c-.16-2.12,1.85-7.87,2.56-9.87A2.58,2.58,0,0,1,392.53,129.35Z"/>
    <path d="M405.85,139.57a34.35,34.35,0,0,1,3.93-11.71c.87-1.63.86-1.64,3.42-1.81C410.89,130.74,409,135.5,405.85,139.57Z"/>
    <path d="M269.17,52.16c1.09.92,1.6,1.63,1,2.83a87.78,87.78,0,0,1-4.68,8.57c-.45.73-.85,1-1.69.58s-.81-1-.34-1.74A74.6,74.6,0,0,0,269.17,52.16Z"/>
    <path d="M512.47,252.48a46.93,46.93,0,0,0,.61-11.59c0-.53.16-.94.78-1s1,0,1.12.62a15.15,15.15,0,0,1,.45,2.58,33.11,33.11,0,0,1-.42,7.37C514.78,251.86,514.16,252.47,512.47,252.48Z"/>
    <path d="M193,72.26a1.9,1.9,0,0,1-1.27-.7c-.72-.78.05-.78,5.77-9.56.3-.45.67-.7,1.18-.33s1.13.71.65,1.51q-2.7,4.5-5.81,8.72A2,2,0,0,1,193,72.26Z"/>
    <path d="M83.19,205.31c-5.18-2.12-8.53-6.82-8.11-11.4A113.39,113.39,0,0,1,83.19,205.31Z"/>
    <path d="M172.1,333.88c-1.35,0-2.7,0-4,0-1.09,0-1.58.45-1.54,1.58.06,1.74,0,3.49.05,5.24,0,.64.05,1.3-.86,1.42-1.62.2-1.71-1-1.52-8.11,0-.42.18-.82.64-.88C167.3,332.78,169.8,332.21,172.1,333.88Z"/>
    <path d="M147.69,24.79c1.54.74,2.29,1.35,2.47,2.51A57,57,0,0,1,151,39.67a1.27,1.27,0,0,1-.5,1.14,3.23,3.23,0,0,1-1.18-2.4A37.93,37.93,0,0,0,147.69,24.79Z"/>
    <path d="M105.7,161.87a2.21,2.21,0,0,1,3,1c4.81,7.63,5.92,7.87,4.42,9-.67.5-1,0-1.35-.46-1.5-2.14-3-4.29-4.43-6.48A8.12,8.12,0,0,1,105.7,161.87Z"/>
    <path d="M90.38,531.55a2.95,2.95,0,1,1,3-2.87A3.23,3.23,0,0,1,90.38,531.55Z"/>
    <path d="M138.92,538.68a3.12,3.12,0,0,1-2.86,3,3.26,3.26,0,0,1-3-2.91,3.23,3.23,0,0,1,2.9-3A3.11,3.11,0,0,1,138.92,538.68Z"/>
    <path d="M55.19,248.31c-.17.67-.29,1.3-1.19,1.08s-1.2-.56-.91-1.53c3.08-10.19.66-12.48,2.67-12.37.94,0,.68.9.73,1.49A60.72,60.72,0,0,1,55.19,248.31Z"/>
    <path d="M25.72,293.22c-7,9.52-6.63,9.54-7.68,9.34-2.23-.43-1.14-1.06,4.21-8.31C23.05,293.15,24.31,293.23,25.72,293.22Z"/>
    <path d="M536.47,535.82a3.13,3.13,0,0,1,3,2.87,3.25,3.25,0,0,1-2.91,3C533,541.78,532.58,535.91,536.47,535.82Z"/>
    <path d="M429,529.39a3,3,0,0,1-3,2.78,2.85,2.85,0,0,1-2.7-3C423.33,525.26,429.09,525.76,429,529.39Z"/>
    <path d="M205,557.57a2.92,2.92,0,0,1-2.69,2.82,3.23,3.23,0,0,1-3-3.06,3.12,3.12,0,0,1,3-2.79A2.85,2.85,0,0,1,205,557.57Z"/>
    <path d="M536.39,555.73a2.94,2.94,0,0,1,3,2.72,3,3,0,0,1-2.78,3C533,561.69,532.54,555.9,536.39,555.73Z"/>
    <path d="M453.31,557.2a2.88,2.88,0,0,1,2.68,3,2.82,2.82,0,0,1-3,2.7,2.86,2.86,0,0,1-2.72-3A3,3,0,0,1,453.31,557.2Z"/>
    <path d="M502.49,560a3,3,0,0,1-2.9,2.88,2.85,2.85,0,0,1-2.82-2.89,2.86,2.86,0,0,1,5.72,0Z"/>
    <path d="M518.7,348.5c3.77.42,1.89,1.79,5.14,9.09.26.59.32,1.11-.44,1.3s-1.37.73-1.82-.3A44.1,44.1,0,0,1,518.7,348.5Z"/>
    <path d="M375.75,555a2.89,2.89,0,0,1,2.7-3,3.06,3.06,0,0,1,3,2.78C381.62,558.41,375.89,558.84,375.75,555Z"/>
    <path d="M66.08,532.24a2.87,2.87,0,1,1,.11,5.73,2.87,2.87,0,0,1-.11-5.73Z"/>
    <path d="M353.12,545.59a2.85,2.85,0,0,1,3,2.74,3,3,0,0,1-2.82,3C349.59,551.39,349.23,545.68,353.12,545.59Z"/>
    <path d="M63.3,557.49a2.84,2.84,0,0,1,2.78-3,3.14,3.14,0,0,1,3,2.87,3.24,3.24,0,0,1-2.89,3A2.87,2.87,0,0,1,63.3,557.49Z"/>
    <path d="M293.71,548.14c0,3.76-5.73,3.76-5.73,0a2.87,2.87,0,1,1,5.73,0Z"/>
    <path d="M544.72,548.09a2.83,2.83,0,0,1,2.82-2.88,3,3,0,0,1,2.9,2.89C550.4,551.78,544.72,552,544.72,548.09Z"/>
    <path d="M180.79,526.44a2.93,2.93,0,0,1,2.92,2.83,3,3,0,0,1-2.89,2.89C177.21,532.24,176.9,526.46,180.79,526.44Z"/>
    <path d="M378.45,533.81a3.26,3.26,0,0,1,3,2.86,3.11,3.11,0,0,1-2.82,3C374.78,539.72,374.91,533.89,378.45,533.81Z"/>
    <path d="M305.32,561.29a2.91,2.91,0,0,1-2.73,3,3.26,3.26,0,0,1-3-2.84C299.54,558,305.26,557.24,305.32,561.29Z"/>
    <path d="M262.81,535.82a3.15,3.15,0,0,1,3,2.86,3.27,3.27,0,0,1-2.9,3,2.86,2.86,0,0,1-2.81-2.89A2.75,2.75,0,0,1,262.81,535.82Z"/>
    <path d="M147,550.94a2.87,2.87,0,1,1-.08-5.73C150.61,545.1,150.84,551,147,550.94Z"/>
    <path d="M265.77,558.52a3,3,0,0,1-2.84,2.94,2.82,2.82,0,0,1-2.87-2.82C260,554.62,265.67,555,265.77,558.52Z"/>
    <path d="M149.2,122.79c-2.09,8.59-.73,9.46-2.93,9.55-.75,0-1.24-.13-1.11-1.05a46.44,46.44,0,0,1,2.22-9.24c.18-.52.34-1.15,1.11-.91S149.36,122,149.2,122.79Z"/>
    <path d="M135.85,561.45a2.92,2.92,0,0,1-2.72-3,2.88,2.88,0,0,1,3-2.7,3,3,0,0,1,2.76,3A3.13,3.13,0,0,1,135.85,561.45Z"/>
    <path d="M454.35,537.43a3.25,3.25,0,0,1-3-2.82,2.87,2.87,0,0,1,2.8-2.91C458.22,531.55,457.67,537.31,454.35,537.43Z"/>
    <path d="M317.22,548.2a2.86,2.86,0,0,1-2.94,2.77,2.82,2.82,0,0,1-2.79-2.91,2.92,2.92,0,0,1,2.91-2.82A3,3,0,0,1,317.22,548.2Z"/>
    <path d="M302.62,532.71a2.87,2.87,0,0,1-.11,5.73,2.87,2.87,0,1,1,.11-5.73Z"/>
    <path d="M106.56,528.7a2.84,2.84,0,0,1,2.78-3,3,3,0,0,1,2.91,2.88,3.09,3.09,0,0,1-2.7,2.87A3,3,0,0,1,106.56,528.7Z"/>
    <path d="M217.4,557.36a2.83,2.83,0,0,1,2.95-2.8,2.88,2.88,0,0,1-.15,5.76A2.85,2.85,0,0,1,217.4,557.36Z"/>
    <path d="M271.1,548a2.82,2.82,0,0,1,2.68-2.78,3,3,0,0,1,2.93,2.86C276.75,551.72,271,552,271.1,548Z"/>
    <path d="M211.24,536.13a2.8,2.8,0,0,1-2.88-2.56,3.1,3.1,0,0,1,2.73-3.06C214.74,530.3,215.25,536.1,211.24,536.13Z"/>
    <path d="M46.82,245.27c-.08.54-.14,1.42-1.15,1.1-.73-.23-1.52-.31-1.34-1.53,1.05-7.1.07-8.33,2.08-8.33,1.06,0,1.12.64,1.11,1.41C47.46,241.94,47.75,239.21,46.82,245.27Z"/>
    <path d="M462.52,29.49A35.48,35.48,0,0,1,466,38.61a2,2,0,0,1-1,2.55c-.57-1.58-1.06-3.06-1.65-4.51C460.65,30.07,459.8,30.8,462.52,29.49Z"/>
    <path d="M187.71,66.64c-1.21-.8-1.7-1.5-.87-2.79,4.09-6.31,3.83-7.83,5.16-7.05.69.41,1.1.84.64,1.72A76.39,76.39,0,0,1,187.71,66.64Z"/>
    <path d="M73.82,423a38.61,38.61,0,0,1,1.54,9.45c0,.91-.45,1.29-1.3,1.32-1.81.06-.22-1.92-2-8.37C71.76,424.17,72.3,423.45,73.82,423Z"/>
    <path d="M544.34,168.88c1.55-.17,1.3,1.91,6.57,8.85.39.52.21.88-.25,1.19-.65.44-1,.51-1.72-.54-1.73-2.68-3.49-5.35-5.18-8.06C543.18,169.39,543.46,168.85,544.34,168.88Z"/>
    <path d="M558.23,174c0,.82-.53,1-1,1.28a.88.88,0,0,1-1.4-.29c-4.1-7-4.13-6.73-3.37-7.15,2-1.09,2.32.44,3.51,2.38C558.45,174.22,557.67,172.85,558.23,174Z"/>
    <path d="M98.31,361.25c-2.16,0-3.28-.81-3.94-2.39-2.24-5.35-3.29-5.71-1.67-6.44.67-.29,1-.05,1.3.57A75.32,75.32,0,0,0,98.31,361.25Z"/>
    <path d="M86.46,187.28c3,1.25,5.62,2.82,7.26,5.61a8,8,0,0,1,.77,1.19,1.51,1.51,0,0,1-.63,1.89c-.63.36-.91-.4-1.23-.81Q89.54,191.23,86.46,187.28Z"/>
    <path d="M23.4,166.25c2.68-.88,2.89.71,6,4.65a3.17,3.17,0,0,1,.15,3.95A84.12,84.12,0,0,1,23.4,166.25Z"/>
    <path d="M553,434.58c-1.21-.21-2.18-.07-2.38-1.26a60,60,0,0,0-2.43-8.58c2,.92,3.4,1.83,3.73,3.85S552.54,432.33,553,434.58Z"/>
    <path d="M366.12,71.15c-1.51,8.33-.72,5-3.13,9-.53.9-1.14.59-1.8.22s-.72-.92-.3-1.57c1.68-2.59,3.33-5.19,5-7.79Z"/>
    <path d="M438.33,478.27c.74.73,1,1.38.38,2.18-5.74,7.37-5.63,7.88-6.67,7-.7-.61-.39-1.07.06-1.61C434.18,483.32,436.24,480.81,438.33,478.27Z"/>
    <path d="M458.28,411.7c-1.78,0-3-.45-3.87-1.8-3-4.68-4-4.32-2.36-5.58.42-.32.78-.52,1.18,0A57.9,57.9,0,0,1,458.28,411.7Z"/>
    <path d="M581.75,296.33a56,56,0,0,1-4.38,5.68c-.83,1-2.18.75-3.72,1.41a65.68,65.68,0,0,1,5.72-7.26C580.14,295.25,580.91,295.72,581.75,296.33Z"/>
    <path d="M84.27,102.52c-1-.57-1-1.12-.3-2,4.65-6.14,4.86-6.44,5.31-6.76s1.68.32,1.17,1C84,103.5,85,102.18,84.27,102.52Z"/>
    <path d="M462.41,304,456,312.54a.78.78,0,0,1-1.23.19.67.67,0,0,1-.17-1c2-3,3.95-6,7.22-7.85C461.88,303.79,462.07,303.89,462.41,304Z"/>
    <path d="M474.58,446.89a3.55,3.55,0,0,1,1.15,4.67c-1.4,3.09-1.28,4.62-2.51,4-1.52-.72-.77-1.38-.21-3.27S474,448.84,474.58,446.89Z"/>
    <path d="M83.86,91.5c-.28.51.43-.38-3.79,5.09-.36.46-.75.88-1.37.33s-1.1-1-.45-1.8c3.66-4.71,3.43-5.45,5-4.6C83.57,90.72,84,90.88,83.86,91.5Z"/>
    <path d="M438.77,492.3a1.32,1.32,0,0,1-1-2c.9-1.21,1.87-2.38,2.82-3.55.33-.41.59-1.17,1.23-.85s1.15,1.25.86,1.82a21.53,21.53,0,0,1-3.47,4.51C439.13,492.29,438.92,492.27,438.77,492.3Z"/>
    <path d="M103,192.94c-2.46-.7-4.73-1.41-6-3.68a1.38,1.38,0,0,1,.26-2c.52-.49,1-.51,1.39.06Q100.83,190.1,103,192.94Z"/>
    <path d="M14.24,166.55c-2.2-2.61-3.44-5.24-5.06-7.82.89-.49,1.69-.61,2.2.1C12.94,161,14.67,163.13,14.24,166.55Z"/>
    <path d="M65.39,428.84a20,20,0,0,1,.86,5.54A1.48,1.48,0,0,1,64.93,436c-1.71.41-.81-1.13-1.44-5C63.29,429.73,64.45,429.57,65.39,428.84Z"/>
    <path d="M522.27,248.79c0-2.52,0-5,0-7.53a.81.81,0,0,1,.86-.89.87.87,0,0,1,1,1c0,2.06,0,4.12,0,6.17C524.1,248.54,523.37,248.78,522.27,248.79Z"/>
    <path d="M463.17,278.66c-.92,0-1.57-1-1.13-1.66.87-1.33,1.83-2.6,2.76-3.89a1.29,1.29,0,0,1,1.5-.45c.51.14,1,.46.62,1-1,1.6-2.13,3.16-3.24,4.72C463.57,278.56,463.29,278.6,463.17,278.66Z"/>
    <path d="M374,27.8c-1.32-2-2.43-3.6-3.5-5.27-.52-.82-.48-.85.71-2.48C372.62,22.4,375.3,24,374,27.8Z"/>
    <path d="M471.83,29.68c0,.91-.24,1.5-.75,1.71-.82.35-.7-.32-3.16-4.36-.47-.77-.67-1.45.3-2s1.11.25,1.42.77C470.44,27.18,471.19,28.55,471.83,29.68Z"/>
    <path d="M115.11,162.07c2.92-.9,3,.69,4.82,3.26.53.73.18,1.14-.43,1.54s-1,.38-1.41-.21Z"/>
    <path d="M141.82,170.25c-2.86-.84-3.44-2.34-6.28-6.56-.63-.94.64-1.78,1.71-.2C138.72,165.64,140.17,167.81,141.82,170.25Z"/>
    <path d="M396.87,121.55c-.92-2.85-.33-2.8,2.34-6.58.29-.41.61-.76,1.14-.38a1,1,0,0,1,.38,1.25,1.33,1.33,0,0,1-.09.21Z"/>
    <path d="M8.51,300.28c1.23-2.28,2.49-4.23,5.55-4.07a20.29,20.29,0,0,1-3,4.14C10.43,301.15,9.55,300.86,8.51,300.28Z"/>
    <path d="M560.66,166.81c2.32-.6,2.32-.6,3.27,1.19s1.6,2.55.36,3.28c-.57.35-1,.34-1.39-.29A28.36,28.36,0,0,1,560.66,166.81Z"/>
    <path d="M35.48,240.77c.13-2.43-.19-3.28,1.57-3.22a.79.79,0,0,1,.82.93c0,1.27-.07,2.54-.19,3.81,0,.59-.38,1.09-1.12.86-.57-.19-1.31-.28-1.24-1.17A12.17,12.17,0,0,1,35.48,240.77Z"/>
    <path d="M102.55,266.69c-.68-.23-1.47-.25-1.85-.92-.29-.5.28-.83.5-1.22a10.57,10.57,0,0,1,.92-1.37c.35-.45.47-1.31,1.36-.92a1.71,1.71,0,0,1,.86,2.35C103.86,265.37,103.59,266.38,102.55,266.69Z"/>
    <path d="M110.17,364.57c-3,.11-4.06-1.62-5-3.75,1.23-.71,2.16-.58,2.9.55S109.38,363.36,110.17,364.57Z"/>
    <path d="M77.15,88.18a21.9,21.9,0,0,1-2.21,3c-.35.44-.72.91-1.33.3-.46-.47-.92-.93-.4-1.63,2.11-2.81,2.11-3.07,3.17-2.55C76.73,87.49,77.09,87.67,77.15,88.18Z"/>
    <path d="M96.82,259.85c-.29,1.33-1.24,2.23-1.89,3.29a.9.9,0,0,1-1.42.3c-.86-.58-.08-1.25,1-3.08C95,259.37,95.84,259.49,96.82,259.85Z"/>
    <path d="M152.12,160.81c-2.38-4.15-2.77-4.5-1.88-4.79.71-.23,1.61-.36,1.91.77A6.5,6.5,0,0,1,152.12,160.81Z"/>
    <path d="M389.05,82.39a37.27,37.27,0,0,1-3.28,4.7c-1.45-1.58-1.49-1.63-.15-2.54A12.11,12.11,0,0,1,389.05,82.39Z"/>
    <path d="M135.24,15.73c3,1.45,3.19,4.09,4,6.34A24.76,24.76,0,0,1,135.24,15.73Z"/>
    <path d="M475.57,23.78c-.78-.52-1-1.24-1.46-1.79a.84.84,0,0,1,.22-1.4c.57-.39,1.07-.65,1.65,0C476.84,21.64,476.82,22.1,475.57,23.78Z"/>
    <path d="M529.52,353.45a2.47,2.47,0,0,1,2.55,2c.22.71-.08,1-.7,1.24C530,357.16,530,355.71,529.52,353.45Z"/>
    <path d="M532.87,244.94c-.71,0-.53-.64-.59-1.07-.32-2-.65-3.06.35-3.19a.9.9,0,0,1,1.11.94C533.86,243.47,534,244.92,532.87,244.94Z"/>
    <path d="M274.74,85.75c.49-1.42,1.43-2.11,2-3,.24-.37.62-.88,1.12-.41s.85,1.26.09,1.85A10.36,10.36,0,0,1,274.74,85.75Z"/>
    <path d="M590.25,297.85c-.73,1.9-2.24,2-3.72,2.21C587.44,297.7,588,297.37,590.25,297.85Z"/>
    <path d="M92.16,232.62c0-1.14.48-1.56,1.58-1.55s.82.77.83,1.34A1.51,1.51,0,0,1,93,234C92,233.94,92.26,233.13,92.16,232.62Z"/>
    <path d="M560.45,433.53a2.37,2.37,0,0,1,1.87,1.91c.08.54.21,1.23-.57,1.33a1.12,1.12,0,0,1-1.3-.82A3.53,3.53,0,0,1,560.45,433.53Z"/>
    <path d="M445.1,493c.86,1.69.77,2.34-.29,3.13a.87.87,0,0,1-1.26-.12c-.41-.36-.64-.77-.23-1.22S444.1,493.4,445.1,493Z"/>
    <path d="M199.64,73l3.23-4.64C202.28,71.44,201.59,72.38,199.64,73Z"/>
    <path d="M148.76,323.42c.14,1.9-1,2.83-2.62,3.56-.49-2.31,1.12-2.89,2.65-3.54Z"/>
    <path d="M463.89,340.7a3.24,3.24,0,0,1,.16,1.63c0,.46.08,1-.57,1.12-1.64.18-2.23-1.26-1.26-2C462.72,341.09,463.16,340.57,463.89,340.7Z"/>
    <path d="M481.13,457c.64.48,1.22,1,1.09,1.75-.09.55-.22,1.4-1.1,1.19-.69-.16-1.39-.54-1-1.49A2.34,2.34,0,0,1,481.13,457Z"/>
    <path d="M101.23,352.82A6.79,6.79,0,0,1,100,349.9c-.29-.87.42-1.24,1-1.24s.53.69.44,1.13A21.84,21.84,0,0,0,101.23,352.82Z"/>
    <path d="M68.69,83.68c.51.25,1.36.26,1.26,1.1a1.57,1.57,0,0,1-1.19,1.33c-.47.12-1.38-1-1.31-1.45A1.52,1.52,0,0,1,68.69,83.68Z"/>
    <path d="M186.54,353.8c2.08,1.06,2.47,2.43,2.16,4.58A10.58,10.58,0,0,1,186.54,353.8Z"/>
    <path d="M85,233.86a.93.93,0,0,1-1,1.07c-1.08.06-1-.71-1-1.42s.14-1.24,1-1.27C85,232.19,85,233,85,233.86Z"/>
    <path d="M56.28,435.63c.34.42.21.91.23,1.37.06,1.7-2.47,1.83-1.62-.35A1.33,1.33,0,0,1,56.28,435.63Z"/>
    <path d="M572.15,166.37a1.25,1.25,0,0,1-1.29,1.1c-.82-.11-1-1-1-1.64s.66-.74,1.18-.72C571.8,165.13,572,165.69,572.15,166.37Z"/>
    <path d="M173.2,338.17a7.9,7.9,0,0,1-.14-3.4C174.51,335.58,174.54,336.06,173.2,338.17Z"/>
    <path d="M376.09,16.5c-.77-.53-1.32-.95-1.09-1.66.18-.56.54-1.32,1.22-1.19S376.68,14.4,376.09,16.5Z"/>
    <path d="M86.59,357.76a1.81,1.81,0,0,1-1.68-.12c-.49-.19-1.2-.36-.78-1.08C84.72,355.55,86.25,355.92,86.59,357.76Z"/>
    <path d="M155.19,127.94a6.81,6.81,0,0,1,1-3.46A2.94,2.94,0,0,1,155.19,127.94Z"/>
    <path d="M2.85,159.89A10.05,10.05,0,0,1,0,158.39C2,158.24,2,158.24,2.85,159.89Z"/>
    <path d="M130.89,383.86a.86.86,0,0,1-.84-.43c-.29-.37-.6-.77-.2-1.24.14-.17.4-.37.57-.34.67.1.47.69.52,1.12A5.32,5.32,0,0,1,130.89,383.86Z"/>
    <path d="M27.43,238.57a.62.62,0,0,1,.73.65c0,1-1.65.68-1.65,0C26.5,238.74,26.94,238.59,27.43,238.57Z"/>
    <path d="M15.18,166.6c1.13-.4,1.68.14,2.06,1.09-.57.53-.92,0-1.28-.16A1.11,1.11,0,0,1,15.18,166.6Z"/>
    <path d="M87.43,260.53c-.76.66-1.38.51-2.11-.3C86.21,259.84,86.81,260.4,87.43,260.53Z"/>
    <path d="M110.17,344.59a1.48,1.48,0,0,1-1.67,1.27C108.58,344.63,109.46,344.72,110.17,344.59Z"/>
    <path d="M541.23,241.34a.46.46,0,0,1,.53-.34,1.41,1.41,0,0,1,.6.18C542.27,241.82,541.17,241.9,541.23,241.34Z"/>
    <path d="M148.79,323.44l.11-.41c.21.22-.11.25-.14.39Z"/>
    <polygon points="247.16 387.74 247.24 387.8 247.17 387.73 247.16 387.74"/>
    <path d="M299.79,129.72l-.5-.51.39-.36.44.41Z"/>
    <path d="M214.06,150.63c0-.06.09-.17.1-.17s.09.1-.13.14Z"/>
    <polygon points="455.97 56.52 455.91 56.59 455.99 56.54 455.97 56.52"/>
    <path d="M160.06,223c.46,0,.66.31.88.6.49.66-.32,1.13-.64.43C160.15,223.67,159.75,223.4,160.06,223Z"/>
    <path d="M47.74,159.9a2.74,2.74,0,0,1,3.51,1.35c2.1,3.37,4.41,6.6,6.8,10.12-1.93-.23-3.38-.64-4.43-2.19C50.71,164.92,47.48,160.9,47.74,159.9Z"/>
    <path d="M67,171.1c-1.12.78-2,.83-2.76-.26-2.22-3.12-4.38-6.28-6.31-9.59-.2-.35-.46-.73-.13-1.09a1.33,1.33,0,0,1,1.14-.22C60.4,160.1,59.56,160.68,67,171.1Z"/>
    <path d="M67.19,160.53c1.28-.43,2.08-.29,2.71.72,3.77,6.06,4.7,6.24,3.42,7.24-.58.45-1,.27-1.38-.3A69,69,0,0,1,67.19,160.53Z"/>
    <path d="M78.06,162.79c-.53-.62-1.07-1.1-1-1.91.7-.25,1.51-.48,1.93.2S78.72,162.22,78.06,162.79Z"/>
    <path d="M128.61,340.86c.7,4.13.87,8.3,2.67,12.08s4.24,6.88,6.39,10.35c-2.55.83-2.83.76-4-1.14a54.68,54.68,0,0,1-6.9-17.71C126.39,342.49,126.52,342.27,128.61,340.86Z"/>
    <path d="M136.45,338.81c.72,0,1.21.18,1.32,1,1.41,11.81,5.45,16.74,6.43,19.15.26.63-.29,1.87-.87,2-.74.13-.9-.55-1.15-1-3.42-6.21-6-12.71-6.59-19.86C135.51,339.07,135.66,338.84,136.45,338.81Z"/>
    <path d="M412.65,113.45c-1.33-1-1.46-1.79-.54-3,11.4-14.36,10.83-14.49,11.68-14.31a1.84,1.84,0,0,1,1.21.72c.34.52.86-.29-9.21,12.56A33.81,33.81,0,0,1,412.65,113.45Z"/>
    <path d="M417.22,115.94c3.71-5.27,7.58-10.18,11.5-15.07.39.37.36.62.23.82C420.53,114.88,420.4,117.87,417.22,115.94Z"/>
    <path d="M409.91,104.07c.14-3.38,3-6.84,6.75-7.77a88.85,88.85,0,0,1-6.77,7.74Z"/>
    <path d="M409.89,104l-.1.14.12-.11Z"/>
  </g>
</svg>
