<svg xmlns="http://www.w3.org/2000/svg" id="Layer_1" data-name="Layer 1" viewBox="0 0 486.63 209.42">
  <title>
    logo-ingrid
  </title>
  <polygon fill="#fdb71c" points="47.11 131.35 54.98 131.35 54.98 77.3 47.11 77.3 47.11 65 76.58 65 76.58 77.3 68.71 77.3 68.71 131.35 76.58 131.35 76.58 143.64 47.11 143.64 47.11 131.35"/>
  <path fill="#fdb71c" d="M84.55,131.35c3-.37,7.2,1.19,7.2-2.44V65h13.07l29.79,43.53c3.1,4.54,6.54,11.08,6.54,11.08h.22s-.78-6.54-.78-11.08v-36c0-5.21,2.22-7.54,7.54-7.54H162.3V77.3c-3,.37-7.2-1.19-7.2,2.43v63.91H142.15l-29.91-43.41a119.39,119.39,0,0,1-6.53-11.08h-.23s.78,6.54.78,11.08v35.88c0,5.32-2.21,7.53-7.53,7.53H84.55Z"/>
  <path fill="#fdb71c" d="M22.71,143.65l0-.06H34V131.32h-16C0,72.94,43.87,13.85,104.78,13.85a90.74,90.74,0,0,1,71.54,34.94h16.92A104.72,104.72,0,0,0,104.78,0C30.74,0-19.89,75.1,7.57,143.54v.05h0a.14.14,0,0,1,0,.06Z"/>
  <path fill="#fdb71c" d="M201.63,65H186.47l0,0H175.18V77.28h16.19c18.64,58.6-25.43,118.29-86.59,118.29a90.76,90.76,0,0,1-72.16-35.73H15.82A104.67,104.67,0,0,0,201.63,65"/>
  <polygon fill="#505fab" points="250.88 86.64 256.41 86.64 256.41 48.62 250.88 48.62 250.88 39.98 271.6 39.98 271.6 48.62 266.07 48.62 266.07 86.64 271.6 86.64 271.6 95.28 250.88 95.28 250.88 86.64"/>
  <path fill="#505fab" d="M277.83,86.64c2.13-.27,5.06.84,5.06-1.72V40h9.2l21,30.62c2.18,3.19,4.6,7.79,4.6,7.79h.15s-.54-4.6-.54-7.79V45.27c0-7.91,7.32-4.44,15.27-5.3v8.65c-2.15.27-5.07-.83-5.07,1.71v45h-9.11l-21-30.55a81.23,81.23,0,0,1-4.6-7.78h-.16s.55,4.59.55,7.78V90c0,7.88-7,4.45-15.27,5.3Z"/>
  <path fill="#505fab" d="M364.1,74.19c0-9-4.49-11.35-9.82-11.35-5.94,0-9.18,4.33-9.18,11,0,6.87,3.47,12,9.8,12,4.71,0,9.2-2.7,9.2-11.59M352.59,54.5c9.11,0,12.13,5.56,12.13,5.56h.15c.06-.2-.71-4.63,4.32-4.63h9.12v8.34c-1.77.2-4.72-.72-4.72,1.55v27.1c0,19.13-21.65,22.16-34.75,15.22l3-7.73a25.42,25.42,0,0,0,10.89,2.63c13.9,0,10.57-12,11.2-13.59h-.15c-2.32,3.32-5.72,5.09-11,5.09-23.4,0-23.87-39.54-.23-39.54"/>
  <path fill="#505fab" d="M388.71,65.47c0-2.5-2.6-1.45-4.79-1.7V55.43c6.62.68,14.21-2.23,14.21,4.79v2.31A18.4,18.4,0,0,1,398,65h.15c1.78-5.63,6.49-10.11,12.51-10.11a13,13,0,0,1,1.78.15v9.65c-.1,0-14-2.71-14,14.53v15.6h-9.73Z"/>
  <path fill="#505fab" d="M423.29,40h8.49v9h-8.49Zm-.47,25.49c0-2.5-2.59-1.45-4.78-1.7V55.43c7.42.83,14.52-2.53,14.52,5.25V84.85c0,2.52,2.83,1.45,4.78,1.7v8.27c-7.68-.82-14.52,2.5-14.52-5.26Z"/>
  <path fill="#505fab" d="M470.56,75c0-16.22-19.62-16.22-19.62.08,0,16.66,19.62,16.56,19.62-.08M458.89,54.5c8.58,0,11.36,4.79,11.36,4.79h.15c-.12-13.67.78-10.33-4.87-11V40c7.35.82,14.6-2.51,14.6,5.25V84.86c0,2.5,2.87,1.45,4.71,1.69v8.27h-9c-6.06,0-4.73-4.92-4.87-5.49h-.16s-3.24,6.42-12.27,6.42c-23.53,0-23.64-41.25.38-41.25"/>
  <path fill="#505fab" d="M263.19,165.74h7.11c12.12,0,20.08-7.26,20.08-20.7s-8-20.54-20.08-20.54h-8.81V164a1.55,1.55,0,0,0,1.7,1.7m-9.42-41.24h-5v-6.64h22.09c16.6,0,27.57,10,27.57,27.18s-11,27.34-27.57,27.34H258.71c-3.47,0-4.94-1.47-4.94-4.94Z"/>
  <path fill="#505fab" d="M331.11,148.29c-.49-13.81-18.4-12.9-20.7,0ZM322,132.38c11,0,16.84,8.18,16.84,18.3,0,1-.24,3.09-.24,3.09H310.1c.47,8.34,6.49,13,13.44,13A18,18,0,0,0,335,162.27l3.25,5.33a22.91,22.91,0,0,1-15.07,5.71c-27.7,0-27.31-40.93-1.15-40.93"/>
  <path fill="#505fab" d="M346.67,161.41s4.64,5.8,11.82,5.8c3.63,0,6.8-1.62,6.8-5,0-7-21.32-6.26-21.32-18.85,0-14.85,27.34-13.38,27.34-3.4v3.71h-6.72v-1.93c0-4.4-13.13-4.92-13.13,1.31,0,7.42,21.32,5.8,21.32,18.85,0,7-6.18,11.43-14.37,11.43a20.09,20.09,0,0,1-15.6-6.87Z"/>
  <path fill="#505fab" d="M382,117.86h6.72v7.8H382Zm-.15,23.55c0-2.5-2.62-1.45-4.87-1.69V133.3c5.77.69,12.28-2.23,12.28,4.94v26c0,2.5,2.62,1.44,4.87,1.69v6.41c-5.77-.69-12.28,2.25-12.28-4.94Z"/>
  <path fill="#505fab" d="M425.67,152c0-10.19-5-13.13-11.05-13.13-6.79,0-10.65,4.94-10.65,12.9,0,8.11,4.25,13.67,11.27,13.67,5.41,0,10.43-3.24,10.43-13.44m-12.2-19.61c9.73,0,12.51,6.1,12.51,6.1h.15c.13-.55-.95-5.18,4.33-5.18h7.26v6.41c-1.92.22-4.79-.72-4.79,1.55v29.5c0,17.51-19,21.62-33.06,14.6l2.55-6A24.6,24.6,0,0,0,413.08,182c6.79,0,12.36-3,12.36-10.89v-2.63a23.6,23.6,0,0,1,.15-2.47h-.15c-6.7,10.93-29.12,7.46-29.12-14.06,0-11.2,6.26-19.53,17.15-19.53"/>
  <path fill="#505fab" d="M446.39,141.41c0-2.5-2.62-1.45-4.87-1.69V133.3c4.69.57,12.13-1.94,12.13,4.33v1.47a17,17,0,0,1-.15,2.24h.15a15.91,15.91,0,0,1,14.68-9c9.26,0,13.44,5,13.44,15v16.92c0,2.5,2.61,1.44,4.86,1.69v6.41c-5.88-.7-12.36,2.25-12.36-4.94-.68-17.81,2.85-28.19-7.34-28.19-7,0-13.05,5.29-13.05,14.83v18.3h-7.49Z"/>
</svg>
