<svg xmlns="http://www.w3.org/2000/svg" id="Layer_1" data-name="Layer 1" viewBox="0 0 360 294.29">
  <title>
    logo-mohawk
  </title>
  <g>
    <path fill="#888888" d="M102.75,266.23A10.29,10.29,0,0,0,94.59,270c-3.54-4.52-10.9-5.4-14.91-.52v-2.6h-6.6v26.77H80V278c0-6.72,10.13-7.5,10.13,0v15.64H97V278c0-6.79,10.18-7.46,10.18,0v15.64h6.86V278C114.08,271,109.92,266.23,102.75,266.23Z"/>
    <path fill="#888888" d="M133.31,266.23c-7.43,0-13.46,6.08-13.46,14.08s6,14,13.46,14a13.59,13.59,0,0,0,13.51-14C146.82,272.31,140.74,266.23,133.31,266.23Zm-6.6,14.14c0-10.44,13.2-10.44,13.2,0C139.91,290.52,126.71,290.53,126.71,280.37Z"/>
    <path fill="#888888" d="M159.45,268.31V255h-6.91v38.67h6.91V278c0-6.58,10.19-7.14,10.19,0v15.64h6.86V278C176.5,266.77,165.65,263.61,159.45,268.31Z"/>
    <path fill="#888888" d="M203.73,269.76c-7-7.4-20.94-2.35-20.94,10.55s13.86,17.93,20.94,10.5v2.86h6.55V266.9h-6.55Zm-7.17,18.14c-3.8,0-6.86-3.27-6.86-7.54s3.06-7.69,6.86-7.69,6.86,3.43,6.86,7.69S200.35,287.9,196.56,287.9Z"/>
    <polygon fill="#888888" points="247.85 293.67 240.78 293.67 235.95 275.95 231.12 293.67 224 293.67 215.68 266.9 222.96 266.9 227.64 285.61 232.52 266.9 239.38 266.9 244.27 285.61 248.94 266.9 256.22 266.9 247.85 293.67"/>
    <polygon fill="#888888" points="268.12 285.98 268.12 293.67 261.26 293.67 261.26 255 268.12 255 268.12 276.62 276.9 266.9 286.36 266.9 276.39 277.35 286.94 293.67 278.2 293.67 271.55 282.39 268.12 285.98"/>
  </g>
  <g>
    <path fill="#e2e41a" d="M75.93,52.35h0a36,36,0,0,1-.38-31.95L3.92,163.66h0c13.22-25.91,50.16-26.28,63.86-.58a36,36,0,0,1,.65,32.55L108,116.5,75.93,52.35Z"/>
    <path fill="#71caef" d="M219.93,52.35h0A36.13,36.13,0,0,1,216,35.73h0a35.83,35.83,0,0,1,3.55-15.33L180,99.5h0l32.08,64.16h0a36,36,0,0,1,.35,32L252,116.5,219.93,52.35Z"/>
    <path fill="#f7b5cb" d="M144,179.73h0a35.87,35.87,0,0,1,3.92-16.07h0L180,99.5h0L140.08,19.66h0a36,36,0,0,1,0,32.69h0L108,116.5h0l39.42,78.84A36.24,36.24,0,0,1,144,179.73Z"/>
    <path fill="#c9e9e6" d="M333.89,145.37a36.13,36.13,0,0,1,22.19,18.29h0l-72-144h0a36,36,0,0,1,0,32.69h0L252,116.5l39.57,79.13C278.28,168.1,303.7,136.75,333.89,145.37Z"/>
    <path fill="#faa83d" d="M140.07,52.35A36.1,36.1,0,0,1,107.73,72h0a36,36,0,0,1-31.8-19.65h0L108,116.5l32.07-64.15Z"/>
    <path fill="#e86fa6" d="M180,99.5l-32.08,64.16h0c13.43-26.31,50.89-26,64.16,0h0Z"/>
    <path fill="#5087c7" d="M284.07,52.35c-13.34,26.12-50.74,26.22-64.14,0h0L252,116.5l32.07-64.15Z"/>
    <path fill="#77c044" d="M72,180a36,36,0,1,1-36-36A36,36,0,0,1,72,180Z"/>
    <path fill="#8e5ba6" d="M216,180a36,36,0,1,1-36-36A36,36,0,0,1,216,180Z"/>
    <path fill="#08539f" d="M288,36A36,36,0,1,1,252,0,36,36,0,0,1,288,36Z"/>
    <path fill="#f47b23" d="M144,36A36,36,0,1,1,108,0,36,36,0,0,1,144,36Z"/>
    <path fill="#6bc8c6" d="M360,180a36,36,0,1,1-36-36A36,36,0,0,1,360,180Z"/>
  </g>
</svg>
